<svg xmlns="http://www.w3.org/2000/svg" viewBox="0 0 595.28 528.87"><path d="M204.18 253.66a11.74 11.74 0 00-3.47-1.74 5.24 5.24 0 00-3.31.64c-1.7 1.05-3 .65-3.71-.89-.75-1.71-1.26-1.25-2.14-.28-1.39 1.52-2.9 2.31-4.81.75a1.23 1.23 0 00-1.09-.09c-1.92 1-3.64.39-5.41-.44a2.48 2.48 0 00-1.57.13c-.38.12-.65.52-1 .76-5.22 3.48-8.53-1.11-8.71-5.1a32.32 32.32 0 010-4.29c.14-1.53-1.1-1.5-1.63-1.14a64.33 64.33 0 00-6 4.66 2.29 2.29 0 00-.3 1.81c1.06 5.29 2.18 10.56 3.27 15.83a3 3 0 010 1c-.33 2.29.68 3.52 2.58 4.91 2.61 1.91 3.79 5.13 4.65 8.24a19.92 19.92 0 01.66 5.33 4.94 4.94 0 01-2.33 4.61c-.46.28-.53 1.16-1 1.53a6 6 0 01-2.62 1.59 94 94 0 01-9.63.69c-2.64 0-6-2.54-6.13-5.14-.22-4-.79-8.14 1.87-11.75.76-1 1.81-2.34 1.67-3.38-.1-.75-1.93-1.28-3-1.89-1.88-1.06-2.49-2.64-2.69-4.81-.36-4 1.47-7.08 3.29-10.25.3-.51 1.07-.81.14-1.42-2.09-1.37-1.76-3.66-1.21-5.33 1.1-3.34 2.55-6.62 5.47-9 1-.78 1.52-.69 2.08.19a19.18 19.18 0 011.54 3c.74 1.79 1.48 1.94 3.09.81a38.12 38.12 0 014.78-2.81c1.8-.89 2.62-.4 2.73 1.5.12 2.13-.15 4.24.61 6.36.66 1.83 1.75 3.48 3.09 3.6s4.22-1.61 4.75-2.86c.12-.29-.07-.75-.18-1.11-.93-3.12-.18-6.05 1-8.89.32-.74 1-1.46 1.83-.19 1 1.51 2.07 2.69.92 4.83-.66 1.23-.21 3-1.21 4.47-.3.43.29 1.75.8 2.39a2.85 2.85 0 002 .6c.57 0 1.16-.55 1.73-.52 1.09.05 1.18-.43 1.23-1.35a52.61 52.61 0 01.67-6 5.28 5.28 0 011.18-2.14c.88-1.13 2.12-.85 3.15-.34s1.32 2 2.83 1.44c.18.53.6 1.12.5 1.59-.23 1.09-.91 2.1-1 3.18s-.42 2.57.89 3.6c.78.61 1.38.89 2.29.41 1.09-.58.05-1.18.1-1.75s.35-1.27.5-1.26c2.17.16 2.41-1.82 3.35-3 1.24-1.52 2.34-2.93 4.65-3.11 2.54-.21 3.32 1.73 4.67 3a3.26 3.26 0 01.47.91c.3-.32.85-.64.85-1 0-1.25 0-2.42 1.26-3.12a7.28 7.28 0 011.13-.42 2.94 2.94 0 01.28.87v5.95a2.39 2.39 0 01-.17.92c-.8 1.9-.7 2.21 1.16 2.81 1.57.5 3.15 1.43 4.77 0 .11-.09.68.1.8.31a1 1 0 01-.16.85c-.26.33-.66.78-1 .77-2.41-.1-5 .67-7.09-1.26-.35-.32-1.38-.56-1.52-.38-1.73 2.2-4 2.07-6.4 1.68a2.75 2.75 0 01-.82-.17m-34.24 32.58a9.82 9.82 0 00.48-5.61 15.86 15.86 0 00-4.77-9.3c-1.21-1.13-2.35-1.53-3.62-.31-1.08 1-2.36 1.16-3.73 1.42a5.43 5.43 0 00-3.43 1.88c-1.64 2.71-3.23 5.49-3.17 8.92.08 4.61 2.06 7.72 7.36 7 .41-.06.81-.17 1.21-.26-.26-.31-.47-.76-.8-.9a9.66 9.66 0 00-2.64-.79c-1.2-.1-1.67-.6-1.8-1.79a9.47 9.47 0 013.86-8.94 2.55 2.55 0 012.2-.06 2.36 2.36 0 011.24 2.75c-.07.41-.12.83-.18 1.24a8.2 8.2 0 01-1.13-.89 2.23 2.23 0 01-.27-.87c-.14.12-.38.22-.39.35-.24 2.21-.53 4.43-.63 6.66 0 .49.68 1.47 1 1.45 3-.23 6.34 1.15 9.23-1.92m-7.61-22.16c.19-3.51-1.22-6.77-1.61-10.2a31.72 31.72 0 00-.7-4c-.22-.92-.62-1.83-1.61-.44a9.71 9.71 0 01-1.93 2.36c-3.67 2.64-6.75 8.37-6.72 12.75a5.73 5.73 0 008.24 5.17c1-.46 2-1 3.06-1.34 2.37-.87 2.43-1 1.27-4.31m47-17.2c-.41-1.95-1.19-3.19-3.6-3-2.57.16-3.24 2.16-4.28 3.77-.5.78-1 1.71.88 2.41s3.83.36 5.72.45 2.21-.8 1.28-3.58m-50.94-2a12.8 12.8 0 00-.48-2.42c-.6-1.47-1.73-1.78-2.4-.59-1.52 2.74-3.15 5.46-3.72 8.61-.07.39 0 1.08.21 1.17.44.19 1.26.29 1.49 0 1.76-1.94 4.28-3.3 4.9-6.81m34.07 1.66c.95-1.54-.29-2.52-1-3.58-.14-.21-1-.24-1.29 0-1.49.95-2.8 6.48-1.92 8 .12.19.76.34.83.25 1.06-1.39 3.28-2 3.38-4.6m-12.9-1a3.55 3.55 0 00.53 1c.08.08.72-.15.76-.32a23.85 23.85 0 00.66-3.63c0-.64-.22-1.84-.48-1.88-1.36-.2-.63 1-.8 1.56a23.26 23.26 0 00-.67 3.31m-22.85 37.36c-.11.94-.25 1.87-.29 2.82 0 .15.43.45.65.45a.83.83 0 00.61-.52q.41-2 .66-4c0-.21-.24-.45-.37-.68a2 2 0 00-.46.47 9 9 0 01-.8 1.45M212 248.2c.17.11.38.35.5.31 1.55-.45.55-1.72.8-2.6 0-.15-.26-.39-.41-.59-.14.59-.26 1.18-.45 1.76a2.84 2.84 0 00-.44 1.12zM374.55 365.15c2 1.05 3.3.32 4.73-1a22.31 22.31 0 004.75-7.32 9.64 9.64 0 012.57-3.06c1-.85 1.81-.4 2 .87s.42 2.47.67 3.69c0 .21.28.39.43.58a5.71 5.71 0 00.21-.58v-.32c.41-.55.84-1.09 1.27-1.63.45.62 1.25 1.21 1.3 1.86a23.23 23.23 0 01-.31 4.14 9.27 9.27 0 00-.23 1.86c0 .26.78.71 1 .61a20.06 20.06 0 003.83-1.89 4 4 0 001.73-3.54v-4a3.48 3.48 0 01.43-1.06c.37.19.89.28 1.07.58a11.19 11.19 0 011.81 6.53c-.1 1.68-.33 3.49 1.05 4.83.32.31 1.35.47 1.52.26 1.63-1.93 3.58-3.77 4.58-6 1.48-3.34 3.07-6.74 3.43-10.49 0-.34.34-.65.52-1 .26.36.76.72.75 1.07-.07 2.79 1 5.26 2 7.79a8.78 8.78 0 01.64 3c0 1.38 0 2.18 1.86 2.08 3.08-.17 3.42-.13 3.44-2.13a9.79 9.79 0 011.37-5.07c1.49-2.49 3.36-4.39 6.62-4.13 1.42.11 2.86 0 4.3 0 2.34.06 4.82.48 5.86-2.53.1-.28.6-.41.91-.61a4.3 4.3 0 01.15.92 3.49 3.49 0 01-.32 1.51c-.95 1.48.07 1.34 1 1.38a28.75 28.75 0 013.21.27c.26 0 .47.44.7.67a3 3 0 01-.75.36 32.48 32.48 0 01-4.36.63c-1.08 0-1.61.15-1.49 1.42a28.05 28.05 0 010 4.3 2.71 2.71 0 002 2.9c1.41.54 2.32-.45 3-1.42 1.26-1.76 2.27-3.71 3.57-5.45a13 13 0 013.24-3.21c2.22-1.41 3.42-1 4.29 1.48a7.85 7.85 0 01-.16 6.21 7.65 7.65 0 01-7.32 3.72c-.26 0-.63-.27-.67-.47s.11-.74.31-.81a8 8 0 012.36-.66 5.11 5.11 0 003.9-7.52c-.77-1.29-1.24-1.3-2.46-.32-2.8 2.25-4.19 5.52-6.1 8.4A4.25 4.25 0 01441 365c-1.72 0-2.28-1.12-2.93-2.44a9.66 9.66 0 01-.74-7.62c.11-.33-.12-1.1-.32-1.15-1.32-.31-2.67-.51-4-.7-1.11-.17-1.36-.12-.79 1.21 1.34 3.15 1.27 7.83-1.51 10a7.37 7.37 0 01-6.4 1.2 41.75 41.75 0 00-7-.57c-2.09-.07-2.5-.85-2.23-3.13s-1.17-3.89-1.94-5.79a3 3 0 00-.69.7c-1.34 2.54-2.59 5.11-4 7.62a11.28 11.28 0 01-2.17 3 4.47 4.47 0 01-2.91 1.3c-1.74-.17-2.56-1.7-2.8-3.31a37.48 37.48 0 01-.06-4 3.47 3.47 0 00-.38-1 5 5 0 01-.27.88c-1.14 2.25-2.81 4.14-5.28 4.57a62.48 62.48 0 00-8.32 2.31c-2.55.83-3.14.21-4.23-2.53-.39-1-.84-.82-1.37-.3-1.22 1.21-2.42 2.34-4.35 2.3-2.23 0-3.95-1.25-4.21-3.44a15.79 15.79 0 012.18-10.33c1-1.65 1.66-1.66 3.21-.35.34.27.63.8 1 .82.92.06 2-.07 1.53 1.31a25.17 25.17 0 01-1.62 3.44c-.56-.38-1.4-.64-1.63-1.16a6.86 6.86 0 01-.09-2.28c0-.17-.23-.46-.35-.46-.3 0-.79.08-.86.25-1.21 3.12-3.43 6.13-.92 9.82m52.45-6.48v-2.63a1.62 1.62 0 00-.51-1c-.09-.09-.59.14-.81.33a8.71 8.71 0 00-2.59 5.84c-.17 1.52 1.1 2.31 2.22 2.93.82.45 5.18-1.22 5.56-2.12s1.48-1.92-.08-3c-2.38-1.6-2.41-1.67-3.76-.42m-42.35.67c-.31 1-.57 1.95-.93 2.9-.52 1.34-1 2.71.38 3.78 1.14.91 4.1.19 4.88-1.13a2.59 2.59 0 00.28-1.45c-2.31-.94-.91-3.33-1.9-4.82-.46-.7-.21-1.86-.29-2.82l-1.76 2.68a5.79 5.79 0 01-.66.86m45-2.65l1.17 1.17.47.47c.12-.27.37-.58.32-.81a12.76 12.76 0 00-.86-2.94c-.1-.2-1.12 0-1.72.09a6.89 6.89 0 01.62 2m-39 4l.17.84c.14 0 .41-.11.41-.12-.15-.29-.26-.64-.66-.66zM401.68 490.53c-1.81-.93-1.49-2.82-1.05-4 1.1-3 1.18-6.12 1.89-9.14a13.93 13.93 0 014.74-7.61 1.36 1.36 0 011.1 0c2.35.86 3.37 3.48 2.49 6.29-.15.49-.26 1-.41 1.48-.24.82.17 1.16 1.06 1.26a3.46 3.46 0 012.94 2.65 5.09 5.09 0 00.94 1.27 11.4 11.4 0 01.37-1.45c.41-1 .9-2 1.31-3.1.51-1.33 1.5-1.59 2.47-.53.56.6 1.33 1.34 1.35 2.05.09 2.6 2.67 4.94.85 7.76-.16.24.14.78.23 1.19.24-.2.46-.4.71-.58 1.89-1.43 2.06-3.77 3-5.7s2-4 4.61-4.66a2.81 2.81 0 013.32 1.2c1.75 2.21 1.74 2.22 4.84 1.33.89-.25 1.78-.51 2.68-.69 1.17-.25 2.67 1.44 2.39 2.72-.11.48-.53.9-.61 1.38a6.53 6.53 0 00.13 1.58c.39-.27.77-.58 1.18-.82a1.71 1.71 0 01.85-.32c4.8.05 6-3.87 7.7-7.11.86-1.62 2.07-2.18 3-.72 1.8 2.8 3.76 5.49 2.52 9.46-.91 2.92-1.72 5.39-4.74 6.53a5.63 5.63 0 01-1.48.41c-2.58.24-2.54.22-2.6 2.92a28.74 28.74 0 01-.57 6.69c-1.26 5-5.17 7.23-10.28 5.77a23 23 0 01-6.46-2.79c-3.07-2-5.05-6.31-3.74-9.48a12.38 12.38 0 014.11-4.85c2-1.5 4.5-2.37 6.77-3.54.55-.28 1.38-.56 1.52-1a23.38 23.38 0 00.71-4c.11-.91-.32-1.18-1.15-.77a5 5 0 01-1.13.48c-1.33.26-3 .08-3.92.81-.78.6-.69 2.27-1.07 3.44-.81 2.5-4.81 5.66-7.41 5.62a3.51 3.51 0 01-2.44-1.36c-.66-1-1.08-1.29-2.11-.58-.49.34-1.17.93-1.71-.08-.32-.58-1.22-.74-.65-1.86 1.46-2.85-.23-5.5-.93-8.19 0 0-.76 0-.8.11-.82 2.85-3.43 4.91-3.22 8.3.15 2.56-4 5.79-6.64 5.71-1.59-.05-2.52-1.27-1.56-2.51 1.53-2 3.55-3.58 5.23-5.46.64-.72 2.23-.86 1.4-2.73-1.2-2.7-2.3-3.26-4.84-1.68-1 .64-2.12 1.14-3.18 1.71-.37-1.57.82-2.37 1.58-3.45 1.42-2 3-4.06 2.14-6.82-.62-1.9-1.48-2.17-2.55-.57a15.22 15.22 0 00-2 4.76 37 37 0 00-1.45 9c0 1.36-.8 2.72-1.41 4.25m38.87 16a11.61 11.61 0 011.32 0 4.33 4.33 0 004.91-3 22.17 22.17 0 001.31-6.38c.1-2.43-.45-4.88-.56-7.33-.06-1.39.09-3.06-1.19-3.68-1.46-.7-2.09 1.17-3.13 1.85-.75.49-1.49 2.83-2.55.2-.05-.12-.63-.16-.85 0-3.36 1.76-6.77 3.48-9.2 6.54-1.09 1.36-1.43 5-.52 6 2.61 3 5.41 5.79 10.46 5.86m9.91-16.57a2.14 2.14 0 002.89.38c3.69-2.18 4.95-8 2.53-11.47a10.72 10.72 0 00-1.38-1.4 6.82 6.82 0 01-.43 1.64 24.62 24.62 0 01-1.9 3.15 19.44 19.44 0 00-1.53 2.64c-.86 1.65-.2 3.19-.18 5.06m-24.82-1.65c0 .8-.32 2 1.18 1.63a16.81 16.81 0 003.74-1.33c1.94-1 2.17-3.26 2.89-5 .15-.39-1.44-1.45-2.19-2.23a13.15 13.15 0 01-1-1.25c-.15-.2-.29-.41-.43-.62a2.52 2.52 0 00-.23.57 10.56 10.56 0 01-3.24 5.62c-.46.45-.5 1.31-.74 2.65M411.11 491c.76-1 1.55-1.94 2.26-2.95a.6.6 0 10-.61-.66c-1.24 1.2-2.48 2.41-3.66 3.67a4.58 4.58 0 00-.58 1.33 10.39 10.39 0 001.23-.4 6.8 6.8 0 001.36-1m37.71-5.29c-.06-.28-.12-.56-.17-.84a3.47 3.47 0 00-.41.12c.07.35.16.7.58.72M432 479.45l.33.66c.06-.22.17-.44-.33-.66zM58.45 289.55c0-3.95.27-7.6-1.31-11a1.5 1.5 0 010-1 16.83 16.83 0 01.77-1.67c.39.47 1 .89 1.12 1.42a13.71 13.71 0 01.48 3.76c-.13 3.51 1.63 6.9.62 10.43-.29 1 .17 1.26.89 1.09a45.65 45.65 0 0110.81-1.07 28.62 28.62 0 005-.64c1.62-.27 2.1-2.64.89-4.18-2.3-2.94-3.59-3.06-7.07-1.13a45 45 0 01-6.18 2.63c-.46.17-1.09 1.23-1.77.06A1.66 1.66 0 0163 286a9.57 9.57 0 015.37-3 7.63 7.63 0 004.67-2.34c2-2.15 2.12-4.09.12-6.39a10.79 10.79 0 00-5.16-3.42c-3.62-1.07-7.16-1.62-10.81-.46-.48.15-.83.64-1.29.89a5.82 5.82 0 01-1.12.34c-.09-.52-.41-1.35-.22-1.49a9.28 9.28 0 012.9-1.67c3.16-.94 9.93.17 13.2 1.8a11.9 11.9 0 015.51 6.28 4 4 0 01-1.17 4.65c-1 .93-.28 1.45.27 1.64 3.24 1.14 5 3.27 5 6.78a.74.74 0 00.27.53c.6.35 3.47-1.64 3.7-2.46.59-2.07.75-4.32 2.28-6a3.71 3.71 0 012-1.29c.81-.08 2.91 2.52 2.93 3.27s0 1.76 0 2.64a3.12 3.12 0 002.55 3.1c2.78.17 5.83 1 8.24-1.53a7.12 7.12 0 001.87-4.52c.14-1.76 0-3.53.05-5.29a4.45 4.45 0 01.43-1.8c.15-.3.68-.41 1-.6.17.34.51.7.47 1-.26 2 .71 4.12-.61 6-.1.15.17.56.27.85.34-.14.93-.22 1-.45.8-3 3.3-4.79 4.85-7.25.18-.3.75-.37 1.14-.54.13.53.53 1.2.34 1.57a22.38 22.38 0 01-1.81 2.56c-1.29 1.89-2.65 3.74-3.79 5.72-1 1.64-.53 2.89.91 3.67s7.83-.1 9.2-1.14a2.84 2.84 0 001-3.16c-.43-2 .58-4.94 2.06-5.92a1.59 1.59 0 012.59 1.15 8.18 8.18 0 01-.94 5.22c-1.46 2.33-.58 3.8 2.26 3.84 1.43 0 2.88.4 4.42-.48 1.08-.62 2.8-.16 4.23-.07.19 0 .56 1 .48 1a3.57 3.57 0 01-1.61.86c-2.32.27-4.66-.21-7 .57-1 .32-2.54-.61-3.69-1.23a4.06 4.06 0 00-4.11 0c-3.45 1.68-7 2.25-10.57.28-1.16-.64-1.13 0-1.31.9-.1.46-1 1.22-1.19 1.13-.67-.38-1.23-1-.29-1.78.19-.15.21-.59.19-.89a3.77 3.77 0 00-.25-.88 2.13 2.13 0 00-.47.37c-1.14 1.52-2.85 2.06-4.56 2.56-2.77.79-5.34.56-7.25-1.86-.91-1.16-1.26-.15-1.74.28a18.84 18.84 0 01-2.34 2.23 2.37 2.37 0 01-2-.12 5.08 5.08 0 00-6.57.8c-1.59 1.44-3.19 2.88-4.87 4.21-3.53 2.76-10.41 3.25-13.93-.56a2.62 2.62 0 00-.48-.46 3.43 3.43 0 01-1.21-2.54v-3.64m14.22 3.31c-3.09.22-6.18.41-9.26.68a9.83 9.83 0 00-2.35.67c-.15.05-.29.59-.21.69a8.66 8.66 0 0010.05 1.66 23.7 23.7 0 004.14-2.68c.46-.35 1.86-.09 1.16-1.28-.15-.26-1.27.05-1.94.13-.3 0-.6.14-1.56.22m48-11.58c-.22 1.22-.45 2.43-.64 3.65 0 .17.14.37.22.56.23-.17.61-.3.66-.51.38-1.47.69-3 1-4.43a5.59 5.59 0 00-1.26.73m-34.07 6.29c.76-1.2 1.54-2.39 2.26-3.62a1.06 1.06 0 00-.14-.83c-.36-.05-1 0-1.07.14a13.91 13.91 0 00-1.05 4.31m2.64-1.33c-.9.91-1.85 1.79-2.7 2.75-.19.22-.06.71-.08 1.08.36-.05.92 0 1.07-.18a10.35 10.35 0 001.71-3.65m-21.5-1c-.28-.11-.64-.38-.84-.3a16.22 16.22 0 00-1.74 1c.87.6 1.62.45 2.58-.69zM286.06 208.17c-2.34 0-4.28.16-6.18-1.09-1.51-1-2.28-.23-2.44 1.72a40.9 40.9 0 01-.68 4.68c-.1.47-.6.85-.92 1.27-.35-.39-1-.81-1-1.15.17-1.46-.7-3.06.53-4.4.13-.15-.06-.58-.1-.88-.23.13-.46.28-.7.39a13.72 13.72 0 01-8.84.48c-1.63-.37-1.86.08-2.18 1.17s-.43 2-.68 3a19.43 19.43 0 01-.68 2.37.92.92 0 01-.8.32.8.8 0 01-.47-.65c.17-1.46-.5-3 .59-4.39a5.87 5.87 0 00.69-2.35 3.06 3.06 0 00-.09-.94l-.95.43c-2.48 1.11-4.87 2.53-7.78 2-.32-.06-.78.14-1 0-3-2.54-5.83-.16-8.71.35-1.63.29-3.24.74-4.88 1-2.74.41-5.13-.9-7.38-2.1-1.39-.75-1.5-.77-1.7.78a31.92 31.92 0 01-1.27 4.74 4.1 4.1 0 01-.57 1.41c-.22.28-.72.32-1.1.47-.1-.29-.33-.59-.29-.86.24-1.87.53-3.74.84-5.6 0-.28.5-.6.43-.79-1-2.94 1.24-5.07 2.15-7.4s3.54-3.92 6.2-4.43a4.4 4.4 0 013.09 1.13 8.59 8.59 0 012.91 9.17c-.17.71-.39.93.38.83a18.55 18.55 0 004.28-.84 3.13 3.13 0 001.35-4.2c-1.25-2.58.39-4.36 1.36-6.31.38-.77 1-1 1.51.23a11 11 0 01.23 7.19c-.63 2.59-.2 3.18 2.53 3.31s5.45.11 7.23-2.48a13 13 0 001.41-2.72c1.24-3.17 4.29-3.9 6.95-4.62s5.62 3.47 4.58 6.33c-.17.48-.48.9-.69 1.37-.29.68-.54 1.38-.81 2.06a16.08 16.08 0 001.82-1.11c1.71-1.31 2-3.38 2.46-5.24.79-3.08 2.7-5.42 5.58-5.44a6.17 6.17 0 015.72 3.22c.79 1.48 1.61 2.93 1.37 4.75-.08.59.36 1.77.59 1.78a4.56 4.56 0 002.32-.64c.3-.18.36-1 .33-1.47a10.52 10.52 0 011.83-6.52 5.22 5.22 0 011.83-1.79 1.62 1.62 0 012.29 1.47c.09 2.23.22 4.49-1.51 6.32a8.42 8.42 0 00-1 1.81c.68-.06 1.36-.09 2-.2 3.45-.57 4.44-3.52 5.83-6.07.09-.17-.08-.51 0-.64.56-.68 1.18-1.31 1.78-2 .61.61 1.48 1.11 1.79 1.85a20.23 20.23 0 011.67 9.87c0 .25-.51.47-.78.7-.17-.23-.45-.43-.49-.68-.47-2.79-.89-5.59-1.37-8.37-.05-.32-.41-.59-.62-.87a7.47 7.47 0 00-.67.84c-.68 1.15-1.28 2.35-2 3.47a8.1 8.1 0 01-8.49 3.67 5.58 5.58 0 00-2.79.38 13 13 0 01-5.91.9m-45.66-5.62c-.62-.63-1.23-1.26-1.87-1.87-1.72-1.64-3.21-1.6-5 .12-1.22 1.19-2.31 2.36-2.48 4.28-.13 1.51.05 2.82 1.32 3 2 .36 4 .47 6 .71 1 .12 1.44-.52 2.05-1.19 1.43-1.57-.16-3 0-5.1m40 2.31c1.37 1.6 3.24 1.33 5 1.32 2.17 0 2.71-1.14 2.22-3.41a6.36 6.36 0 00-2.15-3.39c-1.6-1.56-4.14-1.74-5.33-.17a11.16 11.16 0 00-1.79 3.82c-.12.46.88 1.21 2 1.83m-15.55.33c-1.18 1.08-.1 1.5.63 1.61 1.18.18 2.41 0 3.62.06 1.65.09 2.49-.77 3.05-2.22a3.26 3.26 0 00-1.17-3.92c-1.24-1.1-2.32-.37-3.48.16-1.59.73-2.17 2.14-2.65 4.31m31.1-2.64a25.59 25.59 0 001.08-3.12 5.34 5.34 0 00-.28-1.85c-.49.47-1.2.84-1.41 1.41a18.53 18.53 0 00-.93 3.82c-.07.42.34.91.53 1.37a11.15 11.15 0 011-1.63m-45.32-3c-2 .29-.69 1.82-.95 2.75a4.79 4.79 0 00.21 1.8c.14-.53.27-1.07.41-1.6a8.11 8.11 0 00.47-2.87zM361.48 81.13c-.66 3.15-1.27 6-2 8.77a9.25 9.25 0 01-1.34 2.73c-.22.32-1.19.55-1.38.37-.72-.7-1.76-1.56-1.8-2.4-.17-3.59-.55-7.31 2.33-10.25.18-.19.15-.58.22-.88a5.93 5.93 0 00-.93.3c-2.35 1.19-4.9.82-7.3.57-1-.11-2.08-1.58-2.72-2.67-.51-.86-.65-1-1.57-.54a15.77 15.77 0 01-10.61 1.71c-.8-.17-.81-.11-1.34 1.39l-.29.87c-.31-.29-.89-.58-.89-.87 0-1.56-.68-3.21.45-4.69.12-.17-.07-.58-.11-.87a2.26 2.26 0 00-.69.41 8 8 0 00-1.1 1.52c-1 2.06-3.14 2.28-4.91 3a1.8 1.8 0 01-1.87-1.51 39.53 39.53 0 00-1.83-5.51c-.16-.46-.32-.92-.47-1.38-.51.35-1.28.59-1.47 1.06-.78 1.89-1.35 3.85-2.05 5.77a5.59 5.59 0 01-.73 1.11c-.2-.32-.32-.79-.6-.91a1.93 1.93 0 00-1.3-.06 10.75 10.75 0 01-5.55.94c-1-.16-2.37-.26-2.86-.92-1.15-1.56-2.23-.78-3.26-.24a9.18 9.18 0 01-5.79 1.13 3.22 3.22 0 01-1.72-1.46 3.28 3.28 0 01-.59-2c.31-2.25.79-4.47 1.26-6.7 0-.16.57-.34.82-.28a.85.85 0 01.43.7c-.12 1.15-.4 2.28-.48 3.42-.09 1.4-.5 3.07.11 4.11.37.62 2.43.43 3.7.29 1.9-.21 3.69-2.42 4-4.34a8.66 8.66 0 011-2.87 1.55 1.55 0 011.49-.34 1.75 1.75 0 01.5 1.52c-.22 1-.84 1.88-1 2.86-.48 2.4.2 3.16 2.63 3.21h.33c1.48-.16 3.33.18 4.34-.59a9.71 9.71 0 003.14-4.61 4.72 4.72 0 011.68-2.59 3.91 3.91 0 012.59-.74c.49.09.89 1.25 1.14 2 .51 1.56.86 3.17 1.35 4.74.61 1.93 2.05 2.42 3.53 1.19a13.91 13.91 0 005.11-9.14 10.81 10.81 0 011.32-2.86c1.1.91.67 2.08.43 3.14-.4 1.81-.92 3.59-1.38 5.38-.06.23-.09.47-.13.7.3 0 .75 0 .87-.16 1.85-2.54 3.61-5.13 5.48-7.64a7.48 7.48 0 012-1.73c.19-.12.88.24 1.1.55a1.08 1.08 0 01-.2 1c-3.54 2.33-4.85 6.54-7.86 9.31a1.64 1.64 0 00-.31 1.45c.11.3.84.5 1.29.5 3.18 0 6.32.15 9.16-1.89.9-.65 1.37-1.08 1.44-2.17a3.62 3.62 0 01.8-2.27c.52-.49.15-2.15 1.52-1.48a1.51 1.51 0 01.67 2.43c-1.2 1.38-1 3-1.06 4.54-.09 1.73.75 2.35 2.37 2.19a1.22 1.22 0 01.33 0c4.61 1 7.22-1.56 9.23-5.21a21.12 21.12 0 011.48-2.07c.17.89.77 2.05.41 2.63-1.05 1.73.3 1.61 1 1.29 2.89-1.33 5.17.12 7.53 1.37.36.19.84.31 1.06.61.59.8 1.07 1.67 1.6 2.52-1.31.71-2-.23-2.72-1a6 6 0 00-4.44-2.06c-3.61-.3-4.58.64-4.61 4.61m-2 1c.22-.9.47-1.79.64-2.7.05-.27-.16-.58-.25-.88-.24.2-.56.35-.69.6a18.39 18.39 0 00-2.39 6.29c-.18 1.51-1.34 2.93-.13 4.49a4.16 4.16 0 01.48 1.12c.34-.4.88-.75 1-1.21.52-2.33.92-4.69 1.36-7.71m.66-5.29l-.4-.26c.05.18.07.41.42.24zM250.49 164.67c.28-.67.33-1.2.52-1.68a7.06 7.06 0 01.69-1.14c.21.42.61.84.58 1.24-.15 2.23-.4 4.45-.64 6.67-.14 1.38 0 2.17 1.83 2.08 3.43-.15 3.48 0 4.12-3.45.41-2.29 2.21-3.35 3.85-4.5.45-.31 1.14-.17 1.57.92 1.11 2.81.69 5.17-1.79 7-.81.6-2.24 1.44-2.15 1.94.23 1.24 1.41 1.7 2.79 2.14a4.69 4.69 0 003.88 0 4.12 4.12 0 011.9-.16c.19 0 .43.37.53.61s-.1.38-.2.56-.18.07-.27.12c-1.8 1-3.77.58-5.68.66-2.14.08-3.49-1-4.46-2.87-.68-1.36-5.38-1.73-6.09-.48-.49.85-.22 2.1-.53 3.09-.19.6-.78 1.41-1.29 1.49s-1.27-.53-1.91-.84l.71-1.05c1 .74 1.25.68 1.26-.69 0-1.91-.11-3.47-2.55-3.47-3.58-3-7.66-5.54-10.6-9-3.42-4.1-1.28-7.72 1.81-10.22a1.35 1.35 0 01.83-.36 16.55 16.55 0 011.85.29l-1.21 1a16.76 16.76 0 00-2.44 2 4.59 4.59 0 00-.24 5.55c1.67 1.92 3.42 3.83 6 4.72 1.82.64 3.68.26 4.47-1.39a13.75 13.75 0 001.35-4.71 74.57 74.57 0 000-8.59c-.09-2.22-.41-4.44-.65-6.66a4 4 0 00-.29-.87c-.31.29-.86.56-.9.88-.25 2.31-1.74 3.84-3.33 5.23-1.94 1.71-5 1.62-6.27-.1a12.85 12.85 0 01-1-2.07 17.1 17.1 0 01-2.11 1.3c-1.3.59-2.44 1.55-4.07 1.39-1.32-.13-2.6 0-3.45-1.3-.61-.94-1.34-1-2.06 0a2.08 2.08 0 01-.73.63c-3.67 1.62-5.18.69-5.5-3.08a11.71 11.71 0 011.92-7.78c1.67-2.4 2.44-2.37 4.09 0 .57.84.94 1.16 1.49-.19.26-.65 1.08-.19 1.07.73a55.2 55.2 0 010 5.61c-.18 1.59.54 2.92 1.67 3.19 1.44.35 3.23.78 4.64-.46 1.91-1.69 3.8-3.38 3-6.37a2.07 2.07 0 01.05-1.28c.17-.38.58-.86.91-.89a1.25 1.25 0 01.89.84 11.11 11.11 0 01-.33 3.75c-.64 1.73.25 3.08.75 4.47.4 1.14 2.8 1.1 4 .14 2.63-2.14 3.6-5.29 5-8.19.13-.27 0-.68.19-.91a16.72 16.72 0 011.29-1.5 7.34 7.34 0 01.5 1.66c.25 6.19.44 12.38.69 18.57.09 2.36-.65 4.51-1.23 6.75a5.15 5.15 0 01-1.64 2.63 11.13 11.13 0 01-1.74 1.19 17.65 17.65 0 002 1.6c1.76 1.05 1.75 1 1.95-.92s.44-3.57.82-5.51m-25.31-19a12.18 12.18 0 00-.71-3 9.1 9.1 0 00-2-2 7.85 7.85 0 00-1.23 1.63 15 15 0 00-1.31 4.06c-.1.92.3 2.42 1 2.78a2.3 2.3 0 003.09-1 10.23 10.23 0 001.16-2.5m37.06 22.5a2.45 2.45 0 000-1 8.38 8.38 0 00-.9-1.27c-.36.36-.73.7-1.05 1.09-.11.15 0 .44-.13.6-.78 1.24-1.67 2.45-1 4 .73-.94 1.73-2 2.97-3.38zM71.85 489.87a10.11 10.11 0 01-1.46-1.62c-.23-.41 0-1.23-.82-.42-2.43 2.25-5.48 3.17-8.59 4-2.48.65-4.86-.12-5.76-2.54-.79-2.11-2.13-4.29-.86-6.8a15.31 15.31 0 00.75-3.32c.3-1.3 1.06-1.67 2.29-1.11.28.12.75-.07 1 .09 1 .85 1.82-1.76 2.71-.16a9.69 9.69 0 01.69 2.68 17.85 17.85 0 01.61 3.36c0 .64-.54 1.29-.83 1.94-.37-.44-1-.86-1.05-1.33-.19-1.9-1.49-3-2.7-4.18-.56-.54-1-.6-1.35.36a8.9 8.9 0 00.2 7.65 2.64 2.64 0 002.95 1.59c3.07-.57 6.24-.69 8.56-3.35a5 5 0 001.59-3.71 7 7 0 011.22-3.08c.12-.24.91-.3 1.29-.17.22.08.37.75.31 1.11a46.09 46.09 0 00-.83 4.59c-.13 2.71 1.31 3.75 3.85 3 .39-.12.8-.45 1.15-.39 2.52.45 3.33-1.45 4.2-3.12 1-1.89 1.71-3.92 2.69-5.82 1.29-2.53 3.63-3.05 5.85-1.42 2.89 2.11 3.63 4.38 2.75 8.24a3.7 3.7 0 00.14 1.26c.32-.16.64-.35 1-.48s.43 0 .62-.11c2-.87 3.54-2 2.93-4.64a4.49 4.49 0 011.68-4.55c.35-.3 1-.61 1.32-.48a1.67 1.67 0 01.88 1.22c.07 1.91.33 3.87-.69 5.65-.38.68-1.17 1.85-1 2 .74.68 1.81 1.62 2.6 1.49a25.45 25.45 0 006.75-2A9.09 9.09 0 00112 482c2-3.22.36-8.4-3.23-10.42a18.09 18.09 0 00-8.47-2.7c-2.67-.07-5.33-.4-8-.64a5.09 5.09 0 01-1.48-.41c-.22-.11-.33-.45-.49-.68a1.77 1.77 0 01.56-.22c6-.13 11.89-.21 17.43 2.62a11.45 11.45 0 016.3 8.84 7.64 7.64 0 01-3.65 7.6c-2.84 1.78-6.06 3.39-9.73 2.76-.91-.16-2.13-.14-2.64-.71-1.43-1.6-2.59-.57-4-.1a28.24 28.24 0 01-6 1.41 8.64 8.64 0 01-3.57-.85c-1.9-.7-2.52-.4-2.75 1.56-.22 1.78-.39 3.57-.7 5.34-.08.46-.6.84-.92 1.26-.34-.38-.91-.73-1-1.16-.28-1.56-1.4-3.09-.09-4.77.33-.44.25-1.73-1-1.18-2.13.91-4.31.69-6.67.37m11.74-5.46c-.13 2.18 2 1.47 3 2.15.79.53 2.28.11 3.43 0 .32 0 .84-.63.8-.92-.16-1.54.52-3.13-.57-4.66s-2.73-2.66-4-2.13a2.91 2.91 0 00-2 3.24c.06.54-.4 1.12-.62 2.35m15.22-4.63c-1.18.93-.51 2.21-.61 3.34a.65.65 0 00.43.12c1.3-.82.72-2.14.82-3.27-.07-.25-.29-.43-.73-.27zM238.58 73.36l-.4.4c-.68.7-2 1.46-1.94 2.09.19 1.83 1.84 2.74 3.44 3.23.82.25 1.85-.27 2.79-.32.63 0 1.75 0 1.82.24.27 1-.06 2-1.32 2.12-3.19.31-6.86-.47-8-3.73-.2-.56-.52-1.34-1-1.49a18.83 18.83 0 00-3.68-.69c-.14 0-.38.39-.52.63a12.13 12.13 0 00-1.3 2.43c-.52 1.8-2 2.46-3.49 2.79s-3 .4-4.11-1.17c-.82-1.16-1.9-.77-3.15-.37-1.78.56-3.67 2-5.61.29-.52-.45-1.42-.88-1.46-1.37-.14-1.68-.61-1.77-1.7-.65-1.55 1.6-3.16 2.85-5.52 1.39a2.16 2.16 0 00-1.62 0c-2.67 1-5.17 1.41-7.3-1.12-.13-.16-.88.14-1.32.3-1.34.47-2.67 1-4 1.45-2.09.69-3 .17-3.75-1.9-.85-2.37-.47-4.62-.16-7.08a46.55 46.55 0 012.17-8.41 3.09 3.09 0 01.65-1.42 8.83 8.83 0 011.8-1c-.15.54-.29 1.08-.45 1.62a66.45 66.45 0 00-2.09 7.38 50.25 50.25 0 00-.51 8c0 1.17 1.24 1.76 2.41 1.18a33.54 33.54 0 004.74-2.7c.47-.34.56-1.28.72-2 .44-2 .73-4.12 2.37-5.61.34-.31 1-.64 1.32-.52a1.84 1.84 0 01.92 1.22 5 5 0 01-1.14 4.13c-.58.74-1 1.58-1.66 2.28-1 1.13-.4 1.89.42 2.75 1.68 1.77 3.38.31 5 0s1.32-1.69 1.34-2.85c.06-3.36.8-6.46 3.43-8.82 1.32-1.18 2.27-1.2 3.62-.1 2.63 2.15 2.59 2.14 1.45 6.31a25.94 25.94 0 00-.55 3.74 1.82 1.82 0 00.16.92c.61 1.22 3.41 2 5.32 1.5 1.67-.43 2.33-1.37 2.47-3.15s.37-3.79.67-5.67a3.88 3.88 0 01.87-1.6c.06-.07 1 .33 1 .49-.06 1.37-.29 2.73-.4 4.1a21 21 0 00-.15 4.54c.29 1.94 3.52 2.72 4.93 1.21a7.42 7.42 0 002.29-5c0-1.54-.05-3.08 0-4.62a3.7 3.7 0 01.54-1.74c.17-.28.72-.33 1.09-.48a2.71 2.71 0 01.31.86c0 1.54-.05 3.09 0 4.63s2.61 2.61 3.66 1.67c.31-.27.17-1 .29-1.51.54-2.34 1-4.68 3.67-5.72 1.49-.58 2-.39 2.29 1.09.36 2.15-.76 3.83-1.83 5.76m-33.25.16a8.3 8.3 0 00-.6 2.35 5.46 5.46 0 00.89 1.9c.52-.27 1.07-.52 1.58-.82 2.85-1.68 2.34-4.92 3.3-7.46.19-.48-.88-1.59-1.58-2.16-.18-.15-1.19.61-1.74 1.06-1.39 1.15-1.68 2.79-1.85 5.13m32.43-1.32c.54-1.2 1.09-2.4 1.61-3.62a1.71 1.71 0 000-.68c-.22 0-.56-.08-.63 0-1 1.36-1.92 2.72-2.79 4.13-.16.25.05.73.09 1.11a9.88 9.88 0 001.88-.87zM236.93 486.89c3.06 1.31 5.77-.42 8.61-.42.88 0 1.6-.89 1.53-2.23-.14-2.52-.49-5.16 1.26-7.39.06-.07 0-.24 0-.32 1.91-3.07 3.75-3.1 5.9-.09a15.81 15.81 0 01.94 1.59c1.07 1.91 1.54 2 3 .54a2.31 2.31 0 00.46-.48c.67-1.12 1-2.64 2.78-2.47a31.47 31.47 0 00-.76 3.82c-.13 1.42-2 2.69-.41 4.28.31.31.51.91.85 1 2.76.62 5-1.28 5.18-4.11a21.72 21.72 0 011.06-4.51c.08-.28.67-.41 1-.6.17.33.51.68.49 1a34.65 34.65 0 01-.74 6.31c-.27 1-.34 1.63.48 1.93a7.79 7.79 0 003.35.59c.57-.05 1.19-.94 1.55-1.59.94-1.69 1.77-3.45 2.59-5.21 1.51-3.23 3.17-3.52 6.32-1.56a12.69 12.69 0 015 5.77c1 2.47-.09 5-2.74 5.28a25.11 25.11 0 01-5.94 0c-2.37-.3-3.26-2.93-1.87-5 .28-.42.42-.95.73-1.34a.89.89 0 01.85-.2c.2.1.3.52.32.82 0 .15-.19.37-.35.49-.85.67-1.45 1.56-.67 2.45a3.72 3.72 0 002.3.76 29.22 29.22 0 004 0c1.83-.08 3-1.77 1.92-3-1.62-1.85-3.72-3.27-5.48-5-.94-.91-1.56-.61-2.07.23a33.51 33.51 0 00-2.83 5.1c-1.59 4-4.75 5.22-8.15 2.79-1-.73-1.7-1.18-2.78-.19-.4.37-1.17.32-1.76.51-2.43.75-4.33-.5-4.55-3a5.42 5.42 0 000-1c-.17-.61.61-1.66-.79-1.71-1.2 0-1.84.52-1.83 1.71 0 3.31-2.67 4.17-4.88 5.47-.09.05-.22.12-.29.09-4.14-1.85-7.93 1.13-12.09.85s-6.08-1.59-7.07-6c-1.05-4.64 1.09-8.85 4.41-12.28 1.16-1.2 2.52-1 3.84-.25.36.23.58.7.95.91.8.44 2.39.87 2.36 1.17a33.58 33.58 0 01-1.18 5.38c-.05.17-.57.34-.82.28a.88.88 0 01-.44-.69v-3.31a2.48 2.48 0 00-2-2.52c-1.05-.3-1.85.15-2.66 1.18-1.94 2.49-2.32 5.47-3.13 8.31-.57 2 2 5.23 4.36 5.84m12.4-1.49l1.4-1.25a12.81 12.81 0 00-.17 1.37c0 .18.21.52.31.52.92 0 3.5-3 3.39-3.91 0-.26-.48-.51-.78-.69-1.23-.75-2.46-1.5-3.72-2.2a1.06 1.06 0 00-.72.11c.05 1.9-1.58 3.81.29 6m2.32-7.61a1 1 0 00-.24-.22.33.33 0 00-.21 0c-.09 1.41.81 2.23 2 1.84.14 0 .23-.25.34-.39-.18-.09-.37-.16-.55-.26a10.46 10.46 0 01-1.45-.9zM218.73 178.23c-.82-2.2-1.52-4.23-2.14-6.29-.47-1.55-1.62-2-2.83-.95-1 .87-1.89 1.85-2.82 2.79-2.08 2.14-.38 4.35-.05 6.49.45 2.87 1.13 5.7 1.73 8.53.13.6.42 1.16.56 1.75a6.84 6.84 0 01-1.75 6.43c-2.37 2.36-5.38 1.58-7.38-1.06a9.62 9.62 0 01-1.19-10c1.16-2.72 1.84-5.69 3.92-8a3.33 3.33 0 00.91-1.59 24.54 24.54 0 00.08-3.1c-.39.75-.83 1.48-1.16 2.26a7.06 7.06 0 01-4.14 4.11c-2.13.78-3.71-.27-3.71-2.6a13.2 13.2 0 01.67-4.33 18.09 18.09 0 014.24-6.84c1-1 1.8-.91 2.74.06 1.45 1.51 1.75 3.47 2.25 5.36a10 10 0 00.77 1.66c.47-.33.95-.65 1.4-1a28.37 28.37 0 013.49-2.76c2.41-1.35 3-.94 3.62 1.65a36 36 0 002.12 6.06 3.45 3.45 0 004.23 1.43c1.5-.57 2.52-1.41 2.25-3.32a10.9 10.9 0 012-8.08c.43-.62 1-1.54 1.59-1.57.86 0 1.37-1.62 2.52-.39 1 1.05 1.6 2 .95 3.41-.13.28-.45.48-.68.71-.15-.32-.42-.65-.4-1 .07-1.42-1.14-1.09-1.57-.86a3.91 3.91 0 00-1.72 1.83 19.46 19.46 0 00-1.3 4.72c-.1.82.35 2.26.91 2.46a3 3 0 003.32-.44c1.06-1 1.87-2 1.69-3.63s-.24-3.24 1.1-4.47a4.11 4.11 0 011.09-.54 3.89 3.89 0 01.4 1.09 9.1 9.1 0 01-.08 2.61c-1.19 4.82 1.24 7.43 5.83 6 .85-.26 1.87-.79 2.12 0 .45 1.44-1.31 1.22-1.94 1.44a6.23 6.23 0 01-6.81-1.18c-.78-.75-1.31-1-2.09-.05-1.06 1.26-2.54 1.33-4.07 1.36a10 10 0 00-3.35.66c-2.53 1-4.9 1.09-7.29-.86m-11.41 1.82c-1 2.11-2.33 4.14-3 6.36-.86 3.05-1.49 6.19 1.49 8.83a3.55 3.55 0 003.83.85c1.17-.46 1.61-1.7 1.68-3.22.25-5.06-1.68-9.76-2.1-14.69 0-.16-.88-.46-1-.35a5 5 0 00-1 2.22m-1-11.58c-.71-.64-1.14-1.75-2.37-.36-2.21 2.51-3.11 5.52-3.87 8.61-.29 1.17.83 1.82 2 1.29.56-.25 1.28-.47 1.56-.94 1.6-2.5 3.35-5.03 2.76-8.56zM297.3 46.07c-1.7 1-3.08 1.41-4.67.34a3 3 0 00-1.77-.17 11 11 0 01-2.1.45 9.38 9.38 0 00-6.33 1.46c-1.4 1-2 .45-3-.42-2.1-1.87-2.09-4.67-3.25-6.93-.19-.36 0-.89-.25-1.22-1-1.72-1.74-1.76-3.22-.33-1.88 1.82-2.18 4.38-3.15 6.63a14.7 14.7 0 00-1.22 3.77c-.15 1.19-.82 1.18-1.53 1-.28-.08-.58-.82-.54-1.23a7.05 7.05 0 01.66-2.68 22.42 22.42 0 002.66-11.49c0-3.32.36-6.65.65-10 .05-.56.57-1.08.87-1.62.36.56 1 1.09 1 1.69a11.42 11.42 0 01-.28 2.83c0 .19-.3.34-.32.52-.24 3-.46 6-.66 9a4.27 4.27 0 00.14.93c.31-.19.63-.37.93-.59a4.08 4.08 0 00.47-.46c2.15-1.8 4.07-1.37 5 1.24.57 1.53.84 3.17 1.37 4.72a5.35 5.35 0 001.26 2.1c.57.53 1.71 1.23 2.1 1a5.52 5.52 0 001.88-2.33 3.27 3.27 0 000-1.93c-.53-2.25.16-5.32 1.66-6.76.36-.34 1.07-.84 1.28-.71a2.18 2.18 0 011.06 1.43c.08 2.33.46 4.81-.81 6.9-1 1.63-.14 1.54 1 1.53h.33c4.07.1 4.06.1 4.17-4a12.88 12.88 0 012.63-6.84c.71-1.06 1.64-1.71 3-.49.86.8 2.52 1.11 2.87 2s-.28 2.41-.53 3.63c-.18.91-.51 1.8-.63 2.71-.22 1.67.56 2.45 2.19 2.33a5.48 5.48 0 004.41-3.95c.36-1.91 1.45-3.81.06-5.78-.07-.1.85-1.27 1.15-1.21 2.9.58 6.57 6.09 6.06 8.93a13.46 13.46 0 01-.7 2.69 1.38 1.38 0 01-1.17.58c-.3-.05-.67-.64-.73-1s.43-.72.47-1.1c.24-2.15.72-4.37-1.58-5.84-.5-.32-.94-.72-1.41-1.08-.05.53-.09 1.06-.17 1.58-.16 1-.41 2-.51 3.09a4.31 4.31 0 01-3.18 3.93c-1.76.69-3.23 1.9-5.24.61-.39-.25-1.31.35-2.32.56M295 45.4a7 7 0 003-7c-.06-.43-.18-1.11 0-1.27.8-.61.51-1.15-.12-1.38a1.89 1.89 0 00-1.55.38c-2 1.74-2 4.24-2.28 6.56-.11.74.39 1.56.94 2.67m-9.27-2.64c.56-1.74 1.12-3.47 1.64-5.21.05-.16-.09-.39-.15-.58a2.47 2.47 0 00-.68.37c-1.45 1.49-1.11 3.35-.81 5.46zM538.14 359c-1.24.46-2.46 1-3.72 1.39-3 1-3.64.92-5.51-1.56-.91-1.22-1.54-.27-1.67.22-.49 1.88-2.11 2.13-3.49 2.75-2.53 1.14-4.48 0-4.79-2.73-.05-.44 0-.89 0-1.33a2.58 2.58 0 00-.18-.58 2.83 2.83 0 00-.69.42 2.16 2.16 0 00-.44.8c-1 3.15-3.76 3.64-6.43 3.85a26.79 26.79 0 00-5.54 1 10.38 10.38 0 01-4.47.29c-1.32-.19-2-1.22-2.14-2.78-.29-4.21.59-8.23 1.58-12.26.25-1 .19-2.12.5-3.11a5.84 5.84 0 011.24-1.62 8.57 8.57 0 01.68 1.48c.67 2.57-1.23 4.58-1.57 7s-1.19 4.9-1.08 7.48c.06 1.35.62 2 2 1.94h1.66c3 0 3 0 3-2.86a12.89 12.89 0 012-6.82 2.49 2.49 0 012.34-1.45c.4 0 1 1.35 1 2.09 0 2.41.66 5-1.5 7-.91.83.06.77.47.73 2.25-.21 4.28-.64 5.29-3.14.74-1.82 1.75-3.5 1.79-5.56 0-.4.63-.79 1-1.18a4.67 4.67 0 01.45 1.13c.21 1.58.43 3.16.5 4.75s-.23 3.28 1.25 3.93 3-.35 4.22-1.67 2.5-2.57 2.57-4.58a3.34 3.34 0 01.61-1.71 15.17 15.17 0 011.7-1.8 15.31 15.31 0 010 2.44c-.17 1.15-.84 2.3-.74 3.39.26 2.72 2.32 3.55 5.11 2.18s4.48-3.75 5.84-6.44a8.07 8.07 0 011.56-1.65v2.66c0 .07-.19.14-.22.23-.2.75-.39 1.51-.58 2.26.76-.21 1.53-.37 2.26-.65 3.44-1.28 6.59-.46 9.6 1.3.29.17.36.71.53 1.08-.43 0-1 .22-1.3.05-2.51-1.26-5.21-1-7.86-1-2.37.06-4 1.93-4.79 4.25-1 3.13-.58 6.65-2.58 9.51a1.42 1.42 0 01-2.64-.16 5.47 5.47 0 01-.65-2c-.12-2.84 1.21-5.2 2.79-7.43a12.44 12.44 0 011.32-1.34 1.74 1.74 0 00.21-.78l-.38.62m-29.77-.34a2.8 2.8 0 00.71.67c.12.05.46-.23.6-.44a6.74 6.74 0 001.33-5 4.07 4.07 0 00-.34-.82c-.23.23-.56.42-.67.7a35.58 35.58 0 00-1.63 4.91m27.79 9.93a1 1 0 00.24.23h.22c.51-2.1 1-4.2 1.5-6.32 0-.23-.21-.53-.33-.8a2.6 2.6 0 01-.32.86c-1.47 1.52-1.58 3.39-1.42 6.01zM470 284.92v.66c.08 2-.68 4.41 2 5.25a6.63 6.63 0 008.18-3.17c1.08-2.08 2-4.23 3.11-6.31.21-.39.73-.62 1.11-.92.28.43.73.83.82 1.3.27 1.44 0 2.87.56 4.4s1 2.52 2.59 2.75c1.88.28 2.82-.67 3.65-2.35 1.08-2.2 2.19-4.41 3.5-6.52a4.65 4.65 0 017.5-.58 11.49 11.49 0 012.76 7.1c-.06 3.37-1.7 5.45-5 5.62-3 .15-6 .43-8.87-.88a5.51 5.51 0 00-2.15-.38c-3.55-.12-3.93-.39-5.16-3.82a3.7 3.7 0 00-.68-.83 4.61 4.61 0 00-.62.89 6.52 6.52 0 00-.62 2.37c.07 1.26-.43 1.41-1.52 1.42a5.62 5.62 0 00-2.68.65c-3.12 1.81-6.11 2.14-9.05-.32-.81-.68-1.42-.32-2.28.14a13.55 13.55 0 01-7.65 1.48c-2-.18-3.86-1.51-3.94-3.32a52 52 0 01.4-6.09 10.52 10.52 0 00-.07-1.12c-.35.23-.91.4-1 .71-.55 1.66-1.84 3.22-.72 5.13.15.25 0 .65 0 1 0 1.06.33 2.26-.9 2.92a1.19 1.19 0 01-.85 0c-.31-1.18-1.15-2.72-.7-3.51 1.12-2 .1-3.25-.85-4.55-1.08-1.5-1.91-1.55-3.12-.2a23.75 23.75 0 00-2.59 3.87c-.81 1.42-1.48 2.91-2.24 4.36a5.36 5.36 0 01-.68.83c-.21-.4-.65-.84-.59-1.21a25 25 0 01.82-3.28 25.88 25.88 0 011.14-3.49c.58-1.28.89-3 3-2.61.2 0 .52.08.63 0 2.29-2.35 3.9-.77 5.51.91.83.87.55-.06.8-.42.92-1.31 1.25-3.34 3.54-3.1 0 1.54.47 3.22 0 4.58-.72 2 .18 3.74.47 5.55a1.91 1.91 0 001.41 1.07 36.81 36.81 0 005.94 0c1.69-.18 2.89-1.87 3.19-3.76a15.34 15.34 0 01.67-2.69 16.16 16.16 0 011.07-2c.08.74.16 1.48.23 2.55m31.43-4c-2.18-1.88-2.81-1.92-4.53-.07a10.22 10.22 0 00-1.63 2.3 118.09 118.09 0 00-3 6.34.8.8 0 00.25.66c3 0 6 .95 9 .06 1.42-.42 3.34-2.73 2.82-4.09a30.88 30.88 0 00-2.99-5.2zM345.6 189.64c2.06-.21 2.43.24 1.67 2-2 4.55-2.13 9.4-2.35 14.24 0 1 .51 1.11 1.2 1s1.36-.45 2.05-.64c1.45-.39 2.3-1.06 2.1-2.82a9.47 9.47 0 012.22-7.65c.59-.66 1.84-1.55 2.3-1.33a5.08 5.08 0 012.61 2.56c.39 1.38-.07 3-.12 4.5a5.54 5.54 0 00.12 2.24c1.29 2.94 2.68 3.31 5 1.22a15.15 15.15 0 003.46-4.18c1.09-2.19 2.94-3.13 4.9-4.14 1.52-.79 2.48 0 3.33 1.07 1.83 2.37 1.58 4.68 0 7.19a8.46 8.46 0 01-8.86 3.95 2.36 2.36 0 01-1.37-.63c-.91-1-1.89-.75-2.95-.44-2.53.75-3.37.49-4.48-1.7-.45-.89-.58-1.46-1.47-.34a2.67 2.67 0 01-1.81 1.09c-4.12-.4-7.67 2.29-11.75 2.08-1.35-.07-2.41.92-4.14.09-3.58-1.71-6.08-5.89-4.89-9.55a3 3 0 013.72-1.7c2.16 1.07 4.32 2.23 5.55 4.5a9.38 9.38 0 00.93 1.27c.21.25.47.47.7.7a3.59 3.59 0 00.33-1.14 38.52 38.52 0 011.4-10.73c.18-.8.43-1.59.65-2.71m22.5 10.92c-1.1 1.63-2.23 3.24-3.3 4.89-.69 1.05-.81 2 .86 2.05a9.11 9.11 0 006.07-2 4.93 4.93 0 001.63-4.89c-.11-.78-.36-1.88-.9-2.18a2.18 2.18 0 00-2.88.63 19.45 19.45 0 01-1.48 1.5m-33.74 4c1.68 2.17 3.67 3.55 6.63 3 1.37-.25 1.82-.87.92-2a55.32 55.32 0 00-4.65-5.26 2.52 2.52 0 00-2.26-.58 3.32 3.32 0 00-1.24 2.19c-.11.61.38 1.34.6 2.67m21.17-6.62c-.28-.33-.75-1-.81-.94-.65.39-1.54.76-1.78 1.37a22.1 22.1 0 00-1.19 4.74c-.07.54.54 1.18.84 1.78.52-.32 1.32-.51 1.52-1 .69-1.7 1.78-3.33 1.37-6zM112 396.08c.08.85 0 1.66.27 1.83.81.48.77-.38 1.16-.82a5.92 5.92 0 001.22-4.48 6.23 6.23 0 010-2 8.29 8.29 0 011-1.77c.31.64.92 1.3.88 1.92-.12 1.68.49 3.36-.53 5.06-.72 1.2.35 4.15 1.37 4.63a3.84 3.84 0 004.41-.77c1.9-1.92 4.35-3.37 4.88-6.57.25-1.47 1.54-3.86 3.54-3.49 1.32.24 2.68 2 3.38 3.39a12.9 12.9 0 011.44 5.65c0 3-4.15 5.36-7.12 4.42a6.55 6.55 0 01-1.15-.41 6.51 6.51 0 00-7.22-.09c-1.48.87-3.5-.5-4.24-2.52-.36-1-.78-.87-1.35-.35-.81.75-2 1.42-2.27 2.36a4.73 4.73 0 01-4 3.09c-1.68.29-3.61.77-5.34-.45a5.08 5.08 0 00-2.34-.69c-2-.22-2.65-1.17-2-3.07a3.26 3.26 0 000-1c.22-5.31.43-10.62.68-15.92 0-.42.4-.81.61-1.22.43.31 1 .53 1.23.94a2 2 0 01.09 1.58c-1.16 2.17-.37 4.47-.64 6.69-.13 1-.52 2-.61 3a5.05 5.05 0 00.48 1.65c.28-.34.59-.67.84-1 1.3-1.9 2-4.19 4.15-5.51s3.62-.92 5.23 1c1.14 1.37 2.08 2.68 1.83 4.88m-7.94-3c-1.1 2.38-2.17 4.78-3.33 7.14-.33.68-1 1.28.46 1.13 2.41-.24 4.85-.33 7.23-.76s2.36-.6 2.23-3.17a13.64 13.64 0 00-.65-3.33c-1-3.18-3-3.63-5.94-1m23.16 3.31a14.94 14.94 0 01-1.35 2.38c-.74.91-.41 1.66.41 1.87a15 15 0 005 .59c.71-.07 1.68-1.34 1.87-2.21.48-2.23-.43-4.33-1.56-6.19s-1.92-1.8-2.94.19a17.18 17.18 0 00-1.38 3.37m-20.51 5.95c-1.16.11-2.33.2-3.48.36a.83.83 0 00-.45.67c0 .21.34.61.51.6 1.88-.18 3.77-.38 5.64-.67.36-.05.64-.54 1-.83a6.06 6.06 0 00-1.21-.44 3.85 3.85 0 00-1.9.36zM215.92 39.45c1-1.55 1-3.25 2.92-4.16a2.32 2.32 0 012.9.55c.36 1.69 2.59 3.06 1 5.18-.36.47-.06 1.44-.06 2.18a13.78 13.78 0 002-1c2.42-1.67 2.51-4.43 3.14-6.94a21.09 21.09 0 01.84-2.3c.23.13.65.26.66.41a10.58 10.58 0 010 2.25c-.2 1.42-.47 2.83-.72 4.24a34.09 34.09 0 003.48-3.07c1.37-1.58 2.48-3.38 3.78-5 .49-.6 1-1.57 2.06-.49s-.32 1.24-.64 1.63c-2.51 3.06-5.12 6-7.66 9.06-.86 1-.65 2.92.52 3.32a18.58 18.58 0 006 1.33c3 0 3.39-.84 3.63-3.9a12.75 12.75 0 011.23-4.11c.24-.54 1.16-.77 1.77-1.13.32.63 1 1.31.9 1.9a20.64 20.64 0 01-1.11 4.81c-1.15 3 0 5 3.3 5.15 1.43.07 2.87 0 4.29 0 .3 0 .57.42.86.64-.18.22-.31.55-.53.64-3.17 1.28-6.36 1-8.8-1.23a5.11 5.11 0 00-4.74-1.33c-2.29.43-4.33-.27-6.45-.76a5.65 5.65 0 01-1.91-.93 1.06 1.06 0 00-1.62.17 4.67 4.67 0 01-.92.63c-.06-.31-.12-.62-.17-.92a1.22 1.22 0 010-.33c0-2.48 0-2.45-2.49-1.25a12.76 12.76 0 00-3.61 2.72 10.86 10.86 0 01-5.77 2.51c-1.6.26-3-1.26-3.27-2.81a10.91 10.91 0 011.69-8.45 3.72 3.72 0 011.49-1.16c.31-.14.8.11 1.21.19-.08.37 0 .94-.27 1.09-2 1.31-1.78 3.7-2.75 5.5-.71 1.34.31 2.46 1.14 3.3.35.36 1.44 0 2.19-.06a3.39 3.39 0 001.25-.15c.82-.43 1.58-1 2.37-1.48-.59-.47-1.2-.91-1.76-1.41-1.41-1.28-1.51-3-1.4-5m2-.33c-.65 1.45-.17 4 1 4.19.65.13 1.92-.3 2.11-.8a6 6 0 00.27-3.29c-.61-3-.93-3.06-3.12-1-.08.07-.16.15-.23.89m23.15 2.64l.4.27c-.03-.22-.05-.42-.41-.29zM385.8 160.7a7.83 7.83 0 011.4 6.54 5 5 0 01-2 3.14c-2.5 1.6-5.23 2.5-8.19.78a1.92 1.92 0 00-2.34.19c-2.86 2.05-6 2.93-9.19.18-.54-.46-1.62-.38-2.45-.4-4.2-.06-4.79-.57-5.49-4.81a9.35 9.35 0 00-.35-1.14c-.1.4-.08.92-.33 1.18-.82.86 0 1.64 0 2.45a8.4 8.4 0 01-.05 2.3c-.15.51-.78.89-1.19 1.33a4.44 4.44 0 01-.8-1.08c-.27-.77-.84-1.88-.53-2.35 1.29-1.95.38-3.4-.75-4.83a29.47 29.47 0 00-2.28-2.33 15 15 0 00-1.63 3c-.59 2-.92 4-1.37 6-.07.3-.1.69-.3.85a7.45 7.45 0 01-1.33.74 3.29 3.29 0 01-.33-1.16c.16-1.57.41-3.13.64-4.69s.38-2.92.69-4.35c.12-.57.46-1.41.89-1.55 1.27-.43 2.78-1 3.92-.68s1.64 1.81 2.44 2.79a4.85 4.85 0 01.64.73 3.47 3.47 0 01.26.88c.15-.32.34-.62.46-.95.44-1.25.81-2.53 1.31-3.75.18-.44.68-.74 1-1.1a12.18 12.18 0 01.9 1.61c.09.23-.1.6-.22.88-.9 2.21-.41 4.35.24 6.5a2.67 2.67 0 002.42 2.17c1.19.08 2.62-1.35 2.88-2.69.22-1.12.52-2.23.65-3.37.24-2.12 1.77-3.33 3.17-4.62.4-.37 1.35-.69 1.69-.47a2.48 2.48 0 011.06 1.76 11.76 11.76 0 01-3.34 8.52 16 16 0 00-1.07 1.39 8.49 8.49 0 002 .8c4.33.63 5.61-1.36 7.78-6 .91-1.94 1.63-4 2.71-5.81a3 3 0 012.4-1.34 5 5 0 014 2.71m-7.11 4.13a12.83 12.83 0 00-1.29 2.11 3.17 3.17 0 00-.28 2.18 2.5 2.5 0 003 1.32c.69-.16 1.37-.64 2-.6 1.68.07 2.5-.78 3.14-2.19.76-1.68-.17-6.06-1.62-7.06-1.82-1.26-2.87-1-3.85 1.09a15.49 15.49 0 00-1.17 3.15m-8.6-2.65c-.16-.5-.31-1-.46-1.52-1.56 1.16-4 4.66-3.51 7.07a5.54 5.54 0 00.17.58c.23-.12.57-.19.68-.39 1-1.74 1.91-3.55 3.17-5.69zM134 493.51a24.67 24.67 0 00.84-3.52.75.75 0 00-.46-.59 11.18 11.18 0 00-1.64 0c-4.05 0-6.92-3.23-6.13-7.12a10.21 10.21 0 013.14-5.61c.29-.27.88-.19 1.34-.27-.09.37-.06.85-.28 1.11a9 9 0 00-2.28 7c.18 1.89 1.08 2.84 3 2.9h1.66c1.35.05 1.79-.62 2-1.94a22.61 22.61 0 012.52-8.2 5.29 5.29 0 011.15-1.05c.3.54.87 1.07.88 1.6 0 2.4.74 4.84-.49 7.17-.44.83 0 1.1.9 1.11 2.5 0 6-2.53 6.88-5.22.4-1.28.41-2.68.72-4 .11-.48.57-.86.87-1.29a3.85 3.85 0 01.92.76c1.4 2.27 2.74 4.59 4.15 6.86.36.58.93 1 1.33 1.56.24.33.53 1 .45 1.1-.47.34-1.2.86-1.53.7a3.93 3.93 0 01-1.56-1.62c-.75-1.32-1.35-2.74-2-4.12-.31-.64-.6-1.29-.9-1.94a10.93 10.93 0 00-1.06 2c-.64 2.1-1.31 4.11-3.56 5.1-.43.19-.68.75-1 1.14.51.08 1 .12 1.55.25 2.43.64 4.72 1.89 5.82 4a7 7 0 010 5.22c-2.54 6.41-7.6 10.44-13.74 13.16-1.93.85-3.13-.82-3.76-3.44-1-4.29.52-8.46.25-12.85m2.48 14.06c1.85.51 2.94-1 4.32-1.67a17.93 17.93 0 009.28-10.55 3.15 3.15 0 00-.71-3.44c-1.54-1.94-3.71-2.76-5.79-3.61a16.85 16.85 0 00-5.23-.85 2.38 2.38 0 00-1.81 1 6.29 6.29 0 00-.7 2.66c-.27 4.08-.44 8.17-.69 12.26a6 6 0 001.33 4.21m.66-23.16a9.59 9.59 0 00-.36 1.52c.9.37 1-.18 1.05-1 0-.37.5-.74.48-1.09-.07-1.5 1.7-2.8.46-4.4-1.2 1.22-1.37 2.78-1.57 5zM28 480.77c-.68 2.22-.52 1.89 1.2 2.74a2.84 2.84 0 003.86-.75c1.74-1.82 3.94-3.36 5.2-5.46a5 5 0 00-3.26-7.56c-2.72-.44-5.67-1-8.39 1a4.87 4.87 0 00-2.25 4c0 1-.39 1.19-1 1.35-.13 0-.54-.7-.64-1.12-.63-2.62 1.11-4 2.86-5.37 3.56-2.84 9.8-2.59 13.09.27 2.29 2 2.47 6.55 1 8.8a18.16 18.16 0 01-6.33 6.11c-2.36 1.34-2.69 3.08-1.14 5.12a2.44 2.44 0 001.63.77 17.25 17.25 0 008.73-2c.94-.46 3.11-1.06 1.3-3 1.43-2.72-.37-6.21 2.14-8.72.94-.94 1.41-.86 2.36 0 1.82 1.68 2 6.14.6 8.32-.56.88-1.25 1.68-1.85 2.54-.81 1.16-.51 2.17.79 2.19a32.81 32.81 0 004.36-.59c.27 0 .57.2.86.3a2.23 2.23 0 01-.46.46c-1.06.64-2.08 1.61-3.21 1.76-1 .13-2.12-.6-3.12-1.09a4.86 4.86 0 00-4.72-.18 26.64 26.64 0 01-5.77 2c-2.75.62-4.57-.54-5.69-3.45-.4-1-.13-2.52-1.86-2.45s-1.48 1.37-1.68 2.56a17.76 17.76 0 01-1.3 3.68c-.16.37-.6.63-.92.94a14.85 14.85 0 01-.33-1.47 1.73 1.73 0 01.11-.93c1.48-3.11 1.46-6.5 1.87-9.81.37-2.91.84-5.81 1.34-8.71a3.35 3.35 0 01.75-1.33c.83-1 1.49-1.49 2.11.28.36 1 .56.88-.58 1.53a2.07 2.07 0 00-.95 1.23c-.31 1.87-.48 3.78-.7 6m20.51.33c0-.33.13-.74 0-1a11.8 11.8 0 00-1.21-1.35 6.24 6.24 0 00-.73 1.43 28.63 28.63 0 00-.65 4 12 12 0 00.29 2.5 14.45 14.45 0 001.37-2.06 15.42 15.42 0 00.93-3.48zM70.52 120c-.34-2.83.29-5.54-.78-8.17a5.23 5.23 0 010-2.3.84.84 0 01.56-.57.87.87 0 01.71.41 9.58 9.58 0 01.67 2.36c.28 2.88.43 5.77.69 8.65.16 1.68.38 3.36.7 5a1.34 1.34 0 001.07.69c.81-.08 1.58-.49 2.38-.57.3 0 .65.51 1 .79l-.81.49c-4.35 2.48-9.11 2.22-13.71 1.84-1.35-.1-2.59-2-3.84-3.06-.45-.4-.69-1.24-1.16-1.35a3.4 3.4 0 00-2.53.11c-.74.55-.16 1.43.33 2.22a13.36 13.36 0 011.33 3.4c.12.43-.21 1-.33 1.48-.45-.24-1.12-.37-1.31-.74a35 35 0 01-1.62-4c-.65-1.8-1.36-2.32-3-1.9-.28.08-.45.53-.73.62-.88.3-2.13.23-2.59.81a8.18 8.18 0 00-1 3.19c-.12.53.17 1.22-.07 1.63a9.94 9.94 0 01-1.59 1.66 6.9 6.9 0 01-.32-1.82 29.86 29.86 0 00.49-3.72c0-.59-.82-1.19-1.34-1.71a5.16 5.16 0 00-1.16-.69c.23-.34.46-1 .71-1 4.41-.13 2.88-4 3.87-6.21a42.11 42.11 0 001.4-5c.11-.38.58-1 .83-.93.62.06 1.46-.63 1.83.66.75 2.64 1.86 5.2 2.54 7.86.27 1 .43 1.9 1.6 2s2.41.32 3.11-1.09c.42-.83.26-2 1.66-2.28.87-.15 1.75-1.29 2.43-1.14a21.1 21.1 0 014.81 1.92c.65.33 1.08 1.08 1.66 1.59s1.24 1 1.86 1.49a16 16 0 00-.36-2.62m.5 6.46l-1.32-2.07c-2.68-4.12-3-4.21-7.07-2.12-2.82 1.45-2.9 2.33-.26 4.1a3.54 3.54 0 001.78.4 44.44 44.44 0 006.87-.31m-20.84-3c1.33.07 2.58-.24 2.27-1.87-.4-2.09-1.12-4.12-1.72-6.17a9.92 9.92 0 00-.46-1.13c-.14.43-.29.85-.42 1.27-.67 2.14-1.37 4.26-2 6.41-.41 1.44.51 1.62 2.3 1.49m12.57-2.65c.55-.17 1.52-.24 1.58-.52.25-1.09-.7-.74-1.27-.8h-.66c-1.38-.26-1.77 1-2.61 1.64a10 10 0 003-.3zM67.71 351.75c3.06-.19 4.76 1.18 4.63 3.6a5.71 5.71 0 01-.21.91 2.8 2.8 0 01-.69-.47c-2.29-2.81-3.83-2.92-6.35-.43-1.55 1.54-3.19 3-4.58 4.68a1.52 1.52 0 00.45 2.47 12.71 12.71 0 002.84 1.12c4.37.89 8.39 2.26 10.54 6.66.09.2.31.33.47.49.23-.23.65-.45.67-.7a22.22 22.22 0 00.13-4.23c-.23-2 .75-3.64 1.55-5.33.15-.31.68-.74.9-.67s.88.6.86.9c-.18 2.55.65 5.21-.63 7.65-.5 1-1.19 1.77-.08 2.81.84.79 1.46.66 2.62.55 4-.37 5.33-2.94 6-6.14.29-1.37 1-2.39 2-2.52a2.61 2.61 0 012.4 1.93 9 9 0 011 3.59c-.06 2.17.55 2.5 2.68 1.92a4.69 4.69 0 011.13-.05c-.16.45-.18 1.06-.49 1.34-2 1.78-4.18 1-4.69-1.67-.25-1.33-.38-2.7-.7-4-.11-.43-.66-.74-1-1.11-.31.31-.74.57-.91.94-.26.55-.29 1.2-.5 1.78a8.14 8.14 0 01-8.65 5.82c-.33 0-.84.14-1 0-1.89-2.54-3.26-.24-4.65.57a18.29 18.29 0 01-8.77 2.79c-3.66.14-7.16-.16-10.43-2a7 7 0 01-2.34-2.2c-.33-.48-1.17-.9-.15-1.37a2 2 0 011.56.16 15.65 15.65 0 012.76 2.09 5.24 5.24 0 004.1 1.31c3.81-.07 7.65.31 11.11-1.94 1.87-1.21 2.1-1.51.83-3.2a11.31 11.31 0 00-6.55-4.12c-1.21-.31-2.47-.41-3.68-.69-3.63-.82-4.66-4.07-2.17-6.91a26.84 26.84 0 017.99-6.33zM466.85 204.36c-1.71 1.1-2.79 0-3.75-.84s-1.35-.75-2.13 0a4.37 4.37 0 01-1.7.64c-2 .66-2.17.58-2.51-1.43a12.23 12.23 0 00-.31-1.19 5 5 0 00-1 1.19c-1.19 2.83-4.36 4.57-6.83 3.32a4.11 4.11 0 01-1.7-3.09 34.6 34.6 0 01.79-7.24c.65-3.11 1.57-6.17 2.45-9.23a3.5 3.5 0 011.06-1.48c.12-.11.93.22 1 .49.23.62.56 1.56.27 2-2.68 3.71-3.12 8.05-3.71 12.36a7.06 7.06 0 01-.21.91c-.62 2.39.18 3.34 2.46 3.47s2.57-1.47 3.46-2.74a3.69 3.69 0 00.2-4.29c-.77-1.32-2.09-.85-3.24-1a5.07 5.07 0 01-1.22-.43c.43-.51.79-1.37 1.3-1.46 1.13-.2 2.4-.38 3.22.91.56.89 1.25 1.68 1.85 2.55a5.42 5.42 0 01.47 1.07 7.59 7.59 0 01.32-1.18 44.68 44.68 0 012.33-4.64 1.61 1.61 0 012.05-.2c2.85 1.7 3.17 2.19 1.92 6-.79 2.42.24 4.26 2.42 3.92a7.08 7.08 0 003.84-1.74 19 19 0 002.64-4.48c.67-1.26.67-2.77 1.81-3.91.61-.61.69-1.94 1.9-1.67a3.88 3.88 0 013 2 13.19 13.19 0 011.23 7.73c-.26 2.27-2.53 2.45-4.11 2.73s-3.35-.63-5-.47c-1.47.15-2.71 1.59-4.58 1.4m8.44-10.42c-.46 1.35-.93 2.69-1.39 4l-1.14 3.38c1.29.06 2.58.21 3.86.18a2.64 2.64 0 002.63-2.59 9.18 9.18 0 00-1.82-5.48c-.64-1-1.26-.51-2.14.48m-15.22 2a9.69 9.69 0 00-2 5.74 4.73 4.73 0 00.3 1.19 4.15 4.15 0 001.11-.44c1.91-1.47 2.4-3.52 2.67-5.81.07-.6.43-1.13-.21-1.36-.39-.11-1 .26-1.86.72zM273 236.45c2.47 2 4.76 3.94 7.1 5.76 1.25 1 4.34-.71 4.63-2.48.1-.64 0-1.32 0-2 .12-1.47.56-2.25 2.39-2.58 2.41-.43 4.51-.93 6.31 1.19a.78.78 0 00.54-.26c.56-1.72 2.15-2.87 3.51-2.65a8.25 8.25 0 015.75 3.53c1.64 2.57 1.4 5.49 1.33 8.36 0 .18-.2.35-.3.53a4.65 4.65 0 01-1.67-4.24c.34-2.45-1.05-4.14-2.82-5.39-.83-.59-1.91-1.7-3.38-.47-1 .83-1.75 1.56-1.74 2.89s.09 2.87-.05 4.29c-.05.55-.6 1.06-.92 1.59-.34-.51-.9-1-1-1.52-.16-1.08.1-2.23-.09-3.29-.23-1.29-.47-2.79-2.13-3.09s-2.57.67-3.12 2.11c-.65 1.72-1.34 3.42-2 5.13-.14.39 0 .93-.26 1.2a4.45 4.45 0 01-1.3.8 6.08 6.08 0 01-.4-1.41 4.31 4.31 0 01.29-1.23 4.1 4.1 0 00-1.11.48 19.86 19.86 0 00-1.85 1.82 7.1 7.1 0 01-4.63 2.41c-3.84.47-7-1.13-10.13-2.76a5.17 5.17 0 01-1.88-1.78 5.74 5.74 0 01-.4-2 5.47 5.47 0 011.63.52c3.69 2.81 8 1.82 12.08 1.93.41 0 .84-.58 1.27-.88a6 6 0 00-.8-.93c-1.6-1.17-3.25-2.27-4.84-3.45a3.33 3.33 0 01-.63-5.23c.68-.72 1.37-1.44 2.11-2.1 1.15-1 2.52-1.79 4-1.08a3.06 3.06 0 011.54 3.62c-.1.49-.23 1-.35 1.47a6.22 6.22 0 01-.95-1.26c-1.05-2.56-1.59-2.76-3.39-.94a15.3 15.3 0 00-2.42 3.37m.83 10.1a22.51 22.51 0 002.84-.24 9.52 9.52 0 002-.88 10.85 10.85 0 00-2.19-.18 35.11 35.11 0 00-3.64.64 9.38 9.38 0 00-1.22.44c.59.09 1.1.16 2.28.24zM341.47 287.07c-2-3.06-.84-6.28-1.15-9.34a.77.77 0 01.17-.58c.52-.47 1.08-.9 1.63-1.34.06.64.35 1.37.14 1.89a9 9 0 00-.09 6.79c1.36 3.76 3.69 5.27 7.32 4.34.58-.15 1.18-1.1 1.37-1.78.91-3.36 1.5-6.83 3.37-9.84.52-.84 1.47-2.16 2-2.07 1 .17 1.58 1.28 2 2.53.87 2.38-.05 4.57-.29 6.74-.15 1.37-1.95 2.58-3.08 3.8-.32.35-.94.4-1.35.69-.69.5-1.32 1.07-2 1.61a17.77 17.77 0 012.15 1c2.69 1.73 5.49 3.37 7.42 6s1.1 5.26 0 7.79a16.09 16.09 0 01-9.42 9.48c-.38.14-.71.47-1.09.53-3.12.53-5.55-1.56-5.75-4.85a27.42 27.42 0 011.58-9.59c.73-2.44 1.64-4.83 2.37-7.28.37-1.23-.79-2.38-1.86-2.8-2-.79-4.6-.89-5.56-3.75m10.75 5.46c-1-.79-1-.17-1.4.68a66.8 66.8 0 00-4.42 15.63 4.72 4.72 0 001.57 4.53 2 2 0 001.56.33 15.72 15.72 0 0010.76-10.48c.88-2.62.22-4.17-1.31-5.94-1.77-2-4.09-3.23-6.76-4.75m2-11.91c-.46 2-.91 4-1.37 6-.08.32-.21.62-.31.93a5.08 5.08 0 00.88-.18c2.34-1 4.15-4.62 3.61-7.22-.18-.85-.49-1.67-.75-2.5l-1.5 2.42c.05.11-.05.17-.45.58zM326.25 229.18c.45-.5.74-.83 1-1.16.38.48 1.09 1 1.08 1.43-.08 2.84.49 5.68-1.2 8.43-1.85 3-.41 5 3.15 4.68a13 13 0 004-.72 4.39 4.39 0 002-2.22 5.48 5.48 0 00.06-2.62c-.38-3.52.87-6.58 2.67-9.47a3.82 3.82 0 011-.81c.11.49 1.05.38.64 1.44-.49 1.24-.13 2.78-.36 4.16a39 39 0 01-1.34 6.06 3.07 3.07 0 002.57 4.19c.65.06 1.32 0 2 0a2.46 2.46 0 01.75.36c-.24.24-.44.62-.71.68-1.45.32-2.81.58-4.29-.33a3.65 3.65 0 00-4.1-.16 13.3 13.3 0 01-5.35 1.36 4.65 4.65 0 01-4.18-1.78c-.6-.76-1-.48-1.73-.17-2.93 1.29-5.9 2.12-9.11.75-.63-.27-1.63.19-2.41.45a21.49 21.49 0 01-3.41 1.3c-.49.08-1.23-.75-1.7-1.3-1.12-1.27-.87-2.87-.5-4.27a12.4 12.4 0 011.87-3.83c.5-.73 1.57-1 2.22-1.7 1-1 1.55.27 2.32.35.29 0 .57.31.85.32 2.06 0 2.09 0 1.52 2 0 .09-.19.15-.22.24-1.09 4-.21 5.11 3.88 5.09a11.89 11.89 0 002 0c2.87-.51 3.35-1 3.23-4a22 22 0 011.85-8.74m-14.06 12.07c1.61-1.07 1-2.74.93-4.14a1.54 1.54 0 00-2.7-.63 14.82 14.82 0 00-1.82 3.78 5.67 5.67 0 00.15 2.18c.88-.13 1.77-.24 2.65-.41.17 0 .31-.29.79-.78m26.8-7.61l-.21-1.53a9 9 0 00-.67 1.1 4 4 0 00-.42 1.44 23.72 23.72 0 00.18 2.51c.3-.66.61-1.31.89-2a5.14 5.14 0 00.23-1.54m-11.96-.63l.41-.91c-.29 0-.81 0-.84.06a27.36 27.36 0 00-.87 3.19 3.2 3.2 0 00.2 1.19c.36-.31.93-.56 1-.95a11 11 0 00.1-2.58zM197.89 469.69c-2.07-.61-4-1-5.89-1.51a5.46 5.46 0 01-1.65-.79.88.88 0 01-.18-.84.93.93 0 01.82-.31c1.7.39 3.4.8 5.07 1.31 6.59 2 8.29 9.1 3.54 14.06a14.52 14.52 0 01-6.73 3.72c-3.46 1-6.75-1.45-8.05-5.56-.09-.3-.16-.6-.24-.9-.31.26-.85.47-.89.76-.15 1.07-.11 2.16-.22 3.24a.82.82 0 01-.61.51c-.23 0-.65-.29-.65-.47-.06-1.32 0-2.64 0-4-.1-2.13-.69-2.89-2.06-2.81a2.7 2.7 0 00-2.53 3 7 7 0 01-1.37 5.06 3.48 3.48 0 01-.67.51c-.22-.29-.6-.58-.61-.88a34.88 34.88 0 010-4c0-.77.69-1.88.38-2.23a11.89 11.89 0 00-3-2.16c-.33-.2-.87 0-1.3 0-1.09-.12-2.18-.27-3.26-.41 0 1.2-.11 2.4-.08 3.6.05 1.63.12 3.33-1.34 4.38a20.87 20.87 0 01-4.32 2.31c-1 .39-2.94-1.15-2.92-2.24 0-2.46-.49-5 .63-7.33.16-.33.37-.64.55-1 .36.21.84.33 1 .64.63 1 .25 1.86 0 2.94s-1.61 2.37-.4 4.1c.71 1 1.21 1.08 1.91.78a5.47 5.47 0 002.44-8.57c-.81-1.17-.58-1.82.76-1.85a19.37 19.37 0 018.47 1.85 4.13 4.13 0 004.06.15c2.26-1.2 2.37-1.07 4.35.85.78.76 1.27.73 1.34-.51a2.85 2.85 0 01.42-.93c.23.23.59.42.67.7.34 1.08.63 2.18.87 3.28 1 4.48 2.53 5.82 6.81 5.12 3.39-.56 6.05-2.05 7.21-5.92.93-3.18.03-5.34-2.33-7.65zM478.76 238.77c.94-1.16 1.67-2.2 2.51-3.15a21.78 21.78 0 012.81-2.79c1.86-1.42 3.38-1.13 4.4 1a11 11 0 011.37 6.37 3.31 3.31 0 01-3.17 3c-1.57 0-3.39 0-4.62-.71-2.31-1.4-4.5-1-6.84-.58-2.07.42-2.51.12-3.26-1.72a10.72 10.72 0 00-1-1.57 5.1 5.1 0 00-1 1.24c-1.12 3-8.7 4.88-11.21 3.81a5.84 5.84 0 01-3.26-7.43 8.31 8.31 0 011.62-2.94c1.42-1.68 2-1.77 3.58-.2a25.84 25.84 0 012.85 4.08 5.78 5.78 0 00.7.7 6.57 6.57 0 00.39-1c.66-3.25 1.32-6.5 1.91-9.77.15-.85-.07-1.77.13-2.6a6.08 6.08 0 011-1.66c.3.65.87 1.31.84 1.94a35.61 35.61 0 01-.69 4.32c-.4 2.25-.77 4.51-1.26 6.74-.33 1.49-.88 2.94-1.27 4.42a1 1 0 00.21.86.89.89 0 00.84 0c1.73-2 4.25-3.34 4.91-6.22.24-1.05.5-3 1.83-2.51 1.54.52.14 2.35-.09 3.2a4.2 4.2 0 00.14 3.5c.67 1.26 1 2 2.5.88a15.94 15.94 0 013-1.2m8.11-4.13c-.45-.22-1.16-.72-1.32-.59a18.58 18.58 0 00-3.46 3.46c-1.38 2.1-.37 3.65 2.19 3.74h1.64c2.25 0 2.94-1.11 2.19-3.38a21.54 21.54 0 00-1.24-3.23m-25.81.66c-2.7-1.19-3.14-1-3.64 1.62q-.09.45-.21.9c-.68 2.5.39 4 2.85 4.09a16.17 16.17 0 012 0c1.64.21 1.56-.79 1.21-1.78a36.86 36.86 0 00-2.08-4.84zM362.81 476.8a7.59 7.59 0 010 2 5 5 0 01-.9 1.28 5.89 5.89 0 01-.37-1.38c0-1.26 0-2.9-1.39-3.06-1-.12-2.23.88-3.2 1.6-.18.14-1.1 1.29 0 2a39.18 39.18 0 014.08 2.91c1.09.94 2.59 1.61 2.49 3.52s-1 3.1-2.89 3-3.76.23-5.73-.5c-1.65-.61-3.7-.19-5.58-.11s-3.47-.25-3.7-2.57c-.11-1-.71-1-1.28-.42a8.45 8.45 0 00-1.35 1.74 10.07 10.07 0 01-6.6 4.49c-2.69.66-4.41-2-4.24-4.71.31-4.72 2.16-9 3.58-13.41a17.77 17.77 0 011.6-3c.08 1.24.49 2.58.17 3.71-.72 2.54-1.93 4.93-2.69 7.47a26.81 26.81 0 00-1.05 5.84c-.12 1.79.52 2.38 2.35 2.08 1.47-.25 3.26-.69 4.18-1.71 2.36-2.61 5.19-5.12 4.72-9.28a4.45 4.45 0 01.8-2.61c.3-.47 1.38 1.08 1.12 2-.08.28-.62.49-.61.72.07 2.23-.55 4.58.7 6.64 1.41 2.33 3.4 2.18 4.78-.25a6 6 0 011-1.42c.17-.16.63 0 1 0 0 .28 0 .57-.08.85-.27 1.83.12 2.38 1.91 2.44s3.53.08 5.29 0a.9.9 0 00.57-1.64 51.34 51.34 0 00-4.46-3.61c-2.9-2-3-4.2-.18-6.26a15 15 0 011.56-1c.76-.41 2-1.26 2.25-1 .96.85 2.53 1.51 2.15 3.65zM171.76 392.27c-.34 1.3-.21 2.37-.71 3.58-1 2.37 0 3.42 2.81 3.53a4.65 4.65 0 011 0c.26.06.63.26.67.46s-.14.76-.31.81c-1.1.27-2.7 1-3.25.55-2.22-1.89-4.25-.55-6.39-.17a4.12 4.12 0 01-2.64-.17 4.4 4.4 0 00-4.34-.19c-2.55 1-5 1.5-6.7-1.49-.52-.91-.88-.11-1.15.21-2 2.32-6.39 3.73-9.07 2.53a4.49 4.49 0 01-2.4-2.79 11.05 11.05 0 013.34-10.1 5.52 5.52 0 012.25-.9c.24-.07.83.23.83.24-.48 1.92 1.29 3.81.08 5.7-.18.29-.57.44-.86.65-.15-.24-.4-.47-.43-.73-.06-.54.06-1.11 0-1.65a9.77 9.77 0 00-.57-1.59c-.46.39-1.12.69-1.36 1.19a39 39 0 00-1.55 4c-.87 2.52.19 4 2.81 4.1h2c3.28 0 5.27-2 5.33-5.34a18.12 18.12 0 01.08-2.95c.07-.38.78-.65 1.19-1 .24.38.66.75.68 1.14.08 1.43 0 2.86 0 4.29.05 2.35 1 3.21 3.4 3.18 2.86 0 4.12-1.23 4.56-4.09a22.67 22.67 0 011-3.86c.1-.3.65-.55 1-.6.15 0 .58.6.54.88-.19 1.34.44 2.69-.51 4.1-.46.67-.79 2.6.61 3.19a5.38 5.38 0 003.29-.07c1.61-.47 2.76-1.41 2.65-3.45a13.56 13.56 0 01.65-4c.12-.46.72-.8 1.11-1.2.44.56 1.42.94.36 2.01zM146.45 122.15c1.58-3.07 1.29-6.3 1.34-9.5a3.36 3.36 0 01.42-1.08c.44.26 1.09.42 1.28.8a2.37 2.37 0 01.22 1.85c-1.1 2.07-.34 4.26-.64 6.36-.25 1.77.82 1.75 2 1.56 3.48-.57 4.38-1.64 4.71-5.25a4.42 4.42 0 01.69-1.69.92.92 0 01.83-.28.84.84 0 01.42.7c-.13 1.59-.32 3.17-.5 4.75a7.43 7.43 0 00-.13.93c0 1.68-.5 3.9 1.11 4.69s3.83.07 5.46-.89c2.8-1.66 3.58-4.34 2.71-7.9a3 3 0 010-1.31 4.06 4.06 0 01.48-1c.36.19.93.31 1 .6a35.87 35.87 0 011.1 3.52c.25.89.43 1.8.67 2.7.42 1.62.62 3.76 2.28 4.24 2.16.63 4.48 1.47 6.85.64a11.24 11.24 0 011.47-.44c.17 0 .37.15.56.23-.1.16-.16.38-.3.46-1.76 1-3.39 2.36-5.65 1.54a10.63 10.63 0 00-2.92-.88c-2.73-.09-3.08-2.13-3.62-4.07-.11-.39-.18-.8-.27-1.21a10.77 10.77 0 01-.71 1.24 10.6 10.6 0 01-6.61 4.64 3.81 3.81 0 01-5-3.24c-.42-2.11-.64-2.24-2.69-1.67a13.35 13.35 0 00-1.86.32c-1.36.63-3 .89-2.83 3.2.1 1.32-.75 2.72-1.25 4.06-.1.28-.55.44-.84.66-.15-.36-.47-.73-.42-1.06a18.34 18.34 0 01.64-3c.88-2.88.91-2.88-1.77-3.85-2-.72-2.9-2.32-3.5-4.17-.1-.3.22-.75.34-1.13a4.06 4.06 0 011.11.52 47.36 47.36 0 003.82 3.41zM73 253.82c-1.69.63-3 1.6-4.42 1.79-1.82.23-3.5-1.57-3.47-3.63 0-2.88.39-5.76.63-8.64a1.38 1.38 0 01.39-.81 5.88 5.88 0 011.06-.62c.18.45.55.92.49 1.33-.23 1.53-.62 3-.89 4.57a11.63 11.63 0 00-.36 3.13c.27 2.58 1.7 3.2 4.07 2.26a6.09 6.09 0 003.39-3.41c.49-1.2 2.14-2.64.51-4.29a10.52 10.52 0 011.15-1.6 5.31 5.31 0 01.74 1.41c.28 1.88.3 3.82.73 5.66a2.72 2.72 0 003.37 2.19 10.46 10.46 0 007.83-8c.18-1-.3-1.56-1.24-1.22-1.72.62-3.84.17-5.15 2-.22.31-1 .21-1.55.3.18-.77.12-2 .57-2.23a15.44 15.44 0 014.37-1.37c2.25-.37 2.68-.68 3-2.89a8.61 8.61 0 01.66-2 5.68 5.68 0 01.77-1.07 5.34 5.34 0 01.52 1.31c.13 1.28-.32 3.1.37 3.73s2.48.23 3.78.25c1.54 0 3.09-.09 4.62.05.62.06 1.19.65 1.78 1a6.06 6.06 0 01-1.92.9c-2.2.11-4.4 0-6.61 0-2.41 0-2.62.23-2.66 2.54 0 1.76.07 3.52 0 5.28a4.91 4.91 0 01-.85 1.94c-.08.14-.66.18-.83 0a1.1 1.1 0 01-.24-.86c0-.16.4-.31.41-.47v-2.45a12.27 12.27 0 00-1.62 1.51 8.32 8.32 0 01-8.06 3.13 2.63 2.63 0 01-2.17-1.89c-.72-1.56-1-1.56-2.06-.2a5.77 5.77 0 01-1.11 1.37zM168.94 368.29c-.17.88-.26 1.85-.54 1.91-1.09.22-.7-.74-.78-1.31-.19-1.36-1-2.55-.11-4.14.56-1 .3-2.41-1.56-3.25a9 9 0 01-5.64-8.11c0-1-.49-2-.59-3 0-.39.36-.83.56-1.25.42.3 1 .51 1.24.91a2.66 2.66 0 01.13 1.59c-.76 4.2 2.46 6.18 4.87 8.55.44.43 1.5.76 1.83-.75a27.35 27.35 0 012-5.13c.1-.23.86-.38 1.16-.24a1.23 1.23 0 01.34 1.1 25.71 25.71 0 01-1.68 4.92c-.49.94-.47 1 .48 1 2.78-.1 5.19-.77 6.37-3.7a31.5 31.5 0 012.11-4.08 1.24 1.24 0 011.12-.41c.53.2.42.53.16 1.15-.94 2.26-1.62 4.62-2.41 6.94-.09.29-.38.55-.39.82a5.21 5.21 0 00.25 1.21c.24-.2.48-.38.7-.59a17.16 17.16 0 012.56-2.49 4.22 4.22 0 015.38 1.06 26.06 26.06 0 014.19 9.83c.19.77-.61 1.85-1.11 2.69-.19.31-.84.36-1.27.53-.06-.42-.28-.89-.15-1.25 1.66-4.68-1.2-7.89-3.71-11.15a2 2 0 00-3.33.09 50 50 0 00-2.9 4.41c-.43.69-.68 1.5-1.13 2.17-.2.3-.69.4-1.06.59-.15-.35-.48-.72-.44-1 .2-1.56-.46-3.16.57-4.73.63-1-.36-1.84-1.56-1.5a36.07 36.07 0 00-4.39 1.37 2.44 2.44 0 00-1.21 1.61 21.26 21.26 0 00-.06 3.63zM289.2 73.36a10.51 10.51 0 00-.65-1.28c-.79-.88-1.53-1.87-3-1.55s-1.8 1.71-2.08 2.82a47.11 47.11 0 00-.73 5.33 3.11 3.11 0 01-.38 1.16 10.76 10.76 0 01-1.05 1.29 9.69 9.69 0 01-.53-1.63c-.09-.65-.28-1.51 0-1.94.58-.79.89-1.43.35-2.31a13.64 13.64 0 00-1.62 1.5c-1.87 2.33-7.69 4.56-10.3 3.68a3.35 3.35 0 01-2.41-3.19 15.41 15.41 0 012.62-10.18 2.56 2.56 0 012.76-1.13c1.24.15 2.47.44 3.7.64.52.09 1-.15.47.82-.92 1.6-1.95 3.25-1.64 5.3 0 .23-.9.92-1.19.82-.76-.26-.28-.77-.19-1.37a5.39 5.39 0 00-.72-3.26c-.19-.31-2.29-.09-2.37.19-.65 2.38-2.53 4.4-2.1 7.09a2.35 2.35 0 002.56 2.34 10.25 10.25 0 009.59-4.68c1-1.43 1.3-3.42 1.73-5.21.36-1.52.45-3.11.71-4.67 0-.25.32-.45.49-.67.27.23.68.43.78.72a4.39 4.39 0 010 1.31c0 3.1 0 3.11 2.67 3.26 2.35.13 3.34 1.81 3.9 3.7a40.17 40.17 0 01.73 4.67 1.8 1.8 0 00.63.86c.05 0 .45-.28.66-.47.06 0 0-.25 0-.31.57-.59 1.16-1.16 1.74-1.74a9.27 9.27 0 01-.53 2.89c-.35.65-1.32 1-2 1.44-1 .74-1.66-.31-1.77-.76-.3-1.74-.43-3.54-.83-5.48zM391.92 162.52c1.24-2 2.49-3.71 3.74-5.39.61-.83 1.1-.56 1.85 0 1.87 1.39 1.89 3.19 1.55 5.21a21.86 21.86 0 00-.47 4.4 2.38 2.38 0 002.49 2.39 8.61 8.61 0 006.63-2.29c1.78-1.79 3.81-3.33 4.84-5.9.6-1.49 2.25-2.67 3.66-3.68a4.73 4.73 0 016.65 1.54 14.51 14.51 0 012.12 7.36 4.66 4.66 0 01-.47 1.78 16.11 16.11 0 01-1.15 1.84c-.11-.71-.28-1.42-.33-2.14-.15-2 .44-4.12-.69-6a9.73 9.73 0 00-2.28-3c-1.31-.93-3.4 0-4.29 1.75-1 2-2.14 4-2.06 6.43 0 .31-.55.64-.84 1a5 5 0 01-.73-1.33c-.08-.36.21-.78.28-1.18a1.88 1.88 0 00-.12-.6 2 2 0 00-.7.31c-1.88 2-3.68 4.12-6.42 5.11-1.85.67-3.53 1.4-5.63.43a3.57 3.57 0 01-1.84-1.85c-.4-.73-1-1.3-2.07-.42s-2.42 2.18-4 .85c-1.37-1.13-1.43-2.58-.4-4.92a11 11 0 00.7-1.69m5 .66c.11-.4.38-.82.3-1.17-.16-.72.69-1.83-.66-2.13-1-.22-1.58.38-2 1.24-.82 1.85-1.66 3.69-2.47 5.54-.11.26-.18.8-.08.85.35.18.94.43 1.16.26 1.49-1.11 3.4-1.94 3.69-4.6zM94.84 69.22l1.57-1.32c.14.59.32 1.17.4 1.76a5.37 5.37 0 010 1.65c-.12.64-.23 1.63-.64 1.81-.9.4-1.48-.34-2-1.11a17.45 17.45 0 00-2.5-2.92c-.29-.27-1-.11-1.55-.06-.17 0-.32.28-.47.44-1.88 2-2 9-.26 11.17 1.54 1.87 3.51 1.24 5.37.9 3.36-.62 6.08-2.55 8.61-4.7a4.73 4.73 0 001.36-2.69c.38-2.31.47-4.66.73-7a2.93 2.93 0 01.54-1.41c.21-.28.72-.34 1.09-.5a4.26 4.26 0 01.33.85 8.16 8.16 0 010 1c0 2.72 0 2.52 2.53 2.18 3.24-.43 6.76 1.21 6.78 5.2 0 1.44-.7 3 .56 4.4.12.14-.57 1-.88 1.55-.35-.37-1-.72-1-1.12-.13-1.31 0-2.64-.06-4-.14-2.88-2-4.63-4.79-4a4.87 4.87 0 00-3 2.2c-.75 1.4-2 2.81-1.51 4.66a1 1 0 010 .65c-.27.55-.6 1.07-.91 1.61-.35-.48-1-.92-1-1.42-.09-1.11-.19-1.46-1.1-.46-2.7 3-6.47 3.93-10 5.24-1.26.46-4.11-1.24-4.92-2.38-2.59-3.68-1.83-7.53-.92-11.43 0-.09.15-.15.23-.23a13.27 13.27 0 012.81-2.66c.56-.29 1.72.44 2.53.85a12.09 12.09 0 011.94 1.47 1.77 1.77 0 00.78.21zM493.65 485.24c2.76-1.27 2.75-3.85 3.46-6 .95-2.91 1.77-5.87 2.77-8.76.15-.44 1-.64 1.54-1a5.47 5.47 0 01.3 1.51c0 .48-.56 1-.53 1.4.11 1.78-1.27 3.89 1.07 5.23a1.93 1.93 0 01.8 1c1 3.24 3.56 5.21 5.72 7.54 1 1.08 2.14 1.78 3.36 1 1-.69 1 .35 1.44.49-.18.45-.28 1.24-.55 1.29a5.2 5.2 0 01-2.65.08c-3.62-1.25-5.63-4.34-7.88-7.15-.69-.85-1.49-1.61-2.24-2.41a28.57 28.57 0 00-1.79 2.46 19.24 19.24 0 00-.7 2c-.2.47-.44 1.08-.84 1.28-2 1-4 2.49-6.09 2.69-2.77.28-5.79 1-8.44-1-1.29-.94-2.91-3.81-2.43-5.19 1-3 2.65-5.67 5.85-6.94 1.11-.44 3-.05 3.3 1a21.31 21.31 0 01.69 4c0 .3-.32.64-.5 1-.36-.2-.85-.32-1-.63-.55-.86-.89-1.85-1.46-2.68a1.51 1.51 0 00-1.31-.55c-2.06.75-4.13 4.85-3.57 7 .3 1.21 1.21 1.75 2.46 2.16a12 12 0 009.22-.82zM419.87 241.42c1.41-3 2.51-5.82 4-8.5a3.56 3.56 0 013.59-2.1c1.74.29 2.74 2 2.9 4 .2 2.55-.71 5.2.62 7.67a.59.59 0 01-.15.56c-.26.12-.78.22-.85.12a4.85 4.85 0 01-.93-1.91c-.13-1.53 0-3.08 0-4.62a4 4 0 000-1.63 5.14 5.14 0 00-1.65-2.22c-.31-.18-1.63.64-1.94 1.27a54.85 54.85 0 00-3.55 8.42c-.45 1.55-.62 2.2-2.26 1.46-.43-.19-1.06 0-1.59.09-1.58.17-3.44 1-4.67.41-2.47-1.14-4.51 0-6.68.39-3.08.54-5.94-.28-8.69-1.33-1.68-.65-2-3.21-.66-5 2.42-3.33 5-6.52 7.57-9.75.25-.32.63-1.13 1.14-.21.21.39.48 1.09.3 1.32-1.8 2.36-3.69 4.66-5.57 6.95-.68.83-1.53 1.55-2.12 2.44a2.08 2.08 0 001.26 3.32 43.92 43.92 0 006.66.65c2.29 0 3.12-1 3.34-3.23a17.56 17.56 0 01.92-3.9c.13-.36.85-.51 1.3-.76a3.51 3.51 0 01.37 1.12 12.47 12.47 0 01-.38 4.13c-.61 1.5.36 1.93 1.16 2 2.08 0 4.4.48 6.56-1.16zM159.18 203.7c-.87 1-2.07 1.46-.92 3.05.72 1 .89.94 1.58.27a8.92 8.92 0 003.16-6 3.38 3.38 0 01.37-1.49 1.53 1.53 0 011-.61c.15 0 .53.56.55.89.06 1.31 0 2.64 0 4 0 4.05 2.37 5.93 6.24 5 .8-.19 1.58-.45 2.38-.66 2.81-.72 3.71-2.43 3.09-5.2s.38-5.43 1.23-8c.1-.3.65-.56 1-.61.16 0 .43.54.58.87 1.63 3.5 1.79 6.92-.3 10.35-.65 1.07.55 2.52 2.14 2.6 1.76.09 3.53 0 5.29 0 .27 0 .53.22.8.33-.24.24-.43.56-.71.69-2.49 1.21-5.11 1.43-7.33-.3-1.25-1-2-.53-3.1-.13a43 43 0 01-7.1 2c-2.39.41-4.49-1.43-5.56-4.38-.1-.29-.22-.57-.33-.86a5.77 5.77 0 00-.69.71 17.2 17.2 0 01-1.2 1.81 3.07 3.07 0 01-3.75.82c-1.74-.7-1.85-2.51-1.82-3.64 0-1.74 1-3.47 1.72-5.18a5.69 5.69 0 011.17-1.81 1.62 1.62 0 011.31-.51 1.82 1.82 0 01.91 1.22 5 5 0 01-1.79 4.76m19-3.14a4.7 4.7 0 000 .65c.13.74.29 1.48.43 2.23.3-.86.64-1.7.87-2.57a4.35 4.35 0 000-1.3c0-.59.26-1.52-.81-1.25-.28.07-.35 1-.51 2.24m-19.19.66l.4.27c.1-.19.08-.39-.29-.26zM155.88 51.85c-.83-1.87-1.46-3.59-2.17-5.29a15 15 0 00-1-1.76 6.63 6.63 0 00-.9 1.61c-.74 3.12-2.43 5.12-5.74 5.82a2.22 2.22 0 01-1.88-.11c-2.27-1.19-2.32-1.09-4.3.87a10.52 10.52 0 01-1.9 1.82 5.08 5.08 0 01-2 .28 5.58 5.58 0 01.76-1.57c.71-.73.83-.78.46-1.53-1.9-3.85.14-10.33 3.17-12.67 1-.75 1.73-.7 3 .45 2.87 2.58 1.85 5.38.92 7.93-.49 1.32 0 1.62.51 2.36.78 1 1.43.58 2.13 0 .94-.82 2.37-1.48 2.74-2.52.86-2.4 2.59-4.6 2.11-7.41a3.12 3.12 0 01.26-1.86c.2-.38.85-.53 1.29-.78a4 4 0 01.39 1.12v3c0 .45-.19 1.08 0 1.3 1.6 1.6 1.9 3.61 2.21 5.73.2 1.38 1.49 1.85 2.86 1.29.94-.38 1.82-.93 2.74-1.38a3.17 3.17 0 01.69-.17c0 .3 0 .7-.12.88-1.65 1.74-3.58 2.94-6.26 2.65m-13.7-11.14c-2.71 1.57-5.12 6.75-4.26 9.35a1.35 1.35 0 001.2.52 3.71 3.71 0 001.38-1.48c1.2-2.54 2.3-5.16 1.68-8.39z"/><path d="M441.54 234c1.36 1.58.13 3.31-.14 4.72a87.56 87.56 0 01-4.31 14.69c-2.23 5.88-5.66 10.07-12.07 11.78-5.67 1.51-9.91-.75-14.07-3.92-.28-.22-.34-.73-.5-1.1a5.87 5.87 0 011.2.31c.91.48 1.78 1 2.67 1.54a14.35 14.35 0 0020-6.38c2-4.31 3.16-8.84 4.54-13.32.33-1.08.46-2.23.84-3.52a1.78 1.78 0 00.22-.78c-.13.21-.26.41-.38.62-.65.76-1.31 1.51-1.95 2.28a12.27 12.27 0 01-2 2.31 2 2 0 01-3.32-1.53 9.05 9.05 0 01.73-3.7 14.62 14.62 0 015.47-6.53 2.27 2.27 0 012.66-.14c1 .64 1.65 1.43.6 2.47a5.71 5.71 0 00-2.82-.1c-3.13 1.35-4.4 4.18-5.27 7.23a1.18 1.18 0 00.22.84 1.63 1.63 0 001.1-.25c.71-.77 1.29-1.66 2-2.45 1.48-1.71 3.04-3.4 4.58-5.07zM501.09 191.63c.93.2 2-.58 2 .85a22.21 22.21 0 010 2.31c0 .29-.44.54-.68.81-.2-.3-.43-.59-.6-.91a9.55 9.55 0 01-.41-1 3.3 3.3 0 00-.69.71 10 10 0 00-1.14 2.49 11 11 0 00-.19 3.74c0 .22 1.79.25 2.75.25a6.09 6.09 0 006.15-4.81c.37-1.7-1.36-4.32-3.39-5.1-.29-.11-.68 0-.91-.18a4.53 4.53 0 01-.76-.91c.43-.3.87-.88 1.28-.85 3.47.19 6.27 5.21 4.87 8.59-1.73 4.19-6.17 6.63-10.52 5.06a3.66 3.66 0 00-3.42.37 15 15 0 01-7.19 1.81c-4.26 0-7.08-3.68-5.48-7.62a14.44 14.44 0 014.04-6.24 5 5 0 014.08-1.3c1.77.32 2.28 1.56 2.34 3.3 0 .94 1.22 1.83.07 2.81-.24.2-.63.51-.78.44a1.46 1.46 0 01-.66-.82c-.13-.51 0-1.13-.18-1.58-1.14-2.25-2.42-2.26-4.41-.68s-2.33 3.91-3.19 6c-.55 1.33 1.38 3.76 3 3.71a65.4 65.4 0 007.66-.65 3.66 3.66 0 003-3.85c-.09-2.93 1.61-4.71 3.36-6.75zM189.45 34.82c2.81 1.09 3.08 3.61 3.91 5.72.13.35-.51 1.34-1 1.46a1.74 1.74 0 01-1.5-.86 7 7 0 01-.12-2.59c.1-1.57-1.07-1.28-1.71-1-2.35 1.09-3.56 5.26-2.27 7.39 1.14 1.89 1.64 2 4 1.41 1.8-.43 3.65-.6 5.28-1.63a3.61 3.61 0 002-3 51.62 51.62 0 011.62-8.23c.22-.8.57-2.56 1.94-1.86.75.38.5 1.81-.26 2.84a8.75 8.75 0 00-1 2.88c-.16.58-.23 1.19-.34 1.78a15.44 15.44 0 011.4-.86c1.46-.69 4.21.36 5.11 2.23 1.06 2.22 2.33 4.44 2 7.09a9.37 9.37 0 00.15 1.57v1.49c-.49-.36-1.31-.63-1.43-1.09-.38-1.4-.39-2.91-.76-4.32a12.9 12.9 0 00-1.5-3.66c-.54-.85-1.42-2.12-2.59-1.44a5.47 5.47 0 00-2.26 2.86c-.71 2.38-1 4.9-1.42 7.35a3.51 3.51 0 01-.51 1c-.35-.2-1-.37-1-.61a26.5 26.5 0 01-.12-3.34 6.47 6.47 0 01.23-1.13 4.51 4.51 0 00-1.35.29 11.53 11.53 0 01-7 1.49 4.71 4.71 0 01-4.11-4.18c-.21-3.78.77-7.02 4.61-9.05zM298 359c3.66 0 5.28.85 5.92 3a4.1 4.1 0 01-.22 1.54c-.31-.26-.73-.46-.92-.79-1.15-2-3-1.92-4.89-1.74-.43.05-.8.64-1.2 1 .31.32.57.78.95.91a27.15 27.15 0 016.91 3.32c1.46 1 2.28 2.25 2 3.88s-1.6 1.77-3.06 2.24c-4.33 1.38-8.34-.23-12.41-.9-1.08-.18-1.76-.7-2.78.16a6.83 6.83 0 01-2.76 1.26 4 4 0 01-4.7-4.51 17 17 0 012.71-6.47c1.24-1.76 3.58-1.45 5.22.49a7 7 0 011.95 5.81c-.29 1.75.43 2.11 2.1 2.12 3 0 6 .5 9 .54a12.35 12.35 0 003.48-1 12.19 12.19 0 00-2.19-2.69 29.24 29.24 0 00-4.37-2.19c-.09-.05-.22 0-.32 0-1.57-.4-3.41-1-3.57-2.63s1.45-2.57 3.18-3.32m-15.22 9.59c.42 2.16 1.05 2.87 2.52 2.25a9.4 9.4 0 003.38-2.55c1.05-1.23-.1-4.88-1.61-5.25a3 3 0 00-2.58.67 16.28 16.28 0 00-1.77 4.88zM334.36 46.07a10.82 10.82 0 01-1.33 0 15.21 15.21 0 01-2.53-.51c.13-1.76 1.49-.45 2.27-.78 1.22-.51 2.67-.6 3.76-1.29 1.89-1.2 2.55-4.35 1.42-6.66-.74-1.52-1.1-4-3.15-3.81-1.35.15-2.75 1.85-3.7 3.16-2 2.76-3.82 5.54-7.2 6.85-1.16.44-1.6.7-2.36-.71a9.56 9.56 0 01-.6-7.64c.6-2.08.32-2.62-1.73-2.46s-4.41-1-6.19 1a1.47 1.47 0 01-.87-.52c-.16-.29-.21-1-.06-1.07a11.47 11.47 0 013-1.43 17.26 17.26 0 013.3-.06c1.55-.05 3.53.55 3.42-2.18a3 3 0 011.2-.15 1.07 1.07 0 01.69.67 2.84 2.84 0 003.3 2.37c.22 0 .47.5.71.77-.22.17-.44.47-.67.49a13.82 13.82 0 00-3 .09c-.65.18-1.54.95-1.59 1.52a42.46 42.46 0 000 6.28c.07 1.23.93 1.5 1.84.71a53.18 53.18 0 004.71-4.38c1.05-1.14 1.69-2.64 2.71-3.81 2.13-2.46 4-2.15 6 .57a12.22 12.22 0 012.1 4.11c1.13 4 .36 6.42-3.09 8.15a11 11 0 01-2.36.72zM112.54 47.55c-.28-.34-.46-.5-.49-.69-.35-2-1.77-3.58-3.51-3.27a4.47 4.47 0 00-3.8 3.77c-.08.7-.49 1.35-.62 2-.29 1.49-.55 2.7-2.61 2.7a7 7 0 00-3.69 1.33c-1.63 1.13-3.08.67-4.44-.13a3.53 3.53 0 00-3.79 0c-3.42 1.68-5.08.59-4.61-3.17a11.48 11.48 0 012.92-6.69 3 3 0 014.1-.53c2.24 1.39 2.67 2.55 1.88 5.17-.38 1.24-.95 2.8.32 3.47a5.55 5.55 0 003.92.14c2.57-.83 4.62-2.27 4.75-5.48.06-1.68 3.84-4.94 5.58-4.62a5.87 5.87 0 014.64 3.1 17.39 17.39 0 011.6 9.25c0 .27-.47.51-.72.77-.19-.21-.53-.39-.55-.62-.26-2.11-.47-4.22-.85-6.5m-21-.49c.55-1.92.33-2.25-1.28-2.34a1.83 1.83 0 00-2 1.22c-.62 1.61-1.25 3.23-1.73 4.88a2.35 2.35 0 00.5 1.55c.06.1.81-.37 1.21-.32 1.53.19 2.1-1.08 2.8-1.93.4-.56.31-1.59.46-3.06zM69.86 405.18c-2.4-1.92-3-4.32-2.83-7a4.85 4.85 0 00-.39-1.43c-.45.25-.92.47-1.34.76-1.2.84-2.42 1.65-3.56 2.57a15.56 15.56 0 00-1.31 1.57A35.22 35.22 0 0157 405.1c-1.89 1.48-4.3.56-4.43-1.8-.24-4-.39-8.12 2.54-11.48.43-.49.86-1.52 1.16-1.48a7.24 7.24 0 013.13 1.13c1.49 1.07 1.83 2.75 1.74 4.55a8.35 8.35 0 00.43 2 9.31 9.31 0 002.2-1.05c1.29-1.1 2.51-2.29 2.66-4.18a4.38 4.38 0 01.67-1.69.93.93 0 01.81-.32.88.88 0 01.46.67c0 1.54.08 3.09 0 4.63a12.46 12.46 0 001.28 6.42c.51 1 1 1.63 2.11 1.47 1.88-.25 3.88.6 5.7-.61.3-.2 1 .17 1.49.27-.36.38-.67 1-1.1 1.09-2.56.73-5.09 2.07-8 .42m-14.72-6.79a3.93 3.93 0 00-.55-1c-.07-.07-.75.26-.74.34.29 1.77-.76 3.7.63 5.32.28.33.83.92.89.88 1.2-.85 2.34-1.78 3.5-2.69-.66-.41-1.34-.78-2-1.24a21.83 21.83 0 01-1.77-1.65m2.65-4.63c-2.3 1.27-2.62 2.48-1 4.27a2.11 2.11 0 001.65.62c.5-.09 1.26-.78 1.24-1.18a23.38 23.38 0 00-.65-4.31c.02-.03-.75.04-1.19.68zM187.47 386.81c4.3-1.73 7.71-.17 9.13 4.23a44.6 44.6 0 01.81 5c.4 1.95-.83 2.89-2.28 3.24a10.48 10.48 0 01-4.17-.08c-.75-.13-1.39-.87-2.08-1.34a20.5 20.5 0 012.3-.4 9.85 9.85 0 013 0c1.61.4 1-1.4 1.91-1.68-1.37-2.08-.83-4.93-2.78-6.79-1.16-1.11-1.77-1.16-2.48.23-.77 1.54-1.31 3.2-2 4.78-1.09 2.46-2.35 4.72-5.2 5.7s-4.77-.18-4.67-3c.06-1.89-.52-3.83.55-5.72.42-.74.28-2.22-1.4-1.06-.24.17-.73 0-1.11 0 .11-.38.11-1 .35-1.1 2.75-1.45 3.76-3.75 3.62-6.77 0-.35.89-.75 1.36-1.13.19.43.59.91.52 1.28a31.57 31.57 0 01-1.13 4.16c-.3.87.09 1.55.74 1.11 1.55-1.07 3.17-.33 5.06-.6m0 5.63a14 14 0 011.42-2.69c1.08-1.3.76-1.73-.77-1.6-2 .17-4 .36-6 .7a1.94 1.94 0 00-1.25 1.23 37.07 37.07 0 00-.67 5.65c-.06 2.29 1.11 2.91 3.32 1.95a6.45 6.45 0 003.9-5.3zM315.17 168.47c.29-2.81.52-5.27 2.3-7.31 1.31-1.51 2-1.74 3.41-.54.88.75 1.74 2.38 2.53-.06.34.15.91.23 1 .46a2.32 2.32 0 010 1.62c-1.23 1.93-.57 4-.56 6 0 1.27.43 2.83 2.08 3.08s3.4.32 4.3-1.49a30.31 30.31 0 001.47-4c.1-.3 0-.67 0-1 .49-2.12 1.95-3.51 3.55-3.41.85.06 2.3 2.31 2.38 3.87a35.81 35.81 0 00.08 4.28 4.23 4.23 0 001.44 2.37c.4.33 1.51.12 1.06 1a2.22 2.22 0 01-2 .59c-1.5-.37-1.92-1.6-1.94-3.06 0-2 .27-4-.58-6-.3-.7-.36-1.24-1.16-1a1.6 1.6 0 00-.87.93c-.71 1.91-1.35 3.85-2 5.78-.75 2.21-2 3.13-4.45 3.17-2.68.05-3.12-.25-4.17-2.76a4.46 4.46 0 00-.77-1 8.19 8.19 0 01-.7.94c-1.16 1.24-2.53 3.16-4.06 2.65-1.74-.57-2.69-2.63-2.39-5.12m2.64-4.3c-1.18 2.68-1.42 5.06-.52 6.68.17.31.48 1.36 1.37.45 1.81-1.86 3.18-3.85 3.16-6.61a2.81 2.81 0 00-2.12-2.82c-1.5-.57-.95 1.39-1.84 2.31zM342.13 360.18a8.14 8.14 0 00.82-1.54c.2-.6-.46-1.89.9-1.54a1.58 1.58 0 011 2.36 5.36 5.36 0 00.09 4.81c1 2.47 1.76 3.17 4.3 3.38a18.7 18.7 0 013 .65 9.12 9.12 0 011.19.46c-.44.28-.86.8-1.3.82-3.89.17-8.59-.4-9.15-6.49-.09-1-.39-.66-.88-.23a9 9 0 00-3.16 4.26c-.88 2.95-6.32 4.73-8.54 3.21a6.74 6.74 0 01-2.39-7.88 16.49 16.49 0 011.88-3.84c.65-.95 1.48-1.94 3-1.59a1.68 1.68 0 001.26-.1c.76-.58 1.55-1.88 2.41-1.12 1.1 1 1.69 2.51 2.47 3.82.1.16 0 .43 0 .65 0 1-.27 2.21.9 2.49.36.08 1.06-1.26 1.61-1.94.14-.17.31-.32.63-.64M332.7 369a5 5 0 004.9-2.37 1.49 1.49 0 00-.19-2.31c-1.67-1.38-3.62-2.76-3.77-5.33 0-.15-.88-.49-1.11-.35-2.47 1.56-2.95 4.25-3.36 6.79-.17 1 .76 2.27 1.37 3.31.17.28 1 .18 2.16.26m3-10.26c-.05 1.22-.15 2.46 1.17 3.14.22.11.54 0 .81 0a20 20 0 00-.71-3 .82.82 0 00-1.29-.19zM486.7 361.18c.12.49.38 1.08.69 1.11a16.62 16.62 0 007.18-1c.54-.19 1.25.13 1.89.21a6.59 6.59 0 01-1.49 1.28 9.2 9.2 0 01-3 .84c-5.09.28-10.18.54-15.27.66-3.44.08-4.63-1.39-4.81-4.82a12.24 12.24 0 012.73-8.46c.65-.83 1.89-1.89 2.66-1.76a3.82 3.82 0 012.48 2.32 13.44 13.44 0 010 4.56c0 .32-.61.85-.88.82a1.31 1.31 0 01-.9-.88c-.13-1.08.05-2.21-.14-3.27-.07-.34-.5-1.51-1.57-.47a9 9 0 00-2.89 7.69 3.3 3.3 0 002.22 2.21 30.07 30.07 0 005.93.09c1.43 0 1.78-1 1.66-2.21a10.16 10.16 0 012-7.12c1.32-1.86 2-1.63 3.38.28s-.05 3.39-.36 5a10.61 10.61 0 01-1.52 2.91m.5-4.47c.22-.45.62-.91.61-1.36a2 2 0 00-.71-1.29c-.11-.11-.94.26-1.08.57a27 27 0 00-1.43 4c-.13.51.23 1.15.36 1.74a15 15 0 001.09-1.17 7.59 7.59 0 001.17-2.48zM144 365.15c-.56 1.21-1 2.26-1.34 3.32-.66 1.85-.2 2.48 1.8 2.47 2.44 0 6.17-2.82 6.6-5.15a5 5 0 00-.56-2.38c-.48-1.29-.17-2.88.89-2.94 2.31-.15 4.75-.69 6.88.77a4.46 4.46 0 011.64 5.21c-.35 1.3-.52 2.65-.89 3.93-.14.46-.65.8-1 1.19-.32-.53-.93-1.08-.9-1.58.05-.77.66-1.5.81-2.28a11.23 11.23 0 00.33-3.76c-.21-1.23-4.5-2.4-5.49-1.54a2.33 2.33 0 00-.32 1.81c.43 2.9-.92 4.95-3 6.71a7.3 7.3 0 01-8.36 1 6.38 6.38 0 00-2.84-.3c-1.61.08-2.46-.44-2.4-2.19s0-3.75 0-5.62c0-.33-.1-.91 0-1 .85-.34.15-2.37 1.68-1.72 1 .41.89 1.13.42 2.32-.7 1.82-1.53 3.89-.21 6.06.67 1.1 1 1 1.55.25a6.83 6.83 0 001.15-2.16c.68-2.39 1.28-4.8 3.09-6.65a1 1 0 01.9-.21 1.08 1.08 0 01.35.89 25 25 0 01-.78 3.55zM468.17 36.64c.5 2.23.86 4.29 1.14 6.36 0 .34-.27.72-.41 1.08-.3-.21-.79-.37-.86-.64-.5-1.89-.89-3.81-1.36-5.72a17.3 17.3 0 00-1-3.53c-.39-.78-1.18-1.53-1.64.2-.53 2-1.31 3.86-1.95 5.79a6.17 6.17 0 01-7.44 3.9c-.09 0-.23 0-.28-.11-1.55-2.23-3.23-2.13-5.33-.61-.9.65-2.64-.93-2.84-2.33-.55-4 1.49-7.07 3.6-10.06.89-1.28 1.83-1 2.93.09 1.61 1.62 1.7 3.53 1.24 5.57-.09.39-.42.73-.47 1.12-.35 2.45.1 4 1.17 4.35a4.93 4.93 0 006.08-2.88 42.85 42.85 0 001.25-4.41c.37-1.55.53-3.21 2.65-3.29 1.5-.06 2.89 1.48 3.32 3.63a12.59 12.59 0 00.17 1.49m-18.69-1.49c-1.2 1.09-1.12 2.61-1.5 4-.21.82-1 1.68-.09 2.2s1.9-.34 2.41-1.15a9.94 9.94 0 001.14-2.82c.16-.62-.18-1.41.07-1.95.5-1.11 1.24-2.2-.22-3-.17-.04-1.15 1.36-1.78 2.72zM104.1 365a28 28 0 01.06-4c.07-.5.76-.9 1.17-1.34a4.33 4.33 0 01.72 1.42 16.32 16.32 0 010 3.63 2.45 2.45 0 001.78 2.76c1.22.27 2.64-.32 3.94-.66.18 0 .21-.76.27-1.17.23-1.55.38-3.13.69-4.67a4.25 4.25 0 01.94-1.9c1-1.09 1.87-.91 2.32.49.86 2.68 1.42 5.37-1.14 7.55-1.17 1-1.12 1.89 0 3 1.34 1.32 2.72 2.36 4.74 2.16a12.17 12.17 0 012.63 0c.39 0 .73.47 1.1.72-.31.19-.62.52-.94.55-4.1.37-6.62.38-9.51-3.47a2.38 2.38 0 00-2.49-1.15 6.26 6.26 0 01-4.3-.26c-.2-.1-1 .59-1.26 1.06-.82 1.47-1.58 2.89-3.33 3.53-2.22.83-3.78-.12-4-2.49a34.54 34.54 0 01-.6-3.69 31.42 31.42 0 01.66-5c0-.2.7-.41 1.06-.38s.85.4.84.59c-.05.94-.32 1.86-.39 2.79a22 22 0 00-.16 4.85c.3 2 1.82 2.32 3.09.75a7.57 7.57 0 002.11-5.67m10.26-4c-.33 1.49-.7 3-1 4.47 0 .23.38.59.65.79.06.05.59-.29.61-.48.18-1.58 1.45-3.09-.26-4.78zM203.35 279.63c-.28-2.13-.91-2.56-2-1.59a13.54 13.54 0 00-1.67 2.25c-.66-.62-1.18 1.39-1.79.12a2 2 0 010-1.56c.51-.92 1.44-1.63 1.79-2.58.68-1.83 1.63-2.14 3-.87.63.56 2.12-.37 2.08 1.34 0 1.11.72 2.48.3 3.29a2.06 2.06 0 00.42 2.8c2.15 2.46 1.24 7.1-1.69 8.52a22.77 22.77 0 01-5.42 2.07c-3.45.69-6.62-.48-9.59-2.22a1.9 1.9 0 01-.67-1c-.26-.77-.73-2.16-.57-2.24.94-.49 1.72-1.35 3.12-.85 3.38 1.18 6.85 2.13 10.31 3.07a3.27 3.27 0 003.33-1.35 4 4 0 001-3.54c-.26-1-1.36-1.09-2.28-.38a13.55 13.55 0 01-2.07 1.38 5.75 5.75 0 01-1.59.31c.16-.6.14-1.34.49-1.76 1.3-1.53 3.12-2.66 3.48-5.19m-7.61 11.91h3a2.19 2.19 0 00.57-.21c-.2-.15-.37-.38-.59-.43-2.57-.68-5.14-1.35-7.73-2a4.26 4.26 0 00-1.27.08 7.54 7.54 0 00.72 1.16c1.25 1.4 2.93 1.48 5.32 1.38zM137.85 211.48a22.8 22.8 0 01-4.19-2.62 2.29 2.29 0 01-.69-2c.35-.92 1.24-.87 2.19-.45a44.21 44.21 0 005.17 1.87 11 11 0 003.41.49 38.12 38.12 0 004.36-.62c.3 0 .85-.14.85-.23a1.79 1.79 0 00-.24-1.11 10.37 10.37 0 00-5.24-3.29c-.78-.25-1.58-.42-2.36-.67-2.84-.92-3.12-1.73-1.41-4.15 1.51-2.15 3-4.25 5.72-5.21 1.21-.42 2.16-.88 3.17 0a4.61 4.61 0 011.82 4.19c0 .19-.19.36-.28.54a1.94 1.94 0 01-.46-.39c-.41-.59-.73-1.27-1.19-1.81-1.24-1.46-2.43-1.54-3.83-.24a36 36 0 00-3.26 3.28c-1.2 1.45-1 2 .76 2.51h.33a16.24 16.24 0 018.33 4.65c.76.84.85 1.48 0 2.59-2.68 3.37-5.91 5-10.25 3.35a16.43 16.43 0 00-2.69-.67m7.6-2a4.25 4.25 0 01-1.37.64 10.85 10.85 0 01-6.44-1.13c-.25-.15-.73.09-1.1.15.22.23.4.58.68.68 3.13 1.15 6.3 1.62 9.53.35.32-.13.61-.31.92-.46-.54-.08-1.06-.15-2.24-.23zM389.27 480.77a6.17 6.17 0 01-3.57 5.71c-3.35 1.87-7 3.14-11.06 1.67-1.15-.41-2.2-1-2.47-1.81-.52-1.56-1-1-1.71-.32-1.07 1-1.89 2.34-3.79 2.08a1.86 1.86 0 01-1.91-2.06 6 6 0 011.21-4.15c1.2-1.58 2.33-3.22 3.54-4.81a1.12 1.12 0 01.82-.26c.21.33.48.81.38 1.1a8.49 8.49 0 01-1 1.57c-1.17 1.83-2.38 3.64-3.47 5.51-.22.38 0 1 0 1.54l1.37-.34c2.05-.51 2.42-2.36 3.11-3.94a23.54 23.54 0 011.1-2.84c.28-.46 1.17-1 1.57-.86 1.28.44.08 1.26-.08 1.69-1.07 2.83-.84 4.4 1.21 5.95a2.36 2.36 0 001.1.51 16 16 0 009.77-1.95c1.65-1 2-2.66 2.47-4.14 1.18-4-.62-7.53-4.68-9.77-1.7-.93-3.46-1.76-5.18-2.66a2.5 2.5 0 01-.51-.47c.31-.25.6-.68.94-.71s.7.38 1.08.52c3.61 1.35 7.15 3 9.09 6.47 1.04 1.81 2.4 4.11.67 6.77zM62.91 233.48a29.49 29.49 0 01.17 3.79c0 4.47-1.53 6.46-6.1 7.95a27.39 27.39 0 01-4.07 1.28c-1.41.22-1.78.91-1.75 2.18 0 2.3.07 4.61 0 6.91a4.47 4.47 0 01-.79 2c-.05.09-1.06-.12-1.11-.32-.43-1.79-1.11-3.49-.38-5.5.68-1.86 1-4.06-1-5.55-.91-.65-.33-1.14.19-1.38 1.67-.8 1.85-2.43 1.78-3.81-.17-3.33 1.42-6.06 2.88-8.71 2-3.65 7.92-2.92 10.25 1.2m-2.48-.5c-2.71-1.88-5.66-1.29-7.26 1.57a8 8 0 00-1.37 5 17.89 17.89 0 010 3.94c-.15 1.58 0 1.92 1.18 1.49a54.24 54.24 0 005.88-2.49 4.55 4.55 0 002.16-2c.91-2.4 1.27-4.88-.66-7.53zM315.17 163.18c-1.55 2.26-3.3 3.9-5.9 4.23-2 .26-2.29 1.85-2.71 3.38-.35 1.27-.73 2.54-1.17 3.79a5.71 5.71 0 01-.76 1.17c-.46-.4-1.29-.78-1.3-1.19-.05-1.59-.24-3.37.38-4.74.86-1.94-1.33-3.29-.75-4.47s2.28-2 2.35-3.95a19.58 19.58 0 012.48-8.5 3.85 3.85 0 014-2.29c1.9 0 2.8 1.41 3.35 2.92a15.09 15.09 0 010 9.65m-4.3 2c.77-.75 1.61-1.45 2.3-2.27 2.29-2.72 1.32-5.73.62-8.66a2.81 2.81 0 00-3.5-1.64c-1.17.44-3.51 4.86-2.8 5.78 1 1.33.85 2.47.46 3.91a12.67 12.67 0 000 3.59.87.87 0 00.69.19 11.35 11.35 0 012.26-.92zM215.76 153.75c-3.49-.45-4.56-1.94-5.19-5.86a28.62 28.62 0 00-2-6.43c-.85-2-2.06-2.2-3.26-.36-1.46 2.24-2.68 4.7-1.62 7.59a2.73 2.73 0 010 1.76c-.19.49-.82 1.21-1.33.2a5.93 5.93 0 01-1-2.85c.22-1.87-.79-3.25-1.46-4.72a2.13 2.13 0 00-3.86 0c-1.07 2.42-1.82 5-2.69 7.48-.06.2.09.53 0 .64-.48.48-1 .91-1.55 1.35-.14-.58-.52-1.23-.38-1.74a36.1 36.1 0 001.3-10.69 5.14 5.14 0 01.37-1.46c.29.09.74.09.85.28a4.63 4.63 0 01.51 1.59 5.31 5.31 0 01-.17 1.35 5.39 5.39 0 001.35-.55c2.5-2 3.18-2 5.45.75 1.14 1.34 1.25 1.32 2.11-.34a9.4 9.4 0 011.67-2.91c2.05-1.74 4.46-.45 5.74 2.7a41.23 41.23 0 011.94 7.12c.58 2.74 1 3.13 3.68 3.25a13.84 13.84 0 011.55.24c-.46.36-.92.72-1.39 1.07-.1.16-.28.26-.62.54zM366.78 279c.13 1.09-.54 2.79 1.35 1.59 1.06-.67 2-1.6 3-2.29a1.78 1.78 0 011.53-.23c.33.24.42 1 .41 1.53-.09 2.81-.31 5.63-.33 8.44 0 1.11.8 1.66 2 1.55a59.85 59.85 0 007.61-.85c.79-.18 1-.08 1.43.31a10.81 10.81 0 01-1 .7 14.12 14.12 0 01-7.84 1.82c-2.59-.06-4.12-1.44-4.19-4.08a23.77 23.77 0 01.5-3.41 17.18 17.18 0 00.12-2.27c0-1-.49-1.1-1.23-.58a18.08 18.08 0 00-2.5 1.9 2.64 2.64 0 00-.83 1.91c.42 1.74-.64 2.92-1.45 4.05-.61.84-2.13 1.92-2.71 1.67-1.13-.49-2.6-1.35-2.5-3.05.16-2.89.36-5.78.69-8.65a5.08 5.08 0 011.11-2.16c.2-.29.89-.62 1-.51a15 15 0 011.69 1.69c1.06-1.12 1.44.16 2.07.92m-2.65 3.63c-.22-1-.42-2-.67-3a6.92 6.92 0 00-.49-1.12c-.27.32-.75.62-.79 1-.29 2.2-.55 4.42-.66 6.64a5.77 5.77 0 00.66 2.34 1.39 1.39 0 001 .38 18.11 18.11 0 002.22-3.68c.24-.61-.54-1.51-1.2-2.59zM434.76 45.24c-2.16.41-2.3-1.13-2.44-2.41-.17-1.52.08-3.09-.09-4.61a2.76 2.76 0 00-1.14-2c-.95-.38-1.8.1-2.15 1.32-.56 2-1.3 3.87-1.95 5.8a6.07 6.07 0 01-.45 1.46c-.19.3-.68.41-1.05.6-.16-.34-.5-.7-.46-1 .39-3 .79-6 1.36-9 .1-.49 1-.91 1.66-1.16a4.72 4.72 0 011.64 0c2.34.05 2.67-.1 4.17-1.92.51-.61 3.76-1.31 4.63-.69 2.55 1.84 5.43 3.53 6.28 6.87.64 2.53-.41 4.75-2 6.71a1 1 0 01-.85.23.84.84 0 01-.36-.76 18.13 18.13 0 011-2.55 4.11 4.11 0 00-.71-5.22c-.91-1-1.82-1.93-2.81-2.8s-3.57-.71-4.16.23a3.54 3.54 0 00-.1 4.14c1.18 1.91.9 4.09.56 6.2.01.1-.26.24-.58.56zM276.13 290.21c2.42 0 4.51.06 6.6 0 1.85-.06 3.46-3.08 2.69-4.69s-2-1.53-3.19-1c-.83.37-1.71.85-2.06-.15s-.43-2.1 1.19-2.43c.61-.13 1.1-1 1.6-1.53a1.47 1.47 0 00-.29-2.45 2.07 2.07 0 00-2.88.36c-.46.55-.73 1.26-1.2 1.79-.26.29-.76.35-1.15.51a4.24 4.24 0 01-.32-1.58c.11-.58.64-1 .87-1.61.6-1.45 1.21-2.84 3.2-2.32 2.69.7 3.53 1.63 3.53 4 0 1.64.06 3 1.45 4.4 2.22 2.22 1.4 5.88-1.49 8-4.49 3.32-7.8 3.14-12.58.65a3.63 3.63 0 01-1.24-1.31 10 10 0 01-.66-1.68 6.64 6.64 0 012 .13c1.18.46 2.25 1.2 3.93.91zM177.71 41.6c.22 1.52-1.47 2.6-.28 4.31s1.94 2.68 3.75 2.12c.28-.09.46-.56.73-.62 1-.18 1.93-.26 2.89-.37a27.45 27.45 0 01-2.24 1.65 12.16 12.16 0 01-2.75 1.31c-1.49.44-4-1.8-4.25-3.66v-.33c-.25-3-.32-3.09-2.94-1.94-1.11.49-2.71.62-3.27 1.46s-.26 2.48-.43 3.75a8.08 8.08 0 01-.63 1.38c-.51 1.48-1.62.39-2.43.59a12.09 12.09 0 01.5-1.58c.13-.28.59-.44.66-.72a6.38 6.38 0 00.39-2.65c-.09-.41-1.18-.77-1.86-.86-1.67-.23-3.33-.44-4.55-1.74a4.2 4.2 0 01-.59-1.34 5.56 5.56 0 011.77 0c.57.19 1 1 1.53 1 1.19.15 2.59.38 3.54-.12.51-.28.27-2 .37-3 .22-2.44.37-4.88.71-7.31a6.69 6.69 0 011.12-2c.44.27 1.17.48 1.25.83.19.81.85 1.83-.38 2.48-.25.13-.67.29-.69.47-.26 2.43-.57 4.87-.64 7.31 0 1 .39 1.26 1.78 1 2.77-.62 5.18-1.26 6.14-4.3a1.65 1.65 0 01.84-.94 1.3 1.3 0 011.09.16c.34.24.92.46.24 1.18a13.92 13.92 0 00-1.37 2.48zM535.33 34a14.13 14.13 0 01-2.3 2.87c-1.31.91-.41 1.9 0 2.28a9.74 9.74 0 002.92 1.61c.37.16.92-.1 1.3 0a9.93 9.93 0 011.57 1c-.63.33-1.37 1-1.88.92-2.34-.61-4.86-1.37-5.95-3.66a2.39 2.39 0 00-2.7-1.57h-1c-2.77 0-2.76 0-3.71 2.83a5.42 5.42 0 01-.69 1.14 9.32 9.32 0 01-.6-1.23 2.68 2.68 0 010-1c.25-2.67.23-2.62-1.89-3.76a19.07 19.07 0 01-3.32-2.3c-.23-.19.05-1 .1-1.51a4.8 4.8 0 011.34.44c.53.37.89 1 1.43 1.35a26.16 26.16 0 002.71 1.33 23.31 23.31 0 00.93-2.58c.3-1.32.33-2.71.74-4 .17-.54 1-.89 1.52-1.32.36.61 1.08 1.28 1 1.81a7.11 7.11 0 01-1.29 3.06c-.93 1.21-1.07 3-.3 3.47 1 .62 2.72.25 4.09.06.36-.05.65-1 .87-1.55a28 28 0 011.53-4 2.56 2.56 0 012.61-1.58c.71.11 1.25 0 1.19 1-.09 1.53 0 3.07-.19 4.78m-2.81 1.49c.39-.83.83-1.64 1.15-2.5a9.5 9.5 0 00.48-2.11.84.84 0 00-.48-.65c-.24 0-.77.18-.78.33-.19 1.78-2.05 3.12-.4 5.03zM393.24 243.24a23.13 23.13 0 01-6.12 2.83 3.66 3.66 0 01-4.32-1.51c-.95-1.67-1.69-.8-2.61-.49a3.62 3.62 0 00-1.35.7c-1.29 1.2-1.84 0-2.09-.8-.82-2.61 1.05-7.95 3.16-9.57a1.53 1.53 0 012.47.32 5.91 5.91 0 01.7 5.13 3.5 3.5 0 004 4.66 7.79 7.79 0 003.88-1.84c3-2.69 4.9-5.76 5-9.87a9.63 9.63 0 01.66-2.69c.1-.3.47-.51.73-.77.19.32.52.62.54.95a19.15 19.15 0 01-1.78 8.51 32.2 32.2 0 00-.86 3.61 6.75 6.75 0 01-.83 2c-.2.3-.75.36-1.14.53a5 5 0 01.17-1.49 1.74 1.74 0 00.21-.78l-.38.62m-13.89-.33c.55-1 1.78-2.6 1.53-2.87-.92-1-.59-1.5.19-2.23.19-.17 0-.71 0-1.09-.37.09-.9 0-1.09.28-1.45 1.73-1.58 3.9-1.84 6a1.7 1.7 0 001.17-.14zM260.42 373.42c-1.4-2.17-1-4.32-.53-6.38s.55-2-1.58-2.06c-1.88 0-3.75.06-5.62 0-1.62-.07-2.58.48-2.34 2.2.27 2-.7 4.1.51 6.07.15.26-.56 1.46-1.05 1.6-1.06.32-.79-.69-.8-1.27v-5.95c0-.44-.24-1.15-.53-1.24a2.26 2.26 0 00-1.47.34 4 4 0 00-.94.91 9.15 9.15 0 01-.9 1 1.4 1.4 0 01-.53-2.17 12.77 12.77 0 012.5-1.9c.5-.35 1.4-.53 1.52-1a13.69 13.69 0 00.21-3.09c-.54.43-1.12.83-1.62 1.3-1 .95-1.87 2.17-3.47 2.2.75-1 1.44-2 2.27-3 1.2-1.34 2.69-2.43 3.07-4.36.06-.31.73-.5 1.12-.74a4.33 4.33 0 01.58 1.59c-.07 1.7-.27 3.39-.47 5.08-.16 1.31.87 1.29 1.44 1 2.72-1.34 5.57-.38 8.34-.57 1.81-.12 2.52.92 2.12 2.69-.25 1.09-.66 2.15-1 3.23-.69 2.3-.67 2.28 1.76 3.32a5.27 5.27 0 011.2 1c-.42.33-.84.93-1.25.91a7.8 7.8 0 01-2.54-.71zM303.92 481.43c-.31-1.52-.62-2.71-.93-3.91a21 21 0 00-1.83 3.08c-.75 1.9-1.24 3.89-1.94 5.81-.12.35-.74.52-1.13.77a5 5 0 00-.43-1.15c-.16-.25-.68-.57-.75-.52a5.59 5.59 0 01-4.13 1.23 3.46 3.46 0 01-3.31-4.45c.28-1.31.7-2.84.26-4s.39-1 .54-1.45c.36.21.87.34 1.05.65.43.78 1.19 1.53.4 2.57a2.5 2.5 0 00-.35 1.49 8.07 8.07 0 00.42 3.1c.29.6 4.2-.16 4.78-.93.95-1.23 2.14-2.48 2.48-3.9a6.23 6.23 0 012-3.15c.65-.62 1.39-1.14 2.09-1.7a20.6 20.6 0 012.06 3.44c.47 1.24.34 2.7.77 4 .85 2.53 4.11 3.19 6.49 1.36.78-.59 1.37-1.43 2.13-2.06.24-.19.73-.08 1.11-.11 0 .3.16.69 0 .88a11.13 11.13 0 01-4.82 4.13c-2.5 1-5.35-.71-6.33-3.49-.14-.46-.41-.9-.63-1.69zM299.45 284.09c1.14.4 2 .66 2.52 1.72 1.09 2.19.21 4.7-2.35 5-3 .3-6.23.73-9-1.22a4.23 4.23 0 01-1-.77 14.16 14.16 0 01-.87-1.58 8.63 8.63 0 001.41.8 14.12 14.12 0 003.26.85 30.92 30.92 0 005.61 0c.72-.07 1.37-.89 2.05-1.38-.41-.54-.7-1.33-1.24-1.59-1.88-.87-3.76-1.76-5.95-1.61-2 .13-4.66.5-5.48-1.53-.62-1.55.91-3.49 1.92-5.2a4.83 4.83 0 014.59-2.54 28 28 0 0110 1.37c.38.13.66.56 1 .85-.36.15-.72.45-1.06.43-3.11-.18-6.2-.48-9.31-.61-1.63-.07-3.77-.63-3.56 2.3 0 .14-.31.29-.44.47-.52.66-1 1.34-1.51 2a16.51 16.51 0 002.68.46 15.92 15.92 0 016.73 1.78zM213.94 360.35c-3.29 1.1-6.21 2.34-9.23 3.23-1 .28-2.26-.26-3.32-.64-.36-.13-.47-.95-.69-1.46.42-.07.92-.31 1.25-.17 1.7.74 3.22.14 4.88-.24a25.87 25.87 0 009.1-3.63c1.23-.84 3-.95 4.2-1.78a61.41 61.41 0 004.92-4.1 19 19 0 012.25-1.77c.37-.22 1-1.17 1.41-.09a1.33 1.33 0 01-.34 1.14 42 42 0 01-9.22 7.24c-1.21.7-2 1.2-1.34 2.9a3.15 3.15 0 01-.63 2.91c-2 1.48-1.76 3.46-2 5.48a42.9 42.9 0 01-1.21 5.77c-.1.4-.52.73-.79 1.09-.2-.42-.6-.85-.56-1.25.14-1.67.37-3.35.64-5a16.87 16.87 0 00.61-2.7 16.41 16.41 0 011.19-6.47 3.57 3.57 0 00-1.12-.46zM128.75 126c-.39-.52-.73-.84-.79-1.22a3.27 3.27 0 01.23-1.2c.38.11.86.12 1.12.36a12.16 12.16 0 004.72 3c2.19.71 4.27.3 6.38.48 1 .09 1-.7.42-1.25-1-1-2.11-1.79-3.18-2.68-1.56-1.3-3.19-2.51-4.66-3.9a3 3 0 01-.07-4.72c2.12-2.09 4.27-4.19 7.61-4a3 3 0 012.6 3.32c0 .19-.17.54-.23.53-.38 0-1-.07-1.09-.28a2.46 2.46 0 00-3.56-1.48 14.36 14.36 0 00-4.28 3.73c-.33.39.16 2 .75 2.51a57.48 57.48 0 005.1 3.58c.52.36 1.2.67 1.47 1.18.87 1.63 1.68 3.08 3.79 1.48.09-.07.37.11.57.17-.07.16-.08.38-.2.46-1.75 1.34-3.36 3.26-5.34 3.81s-4.2-.16-6.15-.84-3.37-1.9-5.21-3.04zM129.24 89.73c-.92-1.56-.52-3-.07-4.56 1.11-4 1.64-8.12 2.8-12.08a13.07 13.07 0 013.19-5.76c2.55-2.36 6.27-1.48 7.93 1.65 1.25 2.37 2.06 4.87.09 7.5-1.42 1.91-5.22 3.19-7.45 2.25-1.65-.7-1.94-2-1.81-3.49 0-.45.55-.86.85-1.29a10.07 10.07 0 01.42 1.28c.35 1.89 2.19 2.6 4.52 1.72 2.64-1 3.55-3.25 2.29-5.86a8.06 8.06 0 00-1.4-2.09c-1.67-1.74-4.09-1.7-5.14.35-1.39 2.72-2.93 5.39-3 8.7a24.36 24.36 0 01-1.58 7.57c-.5 1.38.53 3.24-1.64 4.11zM497.78 43.42c.35.68.82.87.2 1.53s-1.06.1-1.16-.24a6.61 6.61 0 01-.33-2.49c.27-2.75-.82-5.11-2-7.42-1-1.9-3-2-3.91-.11a52.18 52.18 0 00-2 6.08c-.13.39-.07.87-.27 1.21s-.59.41-.9.61a7.73 7.73 0 01-.47-1.17 8.08 8.08 0 01-.09-1.31 5.56 5.56 0 00-1.1.52c-2.57 2.09-5.59 2.32-8.69 2.08-.4 0-.78-.66-1.14-1-2.15-2.22-.6-4.74-.53-7.13 0-.32.69-.62 1.07-.93.26.53.77 1.07.75 1.59-.05 1.25-.49 2.48-.49 3.72a2.3 2.3 0 001 1.79c3.41 1.42 8.56-.81 9.4-4.44A5.36 5.36 0 01491 32c2.21-.83 3.57-.58 4.84 1.34a9.81 9.81 0 012 6.43c-.14 1.11-.06 2.23-.06 3.65zM364.3 238.11c1.37-4.17 2.59-8.18 3.8-12.18a4.17 4.17 0 01.33-1.18 3.94 3.94 0 011-.7c.22.4.67.84.6 1.19a37.53 37.53 0 01-1 4.18c-.32 1.07-.78 2.1-1.15 3.15-.54 1.56-.53 1.56 1.24 1.41 1.37-.12 4.78 2.9 5 4.41.58 4.74-1 7.67-5.39 9.13a6 6 0 01-4.54-.21c-1.44-1-1.81-2.88-1-4.82.56-1.3.66-2.8 1.14-4.38m2.81 7.77a5.44 5.44 0 005.19-3.94c1.07-3.09.75-4.34-2.2-5.59-.72-.31-2.07-.56-2.35-.21a3.68 3.68 0 00-.81 2.81c.21.79.64 1-.48 1-.33 0-.92.27-1 .49a24.15 24.15 0 00-.63 4.67c.02.8.54 2.03 2.25.77zM114 243.9a27 27 0 01-.49 3.44c-.46 1.83.07 4.19 1.11 4.5 1.86.54 3.16-.21 4.18-2.51a11 11 0 001.11-3.16c.37-3.37 3.21-4.18 5.55-4.77s4.4.9 5.75 3.08c1.24 2 2.31 4 1.94 6.45a9.25 9.25 0 01-1 2.87c-.19.35-.87.44-1.32.64 0-.45 0-.91.12-1.36.47-3.12.77-6.11-2-8.55-2.57-2.24-5.22-1.86-6.57 1.32a52.43 52.43 0 00-1.72 5.23c-.52 1.67-3.18 3-5.56 2.74a3.22 3.22 0 01-3-3.53c.07-2.12-.52-4.28.57-6.36.45-.93.74-.84 1.33-.03zM225.18 283.6c-1 1.61-1.5 2.64.91 2.68a10.24 10.24 0 012.37.62c.63.17 1.27.3 1.9.45-.76.48-1.53 1-2.3 1.43 0 0-.14-.2-.23-.21a29.28 29.28 0 00-7.86.57c-2.53.85-7-.62-8.1-2.64-.68-1.31-.45-2.13.83-2.2a22.64 22.64 0 014.5.28c1.53.22 3 .7 4.54 1a1.48 1.48 0 001-.58c.81-1 1.25-4.58.72-5.36-1-1.55-2.84-2-5.22-1.39-.62.16-1.39-.12-1.93.13s-1.06.81-1.41-.08c-.1-.28.22-.89.52-1.13 2.1-1.69 7.93-1.52 9.38 1.32.67 1.31.26 3.19.33 5.14m-6 3c-1.5-.11-3-.24-4.49-.31-.25 0-.51.23-.77.35a2.77 2.77 0 01.85.31c1.66 1.35 3.58.36 5.36.62.28 0 .62-.26.93-.4a5.81 5.81 0 01-1.78-.63zM426.33 206.85c-2.31-2.06-2.62-3.46-1.3-6a69.37 69.37 0 013.73-6c.53-.79 1.27-1.69 2.43-1.22a1.87 1.87 0 011.06 2.43c-.71 2.12-1.55 4.19-2.44 6.24-.13.28-.87.28-1.32.42a3.67 3.67 0 01.12-1.12c.66-1.38 1.44-2.7 2.05-4.1a5.21 5.21 0 00.1-1.78 7.94 7.94 0 00-1.15.91c-1.69 1.88-2.5 4.17-3.41 6.5-.54 1.37 0 1.51.75 1.69 2.71.67 5.38-1.29 6-4.28.29-1.42.59-2.83.95-4.23.07-.27.44-.47.68-.7a2.71 2.71 0 01.33.8c0 1.21.07 2.43 0 3.63-.08 1.57.23 3.13 1.56 3.93 1.13.68 2.54 1.79 4 .33.13-.12.69.19 1 .29-.17.37-.25.85-.53 1.09-1.35 1.15-4.85.54-6.08-1.05-.82-1.06-1.27-1.78-2.29.07-1.16 2.22-3.57 2.36-6.24 2.15zM106.75 113.55c0-1.39-.28-3 .93-3.11s1 1.56 1 2.6v3c0 2.25 0 2.27 2.13 3.29.65.31 1.38.39 1.21 1.45-.12.74 0 1.26-1.07 1.54-1.83.49-2.61 1.86-2.31 3.9a21.53 21.53 0 010 4.61c0 .44-.6.84-.92 1.25a5.76 5.76 0 01-.34-1.12 5.31 5.31 0 010-1.64c.38-1.81-.58-1.91-2-1.88-2.07.06-3.07-.8-2.53-2.82.51-1.86-1.11-3.75.52-5.51a41.73 41.73 0 003.32-4.55c.11-.14 0-.43 0-1m-1.66 10.59c-.11.28-.36.6-.3.83.12.41.53 1.13.63 1.1.67-.2 1.74-.47 1.82-.88.12-.68-.41-1.47-.66-2.21a17.51 17.51 0 00-1.49 1.16m-.33-4.3l-.65 1.34a5.82 5.82 0 001.33-.07c.28-.08.47-.43.7-.66.77-.82 2-1.49 1-2.9l-1.79 1.73z"/><path d="M233.12 371.6c.16-.49.42-.63.45-.8.28-1.62 2-1.4 2.86-2.32a16.69 16.69 0 01-3-2.28c-1.1-1.3-.15-2.87.65-3.68a6.63 6.63 0 015.64-2.16c1.09.15 3.56 3 3.27 3.91-.24.75-1 1.33-1.55 2s-.72 1 .25 1.41a7.18 7.18 0 012 1.58c2.4 2.39 2 4.54-1.17 5.85a9.89 9.89 0 01-8-.52 2.48 2.48 0 01-1.42-3m8.27 2c2.15-.42 3.1-1.5 2.1-2.41-1.34-1.21-3.15-2.74-4.68-2.65s-2.79 2.06-4.15 3.24c-.06.05.13.55.31.66a6.4 6.4 0 002.15 1.11 30.31 30.31 0 004.27.05m-6.61-8.6c1.06 1.77 2.82 1.39 4.4 1.28a2.81 2.81 0 001.87-2.67c-.35-1.1-1.23-1.16-2.27-1.31-2.13-.29-3.09 1.19-3.98 2.71zM88.88 119.51c.25 1.66-.55 3.11.6 4.4.22.25-.35 1.32-.71 1.92a1.4 1.4 0 01-1.16-.2 4.27 4.27 0 01-.68-2 5.22 5.22 0 00-2-3.79c-1.47-1.42-2.7-1.41-3.58.39a10.13 10.13 0 00-.95 4.51 2 2 0 002.4 2.09 37 37 0 014.94 0c.18 0 .4.39.49.64a.62.62 0 01-.23.53c-2.54.66-5.08 1.51-7.65.11a3.24 3.24 0 01-1-.68c-1.88-2.47.32-9.61 3.24-10.5 1.74-.53 2.43 1.25 3.69 1.8a5.64 5.64 0 011 .74c.1-.4.39-.88.26-1.19-1.27-3.15-.37-6.42-.61-9.63 0-.34.28-.7.44-1.05.28.32.75.61.83 1a23.81 23.81 0 01.67 4c.13 2.18.01 4.4.01 6.91zM277.45 175.75c-2.35 0-4.35.12-6.35-.62-3.08-1.14-4.11-4.66-1.69-6.83 2.89-2.6 6-2.51 8.54-.32a10.16 10.16 0 00.95.91 1 1 0 00.86.19c.2-.11.41-.65.31-.8-1.87-2.82.72-5.6.08-8.42-.07-.33.57-.83.88-1.25a7.18 7.18 0 011 1.11 1.25 1.25 0 010 1c-1.24 3.49-.42 7.1-.63 10.65-.06 1-.26 1.57-1.3.8s-2.21-1.65-3.23-2.58a4.22 4.22 0 00-7 1.52 1.73 1.73 0 00.18 1.54 3.74 3.74 0 002.15 1.09c3.13-.05 6.25-.32 9.38-.47a4.46 4.46 0 011.11.22c-.19.32-.3.84-.56.93a48.57 48.57 0 01-4.68 1.33zM245.53 286.74c-2.37.65-4.08 2.72-6.62 2.16-1.11-.25-2.26-.37-3.34-.73-.27-.09-.52-.93-.42-1.33.32-1.28.62.06.95.06 2.46 0 5 .26 7.29-.73.52-.22 1.29-.7.33-1.62-1.81-1.74-4.13-1.8-6.34-2.25-.74-.15-1.56.09-2.31-.05-2.38-.44-3-1.92-1.66-3.9 1.64-2.44 3.83-3.54 6.82-4.23 2.38-.56 4.31.37 6.44.26.3 0 .63.57.94.88a8 8 0 01-1 .45c-.66.2-1.45.65-2 .46-3.69-1.26-6.6-.12-9 2.68a4.26 4.26 0 00-.47 1.11 6.57 6.57 0 001.19.32c2.42.13 4.57 1.11 6.8 1.92s2.87 2.21 2.4 4.54zM472.64 477.46c-1.37-1.28-2.8-.45-4-.59-.14 0-.5 1-.58 1.5a34.75 34.75 0 01-2.45 9.25 2.62 2.62 0 01-2.27 1.63c-1.07.06-1.18-1.12-1.3-2.17-.29-2.48-1-4.92-1.18-7.41-.06-.67 1-1.44 1.61-2.16.31.53 1 1.35.88 1.55-1.88 2.64.73 5.19.08 7.77 0 .15.18.35.29.53.23-.22.6-.4.68-.66a73.16 73.16 0 002.25-8.64c.47-3.21 1.1-3.86 4.15-2.78a40.39 40.39 0 014.51 1.87c2 1 2.34 2.28 1.46 4.51-.59 1.52-.83 3.2-1.52 4.66-.32.67-.4.9 0 1.51.21.3-.13 1-.23 1.49-.56-.48-1.44-.88-1.62-1.48a5.38 5.38 0 01.3-2.47c.26-1.09.62-2.17.95-3.24.91-3.04.91-3.04-2.01-4.67zM558 26.88c0 2.42.08 4.51 0 6.6a5.92 5.92 0 01-.88 1.93 6.46 6.46 0 01-1.57-.81c-2.47-2.26-5.45-2.59-8.58-2.41-.37 0-.72.53-1.08.52-1.35 0-1.05 1.3-1.66 1.86.67.52 1.29 1.44 2 1.5 3.34.31 6.66 1.6 10.08.25.39-.16 1.49.45 1.66.93.38 1-.63.7-1.19.91-1.93.72-3.74 1.05-5.77 0-.88-.44-2.16 0-3.26-.08a4.93 4.93 0 01-4.48-2.55c-1-2-.39-3.73 1.66-4.47s4.32-1.6 6.63-.29a10.45 10.45 0 002.68.7c.76.18 1.53.34 2.3.51-1-1 .26-2 .06-3a22.12 22.12 0 01-.51-2.75 4.31 4.31 0 01.39-1.43 7.86 7.86 0 011.31.79c.14.25.13.66.21 1.29zM503.9 33.66c.71-.71 1.22-1.29 1.81-1.79.85-.72 1.34-.58 1.36.65 0 .32.33.65.51 1 .26-.24.55-.46.78-.72a8.67 8.67 0 01.77-1 1 1 0 01.85-.23 1 1 0 01.36.78 19.3 19.3 0 01-.36 3.81c-.84 3.22.59 5.25 3.89 5.29h5.6c.27 0 .54.44.81.67-.19.21-.34.54-.57.61-3.55 1.14-7.06 1.12-10.13-1.19a2.35 2.35 0 00-3.06-.16c-1.15.62-2.4 1.39-3.76.1a3.25 3.25 0 01-.64-4.05c.51-1.22 1.08-2.41 1.78-3.78m1.16 2.15a6.81 6.81 0 00-1.1 1.82 9.84 9.84 0 00.05 2.42c.88-.2 2.16-.11 2.56-.67a6.08 6.08 0 001-3.39c0-.59-1.05-1.18-1.62-1.77a3.28 3.28 0 00-.89 1.6zM229.82 372.26a10.87 10.87 0 01-6.34 3.28 3.72 3.72 0 01-4.23-3.65 12.64 12.64 0 013.21-9.2 3.23 3.23 0 013.53-1c3.59.75 6.17 5.24 5.11 8.77-.17.56-.84 1-1.28 1.77m-7.61-6.62a11.11 11.11 0 00-1 6.19 2.44 2.44 0 001.12 1.7c2.43.93 5.58-.85 6.94-3.75.88-1.88-.21-4.71-2.27-5.92a1.6 1.6 0 00-2.55 1.34c-.09.62.64 1.72-.72 1.69-.21 0-.36-1-.61-1.51 0-.07-.36-.02-.91.29zM408 275.16c-1.68.5-2.22 1.75-2.82 3a4.75 4.75 0 01-.67.84c-.21-.4-.61-.8-.61-1.2 0-2.18 2.31-4.4 4.88-4.76a3.64 3.64 0 01.66 0c1.23.15 2.88-.63 3.53.91a4.17 4.17 0 01-.92 4.43c-1.78 1.94-3.73 3.73-5.56 5.63-.73.75-2 2-1.83 2.42.71 1.59 1.57-.44 2.66-.31 1.52.18 3.15-.71 4.75-1.07.32-.07.71.2 1.06.32-.2.3-.33.73-.61.88a15.78 15.78 0 01-9.07 2c-1.38-.12-1.82-1.17-.84-2.32 2-2.39 4.17-4.67 6.28-7 .59-.65 1.3-1.2 1.84-1.89a11.23 11.23 0 001-1.81c-.63-.07-1.26-.17-1.89-.22a6.38 6.38 0 00-1.84.15zM368.76 48.05c1.57 0 1.82.79.9 1.25a12.73 12.73 0 01-4.66 1.33c-2.37.17-3.67-1.35-4.17-3.76a16.47 16.47 0 01.07-7.06c1-4.49 2-9 4.4-13a10.39 10.39 0 011.9-2.5 2.28 2.28 0 011.94-.57c.5.23.77 1.16 1 1.84a3.11 3.11 0 010 1.63c-.12.37-.58.64-.88.95a7.19 7.19 0 01-.4-1c-.13-.5-.2-1-.3-1.53a7.6 7.6 0 00-1.16 1.1 33.53 33.53 0 00-3.81 9 28.29 28.29 0 00-1.39 8.7c-.05 4.74 2.63 5.08 6.56 3.62zM237.59 247.7a43.94 43.94 0 01-6.41 3.41c-2.15.77-5.12-1.18-5.17-3.53a6 6 0 012.61-4.75 4.1 4.1 0 014.43-.62 21.26 21.26 0 012.54 1.84c.46.33.93.63 1.4.94 0-.64.07-1.29.1-1.93v-8.69a3.51 3.51 0 01.79-.37c.16 0 .51.2.5.29-.38 4.41.9 8.9-.79 13.41m-3.47.83c.53-.31 1.53-.69 1.5-.92a4.89 4.89 0 00-1-1.84 6.35 6.35 0 00-.93-.94 3.55 3.55 0 00-5.86 1.75c-.21 1-.13 2.36.94 2.48 1.54.17 3.23.75 5.35-.53zM377.53 33c.4-.4.78-.6.84-.87a2.67 2.67 0 012.77-2.31c.95.14 2 1.4 2.48 2.42a29.64 29.64 0 011.66 5.58c.41 1.8.06 3.83 1.83 5.17.13.1-.12 1-.42 1.28a1.37 1.37 0 01-1.29.17 4.92 4.92 0 01-1.46-3.69 13.73 13.73 0 00-1.85-7.47c-.28-.43-.77-1.05-1.12-1s-.82.64-1.11 1.08a23 23 0 00-3.15 9.27c-.07.42.07 1-.16 1.24-.52.5-1.33 1.27-1.82 1.14-1.29-.34 0-1.1 0-1.68.13-2 .53-4 .59-6a5.91 5.91 0 012.21-4.33zM161.83 176.24c-1.33-2.28-1-4.43-.34-6.61a16.45 16.45 0 015.14-7.11 2.35 2.35 0 013.61.3c1.46 1.59 1.61 3.7.37 5-.22.23-.46.44-.7.66a4 4 0 01-.29-.87 5.68 5.68 0 000-1.31 2.18 2.18 0 00-3.37-.72c-1.93 1.49-2.68 3.73-3.66 5.76-1.11 2.3.75 4.86 3.52 5.07 1.75.14 3.53 0 5.28.06a5 5 0 012 .78 2.16 2.16 0 01-.27 1.12c-3.86-.03-7.78.63-11.29-2.13zM380 198.24c.22-2.65.4-5 .7-7.3.06-.45.6-.84.92-1.26a5 5 0 01.34 1.42c-.17 2.66-.43 5.31-.62 8a3.72 3.72 0 00.33 1.15 3.65 3.65 0 01.48-1.12 11 11 0 012.53-2.48c1.91-1 3.62 0 3.92 2.14a16.69 16.69 0 00.75 4.3c.46 1.07.72 2.83 2.75 2.51.49-.07 1.08.5 1.63.78-.12.23-.23.65-.37.67-.81.09-1.07 1.22-2.33.73-1.86-.72-2.32-2.33-3-3.72-.58-1.16-.43-2.66-.77-4-.16-.66-.57-1.57-1.07-1.73a2.13 2.13 0 00-1.91.7 52.42 52.42 0 00-2.92 5c-.18.35 0 .93-.19 1.22a4.65 4.65 0 01-1.26.88c-.18-.43-.55-.87-.52-1.28.14-2.06.4-4.17.61-6.61zM164.31 141.34c-2.34-2-4.64-1-5.29 1.91-.83 3.72 1 6 4.88 6h7.91c.37 0 .74.46 1.1.7-.31.2-.6.53-.93.56-2.43.26-4.87.61-7.3.63a16.23 16.23 0 01-4.24-.86c-2.23-.61-3-2.53-3.36-4.46-.61-2.91 1.88-7 4.61-8.23 1.38-.59 2.65-.47 3.33.83a12.53 12.53 0 011.19 4.09c.06.4-.89.94-1.38 1.41-.17-.55-.36-1.1-.51-1.66a5.72 5.72 0 01-.01-.92zM190.61 204c-.51.51-1 1.17-1.28.31-.25-.67-.39-1.9 0-2.16a8.07 8.07 0 013.8-1.84c2.23-.12 2.42-1.27 2.33-3a30.54 30.54 0 010-4.28c0-.49.66-.92 1-1.38.31.42.87.85.86 1.27a14.14 14.14 0 01-.45 3.42c-.69 2.68-.13 3.35 2.45 3.88a56 56 0 017.29 2.3c.33.12.45.86.67 1.31-.42-.12-.83-.27-1.25-.35-2.34-.45-4.69-.9-7-1.32-1.2-.22-1.79.14-1.66 1.54s.25 3-.83 4.24a1.33 1.33 0 01-1.13.43c-.48-.18-.37-.55-.24-1.15.22-.92 1.18-1.87.29-3-.39-.51-.11-1.7-.52-2a2.38 2.38 0 00-2.2 0c-.66.56-2.11.21-2.13 1.78zM83.43 54.5c-3 2.24-6.32 2.41-9.57 2-1-.12-2.34-1.59-2.75-2.72a9.88 9.88 0 011-8.54c.75-1.31 1-2.91 2.77-3.46 1.55-.46 3.21-.38 4 .62s1 4.23.16 5.11A2.16 2.16 0 0178 48a2.23 2.23 0 01-.35-.77 2.9 2.9 0 010-.66c0-1.16.39-2.83-1.06-3-.81-.11-2 1.12-2.68 2a9 9 0 00-1.49 6.94c.19 1.09.56 2.42 2.36 2.17 2.1-.3 4.26.33 6.36-.63.62-.28 1.62.18 2.29.45zM276.3 362.17a6.79 6.79 0 005.65-2.62c.23-.28.87-.22 1.33-.33-.07.38-.12.76-.21 1.13-.59 2.36-2.76 2.76-4.54 3.24-2.86.76-3.57 1.29-3.71 4.25-.06 1.1.07 2.21 0 3.3a12.61 12.61 0 01-.64 2.37 2.9 2.9 0 01-.41.64c-.24-.23-.67-.46-.67-.7a29.75 29.75 0 01.06-4.43c.16-1.43.61-2.83.86-4.26 0-.09-.56-.43-.85-.42-1.62.07-3.23 0-4.43-1.24-.27-.28-.2-1.1 0-1.55.34-.79.8-.32 1.13.1 1 1.32 2.47.45 3.7.64.16 0 .56-.52.6-.84.27-1.89.48-3.78.68-5.68a7.06 7.06 0 010-1.31c.1-.3.5-.49.77-.73.17.22.49.44.5.67v4.3a24.91 24.91 0 00.18 3.47zM570.57 40.77c-1.74 3.23-4.51 4.75-7.55 5.86a4.31 4.31 0 01-1.55-.06 4.81 4.81 0 01.84-1.15 16.18 16.18 0 012.41-1.33c3.34-1.49 4.85-4.25 5.9-7.61 1.88-6-1.23-10.83-3.41-15.89-.18-.43-.83-1-1.21-.94-2 .24-.51-1.16-.79-1.5-.85-1-.75-1.76.31-2.3a6.31 6.31 0 011.34 1.72c1.26 2.21 2.47 4.46 3.7 6.7a16.42 16.42 0 01.93 13.92c-.27.81-.61 1.5-.92 2.58zM130.57 73.85c-.3 2.66-.95 4.84-2.81 6.44a4.62 4.62 0 01-1.31.83c-4.64 1.8-5.94 0-5.8-4.12.07-2.12-.35-4.27.79-6.29s2.88-2.79 5.19-1.78a6.45 6.45 0 013.94 4.92m-4-3h-.62a1.31 1.31 0 01.62.71c-.67 0-1.51.24-2-.07-1-.7-1.51 0-1.81.6-1.12 2-.92 4.3-.78 6.5 0 .44 1 1.08 1.57 1.19 2.43.45 5.94-3.1 5.62-5.59a2 2 0 00-.47-1.1 19.55 19.55 0 01-2.1-2.21zM314.51 284.92c-1.4 3.66-3.8 5.35-7.05 5.29a2.73 2.73 0 01-2.87-2.37 15.74 15.74 0 013.05-10.9c1.24-1.76 2.12-1.79 3.61-.21 2.08 2.19 3.78 4.57 3.26 8.19m-1.33-3c-1-1.22-2.05-2.41-3-3.67-.64-.86-1-.38-1.41.13a15.69 15.69 0 00-2.87 8c-.16 1.39.69 1.83 2 1.88 3.1.11 5.1-2.02 5.28-6.32zM414.42 284.92c.66-2.25 1.3-4.18 2-6.09a5.08 5.08 0 01.81-1.63c.44-.5 1-1.55 1.75-.54a7.62 7.62 0 01.72 2.65c0 .05-.17.23-.22.21-.62-.19-1.33-1.41-1.75.22-.21.78-.51 1.54-.77 2.31a6.23 6.23 0 00-.52 1.75 6.69 6.69 0 00.44 3.06c.35.63 4.05-.23 4.79-.91a5.53 5.53 0 002-4.44c0-1.61-1.55-2-2.18-3.07a4.69 4.69 0 01-.28-1.34 2.75 2.75 0 011.11.25c1.68 1.33 3.6 2.53 3.31 5.15-.45 4.12-5.32 7.54-9.3 6.35-1.57-.48-1.83-2.09-1.91-3.93zM495.63 226.2c.38.84.89 1.59.74 2.17-.51 2.08-1.29 4.08-1.86 6.15-.11.41.23.95.36 1.44a11.39 11.39 0 01.93-.91c3.4-2.69 6-1.56 7.94 2.52 1 2.14.58 4.42.64 6.65 0 .33-.32.67-.5 1-.26-.34-.78-.71-.76-1a12.42 12.42 0 00-2-7.44c-1.07-1.75-2.32-2.09-3.73-.65-1.09 1.11-1.9 2.51-2.92 3.71a4.56 4.56 0 01-1.39.78c-.19-.53-.69-1.39-.52-1.55 1.06-1 .44-2.28.61-3.41.44-2.78.85-5.58 1.36-8.35.06-.49.61-.86 1.1-1.11zM263.56 148.62c-1.16 2.21-3.31 2.45-5.07 3.25-1.42.64-4.14-.88-4.13-2.31 0-3.6-.72-7.27 1.19-10.73.62-1.12 1-1.1 1.51-.29 1 1.72 2.75 2.2 4.35 3 2.87 1.41 3.53 3.6 2.15 7.09m-1.32-1c.21-.89.9-2.15.54-2.61-1.2-1.57-2.6-3-4.93-3.08a1.63 1.63 0 00-1.93 1.49 19.85 19.85 0 000 5 1.6 1.6 0 001.9 1.54 6.7 6.7 0 004.42-2.34zM405.15 39.45a35.27 35.27 0 01-1.65 3.94c-.13.27-.45.45-.68.67-.11-.29-.32-.58-.29-.86a16.72 16.72 0 01.36-1.82c.47-2.23.94-4.46 1.38-6.69 0-.15-.25-.52-.34-.51-.51.08-1 .29-1.49.36a17.85 17.85 0 01-1.79.07c.42-.59.73-1.54 1.28-1.72 2.29-.71 2.87-2.22 2.58-4.4-.16-1.18.37-2.9 1.23-2.78 1.49.21.51 1.92.69 3 .07.41-.49.89-.6 1.37-.28 1.34.21 1.4 1.8 1.52a64.38 64.38 0 017.37 1.26c.28.06.49.5.73.76-.33.18-.67.53-1 .51-1.89-.17-3.78-.54-5.67-.61-3.07-.1-3.85.75-3.94 3.95.02.53.03 1.1.03 1.98zM389.27 35.48c-.59 0-1.6.23-1.28-.84a3.39 3.39 0 012.77-2.46 5.06 5.06 0 015.79 4.82 6.14 6.14 0 01-5.27 6.38 2.59 2.59 0 01-2.62-2.27 33 33 0 01.78-5.51 1.74 1.74 0 00.21-.77l-.38.61m1.33 3a1.61 1.61 0 00-.19 2.5c.92 1.19 1.53 0 2.17-.24a5.19 5.19 0 001.73-1.36 3.14 3.14 0 00-.5-5c-.74-.53-1.23-.35-1.22.6s0 2.38-1 2.26c-.84-.04-1.06-.42-.99 1.26zM467.51 352.57c-1.87 3.42-3.64 6.65-5.27 9.94-.85 1.73-1.46 3.57-2.17 5.37a4.21 4.21 0 01-.43 1.13 3.53 3.53 0 01-1.06.6c-.16-.45-.58-1-.46-1.33a62.07 62.07 0 012.81-7.08c2.24-4.37 4.7-8.63 7.09-12.92.69-1.25 1.41-2.5 2.23-3.69a2.71 2.71 0 011.31-.76c.26-.09.84 0 .87.15.08.35.1.9-.11 1.09-2.23 2.03-2.85 5.05-4.81 7.5zM421.69 189.48c-.33.16-.71.05-1 .18-2.58 1.22-5.18 2.4-7.7 3.74-1.45.78-2.73 1.9-4.16 2.74-.37.22-1 0-1.53 0 .11-.45.08-1.15.36-1.32 1.93-1.17 3.89-2.29 5.9-3.3 4.28-2.14 8.6-4.21 12.91-6.3.18-.09.4-.1.59-.18.82-.38 1.94-1.4 2.46-.28s-1.2 1.13-1.85 1.54c-1.88 1.15-3.96 2.02-5.98 3.18zM421.69 189.81c.74.33 1.47.45 1 1.93-1.07 3.45-1.54 7.08-2.36 10.61-.45 1.9-.79 3.93-2.45 5.25a1.76 1.76 0 01-1.55.13c-1-.51-.22-1 .21-1.35 1.91-1.53 1.86-3.9 2.44-5.94.92-3.28 1.49-6.66 2.24-10 .06-.18.32-.31.47-.63zM397.21 48.05a4.63 4.63 0 011.33.85c-.48.38-.92 1-1.44 1.09-2.09.33-4.21.53-6.32.69-1.9.15-3.84-.27-5.7.62a1.87 1.87 0 01-1.69-.69c-.39-.87.14-1.25 1.16-1.28s2.23-.49 3.36-.6c2.99-.28 5.98-.46 9.3-.68zM326.25 275.49a10.92 10.92 0 01-3.19.79c-1.71 0-2.19-.82-1.75-2.47.33-1.26 1.75-2.4.52-3.91 0 0 .56-.79.9-.82a4 4 0 013.92 5.36 7.19 7.19 0 01-.4 1.05m-2.15-3.14c-.77.64-1.37 1.36-.85 2.41a.86.86 0 00.82.21c.86-.68 1.61-1.45.03-2.62zM45.22 49.37c.22-1.78.45-3.23.65-4.68.12-.84.14-1.7.31-2.53a1 1 0 01.67-.66c.21 0 .54.35.68.62a3.5 3.5 0 01.32 1.19c.13 1.14-1.67 11.18-2.48 12.86-.17.36-.31.75-.47 1.12-.33-.39-1-.84-.95-1.18.24-1.63.68-3.23 1-4.85a16.39 16.39 0 00.27-1.89zM146.45 167.81v-1.32a3.68 3.68 0 011.24-3.3c.08-.07.55.1.55.14-.08 1.11-.21 2.22-.31 3.34-.27 3.07-.59 6.13-.78 9.2-.07 1-.1 2.4-1 2.38s-1.36-1.59-.92-2.4c1.27-2.47-.31-5.34 1.22-8.04zM144 139.52c.46-.09 1 0 1 .07.06 2 .17 4.1 0 6.14-.16 2.25-2.19 4.32-.6 6.78.11.17-.51.83-.79 1.26-.38-.29-1.07-.56-1.09-.88a12.19 12.19 0 010-4.55c.69-2.11.45-4.2.61-6.3a8.37 8.37 0 01.87-2.52zM206.66 212.14c.44-1.68.87-3 1.32-4.38.18-.53.39-1.5.59-1.5 1.35 0 .67 1.09.71 1.69.19 3.29-1.7 6.13-2.15 9.3 0 .29-.58.51-.89.76a2.74 2.74 0 01-.23-.88c.19-1.56.43-3.13.65-4.99zM290.69 469.52a3.69 3.69 0 00-1.05 1.32 9.37 9.37 0 00-1.12-1.15c-.84-.6-.12-.92.22-1.16.58-.4 1.3-1 1.89-.93a58.15 58.15 0 016.37 1.34c.33.08.8.87.69 1.1-.24.53-.57.6-1.38.29-1.64-.61-3.52-.58-5.62-.81zM260.75 283.43c2.67-.71 5.16-1 7.46.54a3 3 0 01.58.68 3.6 3.6 0 01-.87.26h-5.25a10.68 10.68 0 00-2 0c-.59.11-1.14 1.38-1.69.16-.06-.19 1.02-.96 1.77-1.64zM159.85 74a42.36 42.36 0 01-5.32.46c-.26 0-.54-.44-.8-.67.3-.21.58-.56.9-.59 2.88-.26 5.76-.5 8.64-.65.34 0 .7.5 1 .77-.33.17-.66.47-1 .49-1.05.08-2.16.04-3.42.19zM317.32 214.29a11 11 0 00-.67 1.16c-.27-.23-.8-.49-.78-.67a11.77 11.77 0 01.65-2.32c.39-1 .86-2 1.3-3 .16-.37.32-.73.49-1.1.27.43.73.83.8 1.29a5.07 5.07 0 01-1.79 4.64zM120.48 386.65c-1.52.57-2.78 0-3.16-1.1-.53-1.52 1-1.37 1.58-1.86a2.48 2.48 0 011.84-.14c.45.11.81.61 1.22.94a11.52 11.52 0 00-1.14.35c-.51.19-1 .42-1.5.63a4.08 4.08 0 011.16 1.18zM472.14 469.36a1 1 0 01-.16-.5c-.29-1.38 1-1.78 1.62-2.61.91.67 1.84 1.33 2.73 2 .05.05-.12.38-.19.58-1.5-.74-2.56-.19-3.37 1.13zM479.92 277a3.85 3.85 0 011.16 1.16c-.43.29-.64 1.18-1.43.31-.26-.29-1.1 0-1.53-.19s-1.25-1-1.16-1.19c.36-.66 1-1.24 1.76-.33.17.17.57.15 1.2.24z"/><path d="M563.12 23.4a1.69 1.69 0 00.17-.81h.71c-.45 1.54-.89 3.09-1.37 4.62a.94.94 0 01-.64-.07c-.27-.3-.69-.81-.59-1a21.25 21.25 0 011.72-2.74zM188.13 114.22v1.65a4.82 4.82 0 01-.22.89c-.23-.16-.58-.28-.68-.51a8.57 8.57 0 00-.76-2c-.79-1 0-1.32.5-1.85a8.34 8.34 0 011.16 1.82zM513.17 291a3.09 3.09 0 011.06-.39c.67-.08 1.34-.12 2-.17a8.42 8.42 0 01-.35 1c-.94-.16-2.19 2.26-2.71-.44zM113.86 240.42c-.4-.06-.81-.28-.83-.53 0-.86 0-1.74.07-2.61a4.16 4.16 0 01.61.05c.08.98 1.34 1.84.15 3.09zM186.15 125.46c-.19-1.64.79-1.34 1.45-1.27.2 0 .57.8.5.87-.53.51-.87 1.68-1.95.4zM354.21 466.21c.49.52 1.9.67.76 1.59-.26.21-.31.69-.45 1-.3-.3-.8-.56-.85-.9a2.37 2.37 0 01.54-1.69zM158.85 353.57a6.2 6.2 0 01-1.82-.35l.83-1.3a5.33 5.33 0 01.99 1.65zM513.66 240.59a4.37 4.37 0 01-.82 1.32c-.16-.43-.51-.89-.47-1.3.11-1.03.7-.81 1.29-.02zM171.09 381a2.51 2.51 0 011.16.59l-.56.56a2.53 2.53 0 01-.6-1.15zM262.73 356.54a2.61 2.61 0 01-.59 1.16l-.57-.56a2.62 2.62 0 011.16-.6zM426.82 359c.17.32.3.77.14.94-.77.77-1.62 1.47-2.45 2.2-.41-1.51 1.16-1.77 1.7-2.69a1.24 1.24 0 01.61-.45z"/></svg>