<svg xmlns="http://www.w3.org/2000/svg" viewBox="0 0 595.28 528.87"><path d="M254.4 315.31c2.29-1.05 4.38-1.77 6.25.4a1.59 1.59 0 001.47.4c2.33-1.39 4.29-.25 6.37.63.68.29 1.77 1.09 2.17-.6.11-.49.9-.83 1.38-1.23a9.94 9.94 0 01.89 2c.31 1.47.47 3 .72 4.47a5 5 0 00.32.89 4.8 4.8 0 00.34-.86c.25-1.26.45-2.54.7-3.8a4.14 4.14 0 01.44-1.51c.2-.31.7-.43 1.07-.63.18.46.53.94.49 1.37-.12 1.06-.59 2.09-.62 3.13-.07 3.26 1.79 4.59 5 3.82 1.67-.41 3.46-.37 5.1-.87 5.3-1.59 6.8-6.32 2.91-10.3-3.3-3.38-7.17-6.35-12.44-6a4.35 4.35 0 01-1 0 5 5 0 01-.89-.32c.31-.32.62-.9.94-.91 1.67-.07 3.57-.49 5 .15 3.38 1.56 7 2.91 9.42 6a10.45 10.45 0 012.29 4.79c.57 4.62-1.73 7.65-6.38 8.67a55.61 55.61 0 01-6.85.74 3.43 3.43 0 01-3-1.3c-.85-1-.87-.91-1.36.29a13.5 13.5 0 01-1 1.64c-.36-.5-.92-.95-1-1.5-.34-1.59-.46-3.22-.74-4.81-.12-.64.64-1.78-.76-1.73-.21 0-.53 1-.56 1.58-.12 2.08.28 4.21-.7 6.19-.09.19.08.56 0 .66-.61.52-1.44 1.51-1.88 1.37-1-.32-.71-1-.28-2.07a16.39 16.39 0 00.79-5.45c.08-2-1-3-3-3h-1c-3.39 0-3.5 0-3.38 3.32.13 3.71-1.16 6.49-4.49 8.32-1.52.84-3.67 1-4.83-.21a3.81 3.81 0 00-2.92-1.26 2.57 2.57 0 01-2.73-2.94c.06-1.38-.41-2.76.48-4.24.39-.64-.7-2.29-1.32-3.37-.27-.47-1-.66-1.6-1-.11.52-.26 1-.32 1.56a9.65 9.65 0 000 1.7 11.46 11.46 0 01-1.59 7.52c-.66 1-1.18 1.76.78 2.24 2.35.57 3 3 3.44 5a12 12 0 01-1.27 7.93c-.78 1.49-1.4 3.07-2.27 4.5-2.41 4-5.78 6.7-10.66 6.93-.91.05-1.36.21-1.54 1.18a7.36 7.36 0 01-.92 1.65c-1.69 3.31-1.68 3.43 2 3.3 2.18-.08 4.46.68 6.55-.62.11-.07.65.24.69.45s-.12.79-.29.84a12.06 12.06 0 01-3.45.68c-2.41-.1-4.83.49-7.25-.54-.9-.38-2.29.27-3.41.61a12.14 12.14 0 01-5.31.81c-2.52-.31-3.29-1.79-4.06-3.59-.37-.86-.42-1.86-.74-2.76-.1-.28-.6-.41-.92-.61-.1.37-.36.78-.28 1.11a34.83 34.83 0 011.16 4.25c.07.66-.71 1.42-1.11 2.13-.51-.48-1.36-.9-1.47-1.46-.33-1.6-1.59-3.15-.21-4.95.74-1-.22-1.81-1-2.54-1-1-1.91-.59-3-.27s-1.43 1.08-1.34 2.16c.06.67 0 1.36 0 2 .14 4.76-4.52 7.92-9.09 7-1.41-.28-1.93-1.81-2.87-2.75-.73-.73-.94-.74-1 .38s-.92 2.34-.55 3.08c1 2 .33 3.95.59 5.89a21.49 21.49 0 01.62 4.14 42 42 0 01-1.09 8.39c-.87 3.23-3.9 4.27-6.77 4.67a18.22 18.22 0 01-14.73-4.24c-2.89-2.4-2.93-7.35.2-10.41a85.86 85.86 0 019.81-8.37c1.62-1.16 2.05-2.6 1.36-3.71-1.31-2.09.16-3.51.58-5.15a9.68 9.68 0 013.84-5.18c1.36-1 7 .5 7.8 2a3.86 3.86 0 01.19 1.61c0 1.7-.07 3.41 0 5.11a3.82 3.82 0 004.49 3.22c3.7-1 5.53-3.81 5-7.67-.32-2.47-3.32-5-5.46-4.47-.48.11-.87.62-1.3.95.39.35.73.92 1.18 1a20.62 20.62 0 002.37.08c.19 0 .46.46.45.7s-.39.62-.55.59c-1.16-.16-2.32-.39-3.47-.65-1.69-.38-1.44-1.75-1.37-2.94.06-.88-.48-.89-1.07-1.26a11.73 11.73 0 01-5.83-7.71c-.74-3.5-1.51-6.83 1.11-9.92.84-1 .24-1.49-.79-1.29a4.22 4.22 0 01-4.92-2.59c-.64-1.4-1.26-.83-2-.6a21 21 0 01-3.62 1.06c-1.55.14-2.41-1-2.59-2.41a9.3 9.3 0 010-3.72c.72-2.35 1.32-4.81 3.78-6.24a1.9 1.9 0 012.62.09c.62.51 2 .5 2.2 1a9.83 9.83 0 01.19 3.32v4.43a4.11 4.11 0 006.12 3.62c2.33-1.32 4.11-2.61 4.14-5.56a28.29 28.29 0 01.68-5.16 5.48 5.48 0 011-1.6c.28.62.82 1.27.77 1.88-.16 2.06 0 4.19-1.1 6.11a1.52 1.52 0 000 1c.23.8.33 1.89.89 2.28s1.63-.09 2.22-.53a11.43 11.43 0 004.36-7v-.34c.24-1.27.33-2.62 1.61-3.4.12 1.27.67 2.72.26 3.79a21.13 21.13 0 00-1.21 8c.06 3.63.18 7.28 0 10.89a31.51 31.51 0 01-1.9 9.41c-.27.72-2.28.83-.86 2.23 1.13 1.11 2.22 2.47 4 1.58 2.07-1.06 3.91-1.57 5.65.48a.73.73 0 00.69 0c1.55-1.82 1.78-.18 2.17.84a17.53 17.53 0 011.2 3.58 3.8 3.8 0 003.12 3.37c2.2.43 4.43.12 6-1.87.15-.2 0-.63 0-.95a8.67 8.67 0 011-6.26 11.42 11.42 0 001.61-6.15 18.44 18.44 0 01.9-5.05c.62-2.34 1.44-4.62 2.11-6.95a2.48 2.48 0 00-.12-1.39c-.4-1.32-.67-2.53 1.15-3 .24-.07.39-.46.59-.7-.19-.09-.38-.27-.57-.26-4.57.13-5.32-3.85-6.73-6.71-.91-1.84-.6-4.28-.78-6.46a3 3 0 01.37-1.09c.32.32.85.6.92 1 .32 1.59.38 3.24.76 4.81a10.67 10.67 0 003.6 6.34c1.58 1.23 2.6 1.1 3.15-.78 1-3.34 1.83-6.73 2.76-10.09a9.56 9.56 0 01.59-1.31c.26.5.7 1 .73 1.49.09 1.58-.06 3.18.05 4.76a8.8 8.8 0 01-2.73 7.06c-.18.19-1.39.65-.08 1 3.39.84 5.73-.25 7.07-3.27a5.84 5.84 0 00.47-2.18c.06-2 0-4.09 0-6.12s.9-2.45 2.8-1.6c2.56 1.14 3.92 4.59 3.07 7.66a5.08 5.08 0 00-.31 2.49 2.5 2.5 0 001.58 1.59c1.17.19 1.76-.67 1.69-1.87a13.74 13.74 0 011.17-5.29c.48-1.4 1.78-2.21 2.07-3.82m-73 51.93a34.24 34.24 0 00-8.27 7c-1.32 1.6-3.06 3.46-2.05 5.72.68 1.49 1.22 3.19 3.15 4.16a53.33 53.33 0 005.53 2.24 11.36 11.36 0 009.35-.7 4.62 4.62 0 002.82-4.33c.08-3.95.07-7.91 0-11.87 0-2-1.66-3.91 0-5.9-.44-.23-1-.77-1.31-.65-1.18.42-2.3 1.57-3.39 1.52-2.38-.12-3.84 1.23-5.8 2.83m48-18.73a7.67 7.67 0 011.31 2.16 1.87 1.87 0 002.76 1.5c2.36-1.19 4.91-2.45 6.63-4.36a24.42 24.42 0 004.11-7.42 12.8 12.8 0 00.77-5.76c-.27-2.93-3.62-6.49-7.13-4.19a5.82 5.82 0 01-2.82 1.3c-1.65-.05-2.17.95-2.49 2.09-1.3 4.6-3.42 9-3.14 14.68m-33.71-1a10.81 10.81 0 001.42.67c3.48 1 4.78.41 5.78-3.17a37.87 37.87 0 001.26-7.63c.21-3.39.07-6.8 0-10.2a5.61 5.61 0 00-.38-1.4 9.66 9.66 0 00-1 1c-1.79 2.33-3.42 2.71-6.07 1.44a1.12 1.12 0 00-.94.13 14.84 14.84 0 00-2.48 2.18c-1 1.28-2.49 2.63-2.66 4.09-.6 4.87.11 9.49 5 12.92M252.53 326a4.78 4.78 0 00.5 1.81c1.23 1.54 2.49.19 3.4-.36 3.07-1.86 3.71-5.13 4.25-8.35.15-.93-.34-1.12-1.2-.75-1.33.57-2.78 1.53-3.71-.61 0-.06-1 .07-1.16.32-1.09 2.3-2.41 4.55-2.08 7.94m-59.59 28.3c-1.25-2-2.56-2.49-4.42-1.71-2.92 1.21-5.1 6.18-4.06 9.38.08.24.87.54 1 .44 1.55-1.45 3.07-2.93 4.52-4.48.95-1 1.76-2.19 3-3.63m-14.31-27.93c1.37 1.72 2.68.32 3.63-.36a6.75 6.75 0 001.84-3c.19-.48-.5-1.43-.25-1.77 1.39-1.88-.23-3.08-1.24-3.61-1.37-.72-2.27.72-3 1.89a9.42 9.42 0 00-1 6.84m48.7 26.22a15.86 15.86 0 010 1.69c-.1.91-1.56 1.75-.13 2.74a28.81 28.81 0 001.54-2.46 5.34 5.34 0 00.6-2.09 4.74 4.74 0 00-.6-1.58c-.36.46-.71.91-1.4 1.7M194 358.72v-1c0-.33-.13-.83-.2-1.24-.38.3-1 .54-1.11.92a4.52 4.52 0 000 2 1.37 1.37 0 001.3-.65m40.52-29.62a3.74 3.74 0 00-1 .53c-.09.09.15.76.31.79a1.72 1.72 0 002.26-1.1 8.16 8.16 0 00-1.58-.22m22.81-12.6l.42 1.63 1.63-1.53a4.07 4.07 0 00-2-.1m-66.4 43.93l-.27.4c.13-.05.31-.07.2-.43zM231.41 177.23c-.22 1-.52 1.73-.66 2.44-.36 1.82.43 3.68-.56 5.58-.36.7.59 2.59 1.46 3.29 1.18 1 2.35-.37 3.4-1 .12-.08-.11-.61-.07-.93.44-3.95 1.24-7.77 4.26-10.7 1.12-1.09 2-1.31 2.59.51a1.37 1.37 0 00.71.71c2.7 1.26 1.87 3.46 1.52 5.55-.16 1-.58 2-.3 2.88a2.4 2.4 0 002.35 2c4.87.36 7.44-1.91 8.79-5.61a34.33 34.33 0 001-5.7 7.14 7.14 0 01.49-1.84 16.11 16.11 0 011.18-1.89 9.13 9.13 0 01.33 2.17c-.1 1.17-.44 2.31-.63 3.47a3.23 3.23 0 00.14 1c.32-.2.76-.32.94-.61 1-1.62 1.91-3.3 2.93-4.91a11.52 11.52 0 011.59-1.77s.49.22.49.33c-.06 1 .18 1.86-.66 2.8a30.84 30.84 0 00-5.46 8.61c-1 2.32-.65 3.23 1.88 3.14a34 34 0 006.92-1.34c.35-.08.64-.92.72-1.45.29-1.94.32-3.93.77-5.83a8.13 8.13 0 011.8-3 7.42 7.42 0 011.84-1.27c.58.89 1.58 1.73 1.67 2.66a8.66 8.66 0 01-2.51 7.1 6.83 6.83 0 00-.82 1.36 9.35 9.35 0 001.45.45c4.36.56 6.89-2.37 9.42-5.13 1.3-1.42 2.21-3.18 3.42-4.69a3 3 0 014.75.11c1.71 2.5 3.3 5.07 2.78 8.39a4.56 4.56 0 01-3.49 4.05 23.61 23.61 0 01-12.91-.34 60 60 0 00-6.46-1.65c-.41-.09-.94.41-1.41.63a17.06 17.06 0 01-8.63 1.37h-.34l-2.51-1.33c-.4.84-.77 1.7-1.24 2.49-.09.17-.67.24-.86.11a1 1 0 01-.29-.86 12.23 12.23 0 01.42-1.66 5.65 5.65 0 00-1.62.77 6.8 6.8 0 01-5 1.85c-1.72 0-3.23-.37-4-2.11-.41-.94-.83-.86-1.37-.16-1.63 2.13-3.36 4-6.39 2.37a1 1 0 00-.9.07 3.6 3.6 0 01-4.76-.5c-1.37-1.44-1.05-3.66-.73-5.64a9.76 9.76 0 000-1.53c-.38.43-.76.85-1.12 1.29a37.09 37.09 0 01-3.16 3.77c-1.31 1.19-1.47 1.47-.12 2.64 4.61 3.95 4.64 6.57 1.29 13.27-.15.28-.57.44-.7.73-.67 1.51-2.36 2.56-1.26 4.81a3.69 3.69 0 01-1.19 4.55c-.72.56-1.5 2.23-1.2 2.65a4.53 4.53 0 003 1.64c3.28.32 6.44-.51 9.67-1.16a13.21 13.21 0 006.89-3.93c2.07-2.06 1.6-3.64-1.08-5.15a12.45 12.45 0 00-6-2c-.33 0-.65-.58-1-.89.33-.14.66-.42 1-.41a14.72 14.72 0 017.8 2.49c2.81 1.81 2.74 4.43.39 7a16.37 16.37 0 01-9.57 4.94 47 47 0 01-7.91.51 3.92 3.92 0 01-2.72-.7c-1.59-1.75-3.39-1.5-5.41-1.35-3.05.24-3.22 0-4.3-3.23a14.74 14.74 0 01-.47-1.85c-.58-2.77-1.38-3.23-4.15-2.36a9.66 9.66 0 00-2.38.8c-.66.43-1.14.86-.6 2.14.68 1.6 1.67 3.37.53 5.54a3.89 3.89 0 01-2.79 2.29c-2.38.19-4.91.68-7.19-.58-.58-.32-.79-.59-1.53 0a20.77 20.77 0 01-4.67 2.67c-1.42.59-4.31-1.25-5.35-3.16-.49-.92-.88-1.8-1.95-.42a11.39 11.39 0 01-2.45 2.3 2.78 2.78 0 01-3.53.07c-1.39-1-.42-2.41-1-3.5-.1-.19.22-.57.27-.88.18-1 .32-2 .48-3l-2.79 1.23c-1.59.68-2.84 1.31-2.57 3.62.18 1.55-.72 3.26-1.29 4.85-.13.34-.9.45-1.38.67-.09-.55-.42-1.47-.23-1.59 1.57-1 .7-2.88 1.57-4.18.48-.72.42-1.87-1.44-2.11-3.89-.51-5.07-3.82-5.91-7.11-.13-.49.37-1.17.64-1.74a.93.93 0 01.53-.34c.76.77 1.81 1.36 1.52 2.77a4 4 0 002.4 4.48c1.41.41 3.07-.47 3-2-.21-2.63 1.23-4.81 1.46-7.28a2 2 0 01.53-1.12 3.7 3.7 0 011.14-.51c.12.4.41.85.33 1.2-.47 1.84-1.11 3.64-1.52 5.49a23 23 0 00-.24 3.44 14.93 14.93 0 003.24-1.8c1.52-1.44 2.71-3.2 4.16-4.71 1.29-1.36 1.68-1.27 2.53.52.4.84.39 1.87.74 2.75.29.73.66 1.86 1.74.56.21-.24.8-1.26.92 0a10.45 10.45 0 01-.23 3.3c-.57 2.34.78 5.54 2.79 6.24 2.32.81 5.39-.8 6.34-3.23 1-2.64 2.09-5.27 3.26-7.84 1.37-3 2.81-3.49 5.08-1.21 1.42 1.42 2.36 1.29 3.86.47 1.28-.69 3.23-.63 4-1.6s.35-3 .86-4.36c1.33-3.65 2.85-7.22 4.37-10.79.3-.68.74-1.4-.34-1.36-3.09.12-4.11-2.18-4.48-4.32-.49-2.9-.92-6 .3-8.87.2-.45.75-.76 1.14-1.14.11.52.45 1.14.29 1.55-1.19 3-.7 6 0 9 .41 1.82 1.88 2 3.1 2.29 1.4.28 1.37-1.09 1.79-2.16 1.37-3.51 3-6.93 4.7-10.3a11.78 11.78 0 012.31-2.44c.36 1.2 1.21 2.5 1 3.58a62.73 62.73 0 01-2.46 7.47c-.21.59-.59 1.12-.84 1.7-.07.17.06.42.09.63a4.34 4.34 0 00.63-.27c4.18-2.3 6.11-6.17 7.34-10.52.5-1.73.89-3.49 1.4-5.21.09-.32.48-.55.73-.81.2.32.6.65.57 1-.16 1.85-.42 3.68-.65 5.86m-5.78 22.47a5 5 0 01.36-1.54c1.55-2.59.45-4.56-1.45-6.32a17.36 17.36 0 00-2.1-1.45c-2.62-1.79-4.55-1.34-6 1.51a57.12 57.12 0 00-4.87 12.25c-.21.83-.91 1.48-.22 2.33.1.11.62.07.63 0 .16-.73.22-1.48.42-2.2a5.71 5.71 0 01.67-1.2 7 7 0 01.65 1.24c.2.7.11 2 .45 2.07a10.75 10.75 0 004.1.72c2.73-.17 6.44-4.07 7.39-7.44M280.79 182c-1.5 1.28-3 2.55-4.5 3.84a3.31 3.31 0 00-.49.71c.2.07.39.16.59.22a15.37 15.37 0 0011.33-.69c2.17-1 2.7-1.8 2.21-3.8a10.64 10.64 0 00-2.58-5.38c-1.17-1.16-1.93-1.3-2.88.05-1.1 1.58-2.23 3.15-3.68 5.05m-79 27.93c-2.63-1.59-3.22-1.68-4.18.17a52.19 52.19 0 00-2.63 6.69 1.32 1.32 0 00.57 1.14 14.18 14.18 0 004.72.74 7.79 7.79 0 003.54-2c1.16-1-.12-2-.36-2.92a17.43 17.43 0 00-1.66-3.85m-25.54 7.15c.18.79.13 2.09.57 2.29 1.51.68 4.73-2.4 4.45-4.08s-.59-3.6-1-5.38c-.08-.38-.43-1-.72-1a1.58 1.58 0 00-1.17.58c-1.63 2-2 4.42-2.17 7.59m62.31-28.95c.24-.24.5-.46.72-.72 1.32-1.47 3.65-2.61 1.71-5.2-.12-.15.43-.71.49-1.1a12.36 12.36 0 00.11-2.65 1.52 1.52 0 00-.8-1c-.18-.09-.75.24-.91.51-1 1.82-2.36 3.57-2.94 5.54-.88 3-.62 3.18 1.62 4.59m-24.85 23.5c.11 2.29 1 3.76 2.3 3.71a4.53 4.53 0 002.68-.73c.49-.43.3-1.59.48-2.41a22.9 22.9 0 01.68-2.42 7.52 7.52 0 01.53-1 11.14 11.14 0 00-1.39.31 18 18 0 00-5.28 2.55M221.2 183c.68-1.75 1.4-3.48 2-5.25.11-.33-.19-.8-.29-1.21-.32.31-.78.56-.94.94-1.22 3-2.39 6-3.57 9-.12.31-.18.64-.27.95.38-.16.93-.21 1.12-.5a16.19 16.19 0 001.95-3.93m49-6.81c-.07.3-.05.71-.24.89-1.55 1.46-1.31 3.51-1.76 5.32-.07.25.32.65.57.92.06.07.52 0 .56-.16.87-2.22 2.39-4.24 2.19-6.79 0-.2-.64-.35-1.32-.18m-48.32 32.71c-.23.46-.77 1.1-.62 1.37.48.88-2 1.61-.09 2.26.2.07 1.07-1.31 1.34-2.11a1.48 1.48 0 00-.63-1.52m-7.15.34v-1.36a3 3 0 00-.6 0 1.26 1.26 0 00.6 1.36zM323.52 317c-5.07.95-7.31-.18-9-4.26-.11-.25-.33-.61-.54-.64a.94.94 0 00-.79.38 77.64 77.64 0 00-2.65 8.07 4.5 4.5 0 001.15 3.18c.41.51 1.6.61 2.42.56 4.72-.29 9.15-1.31 12.6-4.94a4.8 4.8 0 001.49-3.5c.06-3.2.38-6.4.66-9.59a4.29 4.29 0 01.68-1.75c.17-.29.61-.42.93-.62.13.27.38.54.39.81 0 2.16 0 4.32.06 6.47 0 .31.63.6 1 .89.65-.82 1.57-1.13 2.28-.37a8.09 8.09 0 012.08 3.19 30.69 30.69 0 01.73 5.83c.07 1.09.18 2 1.44 2.25 1.83.4 3.43 0 4-1.34a23.16 23.16 0 001.37-4.2c.35-1.58.4-3.22.72-4.81a2.55 2.55 0 014.45-1.12 17.76 17.76 0 012.95 4.55c.47 1.08.83 2.53-.36 3.67-.19.18 0 .74 0 1.13.37-.12.9-.12 1.07-.38 1.44-2.09 2.95-4.14 3.47-6.73a6.22 6.22 0 011.2-1.88 4.23 4.23 0 01.48-.46c.11.3.34.61.3.88a33.57 33.57 0 01-.68 3.46c-.09.4-.65.75-.62 1.09.12 1.37-.79 3.34 1 3.91 1.32.44 1.91-1.19 2.62-2.32a45.16 45.16 0 014.55-5.94c1.51-1.69 4.55-1.62 5.7.3s2.74 4.1 2.51 6.79c-.19 2.21-1.54 4-3.82 4-2.84 0-5.82-.08-7.1-3.43-.48-1.26-.78-.09-1 .09-1.11.85-1.75 2.23-3.6 2.11a1.67 1.67 0 01-1.8-1.36c-.43-1.35-1-1.41-1.94-.3a20 20 0 01-2.65 2.63 1.72 1.72 0 01-1.52.24c-.31-.16-.43-.94-.4-1.43a4.14 4.14 0 01.55-1.46c1.59-3.34.65-5.2-1.34-7a20.12 20.12 0 00-1.92-1.36c-.24.69-.55 1.37-.72 2.08-.49 2.07-.9 4.16-1.39 6.24a6.12 6.12 0 01-.68 1.75 5.26 5.26 0 01-5.28 2.57c-1.55-.27-3.33-3.05-3.57-5.37-.18-1.73-.4-3.45-.7-5.16-.07-.38-.58-1-.83-1a2.73 2.73 0 00-1.82.7c-1.85 2.59-1.74 5.84-2.76 8.72-.14.4 0 1-.24 1.25a5.07 5.07 0 01-1.32.85 3.62 3.62 0 01-.45-1.41 9.63 9.63 0 01.63-1.77 1.62 1.62 0 00-.07-.64c-.24.06-.55.05-.71.21-3.23 3.06-7.3 3.77-11.5 4.32-3.34.44-5.88-.79-6-3.61a18.62 18.62 0 011.05-6 58.27 58.27 0 012.36-5.83c.16-.38.66-.94.55-1.09-1.77-2.36 0-4.47.87-6.26s2.88-3.08 4.39-4.59c.24-.24.6-.44.7-.73.39-1.14.31-.81-.83-.72-1.41.11-2.37-3.77-1.43-5.79 1.08-2.34 2.2-4.67 4.27-6.42s3.67-1.67 5 .77a21.19 21.19 0 01.73 2.42 11.32 11.32 0 00.93 1.66c.32-.5 1-1.07.91-1.49-.51-2.52 1.82-3.91 2.26-6 .05-.25.62-.39.95-.58a2.67 2.67 0 01.36.84 5.72 5.72 0 01-1.25 4.26 7.4 7.4 0 00-1.4 3.47c-.25 2 .18 4.2 2 5.21a5.85 5.85 0 006-.16c2.41-1.46 4.91-2.87 4.26-6.36a1.72 1.72 0 00-.76-1.11c-6.83-2.93-9-6.42-8-13.37 0-.34.48-.94.57-.91a8 8 0 012 .91c.11.07-.17 1-.24 1-1.45-.09-.94 1-1 1.65a9.19 9.19 0 006.35 9.13 1.36 1.36 0 001.1-.56 4.16 4.16 0 00.69-1.74c.28-2.51.41-5 .74-7.54a8.34 8.34 0 011-2.22 9.07 9.07 0 011.62 2c.45 1.14-.84 1.71-1.17 2.49a15.3 15.3 0 00-.79 5.44c-.09 2.72-.06 2.43 2.84 1.83 4.9-1 6.28-4.72 7.3-8.77.23-.91 0-2.35 1.21-2.12s.77 1.29.27 2.35a33.94 33.94 0 00-1.66 5.44 12.12 12.12 0 00-.44 1.85 2.44 2.44 0 00.25.91 2.94 2.94 0 00.71-.59c.39-.62.65-1.33 1.08-1.92a13.87 13.87 0 011.47-1.5 6.23 6.23 0 011.23 1.74c.55 1.94.77 4 1.42 5.89a3.45 3.45 0 003.15 2.61c2.24.13 2.51-.33 2.05-2.66a9.25 9.25 0 012.66-9.06c.76-.73 1.36-.78 1.88.06.67 1.08 1.68 2.23 1.68 3.35 0 2.21 1.1 4.76-1.23 6.62-.22.17 0 .87 0 1.32a6.73 6.73 0 001.19-.53c3-2.14 4.14-5.39 4.92-8.79.1-.43-.15-1 .05-1.33s.95-1 1.23-.93c.68.24.34.72.2 1.4-.92 4.41 1 6.21 5.72 6.51a6.86 6.86 0 007-4.42c1.39-3.45-.6-8.41-3.93-10.64-1.25-.85-2.46-1.74-3.65-2.67-.13-.11 0-.66.13-.92s.59-.31.68-.23c2.4 2.3 5.95 3.35 7.39 6.68a11.91 11.91 0 01-.53 10.94 5.06 5.06 0 01-3 2.38c-2.69.53-5.5 1.22-8.21.11a5.2 5.2 0 01-1.69-1.65c-.85-1-1.86-1-2 .13a6.6 6.6 0 01-2.32 4.16 5 5 0 01-3.81 1.52c-2.27-.06-4.54-.08-6.8 0a3.37 3.37 0 01-3.55-2.27 12.76 12.76 0 01-1.33-6.28c0-.33-.34-.67-.52-1a8.27 8.27 0 00-.81.75c-2.33 2.85-3 6.29-3.41 9.82a3.92 3.92 0 01-.29 1.57c-.27.39-.88.54-1.34.8-.14-.38-.43-.78-.39-1.15.17-1.5.43-3 .65-4.48s.42-2.78.6-4.18c0-.29.06-.72-.11-.89a.93.93 0 00-.88-.11 12.69 12.69 0 01-6.26 2.23c-.66.07-2 .47-1.56 2a8.6 8.6 0 01-.08 2.31c-.05 2.16-2.15 2.25-3.32 3.25a14.94 14.94 0 01-3 1.72c-3.58 1.77-6.92.11-7.85-3.87a6 6 0 00-.57-1.13c-.17-.35-.32-.72-.48-1.08a6.76 6.76 0 00-.29 1.24c-.24 5.8-.39 11.61-.73 17.41a15.18 15.18 0 01-2.36 7.17c-.07.11-.44 0-.84.19m-9-11.41c-.23.7-.5 1.39-.66 2.1-.06.27.16.6.26.9.24-.19.49-.38.71-.59a11 11 0 011.71-1.64c.49-.3 1.46-.55 1.78-.28a11.46 11.46 0 013.62 5.93c.1.33-.66 1.24-1.14 1.35-1.12.27-.62-.8-.86-1.32a22.61 22.61 0 00-2-3.58c-.16-.24-1.18-.2-1.56.07-1.32 1-1.55 2.08-.78 3.71 1.23 2.59 3.17 3.37 5.79 3.24 2-.1 3-.82 3.31-2.79a34.33 34.33 0 00.66-4.48c.15-3.65-.18-7.3.64-10.94.3-1.33-.15-2.84-.26-4.27a29.86 29.86 0 01-2.9 2.84c-3.33 2.54-6.49 5.2-8.35 9.75m54.14 16c1.41 0 3.25.34 3-1.92a8.49 8.49 0 00-3-6.17 2.16 2.16 0 00-1.6-.52c-2.54.82-3.28 3.08-4 5.32-.54 1.63 1 2.16 1.77 2.74s2.06.39 3.8.55M323 290.28a13.1 13.1 0 011.21-1.85c.64-.71 1.3-1.18.53-2.31s-1.83-.7-2.55-.39c-1.87.8-4.67 6.69-4.29 8.64 0 .2.11.5.24.55.35.13.47 1.46 1.19.07a30.09 30.09 0 013.67-4.71m43.25-3.07a11.71 11.71 0 00.29 2.93c.19.54 1.05 1.6 1.72.38 1.43-2.62 2.1-5.33.76-8.3-.56-1.26-.93-1-1.59-.27-1.26 1.3-1.25 2.93-1.18 5.26m-41.2 2.39c-.86 1.31-1.73 2.62-2.58 3.95a3.25 3.25 0 00-.26.7c.3 0 .72.13.89 0 1.41-1.25 2.44-2.72 1.96-4.65zM134.2 187.61c2.7-1.19 3.68-3.45 4.6-5.76.76-1.92 1.95-3.41 4.25-3.24a6.7 6.7 0 015.49 3.15c1.13 1.73 1.11 3.47 1.17 5.32a7.06 7.06 0 00.5 1.73c.53-.37 1.28-.61 1.54-1.11.78-1.48 1.38-3.06 2-4.61a17.14 17.14 0 00.68-2.1c.35-1.35.73-2.47 2.38-1.1a1.35 1.35 0 001.29 0c1.47-1.53 3.12-.6 4.14.17a12.29 12.29 0 013 4.13 18.1 18.1 0 011.12 3.86c1.6-1 .92-2.65 1-4a7.93 7.93 0 012.68-5.69 1.78 1.78 0 011.48-.39c.3.07.58.78.61 1.22.07 1.47 0 3 0 4.42a5 5 0 01-1.63 3.77 5.83 5.83 0 00-.76 1.42c.59.23 1.21.71 1.75.63a5.75 5.75 0 004.11-2.33c1.29-1.76 2.55-3.41 2.7-5.72a6.31 6.31 0 011.1-2.24 2.47 2.47 0 01.48-.49c.13.24.38.47.39.71v3.74c0 3.92.43 4.38 4.49 4.31 2 0 3.91.29 5.87-.6a6.26 6.26 0 004-5c.54-5.73-2.64-9.48-6.73-12.73-1.26-1-2.63-1.86-3.91-2.84-.2-.16-.19-.59-.27-.9.39-.07.92-.35 1.13-.19 4.08 3 8.49 5.76 10.46 10.85 1.5 3.87 1.33 8.73-2.19 11.23a6.64 6.64 0 01-2.56 1.18c-3.29.54-6.66 2.49-9.89-.24-.29-.24-.82-.27-1-.56a19.51 19.51 0 01-1.11-2.13 10.18 10.18 0 01-1 2.31 7 7 0 01-7.2 3 3.69 3.69 0 01-1.84-1.24 2.22 2.22 0 00-3-.52c-2.94 2.05-5.72 1.48-8.57-.09-.27-.15-.69-.08-.9-.26-1.42-1.28-2-.19-2.25.92-.38 1.69-.49 3.44-.73 5.16a4.31 4.31 0 01-.39 1.53 1.59 1.59 0 01-1.06.62c-.16 0-.59-.61-.55-.91.15-1.39.45-2.76.64-4.14.21-1.61-.37-2.18-1.83-1.53-2.77 1.25-5.51 1.88-8.41.51h-.34c-2.5-.28-3.42.42-3.7 3-.11 1 0 2 0 3.06a3.06 3.06 0 01-.45 1.49c-.2.31-.71.42-1.09.61-.16-.36-.5-.74-.45-1.07.36-2.44.8-4.88 1.2-7.32a7 7 0 000-.92 3.7 3.7 0 00-1.16 0c-2.17.79-4.27 1.79-6.49 2.4a3.62 3.62 0 01-4.4-1.57c-.86-1.48-1.91-.92-3-.43a28.17 28.17 0 01-11.8 2.73 8.81 8.81 0 01-1.36 0c-1.47-.24-3.14-2-4.21-.83-.9 1-.62 3.08-.81 4.69-.08.67.07 1.38 0 2a8.22 8.22 0 01-.61 1.6c-.47-.52-1.34-1.06-1.33-1.57a11.32 11.32 0 01.69-4.79c1.15-2.3.58-4.11-.57-6.08-.69-1.17-1-2.58-1.76-3.67-.5-.71-.23-1 .22-1.21a1 1 0 01.92.25c.54.66.94 1.43 1.48 2.09a1.84 1.84 0 001.08.62c.15 0 .46-.55.58-.9a24.62 24.62 0 011.39-4.02c2.1-3.66 6.42-2.72 8.16-.32 2 2.73 2.16 5.66 1.94 8.72-.13 1.84.66 1.18 1.54.82.68-.28 1.4-.47 2.1-.69 3.62-1.15 3.56-1.13 2.67-5-.19-.84.41-1.82.47-2.75s.2-2.46 1.26-2.29a3.42 3.42 0 012.1 2.43c.2 1.43-.33 3-.57 4.46-.13.79-.72 1.93-.4 2.29.82.94 2 2.09 3.1 2.13a13 13 0 004.85-1.29c.57-.22.88-1.08 1.48-1.82m-26.39 3.24h3.72c2 0 2.6-.56 2.73-2.6.2-2.83-.36-5.38-2.73-7.34-1.85-1.52-3.86-1.22-4.72 1-.57 1.46-.94 3-1.39 4.5-.84 2.83-.84 2.83 2.39 4.43m35.41-1.36h2.37c2 0 2.57-.61 2.74-2.6.23-2.82-1.26-5.08-3.92-6.49a1.92 1.92 0 00-2.6.26c-2.1 1.85-2.33 4.47-3 6.9-.18.64-.14 1.28 1 1.3.93 0 1.85.41 3.45.64m17.71-8.18c-3.19 0-4.81 1.17-5.09 3.73-.09.79-.42 1.78 1.16 1.77s3 .55 4.45.6c2.83.09 3.36-.84 2-3.49a6.84 6.84 0 00-2.56-2.61m9.19 3.75c.4-1.3.8-2.61 1.18-3.92a.71.71 0 00-.12-.45c-.31 0-.71 0-.91.16-1.53 1.39-1.65 3.23-1.5 5.12 0 .25.26.49.39.73a3.39 3.39 0 001-1.64m-45.63-.68a9.84 9.84 0 000-1.33c-.09-.56-.27-1.1-.41-1.66-.31.64-1 1.35-.85 1.91s.18 1.56 1.22 1zM331.36 26.55c2-3.28 2.32-3.36 4.66-1.13.16.16.31.34.48.48.49.4 1.14 1.67 1.18-.27a1.56 1.56 0 012-1.61c1 .15 1.43.87 1.39 1.92-.05 1.36 0 2.72 0 4.08.05 3.5 4.95 6.8 8.36 5.07.73-.37 1.32-.51 1.19-1.53-.44-3.51 1.08-6.47 2.67-9.44.76-1.4 1.55-2.42 3.27-2.16 1.24.19 2.85 2.19 2.88 3.6a6.79 6.79 0 01-.18 3c-.84 1.74-.86 3.16.67 4.44 1 .87 3.22.76 4.83-.35.73-.51 1.77-1.21 1.85-1.91a5.24 5.24 0 012.8-4.31c1.43-.91 2-3.18 3-4.77a2.24 2.24 0 014 .17c1.27 2.29 2.32 4.7 3.43 7.08a19.48 19.48 0 00.74 2.07c.14.25.81.19 1.23.27.15-1.4 1.68-2.08 1.55-3.83a45.62 45.62 0 01.6-7.88 5.51 5.51 0 01.65-1.43c.13-.28.22-.58.33-.88.32.31.92.62.92.93a36.67 36.67 0 01-.31 4.57c-.24 1.92-.63 3.82-.92 5.73a2.7 2.7 0 00.23.92c.33-.26.8-.45.94-.79.36-.87.49-1.84.89-2.69s1-.86 1.32.07a27.31 27.31 0 011.35 3.87c.82 3.88 4.87 5.34 9 3.66a1.76 1.76 0 00.47-1.63c-1.51-2.31-.24-4.36.41-6.48.42-1.38 1.22-2.45 2.83-2 1.25.35 1.47 1.54 1.61 2.72a10.9 10.9 0 01-1.42 6.22c-.63 1.24-.4 1.74.85 1.91 1.94.26 3.89.45 5.84.7a3.47 3.47 0 01.82.36c-.24.24-.47.67-.72.69a19.89 19.89 0 01-4.56 0c-2.36-.42-4.51-1.72-7.12-.51-1.22.56-2.92.23-4.38.06-2.92-.33-4.31-2-5-5.63a7.13 7.13 0 00-.4-1.15c-.32.32-.76.58-.93 1-.51 1.14-.88 2.36-1.4 3.5a9.18 9.18 0 01-1.25 1.86.87.87 0 01-.74-.09 3.74 3.74 0 010-1c0-.77-.1-1.55-.15-2.32-.7.39-1.4.77-2.08 1.18a4.55 4.55 0 00-.77.62c-2.45 2.44-4.11 2.78-6.93 1.35-.75-.38-1.46-.86-2.19-1.29a40.09 40.09 0 00-5.64.38c-2.34.94-4.74 1.63-7.1.23-.74-.44-.56-.55-1.12.31-1.38 2.11-3.46 3.26-6.18 2-.35-.15-.92.17-1.38.28a8.4 8.4 0 01-9.26-3.55 7.63 7.63 0 01-.75-3.07c-.13-1.12 0-2.27-.06-3.4 0-.25-.31-.48-.49-.71-.28.24-.78.45-.81.71-.28 2.63-.45 5.26-.73 7.89a21.23 21.23 0 01-.69 3.12c-.06.22-.43.36-.66.54-.23-.3-.68-.62-.64-.88.21-1.62-.15-3.2.43-4.91s-.08-3.65-.53-5.41c-.33-1.32-1.89-1.48-3-.4-1.87 1.89-2.27 4.49-3.1 6.88-.38 1.09-.64 2.23-1 3.32-.1.28-.46.47-.7.7-.11-.29-.23-.58-.33-.88a1.93 1.93 0 010-.34l-.15-2.66a10.08 10.08 0 00-2.26 1.33c-2.17 2.13-4.73 2.2-7.53 1.93-2.59-.26-5.35.48-7.58-1.43a26.75 26.75 0 01-2.82-3c-.26-.31-1-.52-.24-1.25s.88-.24 1.24.17c1.68 2 3.91 2.85 6.31 3.67 3.17 1.08 5.9-.33 8.74-1.07.64-.17 1.66-1 .48-2.07-.59-.54-1-1.35-1.57-1.86-2.48-2.07-5.52-3-8.51-4.09-2.69-.95-3.11-1.86-1.45-4s4.44-3.39 6.86-4.79a1.24 1.24 0 011.12.33 23.84 23.84 0 012.56 3.41 1.71 1.71 0 01-.5 1.6c-.63.24-1.39.32-1.54-1-.31-2.59-1.55-3.06-3.7-1.63a22.93 22.93 0 00-2.87 2.14c-1.26 1.16-.82 3.12.85 3.15 2.24 0 3.74 1.48 5.63 2.11a7.59 7.59 0 014.8 4.51c.62 1.55 1.12 1.14 1.71.31a7.27 7.27 0 001.07-2.6c.33-1.59.41-3.23.75-4.81.11-.51.72-.9 1.1-1.35.38.57 1.48.88.61 1.89-.73.86-.66 1.42.81 1.23M376.47 25c-1.79-3.11-2.28-3.15-4.08-.43-.77 1.16-1.59 2.27-2.33 3.45a2.38 2.38 0 00.65 3.43 10.68 10.68 0 007.22 1.33c.73-.12 1.07-.49.75-1.75a25.16 25.16 0 00-2.21-6m-23.15 2c-.16.61-.35 1.21-.46 1.83-.31 1.67-.93 3.37-.78 5 .16 1.89 1.12 2 2.49.78a5.89 5.89 0 002.2-4.84 17.51 17.51 0 01.6-2.76c.12-1.08.38-2.46-.92-2.89-.52-.16-1.44.66-2.06 1.18-.36.31-.49.9-1.07 1.7m49 2a23 23 0 000-2.35 6.66 6.66 0 00-.46-1.39c-.52.35-1.32.6-1.5 1.08a9.53 9.53 0 00-.65 3.38 7.26 7.26 0 00.88 2.3c.36-.72.71-1.43 1.07-2.14a4.94 4.94 0 01.69-.81zM494.29 285.51c-2.55.26-4.87.11-5.93-2.84-.29-.78-.73-.28-1.2.06a20.77 20.77 0 01-4 2.59 3.58 3.58 0 01-2.69-.48c-.74-.42-1.84-1.1-.64-2.4.16-.18-1-1.67-1.65-2.5-1.1-1.45-1.16-1.42-1.89.09-1 2.09-2.05 4.15-3.08 6.22s-3 2.72-4.93 3.28c-2.23.67-3.85-.62-3.86-3.11a31.35 31.35 0 01.79-6.81c.4-1.83 1.32-3.54 1.83-5.35.21-.76.39-1.88-1.19-1.7-3.1.34-6.33.27-8.31 3.37a.61.61 0 01-1.16-.1c-.56-1.28 0-2 1.15-2.59 2.32-1.13 4.69-2.17 7.32-2 2.13.14 3.77-.09 3.91-2.71a2 2 0 01.48-1.14 9.31 9.31 0 011.67-1.59c.11-.08.92.43.89.54-.23.94.79 2.23-.73 2.84a1.66 1.66 0 00-.78.56 5.33 5.33 0 00-.47 1.15 3.5 3.5 0 00.89.31c1.47 0 2.95.06 4.42 0s2.32.62 2.16 2.19a5.6 5.6 0 002.28 5.18 4.47 4.47 0 011.84 4.36c-.17 1.35.3 1.67 1.5.76 1-.76 2.24-1.22 3.25-2 1.38-1 2.5-2.26 2.05-4.25a2.63 2.63 0 010-1.67c.28-.51.94-.8 1.44-1.18.18.44.54.9.52 1.34a11.46 11.46 0 01-.45 2.86 4.92 4.92 0 001.28 5.11c.8.67 3.56.08 4.83-1a9.61 9.61 0 003.21-6.83 11.47 11.47 0 01.07-2.36c.18-.5.94-.79 1.44-1.17.18.45.54.92.51 1.36-.18 2.85-.44 5.7-.69 8.55a4.33 4.33 0 01-.32 1c.3-.06.75 0 .9-.21.68-.86.91 0 1.19.33.09.1-.17.84-.37.89-2.11.59-1.91 2.19-2.11 3.89-.42 3.56-.2 7.19-1.25 10.69a6.61 6.61 0 00.14 2.64 2.41 2.41 0 00.51 1.14c.78 1-1.52 2.07.06 2.76.7.3 1.75-.17 2.63-.31 1.71-.28 3.58.66 5.19-.65.13-.12.7.06.85.26s.09.77-.07.86a5.31 5.31 0 01-2 .86c-1.35.13-2.73 0-4.08.06a5.2 5.2 0 00-2.72.73c-.49.42-.38 1.56-.54 2.37-.23 1.15-.52 2.3-.65 3.47a5.16 5.16 0 00.29 1.56c.47-.23.93-.47 1.41-.68.31-.14.64-.24 1-.36a4.89 4.89 0 010 1 1.62 1.62 0 01-2.22 1.35c-.7-.2-1.73-.9-1.77-1.43a13.63 13.63 0 01.34-5.27c.59-1.67-.69-1.8-1.06-1.34-1.41 1.71-2.87-.52-4.46.37-1.27.71-3.39.48-4.88 0-1-.37-1.45.36-1.43.5.22 2.08-1.35 4-.27 6.25a2.5 2.5 0 002.35 1.74c2.3.29 4.26-.54 6.25-1.4l1-.41a4.08 4.08 0 01-.37 1.15c-1 1.45-2.71 1.65-4.28 2a12.59 12.59 0 01-2.38 0c-2.83 0-4.46-1.52-4.44-4.4 0-1.37-.54-2.82.54-4.21.35-.46-.2-1.9-.69-2.66-1.06-1.65-2.33-3.16-1.94-5.33.27-1.51-1.34-1.09-1.89-1.77-.17-.21-.53-.26-.81-.38.24-.24.47-.67.73-.69 2.22-.18 2.63-2 3.59-3.52 2.39-3.85 5.48-7 10-8.38a9.89 9.89 0 002.13-1.18c1.54-.63 2.93-1.06 4.27-1.6.18-.07.19-.73.14-1.1a1.13 1.13 0 00-.85-.13c-1.27.85-2.49 1.77-3.73 2.66m.34 19.75a6.12 6.12 0 002.4-5.8 4.73 4.73 0 010-2c1.18-3.24.54-6.7 1.32-10 .35-1.5-.85-1.53-1.62-1.23-6.07 2.41-11.67 5.35-14.22 12-1.45 3.78 0 6.94 3.55 8.44 3.12 1.31 5.56-.13 8.55-1.43m-26.9-29.62a5.54 5.54 0 010 1.35c-.6 2.23-1.2 4.45-1.89 6.66a3.76 3.76 0 001.17 4.09c1.08.95 1.81-.89 2.93-.91.34 0 .67-.51 1-.78 3.14-2.51 4-6.25 4.89-9.8.68-2.66-.47-3.66-3.26-3.68h-1c-2.71-.02-2.71-.02-3.83 3.03zM148.33 121.38c-2.74-.26-5.23.61-7.58-.63-.31-.17-1 .2-1.45.49-3.71 2.51-7.37 1.81-10.83-.41-1-.64-1.41-.83-2.5-.21a10.9 10.9 0 01-3.76.75c-1.95.28-4-.59-5.85.69-1.11-1.16-3-.18-4.14-1.6a8 8 0 01-2-4.63c-.09-1.09-.21-2.18-.32-3.28a11.05 11.05 0 00-1.62 3c-.42 2.32-1.83 4.41-1.52 6.91.06.49-.61 1.08-1 1.62a10.37 10.37 0 01-1-1.59 1.59 1.59 0 010-1.32c.87-1.1 1.15-2.24.19-3.29-1.6-1.74-3.31-3.37-5-5-.12-.12-.7.08-.93.29-1.31 1.15-1.57 2.78-1.73 4.37s0 3.18-.07 4.76c0 .58-.56 1.12-.86 1.67-.38-.44-1.12-.91-1.08-1.31.16-1.93-.93-.85-1.41-.58a17.54 17.54 0 01-13.51 1.29 9.13 9.13 0 01-3-1.84c-.3-.23-.26-.9-.37-1.37.53 0 1.33-.28 1.56 0 2.91 3.23 6.71 1.59 10.13 1.87 1.49.13 2-1.08 1-2.23-1.48-1.63-3.28-3-4.85-4.54-1-1-1.76-2.17-2.74-3.16-1.39-1.41-.45-2.93.25-3.84s2.66-2 3.49-1.68c1.82.76 4.11.61 5.48 2.43.46.61 1.11 1.07 1.61 1.67.17.2.11.59.15.9a10.14 10.14 0 01-1-.39 31.28 31.28 0 00-4.48-2.33 6 6 0 00-3.39.1c-.38.1-.64 1.34-.59 2a3.16 3.16 0 001 1.6c1.65 1.71 3.37 3.36 5 5.08a20.4 20.4 0 011.38 1.8l1.28 1.69c.71-.71 1.73-1.3 2.06-2.15a38.43 38.43 0 001.41-5.54 18.24 18.24 0 01.15-2 1.38 1.38 0 011.15-.67c3.42.35 6.66 1.06 8.19 4.73a5.15 5.15 0 00.84 1.11 13 13 0 01.59-1.32 46.68 46.68 0 003.24-5.8c.41-1 .91-1.26 1.6-1a1.68 1.68 0 01.55 1.55c-1.43 2.26-.09 4.44.08 6.62.21 2.63 1.08 3.31 3.77 3.33h2c2.21 0 2.08 0 2.38-2.29a15 15 0 011.36-4.53c1.33-2.69 2.56-3.06 5.59-2.2a13.79 13.79 0 011.62.2c.38.16.89.64.87 1a24 24 0 01-.45 4.57c-.52 2.29.26 3.28 2.53 4a8.31 8.31 0 006.69-.7c.84-.4.82-.53.59-1.35a17.7 17.7 0 01.36-10 4.74 4.74 0 011-1.63 3.61 3.61 0 011.08-.65 8.3 8.3 0 01.54 1c1.37 3.55.8 7.08-.37 10.51-.37 1.08-.26 1 .7 1.5 2.69 1.27 5.08.55 7.39-.72a2 2 0 00.89-2.78c-1.9-5-.26-9.49 2.67-13.64a4.2 4.2 0 01.72-.59 2.89 2.89 0 01.25.91c-.25 4.6.81 9.31-1.32 13.75-.72 1.51 1 1.91 1.71 2.19s1.73.22 2.29 1.06c-.93.14-2.16.72-2.72.33-2.59-1.79-3.93.59-6.07 1.44m-23.5-8.85c-2.52 1.27-2.39 3.89-3 6.1-.07.27.91 1 1.52 1.23.88.28 3.72-1.48 3.81-2.38a15.22 15.22 0 00-.11-4c-.07-.4-1-.64-2.24-1m28.27-5.79a1.09 1.09 0 00-.25-.23h-.22c-1.51 2.54-.7 5.34-.89 8 0 .19.15.39.23.58a3.69 3.69 0 00.44-.62c1-2.29.65-4.72.69-7.79m-12.94 9.54l.23.91c.15-.09.37-.14.44-.27 1.06-2 .6-4.27.68-6.42a1.73 1.73 0 00-.22-.58l-.45.59c-1.03 1.69-.37 3.5-.53 5.89zM110.19 362.47a5.64 5.64 0 008.14-5.26c0-1.72-.43-3.44-.64-5.16a4.05 4.05 0 01.14-1c.32.19.74.3.94.58 1.61 2.17 1.29 8.21-.29 10.31-2.36 3.14-7.72 3.44-11.12.71a12.54 12.54 0 01-1-1c-1.58-1.5-1.54-1.48-2.36.78-.21.58-1 1-1.18 1.55a2.1 2.1 0 01-2.56 1.61c-.32-.08-.5-1.9-.26-2.79a24.79 24.79 0 012-5.27 1.85 1.85 0 00-.53-2.57c-2.74-1.69-6-2.1-9.05-2.76-.19 0-.46.32-.69.5.24.28.48.56.73.83 3.33 3.73 2.63 9.09-1.82 11-3 1.3-5.06.3-5-3 .06-2.21.85-4.39 1.27-6.59a4.49 4.49 0 00-.17-1.29c-.32.22-.66.41-1 .65-.87.74-2.14.95-1.15 2.87 1.16 2.24-.4 5.41-2.72 6.39a22.62 22.62 0 01-5.17 1.47c-2.09.33-3.14-.48-4.12-2.61-.45-1-1.32-1.05-2-.07-.5.68-.9 1.44-1.38 2.15a7.29 7.29 0 01-6 3.27c-2.72.12-5.46-.13-8.17.06-5 .34-8.32-2.36-10.94-6.07-.47-.68-2.43-1.56-1.17-2.58 1.1-.9 1.77.9 2.5 1.59 2.14 2 4.33 3.92 7.32 4.54a12.3 12.3 0 002.54.39 1.33 1.33 0 00.93-.88 22.7 22.7 0 013.48-10.48 9.72 9.72 0 013.5-3.34c4-2 6.62-.58 7.46 4.06.24 1.32 0 2.72.09 4.07 0 .46.61.87.94 1.3a9.76 9.76 0 00.37-1.16c.46-2.42.74-4.89 1.41-7.25.71-2.52 2.37-3.16 4.78-2a17.4 17.4 0 013.76 2.4c1.86 1.56 2.54 1.67 4.47.08.61-.5 1.09-1.17 1.71-1.65a2.14 2.14 0 011.44-.56c3.14.61 6.26 1.3 9.37 2a4.79 4.79 0 012.01.71c1.33 1.14 1.7.77 1.7-.8 0-.23.56-.45.85-.67a2.31 2.31 0 01.45.76c.15.86.17 1.74.32 2.6a9.91 9.91 0 005.83 7.54m-51.08 3.06c2.73-.79 5.5-1.49 8.17-2.44a3.39 3.39 0 002-2 12.52 12.52 0 00-1-8.16 2.4 2.4 0 00-3.12-1.31 8 8 0 00-3.12 2.28c-2.55 3.24-3 7.36-4.21 11.15 0 .17.63.57 1.31.52m18.73-2.38c2.23.31 3.76-.89 5.13-2.41 1.14-1.26.86-2.53.15-3.93-.62-1.22-.92-2.72-2.68-1.17-.11.1-.44 0-.63-.07-.94-.36-2.12-1.27-2.75-1s-1.07 1.72-1.61 2.62c-.23.37-.7.63-.83 1-.34 1-1.66 1.46-.82 3.1s1.84 1.94 4 1.82m9.88-.34c.64.44.82 1.28 2.16.71 2.29-1 3-2.85 3.2-4.8a5.73 5.73 0 00-2.58-5.32 1.24 1.24 0 00-1.13.32c-1.12 2.81-2.63 5.54-1.65 9.09m-6.47-9.19c-1-.79-2-1.62-3-2.32-.33-.22-.9-.07-1.36-.09.06.53.06 1.5.19 1.51 1.57.22 2.63 2.43 4.22.9M64.9 365.87l2.3-.94c-.71 0-1.42.05-2.13.1a3.63 3.63 0 00-.94.17c-.77.31-1.52.66-2.28 1a10.38 10.38 0 003.05-.33m37.46-3.4c.34-.88.7-1.75 1-2.63.06-.17-.09-.4-.15-.61-.17.16-.43.28-.5.47a6.21 6.21 0 00-.35 2.77M75.46 354c-1.39.81-1.45.86-1.35 1.7 0 .2.29.38.44.57a3.09 3.09 0 01.24-.88 3.5 3.5 0 00.67-1.39zM67.28 209.24a18.93 18.93 0 011.37-2.84c1.13-1.9 2.37-1.91 3.38.07 1.22 2.38.81 4.94.43 7.43a18.67 18.67 0 01-1.11 3.62c-.31.84-.78 1.63-1.17 2.44 1 .06 2 .06 3 .18 3.64.45 6.73-1 9.75-2.75.3-.17.48-.56.71-.84-.43-.08-.86-.17-1.29-.22-.07 0-.16.22-.24.22-.62 0-1.23-.09-1.85-.13L81.6 215c.08-.08.17-.24.24-.22 5.26.83 4.59-3.72 5.86-6.49.26-.57.19-1.29.47-1.84.15-.31.7-.43 1.07-.63a3.54 3.54 0 01.5 1 10.28 10.28 0 01-1.74 5.8c-.58 1.07-.43 1.4.76 1.39h7.49c.55 0 1.57.35 1.58.56 0 1.41-1.12.71-1.74.75-2.52.16-5 0-7.57.59-1.74.41-2 1.31-2.19 2.58a18 18 0 00-.63 3.8c0 1.57-.92 1.21-1.75 1.22a4 4 0 01-.93-.23 5.88 5.88 0 00.51-.72c.49-1.05 1-2.08 1.4-3.16.12-.35-.14-.83-.23-1.25-.38.11-.87.1-1.14.34A14.63 14.63 0 0173.53 222a23.07 23.07 0 00-10.09 1.63c-2.19.92-4 .81-5.53-1-.71-.81-.86.08-1.25.23-1.17.44-2.32 1-3.53 1.34-.94.27-1.93 1.6-2.91.27a19.65 19.65 0 01-2-3.6 2 2 0 010-1.66c.57-.78.91-1.47.4-2.37a16.82 16.82 0 00-1.62 1.48 35.48 35.48 0 00-2.17 2.84c-1.92 2.71-4.17 3.27-7.72 2.61-1.52-.28-3.16-1.21-4.85-.32a1.15 1.15 0 01-1-.39c-1.2-2.44-2.33-4.93-3.48-7.4a7.58 7.58 0 01-.61-1.45c-.05-.26.19-.58.3-.88.35.17.88.26 1 .53a16.85 16.85 0 003 4.91c1 1 1.36.26 1.7-.29a27.08 27.08 0 001.45-3.14 21.39 21.39 0 016.07-7.68c2.2-1.85 3.81-1.27 4.74 1.36.7 2 .53 4.32.78 6.5a9.13 9.13 0 00.34 1.21 12.46 12.46 0 001-.9 32.72 32.72 0 005-6.41c.9-1.68 3.39-.93 4.65.87.72 1 .13 3.12 2.3 3.19a7.5 7.5 0 01.26 2.17c0 .39-.4.78-.39 1.18 0 1.6-.48 3.75.36 4.67 1.22 1.36 3.33 1 5.16.05 2.35-1.23 2-1.1 1.85-3.77s-.91-5.56.53-8.54m-26.2 12.94l.86-.19-.13-.45a5.35 5.35 0 01-1.42.64l-.05.63a1.38 1.38 0 01.74-.63m-5.79-5.11c-.23.47-.46 1-.68 1.42-1.1 2.27-.44 3.39 2.06 2.94a28.43 28.43 0 006.56-2.19 2.7 2.7 0 001.62-3c-.34-1.93-.4-3.91-.73-5.84-.36-2.08-1.57-2.41-3.2-1a25.36 25.36 0 00-5.63 7.68m21.79 1.36a45.07 45.07 0 00-1.42-5.83c-.66-1.73-1.52-1.84-2.53-.36a25.37 25.37 0 00-3.12 6.82c-.51 1.58.85 2.36.33 3.53 1.27.24 2.55.77 3.68-.42a20.07 20.07 0 003-3.75m12.6-10.56a13.06 13.06 0 00-.7 1.4c-1.06 2.75-1.65 5.54-.39 8.41l.46 1c.32-.31.84-.59.92-1 .71-3.25 1.89-6.44 1.4-9.85-.09-.99-.67-.77-1.63.04zM355.36 177.23c-.16-.73-.47-1.13-.44-1.5a7.88 7.88 0 01.52-1.65c.41.23 1 .37 1.16.7a11.52 11.52 0 01.78 3.08 5.3 5.3 0 004.83 4.81c.64 0 1.21.19 1.37-.91.56-3.82 1.32-7.61 2-11.41v-.34c.33-.55.67-1.09 1-1.63.21.71.69 1.46.57 2.1-.67 3.56-1.5 7.09-2.24 10.63a1 1 0 00.33.84.92.92 0 00.88-.21c1.21-1.41 2.38-2.86 3.52-4.32.26-.33.34-.79.6-1.11 2.05-2.47 2.47-2.44 4.49.2.79 1.05 2.69 1.73 1.29 3.52-.82 1 1.6 2.28-.5 3.39-1.51.8.16 2.12.47 3.14.38 1.22 1.78 1.14 2.62.81a8.48 8.48 0 002.59-2.11c.22-.24 0-.87 0-1.33s0-.21.8-.16a1.53 1.53 0 001.17-.73c1-1.75 1.75-3.58 2.69-5.35 2.15-4.06 3.56-4.07 6.26-.24a7.57 7.57 0 003.87 2.82c1.73.61 2-.1 2.21-1.25.53-3 .92-6 1.41-9a3.27 3.27 0 01.54-1c.27.36.79.75.76 1.09-.26 2.59-.68 5.16-.95 7.75-.12 1.13-.33 3.1.08 3.27 1.47.58 2.22-.74 3-1.9a38.78 38.78 0 013.39-4.38c.42-.47 1.59-1 1.79-.83a4.4 4.4 0 011.54 2.36 5.16 5.16 0 01-4.32 5.57c-1 .2-2.2.45-2.37 1.59-.22 1.38 0 2.79 1.74 3.28a20.93 20.93 0 004.24 1.21c3.83.19 7.58-.62 11.37-1.18a35.9 35.9 0 009.44-2.77c.24-.11.6.06.91.09a3.59 3.59 0 01-.4.72c-1.93 2.1-4.71 2.58-7.2 3.08a60.61 60.61 0 01-14.74 1.52c-4.42-.21-6-1.45-6.8-5.95-.06-.33-.43-.87-.63-.86a3.38 3.38 0 00-2 .52 15.76 15.76 0 00-1.4 2.45 7.09 7.09 0 01-1.4 1.39c-.07.06-.64-.32-.62-.37a8.05 8.05 0 01.74-1.73c1.32-2 1.13-2.85-1-3.56-1.09-.35-1.83-.3-1.84 1.33 0 3.38-1.45 4.64-4.82 4.69-.91 0-2.07.36-2.68-.06-2.24-1.54-3.79-.89-5.37 1-.69.83-4.17.67-5-.15-1.1-1.11-1.74-1.94-3.44-.39-1.54 1.39-3.49.13-3.87-2.06-.07-.41-.4-.78-.43-1.18a12 12 0 01.14-1.88 7.26 7.26 0 00-2.29.94 10.65 10.65 0 00-1.5 2.41 7.55 7.55 0 01-.68 1.08c-.67.8-1.42 2.24-2 2.2a2.41 2.41 0 01-2.07-2.57 10.61 10.61 0 00-.66-2.78 3.51 3.51 0 00-.77-1.7c-1.53-1.24-2.14-2.93-2.62-5.06m29.23 5.8c-.51 1.27-1.5 2.78 1.24 2.4.26 0 .55.27.85.36 3.4 1 5.61-.53 5.34-3.94a10.39 10.39 0 00-1.35-3.8 2.89 2.89 0 00-1.8-1.39c-.44-.07-1.2.72-1.53 1.3-.88 1.53-1.62 3.14-2.75 5.07m-11.58-5.45c-.39-.07-.94-.34-1.13-.17-1.7 1.4-3 6.54-2.11 8.45.17.36.49 1.22 1.43.4 2.67-2.34 3-5.15 1.81-8.68m35.41 0c-.08-.53-.16-1.07-.23-1.6a4.46 4.46 0 00-1.38.53 12 12 0 00-1.78 2 20.23 20.23 0 00-1.15 2 9 9 0 002.7-.63c.66-.39 1-1.3 1.84-2.32m-46 9.19c.08-.08.24-.2.23-.23-.37-.74 1.48-1.42.14-2.06a8 8 0 00-2.48-.36c.14.65.28 1.3.41 1.95.08.42.14.84.21 1.26a4.24 4.24 0 001.52-.52zM99.46 497.14a22.06 22.06 0 001.9-2.85.94.94 0 01.82-.34.91.91 0 01.5.67c.26 2.4.46 4.8.7 7.2.3 3 1.92 4.62 4.94 5 1.5.21 3 .44 4.48.69a2.87 2.87 0 01.73.39 2.66 2.66 0 00-.89.29c-2.1 1.77-4.2.21-6.25-.07a4 4 0 01-3.74-4.11 9.53 9.53 0 00-1-2.64c-.11 1-.16 2-.35 2.92a18.87 18.87 0 01-.88 3c-.12.31-.69.74-.91.67-.37-.12-.89-.62-.87-.93.09-1.75.31-3.48.5-5.22.16-1.47.59-2.8-1.32-3.79-1.07-.56-2-1-3-.65s-.89 1.63-1 2.63c-.18 2.29-.42 4.58-.69 6.86a.86.86 0 01-.6.56.94.94 0 01-.72-.46 8.49 8.49 0 01-.33-6.36 5.48 5.48 0 00.13-1.15 4.69 4.69 0 00-1.15.17 11.72 11.72 0 01-2 1c-1 .2-.42.38-.31.94a14.43 14.43 0 01.17 4.35c-.54 4.26-5 6.86-8.47 4.95-.85-.47-1.61-1.62-2.37-1.58-.92.05-1.74 1.17-2.71 1.57-2.53 1-5.23.74-7.87.68-1.34 0-4.1-3.13-4.4-4.9-.33-1.93-.45-3.9-.73-5.84-.05-.3-.47-.54-.72-.81-.21.2-.55.37-.59.61-.48 2.42-1.83 4.64-1.42 7.26a3.41 3.41 0 01-1.3 3.68 1.56 1.56 0 01-1 0c-.15-1.28-.68-2.76-.22-3.8a4.54 4.54 0 00-.2-4.3c-1-2-1.87-4-2.85-6-.65-1.3-1.59-.76-1.86.11-.63 2-.93 4.15-1.44 6.22q-1 3.84-2.06 7.66c-.09.3-.51.5-.78.76-.19-.34-.55-.69-.52-1a12.55 12.55 0 01.52-3.51 70.49 70.49 0 002.16-9.32c.57-2.66 1.4-3.49 3.59-3.15a2.78 2.78 0 011.92 1.22c1 1.82 1.87 3.75 2.77 5.65.18.4.32.83.47 1.24.3-.44.84-.89.85-1.33a5.63 5.63 0 011.52-3.83c.38-.43.38-1.19.57-1.79a17.19 17.19 0 01.69-2.1 4.85 4.85 0 01.86-1 3.24 3.24 0 01.47 1.07c0 1.81-.07 3.63 0 5.44a49 49 0 00.7 6.52c.58 3.06 4.38 4.83 7.92 3.86a17 17 0 002.15-.57 22.64 22.64 0 003.41-1.62c1.34-.81.63-2.23.78-3.4.33-2.53 1.23-4.91.18-7.64-.61-1.58 2.85-3.6 4.51-2.64 1.5.87 3.28 1.95 3.93 3.39s1.55 1 2.35 1a3.47 3.47 0 001.95-1c2.57-2.54 5.29-2.59 8.36-.5m-18.89 9a2.62 2.62 0 00.07 3.51c1.18 1.59 2.42 0 3.14-.27 2-.72 2.88-2.76 3.24-4.84.47-2.8-.32-3.63-3.07-3.11a2.36 2.36 0 00-1.54 1.59 4.36 4.36 0 01-1.84 3.12m3.08-7.17c-.19 1.43 1 1.13 1.53.93.31-.1.61-1.21.41-1.62a5.84 5.84 0 00-1.63-1.7 3.2 3.2 0 00-1-.38 3.07 3.07 0 000 1 7.82 7.82 0 01.66 1.77m-1.7 3.06L81 501c-.47 1.14-.95 2.28-1.39 3.43 0 .05.35.38.46.34 1.09-.39 1.36-1.35 1.9-2.7m.34-3.06a4.32 4.32 0 000-1.3 4.72 4.72 0 00-.73-1.09c-.2.31-.55.6-.58.91a21.14 21.14 0 00.07 2.25 6.09 6.09 0 001.27-.77m18.73 1.7c.09-.36.19-.72.26-1.09l-.42-.11a1.64 1.64 0 00.09 1.21zM77.5 330.46c-1.67-2.33-2.73-4.36-1.5-7.1.59-1.33.48-3 .86-4.41.14-.54.74-1.3 1.19-1.34a2 2 0 011.46 1.06 15.51 15.51 0 011.42 7.93c-.15 2.75-.51 2.92 2.9 2 .52-.15 1.11 0 1.63-.18 1.12-.33 2-.56 1.14-2.24-1.1-2.29.21-4.71.65-7 .13-.66 1.45-1.34 2.32-1.5.42-.07 1.23 1 1.55 1.64a6.68 6.68 0 01-1.34 8.05c-1.17 1.21-.15 1.61.58 1.73a11.42 11.42 0 007.2-1.41c.67-.34.87-1.62 1.24-2.48.2-.48.33-1 .49-1.5.4-1.2.44-2.89 1.27-3.48a18.61 18.61 0 015.69-2.6c2.16-.62 5.1 1.35 6.67 4a8.05 8.05 0 01.62 8 5.24 5.24 0 01-4.18 2.89 8.87 8.87 0 01-7.45-2.41 3 3 0 01-.42-.72c.31 0 .76-.24.9-.1 1.12 1 2.73.82 3.84 1.4 2.12 1.12 3.54.35 5-.84s1.49-2.86 1.13-4.8a7.46 7.46 0 00-2.31-4.51c-2.38-2.16-6.85-.92-8 2.13a42.77 42.77 0 00-2.74 17.59 5.55 5.55 0 01-.71 1.74c-.43-.55-1.22-1.09-1.24-1.66-.09-2.8 0-5.6.1-8.4 0-.62.38-1.22.45-1.84.12-.92 0-.82-1-.54-2.94.85-5.94 1.89-9.06.25-.72-.38-1.94 0-2.89.27-2.44.63-5 1-7.18 2.38-2.43 1.47-4.77.2-7.12-.33-4.06-.91-6.93-4-10.49-5.85-.17-.09-.1-1.18.19-1.53 1.86-2.2 3.85-4.3 5.73-6.49.91-1.06 1.68-2.24 2.5-3.38.25-.34.38-.77.65-1.09.65-.8 1.39-1.48 2.55-.95a10.36 10.36 0 01-1 2.11c-2.44 3-4.89 6-7.47 8.81-.9 1-1 1.52 0 2.41 4.09 3.52 8.5 6 14.16 4.25m2-7.83a3.39 3.39 0 00-.24-.91c-.27-.46-.61-.88-.93-1.33-.29.55-.8 1.09-.83 1.66a50.44 50.44 0 000 5.36 2.64 2.64 0 00.71 1.36 1 1 0 00.84.29.89.89 0 00.44-.72v-5.71m10.9-2c-.52-.27-1-1.72-1.61-.35a20.5 20.5 0 00-1.06 4.95c0 .32.66.75 1 1.13.32-.32.83-.59.92-1a39.75 39.75 0 00.82-4.73zM117 42.38c-3.66 2.46-7.28 1.64-10.64.44-1.67-.6-1.5-.23-1.65 1-.37 3.23-.92 6.44-1.3 9.66-.09.81-.18 1.18-1.12 1.19-1.11 0-1-.67-.94-1.32.27-2.27.54-4.53.91-6.78.3-1.78.76-3.54 1.1-5.32 0-.27-.19-.59-.29-.89a11.48 11.48 0 00-1.16.43c-3.07 1.49-6.14 3-9.68 2.92-.71 0-1.73-.19-2-.67-1.33-2-2.28-.93-3.72 0-4.43 2.75-6.17 1.63-6.27-3.64a55.08 55.08 0 00-.65-5.85 2.26 2.26 0 00-.25-.58c-.24.18-.56.31-.7.55-1.07 1.71-2.2 3.39-3.11 5.18-1.23 2.43-2.21 5-3.47 7.41a9.11 9.11 0 01-2.12 2.18c-.21.19-.6.17-.91.25-.06-.39-.29-.85-.15-1.15A17.88 17.88 0 0170 45.46c1.3-2.17 2.77-4.17 3.56-6.71.7-2.26 2.4-4.29 4-6.16s2.47-1.53 3.44.7c.85 1.94.54 3.9.64 5.86.06 1.08-.46 2.62.87 3a5 5 0 003.61-.6c1.32-.87 2.58-2 2.41-4.09-.1-1.28.58-2.66 1-4 .18-.5.71-.87 1.08-1.3.3.66.91 1.36.85 2-.18 1.69-.86 3.33-1 5-.15 2.41.76 3 3.24 2.54 1-.18 1.94-.26 2.9-.41 4-.6 6.42-2.94 8-6.59a5.46 5.46 0 018.13-2.49 7.18 7.18 0 012.72 3c.6 1.32.54 2.94.82 4.42a7.61 7.61 0 00.53 1.37c.36-.21.87-.32 1.07-.64a5.2 5.2 0 001.13-2.24 9.27 9.27 0 012.12-5.26 1.61 1.61 0 011.19-.63 1.36 1.36 0 01.79 1c.07 2.3.37 4.67-1.65 6.49-.21.18 0 1.38.33 1.53a8.54 8.54 0 003.28 1.06c2.83.15 5.67 0 8.51.07a3.43 3.43 0 011.1.38c-.33.32-.59.76-1 .92a4 4 0 01-1.35 0c-1.52 0-3.05.39-4.5.51a10.57 10.57 0 01-6.41-1.47 4 4 0 00-4.42-.41M107.81 41c1.6.23 3.25.77 4.8.56.86-.12 2.27-1.56 2.19-2.26a14.7 14.7 0 00-1.8-4.65c-.89-1.78-2.33-2.15-4.15-1.54-2.13.71-2.84 2.51-3.38 4.33-.48 1.62 1.22 2.2 2.34 3.56m14-4.43l-.41-.27c-.02.23 0 .43.37.29zM198.72 498.68c-.45-1.63-.93-2.91-1.34-4.21-.15-.47-1.19-1-.08-1.47a1.54 1.54 0 011.22.25c1.34.89 2.06.79 2.84-.87 1.4-3 3.95-3.49 6.44-1.24 1.83 1.65 4.13 3.17 3.89 6.2 0 .21.35.44.54.65.27-.25.72-.48.77-.77.28-1.83.41-3.68.74-5.49a3.48 3.48 0 011.07-1.91 12.88 12.88 0 012.48-1.36c.17.81.37 1.61.5 2.42a8 8 0 01-2 6.64c-.79.93-.46 1.33.22 1.7a4.31 4.31 0 002.37.76c2.84-.4 5.78-.44 8.36-2 2.36-1.41 3.06-3.36 2.35-6.13a11.06 11.06 0 010-2.7 9.74 9.74 0 011.64 2.38c1.21 3.82-1.82 8.21-6.31 9.14a54.42 54.42 0 01-5.84.7A5 5 0 01214 500a1.54 1.54 0 00-2.57-.08c-2.31 2.41-4.94 1.81-7.61.8a10.83 10.83 0 00-1.77-.66c-.63-.11-1.28-.19-1.33.92-.11 2.41-.4 4.81-.66 7.21a5.85 5.85 0 01-.45 1.25c-.3-.44-.85-.88-.85-1.33a37 37 0 01.35-6.66c.22-1.2-.65-.77-.71-.69-1.49 1.82-3.85 1.15-5.72 1.85-1.29.49-3.11-.44-4.7-.69-.54-.09-1.27-.28-1.61 0-2.38 1.79-5 2.21-7.94 2.3-2.35.08-3.52-1.24-4.57-2.83s-.24-7.07 1-8.48c.93-1.05 1.87-1.63 3.06-.35 1 1 1.72 1.48 1.76-.57 0-.26.71-.74 1.06-.71s.75.54.91.93c.6 1.49-1.25 3 0 4.57.08.11-.62.81-1 1.24a5.75 5.75 0 01-1-.88c-.42-.6-.69-1.32-1.13-1.91-1.24-1.66-2.69-1.51-3.56.31-1 2.22.37 6.13 2.67 6.91 2.49.84 4.92-.18 7.07-1.14 1.63-.73 1.93-2.77 1.76-4.64a13 13 0 010-2.72 1 1 0 01.82-.64c.42.06 1.12.43 1.12.68a18.71 18.71 0 01-.25 4c-.34 1.82.25 2.74 2 2.8 3 .11 5.93.25 8.48-2m6.47-6.82c-2.62-.6-2.1 2-2.92 3.11-.19.26.79 1.79 1.53 2.21a13.73 13.73 0 003.88 1.22c.65.13 1.73.12 2-.25a2.4 2.4 0 00.17-2.21 19.63 19.63 0 00-4.65-4.08m9.54 4.77a7.18 7.18 0 001.71-5 5.74 5.74 0 01.21-1.13c-.38.19-.93.28-1.09.58a7.34 7.34 0 00-.83 5.55m-15.59-.74l.67.67.3-1.06c-.43 0-.87 0-1 .39m2.39 2.38l.41.28c0-.26-.02-.46-.38-.33zM85.16 158.67a25.45 25.45 0 00-4.16 1.08c-3.81 1.27-5.44.7-7.67-2.65a6.69 6.69 0 00-1-1 5.83 5.83 0 00-.34 1.18 11.34 11.34 0 01-.06 2 5.54 5.54 0 01-1 1.48c-.32-.55-.85-1.07-.92-1.65a29.14 29.14 0 010-3.74c.06-2.46-1.17-3.94-3.3-5.08-1.49-.8-2.2.39-2 1 .63 2.48-1.83 4.85-.17 7.34.1.15-.86 1-1.33 1.53a10.58 10.58 0 01-.63-1.26 7.57 7.57 0 01-.18-1.29 9.51 9.51 0 00-1.19.86c-2.11 2.08-4.92 2.52-7.61 3a5.09 5.09 0 01-3.49-1.23c-1.28-1-2-.76-3.13.15a9.55 9.55 0 01-3.65 1.81c-2.9.67-5.29-1.07-5.21-4 .09-3.42-.58-6.84.51-10.3.75-2.35.53-5 .8-7.51a4.71 4.71 0 01.59-1.3c.25.38.71.76.72 1.14a56.83 56.83 0 01-1.18 10.71 27.66 27.66 0 00-.08 7.44 3 3 0 004.46 2.29 15.73 15.73 0 004-3.35 3.07 3.07 0 00.25-2.22c-.28-1.66-.07-5 .75-6.29a3.43 3.43 0 011.77-1.49c1.54-.33 1.35 1.44 1.49 2a6.35 6.35 0 01-1.2 5.56 3.72 3.72 0 00-.72 3.11 2.14 2.14 0 001.08 1.49c4.32 1.65 10.23-1.78 11.13-6.38.21-1 .51-2.07.66-3.12.25-1.73 1-2.36 2.66-2 .39.08.72.45 1.09.64.84.44 3.59-.47 4.06-1.28.16-.28.46-.66.71-.68s.61.38.7.66a33.76 33.76 0 011 3.67c.3 1.59.33 3.24.74 4.8a4 4 0 004.76 3 14.18 14.18 0 004.47-1.48 3 3 0 001.66-3.37 4.59 4.59 0 011.27-4.21c.22-.21.7-.47.82-.39a1.37 1.37 0 01.57.94c-.16 1.84.1 4-.79 5.42-1 1.58.38 2.11.48 3.13 1.29-.15 2.8.06 3.83-.54 1.9-1.1 2.52-3.5 2.43-5.3-.07-1.28-1.95-3-3.4-3.57-2.21-.95-4.82-1.93-7 .54-.1.11-.62-.08-.88-.23a.66.66 0 01-.11-.6c.71-.65 1.43-1.74 2.2-1.78 2.81-.17 5.64-.42 8.13 1.67s3.5 5.72 1.63 8.35a11.74 11.74 0 01-2.91 2.8c-2.12 1.44-3.62 1-6.17-1.5m-35.92-3.92c1.21-1 2.14-3.69 1.69-5-.06-.17-.25-.29-.38-.43-.24.24-.62.44-.69.73a16.76 16.76 0 00-.62 4.67m22.81-1l-.41-.27c.09.21.11.42.47.28zM200.94 299.64c-1.59-2.25-1.59-2.25-2.9-.33-2.45 3.59-4.76 4-8.58 1.91-1.64-.9-1.56-2.53-2.31-3.81-.2-.33-.37-.67-.56-1a5.18 5.18 0 00-.79 1.1c-1.5 3.76-3.69 5.27-7.39 5a5.27 5.27 0 01-4.86-4.4c-.34-2.05-.47-4.13-.71-6.19a5.88 5.88 0 00-.26-.91 3.28 3.28 0 00-.4 1v6.47a5.28 5.28 0 01-.33 1.9 1.47 1.47 0 01-1 .68c-.17 0-.44-.54-.67-.83-1.27-1.58-.6-3.36-.5-5.09.09-1.37.77-3.16.16-4-1.3-1.82-2.86-3.74-5.29-4.27-2-.42-2.93.08-3.87 2.2a18.48 18.48 0 00-1.36 4.53c-.37 2.38-.46 4.8-.74 7.2a3.46 3.46 0 01-.67 1.41 18.71 18.71 0 01-1.22 1.45 5.57 5.57 0 01-.78-1.71c-.35-4 1.19-7.62 2.06-11.38.12-.51.54-.95.61-1.45.39-2.58 1.15-3.43 3.86-3.6 3.3-.21 6.27.43 7.89 3.83.16.35.62.57.94.84a5.66 5.66 0 00.92-1.31c.21-.61 0-1.36.32-1.91a6.74 6.74 0 011.41-1.47 13.72 13.72 0 01.33 1.88c.12 3.32-.18 6.63.65 9.94.86 3.47 4.14 5.28 7.22 2.42 2.7-2.51 4.59-5.49 4.41-9.39a3 3 0 010-1.35 6.65 6.65 0 011.11-1.34c.3.44.8.86.86 1.33.11 1 .36 2.23-.09 3-1.58 2.69.09 4.86 1.08 6.93 1.11 2.32 4.88 2.11 6.56.07a10.7 10.7 0 002.74-8.09 3.43 3.43 0 01.54-1.9c1.52.11.66 1.33.75 2.05a29.64 29.64 0 010 3.4c0 .56-.15 1.25.11 1.65a20.11 20.11 0 002 2.34 16 16 0 01.63-2.31c1.14-2.59 2.25-5.2 3.6-7.69.47-.89 1.31-2 2.7-1.56a11.08 11.08 0 011.69.84 4.54 4.54 0 00-1.49.53 11.47 11.47 0 00-2.81 2.84 33.2 33.2 0 00-2.32 5.84c-.51 1.61 0 2.21 1.71 2.18 2.17 0 4.44.48 6.41-1 .16-.12.47 0 .71 0-.09.31-.07.73-.27.9-2.18 1.91-4.93 2.91-7.54 2-1.87-.67-2-.13-2.43 1.21s-.9 2.8-1.46 4.16a10.49 10.49 0 01-1.19 1.89c-.1.15-.31.22-.47.33-.09-.19-.28-.4-.25-.57.19-.82.49-1.62.66-2.44.39-1.93 1.83-3.65.87-5.95zM446.45 285.68c2.21.74 4.25 1.28 6.27 1.9.29.09.48.55.71.83-.24.17-.5.51-.71.48-3.85-.53-7.78-.9-10.2-4.64-.64-1-.68-1-1.35.2-1.09 1.88-2 3.84-3.81 5.24a5 5 0 01-6.5.14 3 3 0 01-1.32-2.54c.12-4.24-3.08-6.57-5.72-9.15-.28-.28-1.31-.61-1.77.65-1.2 3.24-2.68 6.38-4 9.57-.08.19.08.53 0 .66-.55.65-1.16 1.25-1.75 1.88 0-.85-.08-1.69-.06-2.53a9.69 9.69 0 01.22-1.4c-.47.18-1 .32-1.4.54s-.68.63-1.07.7c-2.58.52-4.57 2.15-6.76 3.42-1 .61-2.45 1.39-3.27.39s-1.8-3-1.42-4c1.2-3.49 2.1-7.24 5.35-9.72a3.19 3.19 0 013.55-.51c1.6.58 1.22 1.62 1.15 2.59-.14 2.07-.44 4.13-.65 6.19-.09 1 0 .88 1 .5 3.42-1.36 4.49-4.17 5.14-7.35.08-.44-.14-1.06.09-1.31a6.46 6.46 0 011.59-1 5.62 5.62 0 00-.28 1.25c0 .26.26.53.4.79.31-.21.78-.35.91-.64 1.49-3.39 2.86-3.8 5.35-1.09 2.09 2.27 4.26 4.59 4.92 7.82.05.29.53.49.81.72.18-.23.5-.47.49-.7-.1-2.84 2-4.63 3.22-6.85.45-.83 1.28-1.75 2.48-1.28s1.27 1.73 1.11 2.85a4.47 4.47 0 01-.68 1.75c-.21.34-.69.52-1 .78a4.6 4.6 0 01-.08-1.16c.05-.29.42-.54.44-.82a5.6 5.6 0 00-.2-1.27 8 8 0 00-1 .75 12.36 12.36 0 00-3.58 8.39c0 .94.32 1.15 1.21.8 5.81-2.27 6.93-8.25 6-12.14-.58-2.45-.33-5.11-.36-7.68 0-.33.55-.66.85-1 .16.3.33.59.48.9a16.07 16.07 0 01.78 8.05c-.72 2.7 1.13 6.1 4.49 8.11m-40.35-2.89a11.71 11.71 0 00-1.69 7.11 3.62 3.62 0 00.49 1.06c.28-.35.6-.67.85-1 .35-.53.53-1.4 1-1.58 2.77-1.08 3.42-3.33 3-5.83-.21-1.24 2-2.67 0-3.34-.69-.23-2.05 1.49-3.05 2.38-.27.07-.25.49-.67 1.14zM71.37 72.35a22 22 0 01-.62-2.45c0-.29.69-1 .85-.9a8.64 8.64 0 011.69 1.08c-1.46 1.12 0 2.36.41 2.71a8.2 8.2 0 003.72 1.54c1.41.23 3.06.67 2.92-2.1-.11-2.16.7-4.4 1.28-6.56a17.34 17.34 0 011.6-3.41c.06-.12.58 0 .88 0a3.43 3.43 0 00-.3.72c-.52 3.19-1 6.38-1.51 9.58-.05.35.21 1.06.4 1.08a1.93 1.93 0 001.53-.27 12.88 12.88 0 001.45-2.44c.59-1.11.93-2.94 1.77-3.2a7 7 0 014.89.21 11.28 11.28 0 005.72 1c1.15 0 2.18 0 2.63 1.4s1 1.45 1.71 0 1.59-3.18 3.61-3.4 2.56.21 3.52 2.92a6.81 6.81 0 00.73 1.16 10.82 10.82 0 00.61-1.29c1.21-3.42 5-4.92 7.8-2.74 2.62 2 4.71 4.57 4.52 8.32a22.29 22.29 0 00.62 4.14 3.16 3.16 0 01-.17.94 5.13 5.13 0 01-.72-.41 3 3 0 01-1.19-2.58 23.53 23.53 0 00-.67-5.15c-.68-2.72-3.1-3.72-5.38-4.57-1.08-.41-2.08.44-2.77 1.48a11.4 11.4 0 00-2 7 32.5 32.5 0 010 4.07c0 .35-.6.65-.92 1a3.51 3.51 0 01-.36-1.11 21.19 21.19 0 00-1.4-9.3 9.23 9.23 0 00-1.22-1.98c-.62-.9-1.17-.61-1.89 0-1.85 1.68-2.4 4-3.07 6.22-.16.52.13 1.18-.06 1.68-.3.83-.82 2.25-1.26 2.26-1.45 0-.58-1.32-.72-2.06-.32-1.7.32-3.43-.62-5.2a2.45 2.45 0 00-2.56-1.5c-1.14 0-1 .72-.91 1.33 1.09 4.96-.63 8.48-5.91 9.83-3.72.95-6.06-.94-5.46-4.83a1.69 1.69 0 000-.95c-.44-.81-.76 0-1.2.08-1.65.46-2 1.19-1.37 2.87.42 1.15.13 2.56.12 3.86a2 2 0 01-.58.13C81 81.3 80.6 80 80.24 78.75a3.41 3.41 0 010-1.35c.2-1.31-.26-1.83-1.64-1.66-3 .35-5.25-1-7.23-3.39m15.32 2a20.66 20.66 0 00-.32 2.65c0 2.76 1.21 3.67 3.79 2.78a13.66 13.66 0 002.53-1.28c1.64-1 2.64-5.09 1.86-6.77-1-2.08-3.45-1.38-4.77-2.76a3.89 3.89 0 00-.69.86c-.54 1.46-.57 3.17-2.4 4.56zM301.73 110.66c-4.11 3.33-8.73 4.17-13.58 3.83a4.69 4.69 0 01-3.17-2c-1.35-2.27-2.5-4.69-1.42-7.58.63-1.66.52-3.49 1.6-5.14 1.92-3 3.55-3.52 6.69-2.16 1.16.5 1.87 2.57 3.66 1.29.2.32.56.63.57 1 .06 1.7.06 3.4 0 5.1a5.29 5.29 0 01-.41 1.34 4.88 4.88 0 01-.9-1.33c-.45-1.66-.8-3.27-2.2-4.55-2.45-2.24-5.28-2.12-6.52.81a17 17 0 00-1.42 6.85c.11 3.53 3.84 5.26 7.59 4.69a22.88 22.88 0 009.41-3.64 4 4 0 002-3.46A68.86 68.86 0 01305 97.4a2.49 2.49 0 01.69-1.39 2.07 2.07 0 011.4-.45c.21 0 .55.56.59.89.26 2.85.45 5.71.71 8.56a6.65 6.65 0 00.48 2.18c.54 1.14 1.08 2.94 1.94 3.14a10.93 10.93 0 005.62-.17c2.58-.81 5.15-1.84 6-5.1a10.41 10.41 0 012.86-4.2 3 3 0 012.67-.33c4.51 1.64 4.51 7.39 2.08 9.69a7.82 7.82 0 01-5.84 2.34c-1.29-.06-2.16-.33-2.22-1.82s-1.39-1.16-1.84-.69c-1.81 1.89-4.34 1.74-6.52 2.39-2.76.82-5.27-1.28-6-4.25a12 12 0 00-1.11-2.35 15 15 0 00-.87 2.69c-.24 1.73-.47 3.42-1.78 4.72a8.11 8.11 0 01-.72.56 2.86 2.86 0 01-.24-.91c.09-.62.35-1.23.42-1.85a12.56 12.56 0 000-1.84c-.48.42-1 .85-1.61 1.45m25.37-.17l.24-.24c.71-1 1.43-1.89 2.14-2.83-1-.11-2-.15-2.9-.35-3.15-.66-3.32-.55-3.23 2.51.06 1.91.1 1.93 2.15 1.15a5.58 5.58 0 011.6-.24m-1.7-7.15a24.14 24.14 0 003 3c.76.52 1.9-.71 1.65-1.67-.57-2.15-2-2.68-4.69-1.28m-19.41 1c.34-1.29.72-2.58 1-3.89 0-.24-.38-.58-.59-.88-.25.26-.68.51-.7.79a13.57 13.57 0 00.36 3.95zM229.37 299.81c-1.39-1.92 0-3.47.44-4.7 1.14-3.12 2.61-6.2 5.42-8.3a9.22 9.22 0 011.77-1.23c.74.73 1.77 1.63 1.8 2.5 0 1.51 1 2.85.23 4.6-.63 1.42-.2 3.35-.09 5.05a5.68 5.68 0 00.69 2.42c.86 1.49 2 1.52 3.77 1.11 4.91-1.18 7-3.54 7.11-8.51.07-3 .4-5.94.68-8.9a3.07 3.07 0 01.69-1.4 1 1 0 01.86-.3.92.92 0 01.45.72c-.06 4.08.43 8.19-1 12.18a8.84 8.84 0 00-.34 2.91 2.46 2.46 0 00.6 1.43c1.85 2.22 4 1 6 .37 1.67-.55 3.59-1.11 3.56-3.61a31.15 31.15 0 012.56-13.56c.17-.38.32-.78.48-1.16.32.32.9.61.93 1 .4 4.12 1.32 8.23-1.07 12.21-2 3.3-.49 5.9 3.44 6.57a12 12 0 011.35 0 4.59 4.59 0 011.14.75 5 5 0 01-1.31.57c-2.58.28-4.61-.89-6.4-2.6-.46-.44-.77-1-1.46-.15-1.78 2.27-4.63 2-7 2.69-1.63.46-2.94-.6-3.51-2.48-.4-1.31-.86-1.11-1.55-.35-1.58 1.75-3.67 2.48-5.85 3.14-2.79.86-3.75.55-5.59-1.92-.58-.77-1.09-1.42-2.41-.46a13.55 13.55 0 01-5.22 2.08c-2.14.41-.82-1.51-1.21-2.66m6.13-4.42c.68-2.2 1.39-4.39 2-6.6a1.87 1.87 0 00-.32-1.19c0-.08-.66 0-.87.18-2.91 2.41-4.44 5.69-5.54 9.18a7.88 7.88 0 00.08 2.64c.64-.5 1.31-1 1.9-1.49.83-.76 1.6-1.59 2.74-2.72m29.63-9.2c-1.94 1.77-.49 4.44-1.71 6.41.27.13.56.4.8.36a.85.85 0 00.54-.62 31.63 31.63 0 00.37-6.15m-30.65 12.26l-1 1c.42 0 1 .23 1.25 0a4.54 4.54 0 001.44-1.42 16.22 16.22 0 00.95-2.31l-1.62 1.66zM219.16 30.12a16.43 16.43 0 00.66-1.9c.13-.64 0-1.35.19-2 .1-.33.6-.55.92-.82a4 4 0 01.26.91v5.79c0 4.16 1.3 5.47 5.42 5.49h2.38a2.72 2.72 0 01.93.44c-.24.24-.46.66-.72.69-2.4.27-4.91.76-7-.64-1-.66-1.58-2-2.33-3.07a4.43 4.43 0 01-.36-.83 6.63 6.63 0 01-.33.88c-1 1.81-2.89 2.28-4.67 2.46-4 .38-8 .61-12 .68a33 33 0 01-5.83-.66c-1.2-.19-2.61-2.44-2.73-4.08-.08-1.1-.17-2.2-.26-3.3a20.74 20.74 0 00-1.65 2.88 10.91 10.91 0 01-5.52 6.14c-2.24 1.1-3.33.39-3.48-2a16.28 16.28 0 012-8.38c1.22-2.47 3.37-3.05 5.48-3.4 1.45-.24 2.38 1.33 2.79 2.83.1.36.26.72.39 1.08l.48-1.17a9.77 9.77 0 00.48-1.16c1.17-3.63 3.48-5.16 7.21-4.34.91.2 1.7 1.44 2.28 2.37a5.53 5.53 0 01.32 2.24c.05.47.07.93.1 1.4-.62-.16-1.68.63-1.74-.8 0-.18-.2-.38-.34-.53-.85-.92-1.7-1.82-2.55-2.72-1.22 1.3-3.66.83-4 3.59-.35 2.53-1.44 4.91.87 7a4 4 0 002.28 1c3.28.11 6.57 0 9.86 0 1.33 0 2.19-.42 2.11-1.89-.19-3.28 1.84-5.64 3.55-8 1.28-1.8 3.22-1.2 3.94 1A10.15 10.15 0 01219 30a10.74 10.74 0 01-.69 2c-.76 1-1.74 1.76-2.59 2.68-.2.22-.21.62-.31.94a6.86 6.86 0 00.92-.22c2.46-.91 3-2.88 2.84-5.22M185.78 38a38.2 38.2 0 003.78-3.86 15.23 15.23 0 002.29-4.44 1.67 1.67 0 00-1.63-2.26c-3.81.51-7 6.87-5.25 10.41.1.2.31.33.81.15m27.93-6.81c-.44 1.15-.91 2.29-1.25 3.47 0 .13 1 .77 1.09.69a25.21 25.21 0 004-4.08c.4-.58 0-2.13-.6-2.86-.76-1-1.26.27-1.79.68a4.52 4.52 0 00-1.45 2.06zM326.76 146.58c4.21 1.64 4.54 5.64 6.06 8.8.62 1.28-1.55 3-3.16 2.61a14.29 14.29 0 01-7.24-3.85c-.52-.52-.84-.91-1.48-.08a21 21 0 01-2.14 2.18c-2.22 2.15-4.43 2.5-7.43 1.25a2.67 2.67 0 00-2.52-.05 5.68 5.68 0 01-2.42.69c-2.94.15-3.12.13-3.43-2.85-.16-1.53-1-1.26-1.78-1.17-.6.06-1.17.6-1.76.61-1.69 0-2 1-2 2.39s.58 2.77-.92 3.69c-.36.21-.58 1.21-1.18.31a2.19 2.19 0 01-.41-1.38c.07-.37.78-.61.88-1a5.59 5.59 0 00.2-2.58c-.1-.38-1.14-.55-1.78-.73-7.06-1.91-9.66-7.05-9-13.48.05-.51.69-1 1.06-1.43.31.67 1.07 1.65.87 1.94-1.38 2-.5 3.87.15 5.59a8.2 8.2 0 004.28 4.68c3.26 1.53 4.71.8 5.2-2.66a41.39 41.39 0 011.38-5.9 4.45 4.45 0 011.46-2.07c.38-.3 1.54-.29 1.73 0 .53.8-.51.8-.8 1.18a8.41 8.41 0 00-1.27 3.18c-.47 2-.83 4-1.14 6-.15.93.37 1.22 1.19.74 1.88-1.1 4.3-1.64 4.53-4.48.05-.57.72-1.06.9-1.65.34-1.18.86-1.91 2.26-1.87s2.12 1 2.66 2.1a6.08 6.08 0 01.5 1.49c.27 1.33.73 1.25 1.47.3a8.57 8.57 0 011.15-1.1 5 5 0 01.27 1.57c-.21 1.25-.66 2.47-.84 3.72-.14 1-.37 2.59.08 2.87.88.55 2.55.86 3.3.36a26.08 26.08 0 004.34-4.2c1.66-1.78 3.19-3.68 4.86-5.45.29-.31 1-.19 1.91-.27m2 3.75c-1.34-2-2.36-2.56-3.39-1.66a9.4 9.4 0 00-2.58 3.47c-.14.34 1.55 1.51 2.49 2.16a13.49 13.49 0 003.05 1.66 7.1 7.1 0 002.26 0 14.49 14.49 0 00-.31-2.08 19.88 19.88 0 00-1.52-3.58m-22.42-1.3c-1.18 1.8-2.47 3.6-2 5.89a2.78 2.78 0 001.34 1.87c1.53.52 4.23-1.7 4-3.3a8.88 8.88 0 00-2.1-5.17c-.06-.13-.57.2-1.24.71zM241 75.75a6.19 6.19 0 01-6.13-5.86 7 7 0 010-1c.09-1.05 0-2.26-1-2.51-.36-.08-1.32 1.36-1.6 2.23-.62 1.91-1 3.91-1.44 5.87a5.53 5.53 0 01-.3 1.23 3.21 3.21 0 01-.7.73 3.47 3.47 0 01-.35-.85c-.15-1.3-.26-2.6-.38-3.9-1.09.65-2.15 1.36-3.28 1.93-3.59 1.78-7.47 1.65-11.28 1.39-1.61-.11-2.56-1.91-2.69-3.32-.25-2.83-.63-5.89.71-8.49a12 12 0 014.21-4.35c1.27-.8 2.76.14 3.71 1.45a6.58 6.58 0 011.43 4.82c-.09.63-1 1.15-1.55 1.72-.14-.68-.23-1.38-.43-2-.47-1.5-1-3-1.53-4.46 0-.12-.86-.13-1.09.07a12.51 12.51 0 00-2.36 2.35 11.59 11.59 0 00-1.95 7.68 3.47 3.47 0 003.2 3.21 17.36 17.36 0 0012.34-3.77c1-.79 1.11-2.67 1.46-4.09.54-2.17.89-4.39 1.42-6.56.11-.45.67-.79 1-1.18.32.43.94.88.92 1.29-.07 1.16-.53 2.3-.57 3.46 0 .57-1.12 2.24 1.3 1.5 1.31-.4 1.74 1.8 2.05 3.15.25 1.15.35 2.34.7 3.45 1 3.25 3.24 4.29 6.68 3.22 2.81-.87 2.74-.87 2.86-3.8a27.74 27.74 0 01.69-5.15c.48-2 2.21-3.08 4.42-3.08 2.85 0 3.46.62 4.45 3 .92 2.24 0 4.12-.8 5.94-.85 2-3 2.94-5 3.18-2.26.28-4.48.35-6.59 1.41-.63.32-1.56 0-2.69 0m9.19-3.4c2 .37 2.53-1.51 3.74-2.37a21.36 21.36 0 01-2.5-1.21 2.57 2.57 0 01-.87-1.3c-.31-.89-.47-1.83-.72-2.74a2.14 2.14 0 00-.32-.54c-.11.17-.29.32-.34.5a28.72 28.72 0 01-.72 3.08c-.33.9-1.52 1.62.08 2.58 1 .59-.81 1.77.18 2.52.22.15.75-.11 1.47-.52m4.43-5.79c.35-1.36-.6-2.11-1.47-2.74-.3-.21-1.48.14-1.52.38a4.51 4.51 0 000 2.7c.47.92 1.37 1.86 2.71 1.23.32-.04.31-.49.39-1.48zM41.58 180.8a10.8 10.8 0 01.91-1.55 15.13 15.13 0 011.81-1.34 10.09 10.09 0 011.15 2.48c.36 2 .43 4.12.74 6.17.39 2.57 1.89 3.45 4.06 2.62 1.17-.45 1.69-.93 1.15-2.36-.85-2.28 1.79-8.12 4-8.79.38-.12 1.58.89 1.63 1.46.22 2.27.25 4.59-1 6.69a17.06 17.06 0 00-1.2 2.56.94.94 0 00.2.71c3.43 0 6.89.29 10.27-.63 1.25-.34.28-.73 0-1-1.41-1.36-1.49-3.08-1.4-4.87.12-2.47 1.69-3.69 4-2.73a68.33 68.33 0 016.1 3.34 10.81 10.81 0 001.16.47c0-.47 0-.94-.07-1.4-.31-3.5-.66-7-.94-10.49 0-.33.32-.7.5-1a11.91 11.91 0 011.1.62 1.55 1.55 0 01.41.5c.05.09 0 .22 0 .34q.35 6.49.68 13c.06 1.37-.32 1.61-1.53.75-1.72-1.22-3.6-2.24-5.38-3.4s-3.86-1.53-4.46-.78c-.78 1 0 3.36 1.51 4.65 2.12 1.78 4.82 1.75 7.33 1.95 2.14.18 4.34-.4 6.52-.57a4.39 4.39 0 011.39.38c-.44.32-.84.85-1.31.92-4 .65-8 1.28-12.06.15-1.62-.44-3.63.31-5.41.72-2.9.66-5.86 1.58-8.71.44-1.81-.72-3.31-.24-4.87.21-3 .87-3.25.73-4.37-2.31a17 17 0 01-1.36-6.59 5.06 5.06 0 00-.44-1.44c-.38.42-.76.83-1.13 1.25-2.39 2.82-2.8 6.57-4.56 9.68a24.61 24.61 0 01-2.45 3.4c-.17.21-.77.06-1.17.08a2.93 2.93 0 01.08-.95c1.4-3.14 2.79-6.14 4.33-9.14a36.3 36.3 0 012.79-4.2M54 187.44a51.94 51.94 0 012-5.92c.34-.75.13-1-.27-1.18a1.29 1.29 0 00-1.14.48c-1.1 2.08-2.4 4.18-.59 6.62zM162.8 317.69c.48-.09 1 0 1 .07.23 2.85 1.82 5.66.19 8.6-.39.7-.09 1.46 1.13 1.4 2-.09 4 .09 4.93-2.19.67-1.68 2-3.09.81-5.32-.87-1.59-1-3.48-3.12-4.15-.14 0-.14-.9 0-1.3.08-.21.75-.47.9-.36 2.88 2 5 6.83 3.77 10s-4.72 5.93-7.88 5.25a2.79 2.79 0 00-2.66.53c-2.13 1.88-4.68 1.76-7.16 1.52-.91-.09-1.81-1.13-2.57-1.88S151 329 150 329.7c-2.37 1.56-4.89 3.06-7.87 1.11-.33-.22-1.16.05-1.6.34-1.56 1-2.95 2.1-5 .75-.71-.47-2 0-3-.11-.2 0-.51-.41-.52-.64s.35-.68.48-.66c2 .34 1.55-1.09 1.51-2.11-.11-3.34.34-6.38 2.58-9.17 1-1.29 2-2 3.36-1.59a4.31 4.31 0 012.06 2.16c1.19 2.22.83 4.7.87 7.11.05 2.91 1.21 3.54 4.06 2.63 3.4-1.08 4.44-3.59 4.83-6.76a13.16 13.16 0 011.11-3.27c.07-.18.7-.32.9-.2a1.14 1.14 0 01.35.92c-.32 2.35-.84 4.69-1 7.05s1.23 3.52 3.52 3.16a16 16 0 004.18-1.36 2.23 2.23 0 00.95-3.14c-1.25-2.89-.19-5.45 1-8.23m-26.05 4.94c-.58 2-1.69 3.75-.87 6.3.72 2.22.84 1.05 1.7.39a7.81 7.81 0 003.21-8.1c-.15-.76-.93-1.4-1.42-2.1a10.67 10.67 0 00-1.65 1.22 5 5 0 00-1 2.29m26.56.68l-.18-.86-.42.11c.13.37.23.73.66.75z"/><path d="M170.29 155.6a45.8 45.8 0 01-5.53 1.18c-1.87.25-3.51 0-4.22-2.23-.25-.79-.95-.81-1.32.13-.74 1.93-2.43 2.66-4.2 3.24-2.89.94-5.26-.81-5.33-3.89v-1c-.06-1.79-.66-2.16-2.1-1.25-.73.45-1.39 1-2.13 1.42-2.16 1.22-2.13 1.19-1.46 3.74a16.28 16.28 0 01.24 2.63c.2 2.06-.1 4.09.54 6.22.49 1.61-.08 3.69-.6 5.43-.59 2-3.89 2.69-5.59 1.4a13 13 0 01-5.16-9.4 8.23 8.23 0 013.86-7.76 13.16 13.16 0 011.41-.69c3.23-1.59 3.51-1.95 2.34-5.47-.38-1.16.33-1.34.71-1.91a7.43 7.43 0 011.1 1.37c.17.37-.06.91.05 1.34.2.81.51 1.6.77 2.4.57-.38 1.13-.78 1.72-1.13 1.87-1.09 4.33-1.39 5.15-3.89a.62.62 0 01.57-.17c.24.11.58.37.59.58a12.94 12.94 0 01-.15 2 27 27 0 00-.45 3.87 2.36 2.36 0 001.81 2.58 3.42 3.42 0 003-.67c2.21-1.87 4.19-3.92 4-7.18 0-.37.45-.78.69-1.17.55.34 1.44.37.91 1.5a5.44 5.44 0 00-.26 2.26c0 3.82 2.63 5.42 6.25 4 2.84-1.13 4.22-3 4-6.09a12.33 12.33 0 01.55-3c1.54.74.54 2.11.75 3.18s0 2.48.39 3.58a4.79 4.79 0 004.92 3.46 19.82 19.82 0 012 0 2.78 2.78 0 01.82.35c-.24.24-.44.61-.73.7a7 7 0 01-5.94-.65 6.5 6.5 0 01-1.45-1.42c-.43-.49-.81-1-1.21-1.56-.4.63-.8 1.26-1.37 2m-35.58 7.67c.22.35.69.74.64 1.06-.36 2.66 1.28 4.25 2.9 5.94a3.36 3.36 0 003.68.67c1.17-.32 1-1.59.95-2.6 0-1.24.07-2.48 0-3.72-.19-2.73-.52-5.45-.63-8.18-.05-1-.6-1.22-1.25-1-2.4.9-4.8 1.88-5.6 4.7a21.29 21.29 0 00-.63 3.1zM218.47 117.3c-1.38-1.92.25-3.29.41-4.74a15.33 15.33 0 011.65-4.39c1.06-2.26 2.67-3.06 5-2.42a18.85 18.85 0 012.85 1.33c2.4 1.09 2.4 1.09 4.4-1 1.53-1.62 2.12-1.51 2.77.77a17.72 17.72 0 01.61 4.17c.13 3.57 2.11 5.67 5.72 5.58a34.94 34.94 0 008.2-.76 13 13 0 005.38-3.3c1.74-1.69.71-6.23-1.63-7.83a26.49 26.49 0 00-8.66-3.73c-2.07-.51-4.16-.91-6.24-1.38-.21 0-.39-.3-.58-.45a1.5 1.5 0 01.59-.21c6.4.13 12.39 1.32 17.26 6 2.44 2.33 2.4 7.2-.25 9.35a14.75 14.75 0 01-9.36 3.72h-5.11c-4.17 0-6.64-2.51-6.66-6.76v-3.06a3.74 3.74 0 00-.46-1.08c-.3.34-.57.71-.89 1-1.38 1.33-.87 3.14-.53 4.45s-.37 2.37-.26 3.57c0 .32-1.3.78-2 1.18a4.75 4.75 0 01-.56-1.65c.08-1.16-.23-2.29.52-3.53a2 2 0 00-1.49-3c-1.21-.26-2.32-1-3.53-1.29s-.8.17-.4 1a7.07 7.07 0 01-.56 7.63 4.09 4.09 0 01-6.16.9m5.79-6.81c-.34-.54-.7-1.06-1-1.61a9.57 9.57 0 01-.42-1c-.23.24-.57.43-.7.72-.79 1.82-1.61 3.62-2.25 5.49a7.09 7.09 0 000 2.35c0 1 .39 1.1 1.24.71 2.62-1.38 3.77-3.46 3.1-6.73zM214.22 118.49c-2.15-.55-4.83.19-5.77-2.67-.26-.79-.83-.41-1.17.08-2.36 3.37-5.57 3.94-9.15 2.8a4.7 4.7 0 01-3.52-4c-.09-.48-.58-.89-.89-1.33a11.74 11.74 0 01-.45 1.3c-.8 1.6-1.61 3.19-2.45 4.77-.13.23-.47.36-.71.53-.08-.3-.29-.64-.22-.91a25.67 25.67 0 011-3c1.39-3.42.24-6.6-3-7.87a18.86 18.86 0 00-4-1c-.17 0-.84 1.15-.69 1.38 1.09 1.66.77 3.52.55 5.19-.51 3.9-3.5 7.54-7.47 7a2.91 2.91 0 01-2.67-2.76c-.23-3.24 1.32-6 2.33-8.9.28-.83 2-1.53.65-2.82-.07-.07.41-1 .73-1.11.87-.17 2.1-.45 2.64 0 1.16 1 2.35.56 3.52.59 3.53.07 6.68.84 8.5 4.26.34.63.49.65.69 0s.44-1.63.69-2.44c.2-.62-.62-1.81.79-1.69.24 0 .45 1.25.55 1.93a43.9 43.9 0 00.74 5.16c1.11 4 4.35 5.62 8.26 4.4 1.27-.4 3.21-3.3 3.27-5 0-1.47-.09-3 .06-4.42.05-.5.69-.93 1.06-1.39.31.44.84.85.89 1.32.12 1.23 0 2.49 0 3.74 0 3.6 1.36 5 4.85 5a2.19 2.19 0 01.68 0c.44.17.85.4 1.28.61-.45.36-.91.72-1.53 1.25m-37.63.85c.77-.32 1.52-.69 2.31-.93 3.28-1 4.41-7.84 2.73-10.34-.56-.84-1.19-1.46-2.36-.34-2.12 2-2.65 4.74-3.76 7.23-.79 1.68-.55 3.04 1.04 4.38zM193.28 135c7.15.48 13.66 2.2 19.18 6.22 3.9 2.84 4.57 8.17 0 11.71-4.25 3.29-8.95 4-14.08 2.56-.61-.17-1.18-.72-2.19-.14a13.3 13.3 0 01-7.9 1.46c-2.36-.17-4.48-2.4-3.81-4.66.75-2.52 1.47-5.18 3.71-7 1-.78 2.05-.7 2.3.42a40.19 40.19 0 01.7 5.49c0 .3-.42.91-.58.88-.39-.05-1-.34-1-.63-.23-1.07-.26-2.17-.4-3.25a2.83 2.83 0 00-.37-.79l-.48.48c-1.93 1.75-2 4.09-1.76 6.37.06.51 1.88 1.42 2.22 1.18 1.6-1.12 3.31-.22 4.89-.6 1.35-.32 2.64-.64 2.38-2.69s-.39-4.19 1.36-5.88c1.5-1.46 1.63-1.16 2.75.58 1.46 2.26 0 3.7-.82 5.31-.66 1.4-1.06 1.79 1 2.13a15.57 15.57 0 009.79-1.45c4.65-2.28 4.52-7.14 1.43-10a18.06 18.06 0 00-8.44-4.33c-1.53-.36-3-1-4.55-1.32-2.63-.54-5.3-.91-7.94-1.41-.3-.06-.53-.48-.8-.74.32-.2.67-.6 1-.56.72.11 1.41.42 2.45.64m6.13 13.28c0-1.23-.69-1.51-1.3-.62a6.71 6.71 0 00-.71 3c-.05.43.23 1.25.48 1.3 1.11.23.73-.7.86-1.28a21.6 21.6 0 00.63-2.38zM350.42 106.91a3 3 0 01-.85.18 8.75 8.75 0 01-1.57.36c-.45-.94.55-.79.93-1.17 1.84-1.88 4.11-3.41 5.08-6 .71-1.9 2.3-2 4.08-2.09s2.41.91 3.19 2.18c1 1.53.89 3.11.9 4.75 0 1.85.38 2.53 1.22 2.47 1.86-.14 2.82-1 2.84-2.78 0-2.42.61-4.57 2.64-6a5.35 5.35 0 011.82-.48c.11.52.24 1 .32 1.57a9.24 9.24 0 01-1.83 6.73c-.42.63-1.27 1.72-1.14 1.85.88.91 1.57 1.92 3.15 2.2 2.83.52 5.55-.18 8.31-.1a4.48 4.48 0 01.93.22 4.71 4.71 0 01-.92.47c-2.52.6-4.8 1.87-7.73.82-2-.71-4.29-.28-5.27-2.87a1.84 1.84 0 00-1.69-.63c-3.26 1.39-6.64.36-9.95.57-1.53.1-2.34.11-2.34 2.1s-.79 3.94-1.28 5.89a3.25 3.25 0 01-.64.92c-.23-.29-.67-.57-.67-.85 0-2.41-.18-4.82.75-7.16a12.41 12.41 0 00.37-3.43.38.38 0 00-.23 0c-.1 0-.17.15-.42.4m8-7.32a2.41 2.41 0 00-2.74 1.45 27.19 27.19 0 00-1.68 4.24c0 .09.29.31.45.47a5.35 5.35 0 004.28 1.92c1.33-.07 2.06-.52 2.05-2 0-2.21-.27-4.31-2.39-6.24m11.27 2.45l.41-1.63a4.5 4.5 0 00-1.37.61c-.27.25-.28.77-.4 1.17-.34 1.17-1.36 2.28-.31 3.57a18.8 18.8 0 001.67-3.72zM320.8 182.51a14.2 14.2 0 003.34-1.21 4.56 4.56 0 002.68-3.12c.74-3 1.53-3.44 4.41-3a29.06 29.06 0 015.2 1.37c2.1.78 3.28 4.19 2.46 6.56-1.12 3.26-6.08 6.91-9.55 7a3.9 3.9 0 01-3.95-3.58c-.09-1.3-.23-2.6-.35-3.9-1.06.45-2.12 1.26-3.18 1.27-2.11 0-2.83.85-2.63 2.85 0 .33-.5.69-.63 1.08-.2.63.46 1.77-1 1.58-.37-.05-1-.37-1-.47a5.3 5.3 0 01.67-2.21c1.11-1.46 1.07-1.71-.78-2.07-2.17-.43-4.6-3.12-4.68-5.25a2.44 2.44 0 01.35-1.53c.41-.48 1.23-1.13 1.62-1 .75.27.78.86.33 1.84-.83 1.77 1 4.43 2.89 4.49.52 0 1.32-.74 1.55-1.32.8-2.05 1.37-4.19 2.1-6.27a22.65 22.65 0 011.61-3.75c.23-.4 1-.47 1.59-.69a8.06 8.06 0 01-.34 1.39c-1.39 3.11-2.78 6.21-2.7 9.87m15.19 2.28c3.33-4.75 2-5.66-1.81-7.17-1.56-.62-3.78-1.17-4.93.43a11.3 11.3 0 00-2.44 7.79c.18 1.74.91 2.36 2.64 2.35 2.54-.01 4.44-1.32 6.54-3.4zM301.56 73.71c-2.37.28-5.22.24-7.08-1.25a2.78 2.78 0 00-2-.73c-3.84 1.22-7.76.39-11.63.6-2.4.13-2.4 0-2.42 2.55a11.66 11.66 0 01-.05 2.37c-.1.45-.66.79-1 1.19-.32-.44-.91-.85-.93-1.3-.11-1.92-.07-3.85 0-5.77a3.16 3.16 0 01.41-1c-.39.1-.77.23-1.16.3s-.77.07-1.16.11a4.15 4.15 0 01.67-1 6.5 6.5 0 002.56-5.06c0-2.16 1.86-2.7 3.22-3.23a3.05 3.05 0 013.86 1.14c1.42 2.22 3.62 4.18 1.89 7.24-.09.16.48 1 .71 1 1.17-.07 2.33-.33 3.51-.5 1.53-.22 1.73-1.2 1.88-2.58a37.65 37.65 0 011.36-6.56c.21-.7 1.15-1.19 1.75-1.77a21.07 21.07 0 01.9 2c.83 2.44.31 4.91-1.25 7.75-.4.73-1.46 2 .79 2.55a24.56 24.56 0 003.83.51c.68.08 1.36 0 2 0s1.57-.33 1.34.8c-.06.28-1.06.37-2 .55m-16.34-6.47A14.73 14.73 0 00284 64a2.56 2.56 0 00-2.05-.91c-1.74.22-3.18 3.08-2.79 5.51.32 2 1.95.68 2.95 1a4.68 4.68 0 002.35 0c.87-.25 2.1-.58.81-2.34m8.85.68l.86.34c.39-1.7.8-3.4 1.16-5.1 0-.08-.34-.34-.5-.32s-.77.17-.81.34c-.33 1.33-.53 2.69-.76 4.72zM163.48 362.64c1.44-.2 1.71.71.76 1.11a22.42 22.42 0 01-6.94 2c-2.47.18-5.09.75-7.56-.51-.37-.19-1.13.5-1.74.59a39.72 39.72 0 01-13-.75c-.28-.06-.51-.38-.77-.58l-1.46-1.09c.53-.09 1.05-.22 1.59-.26a10.6 10.6 0 011.69 0c.85 0 1.31 0 1.48-1.16.53-3.43 1.54-6.78 1.36-10.33a22.77 22.77 0 01.64-4.81c0-.23.28-.42.43-.63.24.24.68.47.68.72a23.29 23.29 0 01-.13 5.22c-.2.94-.66 1.44.67 1.44a6.82 6.82 0 016.34 3.51c.59 1 1.35 1 1.57-.53s1.18-3.52 2.4-3.36 1.56 2.4 1.6 3.88c.07 2.17.57 4.5-.77 6.44-.76 1.09-.25.91.52 1a22.74 22.74 0 0010.68-1.88m-22.64-6c-.68 2.1-1.38 4.19-2 6.29-.07.24.21.82.33.82 2.59 0 5.1 1.51 7.75.45a1.88 1.88 0 001.48-2.07c-.07-2.7-2.11-4-3.62-5.66-1.17-1.3-2.53-1-3.92.17m10.89-.68c-.38-.07-1.06-.29-1.1-.2a12.14 12.14 0 00-.9 6.3c0 .34.58.64.89 1a4.39 4.39 0 00.42-1c.19-1.79.41-3.6.63-6.08zM255.25 154.07v-.68l-.24-4a29.52 29.52 0 01-3.49 1.23c-1.53.34-1.46 1.59-1.7 2.65-.29 1.25-.35 2.57-.76 3.77-.16.48-.95.85-1.53 1-.21.07-.76-.46-1-.82-.45-.84.48-.86.72-1.23a16.91 16.91 0 001.53-4.1c0-.13-.34-.56-.54-.57-1-.06-2 0-3.06 0a5.73 5.73 0 01-5.77-3.94c-.27-.66-.27-2.13-.06-2.2a17.54 17.54 0 013.42-.52c-.15.41-.17.95-.46 1.19-1.74 1.43-1.76 1.75-.06 3.07s3.75 1.15 5.68.94c.46-.06 1-1.33 1.11-2.09.54-3.66 1-7.33 1.35-11 .1-1.32.85-1.27 1.5-1a1.69 1.69 0 01.54 1.56c-1.64 2.37-1.26 5-1.31 7.65 0 .44.14 1.06-.09 1.3a2.31 2.31 0 00-.21 3 1.3 1.3 0 00.87-.25c.91-1 3.17-.46 2.86-2.78-.51-3.77 2.67-4.48 5.53-3.32 3.24 1.31 4 4.21 4.66 7.21a1 1 0 010 .34c-.19 1.5.14 3.55-.71 4.39a15.36 15.36 0 01-5.53 2.92c-.56.21-1.7-.52-2.28-1.11a6.45 6.45 0 01-1-2.62m0-8.51a4.31 4.31 0 001.16.18 8 8 0 001.4-.35 5.73 5.73 0 01.07 1.59 22.21 22.21 0 00-.89 2.33 16.06 16.06 0 00-.26 4.92c.14.75 1.49 1.61 2.42 1.8 1.27.26 4.18-2.26 4.24-3.52a9.38 9.38 0 00-3.22-8.14c-1.28-1.09-3.62-.61-4.89 1.2zM176.42 78.65a10.65 10.65 0 01-8.66.54c-1.49-.58-2.59-1.3-2.39-3 .26-2.29-.71-4.67.6-6.91.15-.27-.48-1.15-.93-1.57-.25-.23-.85-.1-1.3-.1-5.54 0-5.26-.67-5.2 4.93V79a2.93 2.93 0 01-.33.86c-.25-.24-.63-.44-.7-.73a10.08 10.08 0 01-.31-2.25v-8.17a1.41 1.41 0 00-.78-1.05c-.59-.13-1.44.91-1.42 1.48a7.74 7.74 0 01-.12 1.16c-.38-.14-.89-.16-1.13-.43-.5-.55-1.34-1.41-1.18-1.8.29-.73 1.32-1.83 1.81-1.73 3.94.85 3.35-2.45 4.19-4.39.25-.57.18-1.29.44-1.86a6.59 6.59 0 01.99-1.36c.19.56.6 1.15.53 1.67a13.81 13.81 0 01-1 4.34c-.73 1.46-.15 1.49 1 1.48h4.43c2.19 0 2.5.3 2.41 2.57-.08 1.84-.57 3.66-.62 5.5-.08 2.69.8 3.52 3.59 3.48 2.37 0 4.73.38 7-1.27 2.4-1.75 2.8-3 1.45-5.47-1.67-3.08-4.54-4.5-7.42-5.86-1.06-.5-2.55-.09-3.85-.08a3.72 3.72 0 00-.72.16c0-.31 0-.69.13-.91.76-1 3.48-1.29 5.26-.49a30.77 30.77 0 016.67 4.5c3.54 2.93 2.77 9.21-2.44 10.3zM519.49 313.43c-2.57-4.37.15-7.88 1.73-11.57.11-.27.46-.43.7-.64.1.3.33.64.27.9-.42 1.86-.89 3.71-1.38 5.55a9.82 9.82 0 00-.6 1.78c0 .86 0 2.35.32 2.48a6.73 6.73 0 003.34.09c1.14-.22 1.69-2.35 1.83-3.74a21.89 21.89 0 011.44-4.83 1 1 0 01.86-.18c.35.31.79.78.78 1.17a12.34 12.34 0 01-.52 3.86c-.28.74-1 1.25-.06 1.9a6.1 6.1 0 002.23 1.15c3.24.48 5.91-1.54 5.34-5.47-.14-1-1.16-1.77-1.64-2.71a1.84 1.84 0 01.12-1.26c3.54-.31 6.75-2.22 10.38-2.12 1.61 0 2.32.77 2.07 2.26a30.67 30.67 0 01-1.08 4c-.27.91-.66 1.78-.92 2.68-.2.72-1.44 1.5-.12 2.18.72.37 1.92.76 2.45.43 1.64-1 4-.42 5.19-2.33.07-.1.31-.1.47-.14 0 .31.21.7.08.91-1.15 1.9-6.76 3.8-8.94 3a2 2 0 01-1.12-1.43 15.91 15.91 0 01.64-3.8 17.27 17.27 0 011.59-4.1c1-1.64-.09-2.23-1.19-2.13a56.59 56.59 0 00-6.91 1.35c-.17 0-.39.73-.3.83 1.23 1.25.58 2.79.63 4.17a4.92 4.92 0 01-4.79 5.12c-1.63 0-3.26-.35-4.89-.46a4.28 4.28 0 00-1.4.37c-1.62.49-3.21 1.06-4.85 1.44-.4.02-.94-.48-1.75-.71zM159.91 32.17a23.15 23.15 0 00-.58 4.45c.14 1.48 2.11 3.12 3 3 3.49-.51 5.56-2.08 5.71-4.53.13-2 0-4.07 0-6.11a7.73 7.73 0 01.14-2c.1-.36.6-.6.92-.89a3.43 3.43 0 01.29.89c0 2.38-.06 4.77 0 7.14a8 8 0 00.69 3.1c.66 1.36 1.76 1.43 3 .46 3-2.4 4-5.77 4.47-9.37.08-.55 0-1.14 0-1.69a.83.83 0 01.62-.53.85.85 0 01.69.47c.5 3.39-1.07 10.16-4.65 12.68a3.3 3.3 0 01-4.68-.43c-.82-.83-1.23-1.45-2.3.05-1.78 2.5-7 3.4-8.67.56a9.46 9.46 0 01-.49-1.07 12.1 12.1 0 00-1 1.3 9.16 9.16 0 00-.53 1.38c-.29-.34-.51-.81-.88-1a4.48 4.48 0 00-1.55-.34c-2.39-.25-2.67-.43-2.48-2.86a11.93 11.93 0 014.68-8.88c.76-.57 2.24-.2 3.39-.27 0 1.09 1.7 2 .33 3.26-.2.18-.17.6-.25 1.25m-2-.34a5.31 5.31 0 00.65-1.42 5.92 5.92 0 00-.23-1.58l-1.05.61c-1.4.81-4.4 6.67-4.09 8.21.05.23 1 .56 1.1.45 1.65-1.64 3.84-2.91 3.7-6.29zM399.46 310.2c2.07 1.68-.45 3.14.1 4.73.23.65-.72 1.87-.41 2.3.67.93 1.78 2.06 2.76 2.11a18 18 0 006.36-.76c.76-.23 1.23-1.89 1.54-3 .7-2.45 1.28-5 3.07-6.89s2.86-2.08 4.66-.14c2.61 2.8 4.91 5.75 4.63 10a3.36 3.36 0 01-1.56 2.74c-.4.3-1.55.3-1.74 0-.53-.79.24-.83.84-1.18 1.31-.77 1.54-2.85.55-4.77a41.22 41.22 0 00-3.39-5.38 2.25 2.25 0 00-2-.57c-.64.23-1.53 1.13-1.5 1.68.13 2-.94 3.5-1.37 5.24-.61 2.43-2 3.36-4.33 4-2.89.78-5.5 1-8.11-.56a2.75 2.75 0 00-3.29.1 5.12 5.12 0 01-1.64.94c-2.87.63-5.1-.63-4.45-3.84.7-3.46 3.06-6 5.67-8.15.52-.44 1.71-.7 1.87.86a1 1 0 001.78.5m-7 5.28c-.16.61-.35 1.21-.46 1.83s-.34 1.42-.12 1.56a2.83 2.83 0 002 .56 4.68 4.68 0 003.63-5.73 13.89 13.89 0 00-1.28-3c-.69.76-1.43 1.49-2.07 2.3s-.93 1.47-1.72 2.52zM523.58 264.4c-.31 2-1.71 3.31-1.42 5.22.17 1.1.8 1.06 1.37.87a12.23 12.23 0 002.83-1.34c1.87-1.19 3.92-.83 5.8-.5 2.24.39 3.7 2.79 3.68 5.15a7.21 7.21 0 01-5.35 7.18c-3 1-5.25-.33-5.53-3.38a7.1 7.1 0 011-5 3 3 0 00.24-1.15 9 9 0 00-1.16.07 8.55 8.55 0 01-1.53.38c-1.44 0-1.76.76-2 2.06-.51 2.81-1.29 5.57-2 8.34a3.66 3.66 0 01-.85 1.66c-.4.41-1.32.91-1.56.74a9.54 9.54 0 01-1.66-2c.42-.12 1-.47 1.21-.32 1.23 1 1.32.43 1.57-.8.52-2.58 1.34-5.1 2-7.67.14-.59.25-1.41-.89-1.33a17.64 17.64 0 01-2.72 0 9.32 9.32 0 01-1.68-.46 7.85 7.85 0 01.51 1.7 5.27 5.27 0 01-.36 1.51 6.41 6.41 0 01-1.12-1.22 3.78 3.78 0 01-.49-1.81 25.2 25.2 0 01.46-3.1c.84.43 1.67.89 2.52 1.3.19.09.47 0 .65.07 2.57 1.29 3.52.79 3.84-2 .14-1.27.54-2.52.64-3.8.16-1.94 1.22-1 2.07-.39m3.74 15c.47.22 1.09.75 1.37.61 2.11-1.11 5-1.23 5.21-4.73.08-1.32 1.19-2.51-.17-3.8a5.52 5.52 0 00-4.06-1.65c-1 0-1.11.47-1.52 1.18a10.32 10.32 0 00-.9 8.39zM134.54 223.71a5.38 5.38 0 01-1.87-4.91c.24-1.69-.77-1.56-1.82-1.26-2.1.58-3.46 1.66-3.74 4.14-.16 1.34-1.41 2.56-2.23 3.8-.08.12-.69.08-.86-.09a1 1 0 01-.13-.88c.62-1.22 1.36-2.38 2-3.61 1-2 .93-2-1.17-2.14-2.81-.2-5.17-1.07-6.56-3.87-.4-.81-.06-1 .3-1.21a1 1 0 01.91.3c1.15 2.15 3.19 2.92 5.35 3.39.87.19 1.79.41 2-1.34.41-4.28 1.26-8.52 2-12.76.06-.32.46-.57.7-.84.22.3.63.63.61.92-.24 2.6-.55 5.2-.87 7.79a18.84 18.84 0 00-.43 2.53 21.71 21.71 0 00.51 3.06 20.49 20.49 0 002.81-1.41c.4-.27.51-1 .73-1.49.53-1.26.89-3.46 1.6-3.57 1.36-.23 3 .55 4.36 1.24 3.36 1.69 4.83 7.39 2.9 10.73-1.26 2.18-4.15 2.88-7 1.48m.51-9c-1.77 2.16-1.35 4.47-.32 6.72a2.76 2.76 0 004.3.88c2.45-2 2.51-7.13 0-8.92a3.57 3.57 0 00-2.39-.63c-.58.06-.93 1.02-1.69 1.92zM349.91 154.07c3.65-.22 7-.46 10.28-.66a4.66 4.66 0 011.24.26c-.43.24-.85.5-1.28.72a2.57 2.57 0 01-.87.35c-3.43.25-6.85.55-10.28.67-3.24.11-5.21-1-5.77-4.06-.42-2.33-1.76-1.2-2.69-1.31-1.43-.18-.73 1.06-.82 1.69a20.37 20.37 0 01-.08 2.36c-.11.45-.76.76-1.17 1.14a17.54 17.54 0 01-.64-1.65c0-.11.42-.3.43-.48.18-1.9.29-3.66-1.51-5.14a39.11 39.11 0 01-3.91-4.47c-.39-.44-.76-.7-.1-1.24.29-.22.35-.72.51-1.1a5.44 5.44 0 01.71.73c.9 1.32 1.73 2.7 2.69 4 .27.37.9.47 1.37.7a9.23 9.23 0 00.31-1.23c.24-3.09.45-6.17.7-9.25a3.7 3.7 0 01.44-1.17 2.18 2.18 0 01.47-.49c.15.21.44.45.42.65-.33 3.07.76 6.25-.64 9.26a2.14 2.14 0 000 1 10.14 10.14 0 00.38 2.56c.18.44 3.6-.13 4.05-.68s.78-1.27 1.23-1.86a35.65 35.65 0 012.92-3.54 2.26 2.26 0 012-.52 2.58 2.58 0 011 1.9c.24 2.86-1.19 5.33-3.84 6-1.37.36-2.21.54-2.29 2.15s1.17 2 2.2 2.42a8.5 8.5 0 002.6.28m-1.7-10.21c-.62.85-1.29 1.67-1.85 2.56a4.53 4.53 0 00-.35 1.36l1.37-.37c1.8-.5 1.89-2.3 2.43-3.59.28-.81-.71-.76-1.66.05zM24.21 39.83c1.13 1.17 2.06 2.17 3.06 3.05 3.09 2.84 6.9 2.66 10.54 2 2.85-.54 5.08-5.45 4.25-8.27a2.37 2.37 0 00-3-1.66c-.5.13-.93.52-1.43.65a2 2 0 01-2.32-1c.74-.46.31-2.08 1.82-1.79.25 0 .81-.21.81-.34.07-2.38 1.34-4.8-.28-7.13-.6-.85-1-.52-1.45.08-1 1.4-2 2.81-3 4.2-.16.22-.63.51-.69.46a1.72 1.72 0 01-.63-.9 3 3 0 01.17-1.61c1.23-2.44 2.52-4.85 3.82-7.25a8.89 8.89 0 01.84-1.1c.2.44.38.88.59 1.31a23.15 23.15 0 012 4.27c.48 2 .46 4.11.77 6.16a4.11 4.11 0 00.85 2.33c2.24 2 3.28 4.83 2.5 7.41-1.26 4.17-6.4 7.88-10.52 7-4.47-.9-8.06-3.33-9.9-7.78-.13-.32-.24-.64-.36-1a15 15 0 011.56.91zM170.8 505.49a1.59 1.59 0 00.58-.24c1-.19 2.06-1.88 2.67-.73s-1.29 1.18-2.12 1.64c-.55.31-1.11.59-1.67.89-1.5.8-2.95 1-4.16-.49-1-1.21-2-1.11-3.51-.78-4.31 1-7.26 1.16-7.45-5.32a2.82 2.82 0 000-1 9.28 9.28 0 00-.87-1.34c-.16.43-.32.85-.46 1.28a63.12 63.12 0 01-2.09 6.27 10.4 10.4 0 01-5.37 5.51 7.82 7.82 0 01-3.18.31c-.31 0-.61-.59-.92-.91a4.49 4.49 0 01.89-.31c3.48-.47 6-2.2 7.24-5.56s2.3-6.76 3.42-10.15c.13-.4 0-.95.3-1.22a5 5 0 011.36-.78 5.7 5.7 0 01.38 1.17c.25 2.74.41 5.49.71 8.22a2.9 2.9 0 002.54 2.75 11.53 11.53 0 004.52-1.28c.33-.14.34-1.18.4-1.82.25-2.39.45-4.8.7-7.2a2.89 2.89 0 01.39-1.19 23.58 23.58 0 011.43-1.9c.52.81 1.42 1.57 1.51 2.42a15.43 15.43 0 01-1.17 8c-.42.91-1.73 2-.35 3.22a3.51 3.51 0 004.31.56m-4.08-9.88l-.23-.91c-.15.09-.41.15-.44.26a17.23 17.23 0 00-.66 3.06 12.28 12.28 0 00.42 2.58c.3-.88.67-1.74.88-2.64a12.59 12.59 0 000-2.37zM441.85 316.16c-1.26-2.56-.13-4.73.43-6.77a17 17 0 012.82-4.93c.8-1.14 1.65-1.66 3.32-.66a8.13 8.13 0 014.26 5.75c.3 1.84 1.4 1.35 2 .82.94-.82 2.33-1.44 2.24-3.15 0-.4.83-.85 1.29-1.28a6.9 6.9 0 01.66 1.57c.49 2.87.94 5.74 1.36 8.63a4.35 4.35 0 01-.2 1.26c-.32-.24-.75-.42-.94-.74a5.31 5.31 0 01-.84-2c-.14-1.23 0-2.49-.05-3.74 0-1-.53-1.22-1.25-.61-1 .84-1.77 1.8-3.28 2-.65.1-1.37 1.64-1.54 2.62-.64 3.74-3.62 4.49-6.5 5.24-1.72.44-3.28-1.26-3.77-4m4.09-5.11a2.88 2.88 0 01-.86-.35 11.42 11.42 0 01-1-1.18 5 5 0 00-.82 1.68 27.69 27.69 0 000 5.07 2.59 2.59 0 001.35 1.85 6.49 6.49 0 003 .05c1.15-.19 4.21-4.15 3.66-4.71-.77-.78-2.15-.95-3.27-1.39a10.69 10.69 0 01-2.09-1m1-5.79c-1.69 1.32-1.78 1.59-1.08 3 1 2 2 2.45 4.3 2.49 1.56 0 1.51-1.19 1.14-1.68a16.55 16.55 0 00-4.28-3.84zM381.41 101.12c1-1 1.76-1.78 2.58-2.57 1.56-1.49 1.57-1.49 2.7.55.3.56.55 1.14.86 1.68s.64 1 1 1.42c.07-.65.39-1.39.18-1.93-1.32-3.37-.35-6.85-.6-10.27a5.05 5.05 0 01.66-2.08c.1-.24.41-.4.62-.59.24.28.69.56.69.84a82.46 82.46 0 010 10.19c-.52 4.86 2.8 7.35 6.53 8.7 2.27.82 4.64 1.38 7 2.07.3.09.59.22.88.33a2.42 2.42 0 01-.86.33c-5.3-.1-10.35-.76-13.54-5.8-.09-.15-1.18 0-1.21.17-.51 2.59-2.2 3.79-4.62 4.47-2.89.81-4.82-.61-4.25-3.48a21.37 21.37 0 011.5-4m1.19 1.53c-.39 1.08-.76 2.17-1.2 3.23-.36.88-.13 1.24.81 1.21.68 0 1.55.26 2-.06a9.77 9.77 0 003-3c.29-.55-1-1.78-1.18-2.77-.25-1.58-1.26-1.1-1.88-.73s-.93 1.13-1.67 2.09zM571.42 302.71c-1.26 3.07-2.51 5.87-5.42 7.45-3.12 1.69-7.67 1.9-10-.6a6.66 6.66 0 01-1.63-4.73c0-2.23 1.13-4.45 1.84-6.65a3.69 3.69 0 011-1.62 1.13 1.13 0 011.79.89 33.31 33.31 0 010 3.74c0 .24-.56.45-.85.67-.14-.36-.43-.74-.38-1.07s.42-.72.57-1.11c0-.13-.19-.5-.31-.51-.3 0-.83 0-.89.2a14.6 14.6 0 00-.58 8.41c.47 1.86 4.51 2.59 7.09 2.13 4.51-.81 5.48-4.7 6.83-7.92.94-2.22.61-5 .8-7.48 0-.25-.23-.53-.36-.79-.1.3-.21.6-.3.9-.68 2.21-1.4 4.41-2 6.63-.55 1.94-1 3.9-1.54 5.83-.09.34-.61.56-.93.84-.09-.42-.34-.87-.24-1.24q1.84-7.21 3.79-14.41a3.58 3.58 0 01.72-1.38 3.77 3.77 0 011.1-.61 8.53 8.53 0 01.48 1.07 17.55 17.55 0 01-.58 11.36zM243 34.21c-.61 1.54-2 1.81-3.38 2s-3.13-.57-4.47.66c-1.33-1.36-3-.46-4.5-.63-3.13-.37-4.68-2.87-3.43-5.7A8.49 8.49 0 01241 27.76a12.39 12.39 0 001 .94.65.65 0 00.63 0c.2-.2.46-.58.39-.79-.85-2.66.52-5.29.09-8-.1-.61.49-1.37.89-2 .07-.12 1 .1 1 .22a9.13 9.13 0 010 2.87 65.57 65.57 0 00-1.35 12.72c0 .18-.21.36-.5.37a28.88 28.88 0 01-2.3-3.7 5.07 5.07 0 00-3.49-3 7.63 7.63 0 00-8.2 2.64 2.64 2.64 0 00-.47 1.16c-.33 2.28.81 3.71 3.37 3.68 3.65-.07 7.29-.43 10.94-.66zM321.82 70.14a32.21 32.21 0 01-12.56 2.21c-3.48-.08-5.28-2.54-4.24-5.85a7.92 7.92 0 018-5.76 5.84 5.84 0 014.57 2.12 4.83 4.83 0 00.72.54 2.84 2.84 0 00.23-.91c-.2-1.85 1.24-3.63.09-5.6-.29-.5.35-1.59.63-2.38.08-.23.43-.37.65-.55.23.29.68.6.65.86-.25 2.62.57 5.28-.56 7.91-.49 1.14 0 2.69-.12 4 0 .47-.54.9-.83 1.35a9.09 9.09 0 01-1.15-1.26c-.21-.33-.06-.95-.31-1.21-1.75-1.8-3.36-4.12-6.33-3.46-2.61.58-3.82 2.86-4.88 5-.62 1.26.95 3.46 2.55 3.74a7.19 7.19 0 002.36 0c2.54-.41 5.05-1 7.6-1.3a3.22 3.22 0 002.35-1c.22-.25.9-.11 1.36-.14a13.31 13.31 0 01-.78 1.69zM336.29 109.81c-.68 3.57-1.35 6.8-2.06 10-.07.32-.45.58-.68.86-.22-.3-.6-.58-.64-.9-.4-3.76.72-7.28 1.8-10.8.31-1 .78-2-1-2-.25 0-.53-.47-.79-.73.21-.2.42-.57.62-.56 1.81 0 2.29-1.31 3-2.58.85-1.51 1.58-3.07 3.26-4.07 2.45-1.47 5.16-1 6 1.61a11.42 11.42 0 01-.65 9.68c-.27.46-.55 1.23-.9 1.27-1.9.24-3.85.76-5.74 0-.32-.13-.73-.7-.66-.91a1.44 1.44 0 01.94-.87 31.77 31.77 0 003.39-.09c1.15-.25 2.32-.45 2.41-2.34s-.09-3.49-.15-5.22a2.34 2.34 0 00-3.81-1.82c-2.17 1.53-3 3.9-3.64 6.31a31.61 31.61 0 00-.7 3.16zM260.7 68.94c1-1.6 2.43-2.72 3-4.16.93-2.27 2.93-2.81 4.75-3.21 1.53-.34 4.34 3.4 4.47 5.36a1.89 1.89 0 010 .67c-.56 1.89 1.51 4.73-1.88 5.57-1.94.48-3.71 2-6 .62-1.35-.81-2.69.4-3 2.23-.23 1.49-.42 3-.71 4.46-.06.28-.53.48-.81.72-.17-.23-.51-.47-.5-.68.11-1.86.32-3.71.43-5.57s.16-3.78.23-6m5.11-4.08a41.52 41.52 0 00-2.34 4.79c-.49 1.42 0 2.34 1.86 2a12.88 12.88 0 013.72 0c1.78.25 2.33-1 2.46-2.17a9.37 9.37 0 00-.62-3.77c-.82-2.53-2.31-2.88-5.06-.86zM412.74 32.68c3.52 1.46 7 .87 10.41.72 1.81-.09 3.55-1.22 5.35-1.8.3-.1.73.19 1.09.3-.09.3-.1.71-.31.88a5.72 5.72 0 01-1.38.74c-4.66 1.95-9.58 1.43-14.4 1.24-1 0-2.54-1.61-2.87-2.75-1.09-3.71 3.1-8.79 7-8.63a9.29 9.29 0 014.13 1.43c.95.56.89.49 1-.48.35-2.43.83-4.85 1.36-7.26.1-.46.66-.82 1-1.22a4 4 0 01.3 1.23c-.19 2.4 0 5-.81 7.15-.55 1.48-.26 2.82-.54 4.19a16.73 16.73 0 01-.53 1.7c-.5-.49-1.37-.93-1.44-1.48-.22-1.74-1.45-2.32-2.75-2.9-1.92-.85-3.75-.37-5.57 1.4-2.18 2.2-2.33 2.86-1.04 5.54zM377.84 312.75c-2-.06-3.61-.13-3.44 2.29 0 .13-.5.42-.75.4a.91.91 0 01-.56-.6c-.47-2.21.07-3 2.22-3.45 2.9-.58 3.8-1.62 3.88-4.58v-4.07c0-.31.42-.59.64-.88.23.29.65.57.66.87.06 2.15 0 4.3 0 6.45 0 1.1-.25 1.89 1.56 1.13 2.68-1.13 5.28.95 5.22 3.9 0 1.49.56 3.1-.62 4.5-.2.24 0 .85.07 1.29s.13 1.07.2 1.61c-.56-.55-1.57-1.1-1.57-1.66 0-1.37-.51-2.75.5-4.19a2.75 2.75 0 00-.93-3.46c-1.28-.5-3 0-4.49.22-.25 0-.55.67-.6 1.06-.27 2.28-.42 4.57-.73 6.84a5.57 5.57 0 01-.86 2.34c-.3.43-1.05.54-1.6.79a14.66 14.66 0 01.5-1.63c.12-.29.58-.5.6-.76a62.11 62.11 0 00.1-8.41zM46.68 119.85a28.57 28.57 0 008.44-7.11 3.78 3.78 0 00.43-1.39c-.43-.06-.91-.29-1.27-.16-2.81 1-6.42.76-7.6 4.55 0 .11-.43.24-.56.17a1.17 1.17 0 01-.61-.59 2.66 2.66 0 011.38-3.13 15.59 15.59 0 019.21-2.37c1.49.12 2.26 1.32 1.37 2.54A41.89 41.89 0 0152.4 118c-1.49 1.4-3.27 2.5-4.86 3.81-.35.29-.43.91-.64 1.38a6.27 6.27 0 001.24.27H58a3.43 3.43 0 011 .4c-.33.32-.61.82-1 .91a9.15 9.15 0 01-2 0 37.59 37.59 0 01-4.75-.05c-1.32-.16-2.49.65-3.9.13-.89-.33-2.19-.08-2.51-1.15a2.61 2.61 0 011.16-3.21c.22-.1.35-.31.68-.64zM268.36 27.91c-.25-.25-.32-.37-.41-.4-2-.72-4-1.56-4.43-3.8-.2-1.21 4.58-3.81 6.42-3.8s2.27.4 2.33 2.34a4.72 4.72 0 010 1.68c-.25.7-.89 1.92-1.1 1.87-1.46-.37-.31-1.27-.22-2 .15-1.3-.12-2.21-1.72-1.87a11.32 11.32 0 00-2.74.75c-1.28.66-1.31 1.88 0 2.53 1.48.77 3.09 1.28 4.62 2 2.92 1.29 3.48 2.18 3.28 5-.1 1.37-2.17 3.59-3.81 4.09-4.44 1.35-8.7-.11-13-.85-.32 0-.55-.6-.83-.92.42-.09.88-.34 1.24-.24 3.27.89 6.6.58 9.91.66a5.78 5.78 0 004.4-2c1.26-1.37 1.06-2.5-.49-3.55a24.46 24.46 0 00-3.45-1.49zM102.7 152.71c-.18-.91-.27-1.91-.56-2-1.13-.22-.74.76-.8 1.35-.24 2.4-.44 4.81-.7 7.2a2.92 2.92 0 01-.56 1.13c-.24.4-.54.76-.82 1.14-.22-.41-.65-.85-.61-1.25.22-2.27.54-4.52.85-6.78a16.94 16.94 0 01.5-2.86 9.28 9.28 0 011.49-3.1c.44-.52 1.65-1 1.9.56a15.83 15.83 0 01.61 3.46 8.11 8.11 0 001.74 5.08c.87 1.35 2.09 2.7 4.17 2.2a10.49 10.49 0 012.38 0c3.72 0 4.57-.61 6.09-4.22a5 5 0 011.05-1.18 6 6 0 01.28 1.24 6.3 6.3 0 01-4.09 5.51 33.61 33.61 0 01-3.46.69c-5.44.87-8.71-3.55-9.46-8.17zM136.75 78.48a5 5 0 00-1.73.73c-1.4 1.12-3.43 1.16-4.22.2a5.61 5.61 0 01-.73-4.63 19.43 19.43 0 013.53-5.63 3.17 3.17 0 012.62-.77c.51.08.9 1.27 1.17 2 .13.33-.16.81-.25 1.22-.36-.25-.86-.43-1-.78-.52-1-1.12-.63-1.5 0a40 40 0 00-3.24 5.44c-.62 1.41.56 2.28 2.14 1.75 3-1 5.34-2.53 5.32-6.17a3.07 3.07 0 01.67-1.4 5.21 5.21 0 01.77-.79c.19.33.52.64.55 1a4.9 4.9 0 01-.19 1.61c-.92 3.26.21 4.8 3.58 4.91a16.33 16.33 0 007.47-1.63 8.67 8.67 0 011.16-.35c-.22.4-.35 1-.68 1.17a17.32 17.32 0 01-3.75 1.64c-3 .78-6 1.22-8.73-.92a1.22 1.22 0 00-1.16 0 21.64 21.64 0 01-1.8 1.4zM122.45 500.72a27.48 27.48 0 01-3.57-2.05c-1.68-1.13-1.79-2.09-.15-3.36a11.29 11.29 0 013.15-1.38c.51-.17 1.3.15 1.63-.14.95-.81 1.7-.88 2.61 0s2.22 2 1.76 3.68a5.43 5.43 0 01-.71 1.19 5 5 0 01-.62-.93c-.89-2.23-1.88-3-4-2.43a11.94 11.94 0 00-2.75 1.54 19.79 19.79 0 002.14 1.66c1.73 1 3.48 2 5.27 2.86a3.2 3.2 0 011.92 3.41c-.22 1.3-1.43 1.79-2.92 2.15-4.53 1.09-8-1-11.4-3.28-.2-.14-.28-.47-.42-.71.31-.06.67-.25.93-.16a16.22 16.22 0 012.31 1 11.94 11.94 0 006.77 1.71c1.18-.11 2.86.52 3.2-1 .13-.61-1.46-1.7-2.37-2.42a10.73 10.73 0 00-2.78-1.34zM257.29 30.12a23.25 23.25 0 01-4.57 4.78 10 10 0 01-4.51 1.29 2.18 2.18 0 01-2.43-2.19c.22-3.86.74-7.68 3.62-10.7.65-.69.92-.59 1.48 0a4.78 4.78 0 011.62 3.74 3 3 0 01-.53 1c-.27-.25-.62-.45-.78-.76s-.13-.87-.33-1.22c-.4-.68-.91-.9-1.42 0a11.41 11.41 0 00-1.64 7.44c.09.66.11 1.36 1.67.92a10.87 10.87 0 006.75-5.66 3.11 3.11 0 00-.94-4.35c-.34-.22-.91-.07-1.38-.08s-.9 0-1.35 0c.43-.56.74-1.36 1.31-1.63 1.1-.52 4 1.28 4 2.64s.83 3.13-.57 4.78zM301.73 288.24a1.2 1.2 0 01.32-.82c.6-.65 1.24-1.27 1.86-1.91.12 1 .6 2.05.31 2.86a19.47 19.47 0 00-1.33 7.27c0 1.59.7 2.24 2.24 2.13 1.78-.12 3.37-.4 4.05-2.46.45-1.38 1.32-2.62 1.84-4a2.43 2.43 0 000-2c-.73-.93-.77-3-2.56-2.41-1.5.51-.89 1.8-.27 2.88.15.26-.12.75-.2 1.13a3.25 3.25 0 01-1.13-.51c-.75-.79-.91-4.48-.09-5s2.14-.84 2.66-.45c1.46 1.07 3.19 2.41 2.94 4.46-.37 3-.5 6.32-3.24 8.47a9.6 9.6 0 01-2.79 1.44c-2.75 1-4.75-.26-4.75-3.1 0-1.94-.58-4 .57-5.87.32-.41-.16-1.35-.43-2.11zM301.39 288.24a13.9 13.9 0 00-1.29 4.86 17.74 17.74 0 01-1.49 5.8c-.3.73-1.5 1.11-2.34 1.56a.88.88 0 01-.8-.35 1 1 0 01.23-.87c3.63-1.52 2.3-5.38 3.73-7.93 0-.07-.91-.92-1.05-.84-1.71 1.07-3.67 1-5.54 1.41a2.06 2.06 0 00-1.36.72c-.29.57-.31 1.52-1.17 1-.53-.33-.77-1.23-.95-1.93 0-.17.67-.64 1.1-.78.8-.27 1.65-.39 2.48-.58 1.54-.37 3.1-.68 4.62-1.14a2.32 2.32 0 002-2.51 46.25 46.25 0 01.63-6.17 2.2 2.2 0 01.45-1.15 3.71 3.71 0 011.09-.61c.17.36.51.74.46 1.07-.27 1.91-.67 3.8-.94 5.71a9.17 9.17 0 00.14 2.73zM40 118.66a6.8 6.8 0 01-.26 1.92c-.13.29-.61.43-.93.63-.17-.39-.56-.85-.47-1.18a100.83 100.83 0 017.13-18.69c.19-.39.57-.88.92-.92a2.23 2.23 0 011.36.51c.11.08 0 .7-.15.91-3 3.31-3.91 7.62-5.55 11.57-.64 1.64-1.33 3.27-2.05 5.25zM296.62 362.64c0 1.65 1.67 1.74 2.12 1.75a18.29 18.29 0 006.14-.65 5.47 5.47 0 003.53-4.68c0-.26.55-.45.84-.68a3.35 3.35 0 01.46 1.08 5.66 5.66 0 01-3.44 5.24c-2.53 1.23-5.28 2.8-8.46 1.22-1.93-1-4.14-4.18-3.72-6.22a.69.69 0 011.32-.19c.39.97.7 1.97 1.21 3.13zM57.24 334c-.33.78-.46 1.4-.66 2-.07.19-.31.33-.47.49-.13-.25-.4-.5-.38-.73.19-1.83.41-3.67.67-5.49.18-1.27.55-2.53.65-3.8.28-3.64.47-7.29.72-10.93 0-.27.27-.52.42-.78.3.21.86.4.88.63.06.75 1.55 1.32.27 2.27-.25.18-.19.81-.22 1.24-.24 3.53-.39 7.07-.72 10.59a22.72 22.72 0 01-1.16 4.51zM254.74 349c1.12-3.61 2.08-7 3-10.51a2.29 2.29 0 00-.25-1.38c-.55-1.23.37-1.51 1.15-1.9a5.1 5.1 0 01.69 1.51c.39 3.75-1.19 7.13-2.25 10.57a41.8 41.8 0 01-2.84 6.26c-.19.37-.89.49-1.36.72a4.48 4.48 0 01.07-1.38 38.67 38.67 0 011.79-3.89zM246.57 473.65c.64-.63 1-1.31 1.59-1.48.87-.26 1.28.33.78 1.12a56.24 56.24 0 00-6 14.46c-.09.29-.55.48-.83.71-.17-.35-.54-.74-.48-1a44.74 44.74 0 011.44-5.49c1.02-2.78 2.22-5.45 3.5-8.32zM44.81 71c-1.43 2.69-1.41 5.29-1.36 7.91a12.35 12.35 0 01-.06 2.36c0 .21-.89.54-1.13.4-1.35-.8-.95-2.22-.81-3.34.3-2.32.87-4.6 1.31-6.91.06-.32-.12-.75 0-1 .44-.75 1-1.44 1.49-2.15.21.79.38 1.58.56 2.73zM189.87 73.71c.21-.95-.59-2 .86-2.07 1.17-.07 1.15.52 1.21 1.4a39.67 39.67 0 00.7 5.44 16.49 16.49 0 001.29 2.5 3.44 3.44 0 010 1.31 10.07 10.07 0 01-.95-.41c-2.38-1.4-1.45-4.11-2.38-6.09a10.47 10.47 0 01-.73-2.08zM290.83 41.87c.16-2 .14-3.82.15-5.65a12 12 0 01.13-1.33c.53.22 1.21.3 1.56.68a2.73 2.73 0 01.68 1.72c0 2.83-.36 5.6-2.37 7.84a5.79 5.79 0 01-.72.59 3.51 3.51 0 01-.25-1.24 13.08 13.08 0 01.82-2.61zM270.74 114.4c.17-.62 0-1.17.21-1.49a12 12 0 011.54-1.74c0 .73 0 1.47-.05 2.21-.23 3.08-1.91 5.93-1.54 9.12 0 .28-.19.59-.29.88-.31-.29-.88-.55-.9-.87a25.86 25.86 0 01-.11-4.65 12.94 12.94 0 011.14-3.46zM32.55 107.08c.23.92.76 1.6.61 2.06-.21.68-.9 1.2-1.39 1.79-.19-.21-.53-.41-.56-.63a37.28 37.28 0 01-.29-4c0-1.42.15-2.85.29-4.27a4.64 4.64 0 01.4-1.13c.46.26 1.28.48 1.31.78a23.08 23.08 0 01-.14 3.42c-.04.58-.15 1.11-.23 1.98zM109.51 491.86a5 5 0 010 1.34c-.25.68-.6 1.32-.9 2-.15-.65-.33-1.3-.44-2-.24-1.46-.5-2.93-.65-4.4 0-.33.3-.69.47-1 .29.23.74.4.83.69a28 28 0 01.69 3.37zM195.83 481.82c-.71-.48-1.29-.75-1.77-1.14a.9.9 0 01.07-.85 1 1 0 01.87-.17 11.93 11.93 0 011.63.92c.71.45 1.39.94 2.09 1.41a17.48 17.48 0 01-2.89-.17zM300.37 349c-.72-.16-1.51-.36-1.77-.84a5 5 0 01-.13-2c.38.36.75.74 1.14 1.08s2.1.22.76 1.76zM307.18 344.59c.28.46.54.79.48 1a16 16 0 01-.67 1.87c-.35-.47-.74-.92-1-1.41-.77-1.19-.11-1.57 1.19-1.46zM187.66 284.32a2.73 2.73 0 01-.35-1.31c0-.1.61-.26.86-.18a1.49 1.49 0 01.7.68c.32.6.55 1.23.81 1.85-.62-.29-1.23-.58-2.02-1.04zM253.89 362.47a2.65 2.65 0 00-1 .66c-.07-.59-.38-1.6-.17-1.72a10.3 10.3 0 012.45-.77 5.82 5.82 0 01-1.28 1.83zM383.8 302.71c-.39-.64-.89-1.23-.76-1.56.41-1 .92-.36 1.36.11s.84.6.89.95c.15 1.22-.43 1.34-1.49.5zM544.52 291.81a10 10 0 01-.3 2.55 2.24 2.24 0 01-.58-.05c0-.89 0-1.78.08-2.67a2 2 0 01.8.17zM172.33 139.6c.24-2.17 1.5-1.08 2.5-.9-.12.35-.18 1-.37 1a5.29 5.29 0 01-2.13-.1zM146.11 142.32c-.49.17-1 .3-1.1.15a10 10 0 01-.74-1.71 4.92 4.92 0 011.56.32c.26.15.31.7.28 1.24zM211.49 99.08L210.37 98c.24-.13.52-.42.71-.37a2.11 2.11 0 011.22.63c.17.27-.09.82-.17 1.24 0 0-.17.06-.22 0s-.17-.17-.42-.42zM243 494.59a1 1 0 01-.16 1.14 4.12 4.12 0 01-1.13.63c.02-.74-.63-1.86 1.29-1.77zM353.32 303.9a1.81 1.81 0 01.3 1.36 3 3 0 01-.6 0 1.81 1.81 0 01.3-1.36zM239.42 184.72a2.2 2.2 0 01-.33 1.45c-.29.3-.89.31-1.35.45.26-.4.51-.81.8-1.18a2.76 2.76 0 01.88-.72zM239.76 184.72a1 1 0 01.22-.63 1 1 0 01-.22.63z"/></svg>