<svg xmlns="http://www.w3.org/2000/svg" viewBox="0 0 595.28 667.3"><path d="M171.83 314a22.1 22.1 0 012.94.71 8.14 8.14 0 014.82 5 7.05 7.05 0 00.36.73c.23-.23.57-.42.66-.69.35-1.05.57-2.13.94-3.17.1-.27.55-.42.84-.62.14.25.4.49.41.74 0 1.83.07 3.66 0 5.49-.06 1.66.69 2.18 2.29 2.2 4 .07 4.61-.44 4.86-4.54a15.59 15.59 0 01.61-2.32c.28-1.29.64-1.6 1.3-.18s1.08.28 1.63-.1c1.61-1.09 2.4-.86 2.86 1 .35 1.39.43 2.84.7 4.25a4.17 4.17 0 00.65 1.65 12.25 12.25 0 001.61 1.52c-.12-.62 0-1.45-.38-1.83-1.36-1.42-.29-2.81.13-4a9.89 9.89 0 012.49-3.46 1.45 1.45 0 012.53.95c0 2.58.73 5.3-.91 7.68-.64.93-.48 1.38.68 1.3 2.92-.19 5.85-.38 8.77-.68.43 0 .77-.77 1.23-.89a4.13 4.13 0 011.55.24c-.22.45-.37 1.24-.65 1.29-4 .66-8 2.34-12.16.82a7.84 7.84 0 00-2.53-.12c-2.5 0-3.83-1-4.31-3.47-.3-1.51-.4-3.06-.69-4.57-.07-.35-.56-.62-.86-.93-.15.31-.32.62-.45.94-.85 2-1.67 4.05-2.55 6.05-.28.63-.2 1.9-1.62.8-.57-.43-1.86-.13-2.75.1-3.08.8-5-.44-5.33-3.48a4.67 4.67 0 00-.52-1.26c-.47.37-1.19.66-1.34 1.13-.24.78.08 1.75-.2 2.51-.71 1.94-2.28 2.94-4.2 3.68-2.07.8-3.39.16-4.92-1.25a3.22 3.22 0 00-3.69-.66 12.41 12.41 0 01-4.73 1c-2.42.1-3.35-.74-4.3-3.11a6.86 6.86 0 00-.86-1.26c-.14.41-.3.82-.41 1.24-.33 1.27-.61 2.55-1 3.8-.07.26-.43.44-.66.66a2.76 2.76 0 01-.29-.85v-5.16c0-.54.18-1.17 0-1.6a12.52 12.52 0 00-1.48-2 11 11 0 00-1.12 1.61 7.71 7.71 0 00-.57 2 12.25 12.25 0 010 1.93c-.38 1.12-1 2.18-1.45 3.27a25.54 25.54 0 01-.43-3.11c0-2 .17-4-1.32-5.6-.45-.49-.87-1.4-1.33-1.42a20.9 20.9 0 00-4 .43 2.1 2.1 0 000 .75c1.55.27 1.81 1.69 2 2.75a8.36 8.36 0 01-.08 4.13c-.66 2-4.75 3.6-7 3.11a2.83 2.83 0 00-1.56.39 20.9 20.9 0 01-8.9 2c-2.26 0-3.31-1.08-4.36-2.86a9 9 0 01-.39-7.87c1.13-3 1.72-6.46 4.19-8.91a26.42 26.42 0 012.74-2.66c.65-.49 2-1.06 2.33-.77 1 .81 2.39 1.47 2.22 3.25-.08.85.53 1.75.54 2.63a7.27 7.27 0 01-.61 2.31c-.08.24-.36.4-.54.6-.25-.25-.66-.47-.71-.75-.22-1.43-1.24-2.69-.12-4.37.72-1.08-.93-2.45-2.24-1.85a5.67 5.67 0 00-2.45 1.82 36.15 36.15 0 00-4.8 12.83c-.21 1.17.8 2.63 1.45 3.85.75 1.4 2.14 1.66 3.6 1.38 2-.38 4-.76 5.92-1.3a3.14 3.14 0 002.53-3.93 9.43 9.43 0 011.13-6c1.17-2.16 1.09-2.08 3.61-1.84a9.56 9.56 0 003.56-.54 3.55 3.55 0 014.59 2c.19.36.4.83.72 1a1.31 1.31 0 001.18-.18c1.13-1.83 1.82-2 3.21-.53a10.46 10.46 0 01.7 1c.14.19.3.36.44.54a2.35 2.35 0 00.2-.56c.1-.82.13-1.66.29-2.47 0-.27.43-.46.66-.69a3.94 3.94 0 01.34.76c.24 1.2.4 2.41.66 3.61.46 2.08 1 4.15 3.29 5 1.52.58 5.44-.31 6.57-1.56a2.32 2.32 0 00.46-1.09c.46-2.41.85-4.82 1.31-7.22s.93-4.77 1.47-7.15c.07-.29.58-.49.88-.73a3.44 3.44 0 01.22.88 41.89 41.89 0 01-.15 4.68c-.49.32-1.1.52-1.08.61a7.5 7.5 0 00.51 1.49c.25-.44.51-.87.72-1.32a1.82 1.82 0 000-.62m-33.6 6.79a26.77 26.77 0 00-.59 4.22 13.15 13.15 0 00.86 3.16 13.74 13.74 0 012.66-1.21c2.67-.62 2.15-2.67 2.26-4.52.12-2.11-1.75-2.41-2.94-3.18-.87-.56-1.73.08-2.25 1.53m36.18-4.53c-.16-.1-.39-.34-.49-.3-1.4.59-3.76 5.23-3.36 6.62 0 .11.39.25.55.2 1.6-.49 3.21-1 4.79-1.55.81-.3 1.58-.74 2.37-1.11a28 28 0 00-1.92-2.86c-.34-.39-1.06-.46-1.94-1M172.15 327c2.84.16 5.43 0 6.21-3.56.13-.57 1-1.14-.32-.93a33.24 33.24 0 00-5.58 1.3c-1.52.5-1.82 1.6-.31 3.19m30-3.56c1.34-1.58.32-3.46.64-5.16-.36-.07-.84-.32-1.07-.18-1.62 1-2.27 4.84-1.16 6.35.9 1.12 1.14-.15 1.64-1.05zM192.35 145.55c.87 2.22 2.16 4.17 1 6.53-.52 1 .4 1.63 1.23 1.66a4.24 4.24 0 002.58-.67 2.25 2.25 0 00.49-2.15c-1.18-1.87-.41-3.56.07-5.32.34-1.22 1.18-2.3 2.33-2 .86.2 1.62 1.35 2.17 2.24 1.54 2.49.26 4.64-1 6.77a3.44 3.44 0 00-.26.86 5.45 5.45 0 01.89-.2c3.52-.19 5.43-2.46 6.86-5.34.41-.8.84-1.59 1.3-2.37a5.67 5.67 0 01.7-.78 5.2 5.2 0 01.56 1.23c.19 1.1-.61 2-.1 3.38 1 2.72 2.17 4.2 5.1 4.41a43.57 43.57 0 005.48 0 4 4 0 003.69-2.42c.73-2 2.07-3.79.87-6.35-.7-1.5-.32-3.6-1-5.37-1.87-4.61-5.6-6.48-10.19-7.16a6.08 6.08 0 01-1 0 4 4 0 01-.89-.59c.27-.23.54-.66.79-.65a16.07 16.07 0 017.28 1.9c3.89 2.18 5.51 5.67 6.25 10 .43 2.5.74 4.81-.09 7.24-1.07 3.14-3.14 4.75-6.37 4.76-1.72 0-3.45.07-5.17 0a6.22 6.22 0 01-5.92-4.96 8.65 8.65 0 00-.25-.87c-.31.26-.74.46-.9.79a7.56 7.56 0 01-5.84 4.5 6 6 0 01-2.2 0 7.81 7.81 0 00-3.61-.2c-2.39.56-4.86.76-7.31 1.09a1.16 1.16 0 01-.68-.19c-1.81-1-3.73-2-3.77-4.52a3.14 3.14 0 00-.3-.84c-.31.3-.81.56-.88.9-.52 2.39-1 4.79-1.39 7.18-.1.51 0 1.11-.28 1.49s-.84.52-1.28.76c-.13-.36-.41-.76-.36-1.09.28-1.59.66-3.17 1-4.76a14.41 14.41 0 00.13-1.75 7.09 7.09 0 01-1.33.36c-2.82.3-5.61 1.72-8.5.22-.16-.09-.87.39-.95.7-.5 1.85-.85 3.74-1.35 5.59a21.61 21.61 0 01-1.06 2.56c-1.17-.7-1-1.89-.82-2.87.51-2.35 1.23-4.66 1.83-7a2.43 2.43 0 00-.1-.87c-.23.13-.47.25-.69.39a12.29 12.29 0 00-2 1.39c-1.49 1.52-3.61 1.17-5.34 1.94a.66.66 0 01-.59-.08c-1.65-2.36-3.13-.92-5-.15a16 16 0 01-7.76 1.53c-1.55-.16-2.27.38-2.41 2.1a17.39 17.39 0 01-1.28 4.62c-.17.46-.94.7-1.43 1a6.42 6.42 0 01.06-1.46c.42-1.76 1-3.49 1.29-5.26a4 4 0 00-.73-2.19c-.69-1.23-1.52-2.38-2.24-3.6-.13-.21 0-.57 0-.86.37 0 .85-.1 1.09.08a13.61 13.61 0 011.83 1.81c.94 1.11 1.62.28 2-.4a9.33 9.33 0 001.36-3.6c.14-2 1.71-2.41 2.93-2.49a3.22 3.22 0 013.06 2 8.84 8.84 0 011.2 4.68 1.54 1.54 0 00.24.83 2.09 2.09 0 001.09-.29c1.34-1 2.24-2.2 1.92-4.06a3.68 3.68 0 011.31-3.62 2.15 2.15 0 011.47-.27c.18 0 .44.68.39 1-.18 1.3.47 2.63-.66 3.94-1.29 1.5-.55 2.69 1.46 2.75 3.21.11 7.16-2.7 8.28-5.87s5.12-5.15 8-3.75a3.55 3.55 0 011.64 2.43c.17 1.5.48 3.14-.53 4.59-.17.24.1.78.16 1.19l1.11-.21c1.53-.29 2-1.57 2.56-2.76.47-1 .85-2 1.28-3 .15-.34.34-1 .5-1 2.33 0 4.81-1.52 7.12.76m-14.06 4.69a30.77 30.77 0 00.59-3.91 2 2 0 00-.89-1.5c-.88-.56-4.3.11-4.94 1a7 7 0 00-1.19 4.94c0 .34.52.9.8.9 1.9 0 4 1 5.63-1.43m10.66 2.9c.32 0 .71-.11 1 0 1.15.65 1.89.53 1.94-.95.05-1.17 0-2.36 0-3.53s.14-2.54-1.79-2.67c-2.9-.2-3.72.08-4.31 1.92-.3 1 1.47 4 3.19 5.21m-38.77 1.3c3.4 0 4.27-.83 3.53-3.41a9.86 9.86 0 00-1.29-2.65 1.91 1.91 0 00-3.18.31c-.54 1-.85 2.2-1.32 3.29-1 2.35-1 2.34 2.26 2.46m50.73-8.08c.09-.86-.35-1.3-1-.81a4.4 4.4 0 00-1.14 1.72c-.44.86 0 4.16.54 4.53.15.09.57.1.58 0 .46-1.29 2.09-2 1.71-3.7a6.06 6.06 0 00-.64-1.78m-41.36 1.29a2.48 2.48 0 000 .61 8.48 8.48 0 00.37 1 2.25 2.25 0 00.25-.8.73.73 0 00-.84-.69zM378.43 610.45c1.51 1.61 3.21 3 4.82 4.51 3 2.84 4.07 6.59 5.15 10.48s0 7.42-1.46 10.89a7.17 7.17 0 01-2.41 2.84 17.56 17.56 0 01-5.2 3A5.46 5.46 0 01374 641c-1.77-1.53-3.57-4-3.85-6.33-.17-1.31-.54-2.61-.62-3.93-.25-4.27 1.37-8.24 2.18-12.34a38.85 38.85 0 011.15-4.36 20.62 20.62 0 011.12-2.44 7.63 7.63 0 01-2.26-.5 7.38 7.38 0 01-2.79-2.32c-2-3.66-1.26-7.41.23-11.05.15-.36.84-.49 1.29-.73a6.89 6.89 0 01-.23 1.53c-1.09 2.88-1.58 5.8-.4 8.74.3.77 1 1.83 1.67 1.9a6.19 6.19 0 003.13-.88c.4-.21.47-1.05.71-1.6 1.2-2.84 1.8-6 3.87-8.41.4-.47.77-1 1.16-1.46.13-.16.3-.3.45-.46a3.15 3.15 0 01.32.83c.35 4.22-1.22 7.79-3.77 11a10.67 10.67 0 00-.57.91 2.92 2.92 0 00.91.14c4.2-.76 8.67-5.28 9-9.51a3.51 3.51 0 01.52-1.36c.36.43 1 .83 1 1.3.3 2.48.54 5 .65 7.48a2.15 2.15 0 001.68 2.23c1.28.49 2.21-.58 3.34-.26a4 4 0 00-.1-1.1c-1.24-3.27.73-5.73 2.31-8.09 1-1.55 6.18-1.53 8.21-.15 1.43 1 2.84 2 4.26 3s1.95.7 2.29-.85c.12-.5 0-1.15.22-1.52.54-.78 1.17-1.75 2-2a2.7 2.7 0 013.3 1.23c.27.42.46.88.7 1.32s.45.78.68 1.17c.08-.4.19-.79.23-1.19a13.45 13.45 0 01.28-2.48c.11-.35.81-.52 1.25-.77a4.89 4.89 0 01.4 1.06 2 2 0 01-.07 1.25c-1.61 2.28.29 3.88 1.22 5.49s2.51 1.94 4.33 1.92c5 0 8.07-2.75 8.74-8a32 32 0 00.57-6.51 16.65 16.65 0 00-1.75-5.06 2.58 2.58 0 00-1.44-1.1c-.55-.19-1.49.14-1.17-.88.09-.29 1.25-.61 1.6-.39 1 .64 2.5 1.38 2.75 2.36.9 3.52 2.41 7 .82 10.83-.54 1.28-.34 2.85-.75 4.21-.92 3.06-4.78 5.77-8 5.8a13.93 13.93 0 00-1.94 0 4.33 4.33 0 01-4.9-2.58 3.47 3.47 0 00-.68-1 1 1 0 00-.82-.27c-.19 0-.4.45-.41.7a32.26 32.26 0 01-.07 3.55c-.07.47-.86 1.27-1.14 1.2-.59-.15-.25-.75-.23-1.29a37.47 37.47 0 00-.6-7.47c-.12-.72-1.23-1.27-1.88-1.9-.64.75-1.76 1.47-1.82 2.27-.13 1.74-1.29 3.48-.15 5.3.17.27-.36 1-.57 1.47a5.88 5.88 0 01-.65-1.14 4.88 4.88 0 00-2.58-3.13 66.57 66.57 0 01-5.86-3.8 3.16 3.16 0 00-1.09-.18 5 5 0 00.11 1.1c1.05 3.24 1.26 3.45.29 5.09a11.53 11.53 0 01-3.06 2.87 3.19 3.19 0 01-1.72.54c-1.76.07-3.42 0-5.07 1.09-1.38.92-4.15-1-4.28-2.84-.1-1.28 0-2.58-.05-3.87 0-.29-.41-.55-.63-.82-.21.17-.55.31-.61.53-.62 2.42-2.6 3.63-4.48 4.85a36 36 0 01-3.46 1.56m-6 10.5a33.87 33.87 0 00-.89 3.5 55.34 55.34 0 00-.68 6.15c0 1.09.54 2.18.57 3.28.06 2.74 1.57 4.65 3.49 6.28a3.38 3.38 0 002.52.76c3.54-.8 6.79-2.15 8.54-5.72 2.27-4.62 1.79-9.1-.07-13.78-1.75-4.42-5.3-7-8.7-9.87a1.57 1.57 0 00-2.5.86c-.7 2.72-1.31 5.48-2.28 8.54M398 608.35c3.26-1.78 3.91-4.09 1.93-7a1 1 0 00-.72-.39.81.81 0 00-.54.55c-.11.82-.06 1.67-.23 2.48-.06.28-.56.47-.86.71-.08-.29-.16-.58-.22-.87-.16-.72-.3-1.43-.44-2.15-.3.73-.61 1.45-.89 2.19a7 7 0 01-.64 1.64c-.62.85-.47 1.4-.08 2.4.62 1.6 1.69.29 2.69.44m-20-2.58c.65-1.53 1.31-3 1.91-4.6.09-.21-.15-.55-.23-.83-.15.11-.36.18-.44.33-.98 1.68-2.24 3.33-1.24 5.1zM262.94 613.2c.13-.9-.14-1.64-1.15-1.27-2.72 1-5.14 1-7.45-1.1-.87-.8-1.37.31-1.75 1.07-.58 1.18-1.32 2.07-2.88 2-1.8-.11-2.15-.37-2.29-2.18-.18-2.28-.41-4.56-.66-6.83 0-.15-.57-.4-.6-.37-.76 1-1.85 1.51-2 3a21.21 21.21 0 01-1.9 6c-.85 1.81-5.84 3.5-7.79 2.93-1.16-.34-2.75-2.95-2.48-4.31.34-1.67 1-3.28 1.23-5 .34-2.79 2.59-4.32 3.89-6.47.53-.87 3.05-.87 3.92 0a32.12 32.12 0 012.54 3.13c.27.33.55.66.82 1a7.59 7.59 0 00.49-1c.07-.19-.06-.47 0-.63.5-.76 1.18-2.19 1.55-2.12 1 .2.73 1.53 1.08 2.32a16.6 16.6 0 011.22 7.89 2.13 2.13 0 000 1 2.77 2.77 0 00.91.89c.08 0 .5-.31.66-.55 1.55-2.35 3.74-4.41 3.56-7.56-.06-1.1.71-.91 1.29-.83 1 .15.53.67.36 1.32a11.46 11.46 0 00-.32 3.41c.07 1.52 1.36 2.34 3.08 2.38s2.33-.91 2-2.4c-.36-1.83 1-2.89 1.77-4.11a26.52 26.52 0 013.13-3.24 2.78 2.78 0 013.24-.44 2.45 2.45 0 011.62 2.49 26.56 26.56 0 00.24 3.76c1-.58 2.08-1.17 3.12-1.73a9.28 9.28 0 011.61-.8c1.29-.39 1.94.17 2.11 1.62a38 38 0 00.67 4.25c.25 1.09 1.15 1.36 2.22 1.23a5.33 5.33 0 004.22-4.28 10 10 0 01.7-3.24 4 4 0 012.3-2c.51-.11 1.49 1.09 1.94 1.89.83 1.47 1.33 3.12 2.13 4.6a8.1 8.1 0 001.76 1.8c1.31 1.23 1.49.41 1.5-.83a7.44 7.44 0 014.35-7.18c2.19-1.05 4 0 4.05 2.27.06 5 .06 5 5.27 5a1.71 1.71 0 01.32 0l2.14.3c-.71.33-1.44 1-2.12.93-1.75-.12-3.56.6-5.27-.5-.74-.47-1.54.08-2.21.75a7.64 7.64 0 01-2.51 1.7c-.84.35-1.6 1.29-2.81.36-1.78-1.37-4.65-1-5.74-3.56q-.93-2.21-1.95-4.36a3.61 3.61 0 00-.68-.79 3.89 3.89 0 00-.58.89c-.67 2-1.3 4-2 6-.11.32-.33.79-.58.86a34 34 0 01-3.6.67c-2.82.36-4.33-.88-4.85-3.89v-.32c-.18-1-.36-1.93-.53-2.89l-2.7 1.29-1.34.65a5.2 5.2 0 00-2.93 5.13 114.34 114.34 0 01.29 13.08c-.19 3.1-1.19 6-4.9 7.25s-8.28-1.27-8.6-4.91c-.55-6.18 2.4-12.45 7.62-15.22a28.7 28.7 0 01-2.57 3.55c-2.53 3.13-4.22 6.51-3.76 10.73a5.28 5.28 0 004.23 4.93c1.56.36 4.58-1.38 5.54-2.89 1.9-3 1.46-6.36 1.1-9.49-.23-2-.66-3.67.07-5.64.4-1.1 0-2.51-.09-3.78-1 .5-2.09 1-3.11 1.53a8.88 8.88 0 00-1.24.9m-21.33-1a12.06 12.06 0 01.94-2.81c.83-1.32.18-1.42-.88-1.39a4.35 4.35 0 01-4.61-2.83 1.76 1.76 0 00-1.07-.87c-.19-.05-.7.51-.81.88-.7 2.18-1.42 4.36-1.94 6.58-.44 1.91 1.55 3.93 3.32 3.29a28.2 28.2 0 005.05-2.85m59.45-7.76c-2.71-.27-3.06.1-4.66 3.31a4.37 4.37 0 00-.13 4.09c.31.61 3.08-.5 4.09-1.51a2.49 2.49 0 00.75-3c-.27-.62-.05-1.46-.05-2.86m-32.63-1a4 4 0 00-1.35-.62c-1.56-.07-5.11 3.18-5.39 5.06a9.22 9.22 0 00.37 2.66 10.31 10.31 0 002.15-1 11.54 11.54 0 002.24-2.23 11.7 11.7 0 002-3.87m-27.14 3.23a9.28 9.28 0 001.39-1.09 13.74 13.74 0 00-2.25-3.52 3.07 3.07 0 00-2.52-.29c-.37.09-.61 1.2-.64 1.87 0 .36.46.86.84 1.1.95.6 1.95 1.08 3.24 1.93zM72.32 27.15c.22-.56.58-.77.62-1 .2-1.13.94-1.89 1.91-1.48a3.48 3.48 0 011.91 2.15 27.75 27.75 0 010 5.47c0 .25-.49.47-.75.7-.17-.22-.48-.43-.48-.65v-4.85c0-.88-.34-1.26-1.11-.8-1.14.68-3 6.86-2.6 8.12a3.51 3.51 0 003 2.62c2.7.09 5.45.49 8.15-.51 1.41-.52 1.88-1.18 1.34-2.51a7.61 7.61 0 01.3-6.3c.29-.63 1.25-1.59 1.48-1.49.86.4 2.16 1.15 2.2 1.82.13 2.34.82 4.93-1.26 6.84-.82.75-.19 1 .21 1.39 2 1.92 4.7 2.2 7.24 2.81.38.09.69.5 1 .76-.33.17-.66.49-1 .48A12.9 12.9 0 0187 38.16a3 3 0 00-3.13-.31c-4.11 1.26-8.25 2.08-12.22-.67a3 3 0 00-2.68-.26c-1.48 1.21-2.73.37-3.57-.4a1.74 1.74 0 00-2.52-.18c-2 1.37-3.71 1.82-5.39-.4-.16-.21-1 0-1.51.17-2 .63-3.88 1.64-5.76-.31-.27-.28-1.31 0-1.91.25-1 .4-2 1.43-3 1.34a12.25 12.25 0 00-7.31 2c-2.18 1.22-4.5.89-6.88.09-4.64-1.57-6.44-5.56-8.48-9.38a3.59 3.59 0 01-.07-1.58 2.06 2.06 0 01.17-.57c.22.13.55.2.66.4a5.88 5.88 0 011.05 2.13c.18 1.59 1.32 2.48 2.13 3.66 3.16 4.62 7.9 3.28 12.21 3.28 1.57 0 2.23-3.43.88-5s-2.67-3.32-4.9-3.74c-1.6-.3-3.22-.51-4.79-.91a17.9 17.9 0 01-3.93-1.42c-.9-.47-.91-3.32.09-4.33 2.4-2.41 4.49-5.11 8.2-5.94 3.89-.87 7 .71 7.59 4.64a20.85 20.85 0 010 3.87c0 .21-.34.41-.52.62-.25-.25-.68-.47-.71-.74a20.17 20.17 0 010-2.58 4.67 4.67 0 00-3.22-4.74 2.8 2.8 0 00-1.48-.31 15.1 15.1 0 00-8.55 5.82c-1.29 1.62.16 3.68 2.76 3.81a16.16 16.16 0 018.3 2.61c.5.34 1 .62 1.52 1a7 7 0 01.85.95c.15-.34.32-.68.45-1 .86-2.46 1.95-4.76 4.58-5.76a2.35 2.35 0 011.93.14 15 15 0 012.74 2.72c.33.41.58 1.39.34 1.68-1.13 1.38-.43 2.9-.5 4.32a2.49 2.49 0 002.65 2.46c1.82-.07 3-1.09 3.11-2.67.05-1.08 0-2.15 0-3.23 0-.53-.14-1.17.1-1.57a8.76 8.76 0 011.56-1.54c0 .77.88 1.13.42 2.31-.58 1.5-.24 3.4-.08 5.11a2.15 2.15 0 001.2 1.53A3.51 3.51 0 0064 32.06a26.67 26.67 0 01.68-4.88c.13-.53 1-.89 1.46-1.33a5.7 5.7 0 01.39 1.71c-.18 2-.46 3.89-.73 5.83a3.48 3.48 0 002 2.8 4.51 4.51 0 002.68-1.77c.16-.79.35-1.57.57-2.35.44-1.54.91-3.07 1.36-4.92M42 33.93c-.16 1.59.53 2.52 2.15 2.22a10.18 10.18 0 003.3-1.29c.62-.36 1-1.16 1.46-1.77-.73.22-1.47.42-2.19.65a5 5 0 00-.69.35c0-.37 0-.8.16-1.08a8.64 8.64 0 011.11-1.16c1.45-1.52 1.34-2.89.6-5.06-.46-1.36-1.33-1.16-1.79-.76C43.89 28 41.8 30 42 33.93m43.29-1.29l.48 1.61a9.15 9.15 0 00.8-1c.26-.41.64-.88.62-1.31-.05-1.18-.28-2.36-.44-3.53-1.62.76-1.5 2.2-1.5 4.23zM319.15 451.66c1.08.17 1.83.34 2.59.51-.69.48-1.39 1.38-2.05 1.36-4.22-.15-8.52.78-12.65-.61-1.21-.41-2.27-1.75-3.41-1.77s-2.23 1.25-3.45 1.66a13.13 13.13 0 01-4.2.71 2.93 2.93 0 01-2-1.39c-1-1.72-1.76-3.58-2.64-5.36a8.12 8.12 0 00-1-1.54c-.34-.41-.59-1.18-1.06.16a27.84 27.84 0 01-2.82 5 3.15 3.15 0 01-.67.64 3.88 3.88 0 01-.27-1.17 5.25 5.25 0 01.42-1.27c-.45.15-.9.28-1.33.45-1.77.66-3.5 1.49-5.32 2a4.09 4.09 0 01-4.07-1c-1.14-1.22-1.71-.91-2.81.05-.74.66-2.06.7-3.13.92a1.82 1.82 0 01-1.17-.26c-1.44-.86-1.42-.88-2 .7s-4 3.78-5.66 3.41a2.92 2.92 0 01-1.89-1.47 3.31 3.31 0 01.41-2.56 69.73 69.73 0 014.54-5.88 2.21 2.21 0 00.18-3.09 2.92 2.92 0 00-3.45-.08 11.15 11.15 0 00-1.87 2.77c-1.77 3.56-3.45 7.18-5.2 10.76-.18.36-.6.6-.9.89-.13-.36-.4-.76-.35-1.1.11-.68.5-1.32.6-2 .47-3.15.72-6.35 1.35-9.47.73-3.54.83-7.26 2.57-10.55.17-.33.65-.49 1-.73a4.53 4.53 0 01.08 1.1c-.07.38-.46.75-.42 1.1.43 4-2 7.45-2.32 11.33 0 .5-.26 1-.27 1.49a3.59 3.59 0 00.35 1c.23-.23.54-.42.67-.7.34-.71.55-1.49.91-2.21a19.42 19.42 0 012.12-4c2.32-2.79 3.77-2.9 6.38-.31 1.22 1.2 1 0 1.44-.43 1.53-1.43 3.2-2.71 4.71-4.16.81-.77 1.22-.42 1.83.17 1.76 1.71 1.84 4 2.21 6.19a26.23 26.23 0 010 3.55c0 2.48.94 2.93 3.62 2.61a14.24 14.24 0 005-1.23c1.65-.85 2.77-1.75 3.09-3.88a70.65 70.65 0 012.34-8.69 9.63 9.63 0 01.46-1.11c.32.39.87.76.93 1.18a7.08 7.08 0 01-.14 2.51c-.17.77-.66 1.46-.85 2.22a7.22 7.22 0 000 1.74 4.9 4.9 0 001.13-1c.89-1.45 1.69-2.95 2.53-4.44a12.59 12.59 0 01.93-1.54c.2-.24.59-.32.9-.48.11.38.41.82.31 1.13-.83 2.55-2.53 4.61-4.13 6.67-.54.7-.3.9 0 1.45.93 1.66 1.75 3.37 2.6 5.06 1.46 2.9 2.33 3.45 5.14 2.88 1-.19 1.83-.81 2.78-1.06 1.22-.32 1.36-1 .95-2a8.51 8.51 0 01.3-6.92c.38-.81 1.2-2.05 2.49-1.57s2.24 1.32 1.91 2.88c-.42 2-.33 4.16-1.86 5.67-1.21 1.19-.69 1.95.43 2.35a17.42 17.42 0 005.26 1.26 74.25 74.25 0 007.81-.57m-50.72-3.23a1.4 1.4 0 002 1.26 4.23 4.23 0 002.87-3.87 27.64 27.64 0 000-4.17 25.61 25.61 0 00-.86-3.48 14 14 0 00-2.28 3.07 30 30 0 00-1.67 7.19m-5.49 4.2c2.22-1.22 3.56-4.95 2.5-7.14a1.19 1.19 0 00-1-.1c-1.4 2.18-2.72 4.41-4.1 6.6-.25.4-.89.71-.11 1.12a2.57 2.57 0 001.31.26 3.27 3.27 0 001.42-.74m40.7-7.75a4.42 4.42 0 000 .63c.14 1 .29 1.95.44 2.92 1.24-.58 1.44-1.65 1.52-2.88.05-.66.53-1.29.58-2s-.15-1.43-.46-1.54c-.53-.19-1.54-.48-1.48.86 0 .43-.39.88-.61 2m-36.18 1.29c.43-1.72.85-3.45 1.3-5.16a6 6 0 01.39-.9c-.35.1-.81.09-1 .32-.46.51-.75 1.17-1.18 1.72-1.12 1.47-1.09 2.6.51 4.1zM166.82 606.9c-.86 2-1.78 3.68-1.48 5.76.34 2.28 1.08 3.09 3.34 3.12 1.4 0 2.8.05 4.19 0 2.72-.1 4.11-1.57 4.13-4.29 0-.86-.05-1.73 0-2.58 0-.31.38-.58.58-.87.23.26.63.52.65.8.08 1.07 0 2.15 0 3.23 0 2.16.27 2.38 2.32 2.43 3.31.08 5.27-1.91 5.47-5.31 0-.82-.85-2 .91-2.53s3-2.26 5.38-1.11c3 1.45 3.85 4.24 4.48 6.83.48 1.92 1.38 1.44 2.39 1.45 1.4 0 1.62-.91 1.69-2.11.1-1.75.4-3.49.61-5.23 0-.21-.09-.53 0-.63.93-.8 2-2.26 2.84-2.19 1.39.11 1 1.82 1 3 .07 2.21.23 4.42-1.69 6.11-.17.15.13 1.18.49 1.48 1.53 1.3 5.14 1.29 7 0a8.68 8.68 0 003.8-6.13c.21-2.24-1-4.46-2.54-6.3a13.94 13.94 0 00-5-3.44 17.14 17.14 0 01-1.64-.69.89.89 0 01-.29-.8.83.83 0 01.67-.43c4.09.6 10.1 6.46 10.18 10.53.06 3.37-1.15 6.67-4.38 8.37-2.79 1.47-5.83 2-8.72-.11a2.6 2.6 0 00-1.62-.67 24.32 24.32 0 00-4.95 1.28c-3.5 1.43-5.76.83-8.14-2.39a4.94 4.94 0 00-1.24-.88 6.29 6.29 0 00-.56 1.55c-.26 2.71-.41 5.42-.71 8.12-.05.42-.71.77-1.08 1.16-.27-.43-.81-.89-.77-1.28.25-2.13.65-4.24.95-6.37 0-.17-.34-.58-.46-.56-.48.1-.92.43-1.4.49-1.63.19-3.19 1.55-4.94.17a2.14 2.14 0 00-1.8.18c-3 1.6-6.15 1-9.25 1-.86 0-1.75-.94-2.53-1.57a2 2 0 00-2.32-.47 9.17 9.17 0 01-4.91.24 3 3 0 00-3.39 1.14 4.39 4.39 0 01-5.15 1.25c-1.7-.69-2.53-2.62-2.34-4.74.13-1.49 0-3 0-4.51a3.53 3.53 0 00-.24-.87c-.22.18-.48.33-.68.53a13.86 13.86 0 00-3.6 5.61 9.84 9.84 0 01-3 4.88 5 5 0 01-.68.38c-.06-.3-.12-.6-.17-.9v-.32c2.61-3.73 3.8-8.36 7.36-11.47.37-.32 1.08-.79 1.27-.66a2.3 2.3 0 011 1.43c.13 1.5 0 3 0 4.52v1.93c.22 2.16 1.42 3.42 3.06 3a8.26 8.26 0 002.61-1.46c1-.75.64-1.51.32-2.68-.7-2.51.26-5 1.39-7.36.46-.94 1.34-1.08 2-.07.9 1.42 1.47 2.87.61 4.61a38.82 38.82 0 00-1.51 4.16c1.47.09 2.94.24 4.42.25 3.2 0 3.24 0 3.26-3.08a7.6 7.6 0 013.18-6.07c.53-.42 1.82-.08 2.69.19.32.09.55.94.58 1.47.08 1.39.05 2.79 0 4.19 0 .25-.27.49-.41.73-.29-.21-.76-.36-.83-.63-.3-1.07-.39-2.2-.71-3.26-.21-.73-.51-1.81-1.75-.47m22.13.48a4.12 4.12 0 002.82 6.36c1.12.16 2.44 1 3.59.11.58-.47.48-.59-.83-3.47-.16-.36-.27-.74-.45-1.09-1.21-2.32-1.94-2.65-5.13-1.91m15.19 2.91c.21-1.19.46-2.38.62-3.58a3.92 3.92 0 00-.21-1.18c-.44.17-1.19.24-1.27.51a37.76 37.76 0 00-1 4.69c-.06.35.36.78.57 1.18.33-.44.67-.87 1.33-1.62m-47.12-.73c-.15-1.14-.29-2.29-.44-3.43l-1.13 3.06c0 .09-.21.15-.21.23 0 .82-.81 1.85.48 2.32.06.03.61-1.21 1.3-2.18zM501.85 351c-.27-1.31-.33-2.45-.51-3.58a3.54 3.54 0 00-.68-1.11c-.19.3-.5.57-.57.89-.26 1.3-.36 2.64-.7 3.92a6.08 6.08 0 01-1.15 1.65 10.49 10.49 0 00-.77-1.35.84.84 0 00-.72-.15c-1.07.25-2.11.67-3.2.83-1.37.19-2.52 0-2.56-1.88 0-1-.82-.89-1.26-.32-3.05 4-7.43 2.8-11.41 2.8-2.19 0-3.63-3-2.41-5.06a26.58 26.58 0 014.09-4.74 41.35 41.35 0 013.6-3 2.7 2.7 0 011-.64 3.2 3.2 0 011.19.2c-.09.37-.07.88-.3 1.08-1.59 1.32-3.31 2.49-4.83 3.88a18 18 0 00-3.25 3.67c-1.05 1.66-.11 3.27 1.87 3.39a45.71 45.71 0 005.49 0c2.36-.16 5.64-3.67 6.26-6.55.09-.42-.15-1 .06-1.26a1.56 1.56 0 011.22-.51c.21 0 .59.71.52 1a16.91 16.91 0 00-.55 5.71c.1 1 .56 1.13 1.21.94a9 9 0 003-1.29 7.92 7.92 0 003-4.55 2 2 0 011.54-1.15c.41 0 1.05.71 1.28 1.24a5.33 5.33 0 01.33 2.12c.1 4.67 1.05 5.47 5.75 5.66a7.6 7.6 0 004.87-1.48c1.77-1.34 4.37-2.84 2.43-5.91.46-2.47.87-5 1.4-7.41a23 23 0 011.1-3.41c.11-.27.57-.4.87-.6.13.26.38.52.38.77 0 1.47.6 2.88-.73 4.37-.89 1-.87 2.83-1.17 4.3a12.51 12.51 0 000 1.94c-.15 4.82.27 4.12 4.19 4.12 2 0 2.38-.3 2.22-2.47s1.5-3.51 2.34-5.19a2 2 0 011.87-.64c.49.19.89 1.11 1 1.76.33 2.44-.87 4.34-2.4 6.09a9.77 9.77 0 00-.79 1.28 8.29 8.29 0 001.65.46 6.09 6.09 0 005.51-2.94c1.26-1.75 2.7-3.38 3.83-5.2.82-1.31 1.74-.46 2.24-.14a7.63 7.63 0 011.65 2.17c1.18 1.7 2.13 2 3.78.66 2.13-1.71 4.13-3.59 6.14-5.46s2.77-1.88 5.1-.2 3.53 4.31 2.95 6.38c-.94 3.34-3.8 6-6.7 6-3.93 0-7.93.49-11.53-1.78a2.76 2.76 0 00-1.87-.12c-2.77.61-5.64.39-8.39 1.58-1.57.68-3.73 1.43-5.51-.38-.38-.39-1.47-.33-2.14-.15-1.8.49-3.66.5-5-.73s-1.72-.7-2.34.25c-1.84 2.81-4.82 3.43-7.75 3.87-2.64.4-4.55-1-5.73-3.65m47.33-7.6c-.64.54-1.26 1.1-1.92 1.61-1.3 1-2.71 1.89-3.92 3s-.76 1.53.63 2.23c1.94 1 3.93.47 5.89.59 3.35.21 5.58-1.34 7.13-4.33a3.38 3.38 0 00-.5-4.15 9 9 0 00-1.6-1.6c-1.15-.86-2.29-1.27-3.36.27a21.31 21.31 0 01-2.35 2.39m-13.57 3.88l-1.22 1.37a5.8 5.8 0 001.51.22 21.35 21.35 0 003.91-.7c.43-.13 1-1.22.9-1.44a29.56 29.56 0 00-2.49-3l-2.16 2.45c-.14.16-.3.3-.45 1.1m-10 1c.76-1.38 1.53-2.74 2.24-4.14.11-.21-.08-.57-.14-.87a3 3 0 00-.66.36 4.26 4.26 0 00-1.47 4.66zM246.62 323.24c.31.53.36 1 .64 1.24 1.45 1.06 5.4.58 6.77-.51a3.38 3.38 0 001.17-3.1c0-1.86-.33-3.78.87-5.45a5.53 5.53 0 01.68-.69c.12.35.38.7.35 1-.21 2 .5 4-.56 5.91a2.2 2.2 0 001 2.78 4.07 4.07 0 004.15.22 4.68 4.68 0 003.23-4.73v-4.2a6.48 6.48 0 01.4-1.77c.08-.21.43-.32.66-.48a2.55 2.55 0 01.21.56c.23 2.17.44 4.34.65 6.51a2.09 2.09 0 003 1.95c.93-.31.79-.73.84-1.34a12.5 12.5 0 011.94-6.3 7.53 7.53 0 011.73-2.14c.69-.44 2.06-.79 2.51-.43a6.45 6.45 0 011.43 2.82c.1.25-.44.68-.47 1.05a3 3 0 00.35 1.09 4 4 0 00.9-.58c.62-.69 1.13-1.5 1.8-2.14a1.15 1.15 0 012 .66c-.1 3.16 1 6.65-2.13 9.13-.25.19-.28.71-.3 1.08a1.62 1.62 0 00.82.24c3.1 0 6.23.23 9-1.74.36-.26 1.13.07 1.72.13-.3.52-.49 1.35-.93 1.51a14.85 14.85 0 01-4.91 1.33c-4.21 0-8.43-.35-12.65-.57-.1 0-.25.05-.31 0-1-.78-2.23-2.37-3-2.19-1.42.33-2.38.43-3.35-.67-.83-.92-1.36-.1-1.77.43a6.58 6.58 0 01-6.43 2.44 4.7 4.7 0 00-.65 0c-1.27.07-1.75-2.29-3.55-1-.91.66-2.63.32-3.38 1.06-1.37 1.35-2.35.06-3.4-.16a3.06 3.06 0 01-2.08-1.63c-.33-1.26-.52-.62-1.08-.26-.83.53-1.79.87-2.67 1.33s-2 .45-2.41-.63c-.6-1.57-1.11-1-1.88-.18-1.73 1.71-3.58 3.22-6.28 2.75h-.65c-2.44-.55-2.43-.55-3.23 1.71a4.57 4.57 0 01-.6.88c-.23-.38-.72-.82-.64-1.11a8.28 8.28 0 011.26-3c.69-.85.66-1.25 0-2.11a10.38 10.38 0 01-1.2-3c-.09-.31.13-.72.2-1.08.37.16.73.31 1.09.48a.49.49 0 01.23.22c.54.87 0 2.71 1.73 2.4.51-.09.76-1.66 1.13-2.56.86-2.12 1.74-4.23 2.58-6.36.52-1.34 1.13-1.57 1.78-.4a13.23 13.23 0 011.4 4.24 35.76 35.76 0 01.08 4.52.81.81 0 00.45.65.9.9 0 00.79-.3c.48-1.2.82-2.47 1.34-3.65.8-1.82 1.63-3.64 2.6-5.38.64-1.14 1.53-1.32 2.46-.11.76 1 1.34 2.15 2.81 2.48.25.06.35 1.59.22 2.39-.19 1.17-.7 2.29-1 3.46-.08.34.18.76.45 1.31m29.65-7.25a2.57 2.57 0 00.24-.9 12.16 12.16 0 00-.33-1.68 5.07 5.07 0 00-1.28.75 8.78 8.78 0 00-2.19 8.5c.57 2.45.63 2.46 2.69 2.4s1.91-1.59 1.82-2.92a36.37 36.37 0 00-.95-6.15m-42-.64c-1 2.28-2 4.54-2.86 6.87-.31.85-1.49 1.95-.33 2.74a4.72 4.72 0 003.21.61c1-.2 1-1.45 1-2.43v-5.8a4.65 4.65 0 00-.94-2m6.14 4.84c0 1.07.07 2.15 0 3.21s.59 1.31 1.11.94c1-.74 2.66-1.81 2.63-2.69-.07-2-1.07-3.86-.53-5.95.05-.22-.54-.6-.84-.91a9.72 9.72 0 00-.44.92c-.54 1.38-1.06 2.77-1.91 4.48m41.58-2.28c0-.65 0-1.29-.05-1.94-.43.24-.9.44-1.31.72-2.56 1.8-2.24 4.51-2.17 7.12 0 .05.58.23.7.12a7.07 7.07 0 002.83-6.02zM338.05 351.67c-.62 1.27-1 2.42-1.57 3.44-.26.45-1 .61-1.52.9 0-.44 0-.89.08-1.33.08-.93.13-1.87.27-2.8.58-3.63 1.21-7.25 1.77-10.88.15-1 .08-2.12.19-3.17a.81.81 0 01.59-.5c.22 0 .65.3.64.45a30.44 30.44 0 01-.33 4.05c-.46 2.59-1.05 5.16-1.56 7.75 0 .16.11.49.22.52.27.06.72.11.85 0 .51-.62.92-1.33 1.39-2a22.85 22.85 0 012.07-2.69c1.9-1.87 3.44-2.18 5.81-.93 1.12.6 1.78.59 2.6-.36a28.34 28.34 0 012.73-2.75c1.89-1.72 4.91-1.16 5.54 1.28.41 1.57 1 1.34 1.93.89 1.43-.71 2.77-1.63 4.21-2.31a6 6 0 012.62-.63c1.6 0 2.22.86 2.34 2.4a51.15 51.15 0 00.67 6.19 3.1 3.1 0 004.5 2.38c1-.49.94-.89.73-2a8.55 8.55 0 01.54-5.53c.18-.36.22-.89.5-1.06.76-.47 1.92-1.32 2.35-1.07a3.12 3.12 0 011.61 3.41c-.55 1.79-.41 3.88-2 5.32-.85.79-1 1.37.46 1.57.69.09 1.34.51 2 .55 1.39.1 2.8 0 4.2.05.82 0 1.63.19 2.45.29a2.29 2.29 0 01-2.47 1c-2.75-.3-5.69.82-8.23-1.23-.4-.32-1.42 0-2.11.19-3.11.86-5.67-1-5.93-4.27-.13-1.64-.4-3.27-.64-4.9a2.56 2.56 0 00-.36-.72c-.23.22-.56.41-.66.69a10.34 10.34 0 00-.26 1.51c-.43 2.4-.86 4.81-1.3 7.21a5.33 5.33 0 01-.29.85c-.22-.21-.53-.38-.67-.64-.36-.7-1-1.53-.9-2.16.56-2.53-.27-5.49 2.14-7.51.23-.19.19-.71.27-1.08-.37 0-.82-.11-1.09.05-1.3.79-2.45 1.95-3.84 2.42-2.08.7-2.9 1.67-2.81 4 .1 2.5-3.63 5.6-6.13 5.6-.42 0-1.17.08-1.22-.07-1.19-3.35-2.12-.44-3.27 0a15.73 15.73 0 01-7.84 1.29c-.53-.06-1.35-.61-1.4-1a2.4 2.4 0 01.68-1.91c2.52-1.89 5.12-3.68 7.75-5.43.77-.52.8-.84.06-1.32-1.5-.95-2.69-1-4.09.46-1.56 1.62-2.79 3.56-4.32 5.52m15.35-6.94c-.72-1-1.63-1.18-1.89.14-.42 2.22-.44 4.51-.71 6.76-.18 1.45 1 1.49 1.54 1.11a13.78 13.78 0 003.58-3.52c1.81-2.85 1.67-2.93-1.5-3.55-.27-.05-.47-.41-1-.94m-13.9 8.72a.91.91 0 00-.21.23v.21a9.32 9.32 0 006.24-.7c2.32-.92 2.86-2 2.7-4.56-.07-1.13-.4-1.34-1.32-.68-2.36 1.73-4.73 3.45-7.43 5.5m37.8-9.37c-1.35 1.63-1.34 3.59-1.26 5.54a.77.77 0 00.53.56c.23 0 .66-.19.71-.38.47-1.73.92-3.47 1.27-5.23 0-.21-.6-.54-1.25-.49m-21.64-2.26c-1 .18-2.65-.72-2.24 1.44.18.93 2.76 1.67 3.55 1.09.08-.07 0-.46-.1-.66a12.9 12.9 0 00-1.21-1.87m-5.49 4.2c-.88-.88-1.27.05-1.77.5 0 0 .08.28.12.44a10.18 10.18 0 001.7-.94zM392.17 377.36c.06-2.59-.45-5 1.28-6.91a2.56 2.56 0 00.31-.83c.31.29.87.58.87.88 0 1.22-.17 2.45-.26 3.68a18.43 18.43 0 00-.22 3.76c.2 1.45 1.67 1.66 2.79 2a14.63 14.63 0 002.57.06 3.49 3.49 0 011 .38c-.31.3-.61.84-.92.85-1.86.05-4 .56-5.36-.95-1.12-1.25-1.93-.61-2.94-.3-2.89.9-5.73 2.18-8.79.41a2.4 2.4 0 00-2.11.28c-3 2.17-6.33.92-9.51 1.23a1.19 1.19 0 01-.77-.43c-1.14-1.29-2.22-.87-3.61-.26-2.85 1.25-3 1.37-4.53-1.47-.48-.92-.49-1.47-1.64-.62a11.63 11.63 0 01-3.74 1.83c-1.77.5-3.52 2-5.51.37-.4-.32-1.27 0-1.9-.07a2.33 2.33 0 00-2.85 1.61c-.12.31-.3.59-.45.89-.29-.42-.9-1.11-.82-1.21 2.14-2.51.22-4.37-.93-6.35-.06-.09-.21-.15-.22-.24-.18-1-.35-2.05-.51-3.07 1.49.14 1.18 1.62 1.77 2.43.36.48.57 1.07.94 1.54 1.06 1.38 1.26 1.32 2.47-.09 1.64-1.92 3.32-3.8 5-5.68 1.06-1.17 2.42-2.58 3.93-2 1.81.73 2.27 2.82 2.31 4.72a19.62 19.62 0 01-.59 3 3.71 3.71 0 00.24 1.19c.37-.11.86-.11 1.08-.35.8-.91 1.72-1.56 2-3a7.48 7.48 0 013.66-5.19c1.77-1 2.88-.47 3.34 1.54s.88 3.81.08 6 .66 3.76 3.21 3.71c2 0 3.93.32 5.89-.57s2.31-1.21 2.46-3.38a50.85 50.85 0 01.76-5.5c.06-.31.58-.54.88-.81.09.29.29.59.25.86-.29 1.73.39 3.46-.53 5.27s1.16 4 3.07 3.41c1.47-.48 2.89-.3 4.27-.61a5.12 5.12 0 002.26-1.87m-42-.33a3.5 3.5 0 00-.64.7c-.43.89-.5 1.82.73 1.94a14.57 14.57 0 004.93 0c3.41-.91 3.66-6.6 2.24-8.89a1.41 1.41 0 00-1.25-.35c-1.94 2.05-3.81 4.17-6 6.59m12.92 0a15.36 15.36 0 000 1.92c0 .35.23.85.48 1 1.21.53 3.77-.5 4-1.7.35-1.92.48-3.88.66-5.83 0-.26-.19-.55-.29-.83a8.5 8.5 0 00-.68.66c-1.29 1.5-2.57 3-4.18 4.82m2.58-5.17l-.64.33c.23-.07.45.04.66-.5zM188.47 409.82c2.58 1.6 2.79 4.16 3.38 6.52.1.41-.11.92.05 1.27s.86.47.95.36c.69-.74 1.57-1.23 1.67-2.54a24.34 24.34 0 011.24-5c.09-.31.43-.54.65-.81.21.4.64.83.58 1.19-.27 1.8-.7 3.58-1 5.37a3.53 3.53 0 000 1.74c.79 2.22 2.36 2.52 4.41.91a6.08 6.08 0 002.43-4.8 5.66 5.66 0 01.14-2.2c.43-.84 1.57-2.21 1.84-2.09 1.49.66.08 1.61 0 2.48-.24 1.95-.47 3.91-.64 5.87-.12 1.34.61 2 1.91 1.86a18.47 18.47 0 004.55-.7 5 5 0 003.15-4.58 42.24 42.24 0 00-.46-5.91c-.09-1.27-.11-2.55-.09-3.83 0-.16.43-.45.65-.44a.81.81 0 01.59.52c.27 1.19.48 2.39.67 3.6.42 2.78.8 3.19 3.49 3.59a4.57 4.57 0 001.28 0c1.29-.19 1 .71 1 1.42a.48.48 0 01-.08.28c-.81 1.5-1.25 3.12.53 4.07s4.71-.2 5.61-1.8a12.59 12.59 0 001.08-7.1c-.13-.84.06-1.73 0-2.58a18.11 18.11 0 00-.62-2.32c-.17-.65-2.11-.15-1-1.5a6 6 0 011.91 1.15 2.46 2.46 0 01.9 1.53c-.14 3.93 1 8-1.16 11.73-1.52 2.66-6.16 3.83-8.4 1.94-1.31-1.12-.4-2.62-.68-3.91-.13-.6.47-1.33-.82-1.68-2.62-.71-2.57-.87-3 1.8a7.61 7.61 0 01-7.09 6c-1.87 0-3.89.47-5.2-1.55-.13-.2-.9-.17-1.28 0-.92.37-1.78.89-2.67 1.34-1.37.69-2.36.16-3.34-.87-.48-.52-.33-1.94-1.56-1.45a9.1 9.1 0 00-2.73 1.75c-.53.52-.59 1.5-1.07 2.11-1 1.24-6.09 1.85-7.37.92-.5-.36-1.2-.9-1.23-1.39-.28-3.54 0-7 1.85-10.19 1.12-1.89 3.27-1.48 5-2.12m.48 11.47c1.82-.13 1.13-1.56.58-1.86-2.79-1.56-3.51-4-3.5-6.9a3.08 3.08 0 00-.24-.86c-.22.18-.54.31-.66.55-1.15 2.22-2.39 4.39-2.34 7 .08 3.44 1.17 4.23 4.52 3a6.66 6.66 0 001.64-1m0-3.87c.63.61 1.59 1.47 1.54-.21a22.08 22.08 0 00-1.25-5.21 1.14 1.14 0 00-1-.35 1.38 1.38 0 00-.85.87 5.34 5.34 0 001.59 5.01z"/><path d="M332.07 330.19c0 2.69.05 5.05 0 7.42a5.17 5.17 0 01-6.52 4.85c-.77-.21-2.38-2.85-2.52-4-.56-4.35 1.11-8 3.5-11.46 1.23-1.76 2.66-3.4 3.84-5.2a18.69 18.69 0 001.6-3.52c.1-.27-.17-.69-.27-1.05a3.42 3.42 0 00-.9.59c-1.07 1.37-2.14 2.75-3.14 4.18s-2.48 1.32-3.71.9c-1.4-.48-1-2-.88-3.11.32-3.31 2.5-5.29 5.21-6.8.29-.16.91-.23 1.06-.06 1.18 1.3 2.28 2.66 3.38 4a2.42 2.42 0 01.26.85 6.05 6.05 0 00.68-.55c1.14-1.12 2.22-2.3 3.4-3.37 1.4-1.26 1.48-1.24 2.26.58.66 1.56 1.06 3.24 1.84 4.72a4.21 4.21 0 006.22 1.9 2.31 2.31 0 00.82-.9c-1.35-1.75-.28-3.74-.6-5.57a3.16 3.16 0 010-1c.21-1.68 2-3.62 3.28-3.52 1.07.08 2.12 2.86 1.63 4.44-.6 1.9-.46 4-2.21 5.59-.66.59 0 1.79 1 2.24a13.34 13.34 0 006.56 1.33 10.94 10.94 0 012.56.38c-.69 1.18-1.83.86-2.87.87-2.92 0-5.72-.27-8.11-2.26a2 2 0 00-1.7-.11c-4.66 1.81-8.29-1.19-9.21-6.51-.08-.49-.23-1-.35-1.45a6.87 6.87 0 00-1.31.72 24.35 24.35 0 00-2.72 2.75 5.76 5.76 0 00-1.37 2.63c-.37 3-.49 6.05-.71 9.41m-1.93-6.79c-.91 1.56-1.79 3.13-2.74 4.66-1.82 3-3.65 5.92-3.1 9.67.19 1.31 1.69 3.52 2.72 3.39 1.37-.18 2.87-.47 3.18-2.27.17-1 .48-2 .56-3 .34-4-.64-8 .62-12 .05-.15-.6-.53-1.24-.49m-2.91-8.07a14 14 0 00-1.58 1.6 5.77 5.77 0 00-1.22 4.57c0 .19.48 1.44 1.3.48 1.3-1.5 2.67-3 3.83-4.55a2.48 2.48 0 00.13-2.13c-.42-.86-1.32-.94-2.46 0m21.64 2.9c-.08.88.68 1.42 1 .8a11.82 11.82 0 001.52-6.45c0-.17-.86-.51-.91-.44-.65.78-1.85 1.17-1.66 2.54a30.86 30.86 0 01.05 3.71zM80.08 417.42c.17-.43.23-1.11.53-1.25a8.32 8.32 0 012.09-.4c1.49-.25 3.14-.32 2.67-2.63 0-.14.71-.43 1.09-.65.1.38.4.84.28 1.12-.55 1.34-.4 2.08 1.27 1.87 1.84-.24 3.7.37 5.58-.56a2.39 2.39 0 013.15.75 11.18 11.18 0 01-2.83 1.05 49.89 49.89 0 01-5.47 0c-1.33 0-1.93.58-1.91 1.91v5.8a4.83 4.83 0 01-.22 1.84 6.25 6.25 0 01-1.25 1.44 14.77 14.77 0 01-.17-1.87c0-.27.35-.55.33-.81 0-.82-.17-1.64-.27-2.46-.46.66-1 1.28-1.36 2-1.18 2.1-5.29 4.16-7.72 3.82-.21 0-.56.08-.62 0-1.57-2.52-3.44-2.05-5.48-.65-.21.16-.65-.05-1 0-1.8.51-2.56-1.16-3.83-1.68s-2.7.21-4.08.2c-.29 0-.82-.78-.82-1.2 0-3.34-.68-6.75 1.17-9.93.66-1.12 1.08-2.17 2.59-2.29 1.75-.13 2.19 1.5 3.26 2.27.11.08.07.41 0 .61-.36 2.11-.68 4.22-1.11 6.32-.32 1.51-.43 2.9 1 3.95a2.23 2.23 0 003.11-.19c.21-.18.8-.18.81-.29.08-1 1.59-1.94.28-3.08.75-.45 1.8-.74 2.19-1.41a7.87 7.87 0 00.81-3.19c.12-1.22.06-2.53 1.44-3s2.27.79 3.17 1.65c.31.29.61.6 1.08 1.07.5 2.12 2.39 3.54 2.12 5.74 0 .16.36.51.56.52a.85.85 0 00.69-.41c.37-.91.61-1.87 1-2.78 1.37-3.24 1.39-3.23-2-3.23h-2.13m.32 7.75c1-3.44-1.11-5.76-3-8.09-.69-.86-1.6-.38-1.85.76a23 23 0 01-1 4.07c-.68 1.61-.1 2.3 1.37 2.65a17.9 17.9 0 004.48.61m-15.18-8.72c-1.2-2-1.61-2.05-2.6-.5-1.42 2.24-1.48 4.72-1.23 7.21.07.7.66 1.86 1.1 1.91 1.15.12 1.52-.83 1.44-1.93a11.42 11.42 0 011.29-6.69m11.63 10.34l-2.45-1.44c0 .09-.15.2-.13.26.37 1.1 1.3 1.33 2.58 1.21zM249.21 380.75a10.32 10.32 0 007.59.59c1.78-.52 2.72-1 3-2.94a5.42 5.42 0 012.19-4.23c.58-.35 1.62-.84 1.9-.6.54.46 1.14 1.54.94 2.07a14.12 14.12 0 01-2.44 4.44c-1.09 1.24-.7 1.85.4 2.42a5.9 5.9 0 002.3.64 45.76 45.76 0 004.83 0c2.56-.11 3.82-1.5 4.08-4.05a11.14 11.14 0 011-3.09 1.23 1.23 0 011.06 0c.71 1 1.33.45 1.59-.19.5-1.24 1.1-2.19 2.56-2.35 2.61-.28 4.28 1.07 4.65 4.07a20.54 20.54 0 010 4.83c-.06.52-.86 1-1.32 1.45-.12-.61-.5-1.31-.31-1.8a5.91 5.91 0 00-.75-6.12c-1.19-1.53-2.08-1.65-3.29-.16a23.87 23.87 0 00-3.26 5.08c-1.19 2.62-3.61 3.06-5.85 3.56-1.85.41-3.86.08-5.79.08a4.59 4.59 0 01-3.45-1.8c-.63-.68-1-.62-2.05-.32a16.7 16.7 0 01-11.49-.24 2.28 2.28 0 00-1.72.08 12.73 12.73 0 01-6.36 1c-3.19-.08-4.61-1.2-4.64-4.38a8 8 0 013.82-7.24c2.18-1.34 3.69-.8 5 1.36.64 1.07-.34 1.28-.75 1.77-.08.09-.8-.13-1-.37a19.54 19.54 0 01-1-2.11 17.93 17.93 0 00-2.65 1.4c-1.27.95-2.21 5.33-1.51 6.86a2.16 2.16 0 001 .82c2.31 1.2 6.95.61 8.73-1.08.16-.15.46-.34.44-.46-.6-2.87 2.78-4.64 2.1-7.54a2.13 2.13 0 01.24-1.2c.12-.27.43-.46.66-.69a2.34 2.34 0 01.38.66c.06.42 0 .87 0 1.29.06.61.18 1.21.28 1.82a15.27 15.27 0 011.38-1.29c1.32-.94 2.77-1.72 4-2.78.77-.67.9 0 1.14.3.1.12-.1.7-.32.86a31.38 31.38 0 01-5 3.53c-2.75 1.31-2.38 3.62-2.28 6m12.76-4.64a6.94 6.94 0 00-.32.82c-.19.73-.35 1.48-.53 2.21a22.42 22.42 0 001.8-1.71 2.11 2.11 0 00.62-1.3c-.1-1-.7-.79-1.57-.02zM59.4 362.49a1.86 1.86 0 01-.4 1.22c-.51-.52-1.45-1-1.45-1.57a13.71 13.71 0 01.64-3.89c.27-.95.94-1.79 1.16-2.74a5.89 5.89 0 00-.32-2.06c-.52.42-1.26.73-1.53 1.28a5.28 5.28 0 01-3.59 2.59c-2.66.83-5 .12-6.07-2.36-.68-1.54-1.07-.91-1.67-.21a5.15 5.15 0 00-.91 1.55 3.87 3.87 0 01-4.2 2.88c-1.83-.21-3-1.74-3.62-3.49-.45-1.22-.86-2.44-1.31-3.66a2.31 2.31 0 00-.31-.52c-.11.17-.31.34-.31.51a30.55 30.55 0 00.13 3.17c.08.8.42 1.57.47 2.37a6.23 6.23 0 01-.39 1.7c-.51-.54-1.28-1-1.45-1.64a8.23 8.23 0 01-.06-2.89 7.43 7.43 0 00-2.3-5.82c-1.73-1.87-3-1.79-4.12.48a36.43 36.43 0 00-2 5.63c-.32 1.07-.33 2.23-.73 3.26-.17.45-1 .66-1.48 1-.13-.47-.49-1-.36-1.39.95-2.56.49-5.21.64-7.81 0-.39.42-.76.64-1.13a7.5 7.5 0 01.62.86 8.89 8.89 0 01.38 1c.31-.31.91-.66.87-.91-.28-1.63 1-2.3 1.89-3.09 1.71-1.53 3.46-1.13 4.62.87a5.64 5.64 0 00.5.77c.47.59 1 1.18 1.46 1.77.21-.72.44-1.43.61-2.16.07-.3-.1-.7 0-.95a9.28 9.28 0 011-1.32c.29.41.79.81.83 1.25.12 1.28 0 2.58.06 3.87a10 10 0 002.59 6.09 1.54 1.54 0 002.48.12 11.18 11.18 0 004.09-8 5.31 5.31 0 01.59-1.52 4.33 4.33 0 01.65 1.45c.06 2-.18 3.94 1.48 5.54s3.1 1.94 5.07 1a6 6 0 003.82-5.77v-3.23c0-.32.34-.62.52-.94.25.36.68.69.72 1.06.09 1.07 0 2.15 0 3.23a5.6 5.6 0 00.1 1.89 11.32 11.32 0 001.33 2c.45-.55.93-1.08 1.36-1.64 1.46-1.87 2.88-3.77 4.35-5.62a2.54 2.54 0 011.22-.91c.4-.08.89.26 1.33.42-.21.27-.37.64-.66.81-3 1.8-4.23 4.92-6.07 7.62-.82 1.22 0 1.86.58 2 1.94.42 3.74 2.13 6 .81.28-.17 1 .36 1.48.57l-1.14.67c-2.69 1.49-4.86 0-7-1.37-.73-.48-1.35-.95-1.78 0-.71 1.69-2.45 3.12-1.05 5.3zM39.53 376.87c.13 3.17 1.8 6.45.5 9.83a.91.91 0 000 .63c.12.35.31.68.46 1a4.13 4.13 0 00.81-.67c.91-1.27 1.6-2.63 3.27-3.25 2.16-.8 3.36-.56 4.49 1.41.24.43.43.9.65 1.35.42.82 1 .86 1.26 0 .65-2.14 2.45-3.33 3.8-4.89 1.58-1.83 3.69-2 5.74-1.6.82.17 1.66 1.39 2.05 2.32s.47 2.25 0 2.81c-1.3 1.52.56 2.65.18 4.08-.2.75 2.56 1.56 3.54.88a23.19 23.19 0 002.31-2.24c1.09-1 0-1.83-.08-2.76a14 14 0 011.79-7.3 1.72 1.72 0 012.35-1 2.64 2.64 0 01.91 2.12 26.11 26.11 0 01-1.07 4.41 18.28 18.28 0 01-.9 2.21c-1.1 2.48-.62 3.4 2.12 3.42 1.74 0 3.48-.43 5.23-.57.36 0 .76.41 1.14.62a3 3 0 01-.85.62c-2.93.89-5.92 1.33-8.7-.26-1-.55-1.28-.19-1.83.33a9.07 9.07 0 01-2.14 1.85c-2.82 1.33-5.35-.35-5.83-3.91a12.2 12.2 0 01.26-3.75c.34-1.76-.29-2.84-1.94-2.59a6.51 6.51 0 00-3.26 1.39c-2.46 2.23-4.79 4.53-4.89 8.31a4.1 4.1 0 01-2.55 3.21 13 13 0 01-6.91 1.24c-.27 0-.67-.19-.74-.38a1 1 0 01.25-.83 1.94 1.94 0 011-.69c2.66-.35 4.43-2.07 6.14-3.89 1.4-1.49 1.37-1.8-.31-3.9a2.66 2.66 0 00-3.5 0 11.89 11.89 0 00-3.59 5.29c-.11.28.06.7-.08.94-.6 1-1.27 1.91-1.92 2.87-1.42-1.08-.06-2.12 0-3.19.15-4.09 0-8.18.09-12.27a11.48 11.48 0 01.78-3.12m32.15 6c.21-1.09.45-2.18.63-3.28 0-.26-.16-.57-.24-.85-.23.18-.58.32-.66.55-.59 1.69-1.17 3.39-1.63 5.11-.11.4.15 1.25.39 1.32 1 .27.77-.59.89-1.18a13.75 13.75 0 00.62-1.67m-22 9c-1.06-.95-1.4.26-2 .69a21.52 21.52 0 00-1.63 1.54 2.21 2.21 0 002.38-1c.31-.39.63-.67 1.25-1.29zM389.58 345.69c.65-3.5 1.26-6.68 2-9.85.1-.41.66-.71 1-1.07a3.7 3.7 0 01.24 1.18c-.15 1-.44 2-.62 3a48.64 48.64 0 00-1.23 7.22c-.12 3.77 1.11 4.9 4.55 4.78 1.44-.05 1.5-1 1.15-1.6-1.56-2.74.33-4.61 1.48-6.65a2 2 0 012.8-.71 2.44 2.44 0 011.3 3.05 35.23 35.23 0 01-1.71 4.78c-.51 1-.59 1.07.54 1.1 3.46.08 6-1.27 7.5-4.44.47-1 1.05-1.94 1.59-2.9.9-1.6 1.93-1.82 3.35-.77a7.64 7.64 0 012.58 4.1c.15.46.27.93.41 1.4.51-.33 1.19-.53 1.5-1 1.07-1.59 2-3.27 3-4.88a10 10 0 011.86-2.44 2.73 2.73 0 012.23-.66c1.9.81 4 1.41 4.88 3.75.81 2.12 2.26 3.85 1.11 6.55a3.52 3.52 0 01-3.32 2.51c-3.32.21-6.6 0-9.56-1.87a1.56 1.56 0 00-2.06-.07 7.63 7.63 0 01-8.05.82 2.57 2.57 0 00-2.11 0c-1.85 1.5-4 1.07-6 1.11h-5.49c-3.53 0-4.83-1.31-4.88-4.84v-1.62m29.4 2.59c0 .43-.05 1.22 0 1.24 2.92.6 5.73 2.14 8.87.86 2.34-1 2.91-2 1.92-4.18a24.82 24.82 0 01-1.44-2.93c-.56-1.91-2.42-2.09-3.74-2.46-.64-.18-2 1.45-2.71 2.47-1 1.46-1.77 3.11-2.95 5m-4.51-1.26c-.11-.17-.33-.36-.31-.51a2.38 2.38 0 00-1.83-2.59c-.4-.12-1.28 1.27-1.91 2-.12.13-.08.39-.16.57-.39.92-2 1.63-1.18 2.6.55.63 2.1.41 3.21.49a3.49 3.49 0 001.17-.27c1-.27 1.61-.83 1-2.29m-13.25-2.91c-.76-1-1.67-1.5-2.41-.13a7.19 7.19 0 00-.8 5.5c.09.3.45.51.68.77.2-.19.48-.34.58-.56a49.66 49.66 0 001.96-5.59zM138.07 119.06a46.16 46.16 0 014.8 2.94c1.79 1.46 1.54 3-.44 4a6.63 6.63 0 01-2.62.66 15.69 15.69 0 01-8.56-1.9c-.26-.15-.69-.18-.79-.39-.44-.85-.78-1.76-1.16-2.64.82.24 1.88.24 2.39.77 1.77 1.87 4 1.61 6.15 1.61h2.58c.86 0 1.46-.11 2.19-.17a15.55 15.55 0 00-1.9-1.74 14 14 0 00-3.41-1.86c-1.88-.59-2.08-2.06-2.28-3.56s.83-2.27 2.08-3.06a12.89 12.89 0 015.38-1.79c3.29-.43 4.81 1.39 4.18 4.24a3.89 3.89 0 00.29 1.48l1.1-1.09a8.87 8.87 0 011.85-1.78c.92-.49 1.83-1.53 3-.8a3.13 3.13 0 011.41 3.59c-.09.47-.51.88-.6 1.35a2.58 2.58 0 002.5 3.21c1.64 0 3.26.4 5-.51 1.41-.75 1.73-1.17 1.24-2.77-1-3.24.17-6.23 2-8.92.75-1.12 1.11-1.16 1.7.49 1 2.83.25 5.19-.78 7.63s-.22 4 2.71 4.12c1 .06 1.94 0 2.9 0 .31 0 .58.38.87.59-.27.22-.55.66-.8.64a25.58 25.58 0 01-5.84-.71 4.12 4.12 0 00-3.66.2c-2.29 1.1-5 1.8-7.36-.07-1.22-1-2.11-.93-2.89.21s-2 1-3.14 1.06c-1.67.09-2.15-.72-2.19-2.3a59 59 0 00-.65-7.15 2 2 0 00-2.53-1.48 23.58 23.58 0 00-5 1.9c-2.11 1-2 2.14.31 4m14.7-2.75a1.2 1.2 0 00.22-.23v-.21c-1.17-.41-2.26-.44-3.05.72a27.28 27.28 0 00-2.41 3.8 2.42 2.42 0 00.57 2.11c.66.67 1.43.27 2.16-.37a7.3 7.3 0 002.54-5.82m11.95-4.84c-.43 2.07-.87 4.14-1.26 6.21 0 .15.35.52.55.53s.68-.25.68-.4c-.06-2.23 1.42-4.38-.03-6.34zM114.48 75.77c.85-.59 1.63-1.48 2.19-1.36a6.35 6.35 0 013.38 1.68c.62.71.87 1.56 2 1.46 1.43-.13 3.05.5 4.06-1.14.16-.26.46-.66.67-.64.37 0 1 .28 1 .51.13.84.41 2 0 2.52-1.32 1.6 0 2.92.2 4.32.13 1 2.49 2.3 3.48 2.11 2.24-.41 2.73-1.06 2.86-3.22a52.57 52.57 0 01.68-5.86c.08-.45.83-.8 1.27-1.19a4.31 4.31 0 01.59 1.51c0 2.15.48 4.38-1 6.37a3.67 3.67 0 00-.26 2.12c.19 4.43.54 8.86.58 13.29 0 1.88-.18 3.89-1.78 5.38a6 6 0 01-4.14 1.74 24.51 24.51 0 01-11.45-2 11.19 11.19 0 01-6.39-6.72c-.09-.28.2-.69.31-1 .3.2.74.33.87.6 3.15 6.93 9.4 7.66 15.81 7.67 1.27 0 3.33.1 4.14-1.47a11.83 11.83 0 001.32-4.59 51.13 51.13 0 00-.56-5.86c-.1-1.49.08-3-.06-4.51-.07-.81-.19-1.32-1.65-1-4.24.88-7.1-1.54-6.61-6.75 0-.3.24-.81.16-.85-1.29-.69-4 .57-4.13 1.87-.25 3.2-2 5.13-5.27 5.84-.41.09-.87-.07-1.28 0-2.6.56-4.3-.57-3.68-3s.67-5.44 2.63-7.83M114 85.3c2.82.08 5.25-.56 6.81-3.24.7-1.2.77-1.86-.61-2.62s-3.39-.18-4.35-1.9c-.3.31-.61.59-.88.92-1.54 2-1.28 4.26-1 6.84m3.55-8.72c.15.36.21.86.48 1.06a3.8 3.8 0 001.3.39 3.8 3.8 0 00-.39-1.3c-.2-.27-.7-.33-1.39-.15m18.74 2.58l-.17-.82c-.14 0-.4.1-.4.11.1.35.19.69.6.71zM388.29 310.16a10.21 10.21 0 01-1.13 6c-.46.78-.09 1.28.77 1.09a13.14 13.14 0 003.71-1.15 4 4 0 002.08-3.29c.1-2.36 2.08-3.15 3.63-4.24a1.53 1.53 0 012.56 1.06q1 4.75 1.93 9.53a4 4 0 01-.17 1.21 3.38 3.38 0 01-.9-.66 4.62 4.62 0 01-.83-1.58c-.49-2.29-.89-4.59-1.31-6.89-.09-.51-.1-1-.16-1.55a15.27 15.27 0 00-1.36 1c-1.76 1.65-1.62 4-2.38 6.11a10 10 0 01-1.09 1.73 6.33 6.33 0 00-.83-.64c-.35-.21-.87-.6-1.08-.48-3.44 1.83-7.27 1.19-10.9 1.75-.42.07-1.06.18-1.25 0-.81-.93-1.37-.62-2.06.14-2.43 2.69-5.42 2.3-8.27 1.09-1-.41-1.35-.52-2.07.19-1.7 1.67-3.9 1.27-5.95 1.18-1.2-.06-3-2.58-2.62-3.77.77-2.36 1.06-5 3.09-6.8a2.82 2.82 0 012.5-1 1.66 1.66 0 011.5 2c0 .19.35.39.54.59.24-.25.71-.52.69-.75a14 14 0 011.35-7.21c.19-.4.69-.66 1-1a5.6 5.6 0 01.21 1.2c0 .61.1 1.46-.25 1.8-2 2-.21 4.74-1.55 6.81 1.42 1.7.66 4.68 3 5.69a7.1 7.1 0 004.09.06c2-.45 2.86-2.12 3.14-4.08.18-1.31.4-2.63.66-3.93 0-.21.39-.36.6-.54.22.27.66.56.63.81-.09.9-.43 1.77-.51 2.67-.11 1.22-.59 2.59.75 3.48.72.49 4.34 0 4.74-.65a1.69 1.69 0 00.15-1.47c-1.52-2.26.52-3.77 1.16-5.52.32-.86 1.32-.93 2.15 0m-25.85 2.26a8.81 8.81 0 00-2 6.22c.08 1 .41 1.79 1.3 1.8a12.69 12.69 0 003.86-.64c.73-.24 1.29-1 1.93-1.51a10.57 10.57 0 01-1.23-1.37 6.17 6.17 0 01-.65-1.64 14 14 0 00-.74-2.88c-.44-.82-1.26-1.57-2.5 0m24.63 1.32v-1.26a6.25 6.25 0 00-.18-.86 5.17 5.17 0 00-.45.79 11.55 11.55 0 00-.63 1.94c-.05.28.24.62.38.93a3.26 3.26 0 00.88-1.54zM489.09 601.57a8.79 8.79 0 004.68-4.93c.87-2.35 2.16-3.1 3.57-2.83s2.61 2.32 2.75 4.41.43 3.91.61 5.87c0 .19-.26.41-.4.62-.15-.15-.39-.28-.44-.46-.38-1.46-.74-2.93-1.08-4.4-.24-1.09-.46-2.19-.64-3.29-.25-1.48-1.18-.89-1.86-.54-1.46.75-1.74 2.41-1.91 3.68-.24 1.73-.34 2.43-2.42 2-1.2-.24-2.62.83-4 1.12a3.79 3.79 0 01-4.14-1.67c-.61-.86-.84-1-1.43.21-1.13 2.27-5.33 3.24-6.95 2.16s-2.9-3.09-2.39-4.91c.37-1.35-.19-1.65-1.13-1.49a26.3 26.3 0 00-4.32 1.25c-.19.07-.34.84-.21 1.17a17.26 17.26 0 011 7.33 5.88 5.88 0 01-.32 1.14c-.32-.4-1-.94-.91-1.19.8-2.15-.95-4-.72-6 .16-1.37-.66-1.79-1.93-1.86-3.22-.17-3.65-.06-4.47 2.94a25.18 25.18 0 01-6.42 11.57c-.49.48-.73 1.21-1.18 1.75a.88.88 0 01-.86.15.9.9 0 01-.28-.86 8.18 8.18 0 011.36-2 25.07 25.07 0 006.07-10.42 7.48 7.48 0 011-1.84c.44-.69.49-1.1-.48-1.31-.18 0-.32-1.08-.31-1.08 2.84-.82 2.49-3.7 3.62-5.6.72-1.19 1.15-2.55 1.84-3.75.24-.42.88-.61 1.34-.9a6.33 6.33 0 01.7 1.64c.27 2.27.56 4.55.63 6.84 0 1.35.94 1.09 1.51.92a40.24 40.24 0 005.31-2c.67-.32 1.05-.9 1 .34a16.42 16.42 0 01-.42 2.41c-.26 1.08.39 4 1.17 4.12 1.41.23 3.15.58 4.26 0a5 5 0 002.79-4.58 9 9 0 01.63-2.64c.07-.24.35-.42.53-.62.25.32.67.64.69 1s-.56.71-.53 1c.12 1.31-.54 2.66.56 4a4.6 4.6 0 004.55 1.57M465.2 590.3a1.19 1.19 0 00-.2-.3.27.27 0 00-.22 0 46.64 46.64 0 01-2.32 6.07c-.51.93.11 1.35.36 1.34a7.13 7.13 0 002.79-.61c.3-.14.47-1.32.21-1.72-.91-1.3-.56-2.75-.64-4.82zM110.28 156.86c2-.49 3.77-.85 5.58-1.12a4.23 4.23 0 002.39-1.41c1.12-1.09.14-1.9-.09-2.73a4 4 0 00-4.13-3 3.94 3.94 0 00-3.58 2.9 27.7 27.7 0 00-2 10.49 3.72 3.72 0 010 1.6 10.71 10.71 0 01-1.32 1.81 6 6 0 01-.54-1.86c.06-1 .43-2 .57-3 .06-.49.06-1.2-.23-1.46s-1-.16-1.46 0c-6 1.54-8.3-.26-11.23-3.69a2.8 2.8 0 00-3.3-1.19c-1.54.36-3.46 1.94-5.27.34a10.3 10.3 0 00-1.07 1.59c-.29.68-.53 2.09-.59 2.08-1.56-.29-.57-1.52-.66-2.3a2.7 2.7 0 00-1.64-2.26 20.14 20.14 0 01-4.1-4c-.25-.28 0-1 0-1.49a7.44 7.44 0 011.13.76A23.29 23.29 0 0082 152c1.59 1 1.89.72 2-1 .16-2.28.39-4.56.66-6.83 0-.26.5-.47.76-.7.17.22.49.45.48.65-.11 1.56-.28 3.1-.44 4.65 0 .3-.15.59-.18.89-.39 3.47-.36 3.5 3.14 3.5 3.8 0 5.19-1.1 6.55-5.21a1.89 1.89 0 013.13-.95 10.76 10.76 0 012.06 2.68c1.33 2.45 3.39 4.61 3.22 7.72 0 .29.57.9.83.87 1.34-.12 2.81.2 3.09-2a35.55 35.55 0 011.88-6.62 3 3 0 011.19-1.61c4.36-2.3 8.85-.06 9.75 4.69a3.52 3.52 0 01-2.09 3.66 12.9 12.9 0 01-8.09 1.11.25.25 0 010-.22 3.66 3.66 0 01.38-.39M96.55 148c-.32 1.05-.58 2.13-1 3.15-.33.82-1.3 1.69-1.14 2.34s1.24 1.4 1.94 2.08c.53.51 1 1.24 1.66 1.43a25.68 25.68 0 003.85.54 23.92 23.92 0 00-.62-3.48 9 9 0 00-1.32-2 18.85 18.85 0 00-3.37-4.06zM186.21 388.18c3.36 7.09 1.21 12.83-5.63 16.4a7 7 0 01-3.65.5c-1 0-1.44-2.15-1.43-4 0-5 2.19-9.44 3.51-14.08.4-1.38 1-2.11-1-1.95-.31 0-.66-.5-1-.77.33-.16.69-.5 1-.46 2.27.31 2.62-.76 3.06-2.84s.68-3.81-.2-5.63c-.72-1.5-3.6-2.17-4.85-1.14a1.59 1.59 0 00-.26 1.45c1.76 4.55.26 8.45-2.4 12.06-1.11 1.51-2.59 2.73-4.74 2.55a2.77 2.77 0 01-2.59-2.57c-.31-2.87.65-5.45 1.83-8a32.56 32.56 0 011.81-3.13c.47-.75.36-1.13-.57-1.23a4.8 4.8 0 01-1.1-.33c.4-.31.81-.9 1.22-.9a20.53 20.53 0 008.29-1.87c2.63-1.12 4.8 1.39 5.26 4.3.33 2.13.39 4.47-.83 6.39-.59.94-.33 1.31.28 1.83 1.28 1.07 2.56 2.13 4 3.36m-.49 2.1c-1.21-1.43-2.37-2.91-3.66-4.27-.6-.62-1-.32-1.22.55-.44 1.52-1.11 3-1.67 4.46a29.35 29.35 0 00-2.18 11.71c.05 1.45.91 1.38 1.62 1.13a25.45 25.45 0 003.71-1.9 9.45 9.45 0 003.44-11.62m-18.09-1.94a1.53 1.53 0 002.21.39c3-1.62 4.39-4.4 5.15-7.47.38-1.53.95-3.34 0-4.87-.35-.55-1.4-.66-2.13-1 .06.51.13 1 .19 1.52a2.62 2.62 0 01.08.61 9.05 9.05 0 01-.12.91c-.31-.18-.83-.31-.88-.54-.38-1.9-1.19-.84-1.6-.17-1.98 3.18-3.46 6.49-2.95 10.62zM452.26 374.77c.91-2.31 1.78-4.32 2.76-6.27.2-.39.82-.56 1.24-.84a4.78 4.78 0 01.5 1.29c.23 3.53-.2 6.87-3.16 9.32-.87.72-1.81 1.35-2.69 2.06s-.4.59.34 1a51 51 0 014.76 3.34 10.73 10.73 0 014.43 8.72c.08 3.57-.55 7.52-3.33 10.46a23.26 23.26 0 01-2.28 2.27c-4.2 3.34-8.82 2-10.18-2.72a21.87 21.87 0 011.13-16.31c.67-1.33 1.22-2.72 1.81-4.08.23-.52.44-1 .66-1.56-.61-.07-1.37-.39-1.83-.15-2.23 1.14-4.57.37-6.85.59-1.18.12-1.63-.47-2.26-1.56-1.77-3.08-1-6.32-1.18-9.51 0-.17.37-.5.58-.51s.64.26.65.43c.06 1.07 0 2.15.05 3.22a29.88 29.88 0 00.71 5.19 2.76 2.76 0 002 1.39 26.46 26.46 0 004.18.07c1.43 0 .55-.51.28-1-.1-.17.23-.71.5-.9s.62-.06.94 0c1.25.13 2.54 1.49 3.72.21a21.87 21.87 0 002.1-3.31 2.3 2.3 0 00.45-.78m-7.11 18.42v1.61c.2 2.49.25 5 .67 7.47a4.74 4.74 0 008 2.91c3.83-3.29 5.9-7.15 5-12.6-.77-4.95-4.08-7.47-7.6-10-.71-.5-1.76-1-2.31.89-.9 3.13-2.48 6.06-3.77 9.73m7.75-16.8l-.45.45.67.52a10.48 10.48 0 002.35-5c0-.24-.21-.51-.33-.77a2.12 2.12 0 00-.44.46 28.36 28.36 0 00-1.82 4.27zM103.18 121.32c-1.44 1.55-3.11 1.52-4.79 1.44a3 3 0 01-.84-.29c.28-.3.6-.88.86-.86 1.47.12 2.53-.66 3.63-1.42s2.27-2.71 1.94-3.52c-.53-1.35-2.65-2.4-4.51-2.31-1.66.09-2.08 1.11-2.68 2.53-1.44 3.41-.68 7.12-1.81 10.54a2.2 2.2 0 00.31 1.76c.78 1.05 0 1.74-.35 2.53-.12.23-.26.46-.39.69-.22-.23-.54-.42-.66-.7a2.46 2.46 0 01-.23-1.19c.27-2.48-.67-5.07.59-7.5.06-.12-.57-.87-.84-.84a12 12 0 00-3.91.64c-3.36 1.54-6 .42-8.4-1.9a4.61 4.61 0 00-2-1.33c-2.26-.45-2.81.11-3.52 3.11-.15.64-.28 1.29-.41 1.93-1-.59-1-1.58-.87-2.53 0-.27.33-.5.46-.78.5-1.06.09-1.52-1-2a19.45 19.45 0 01-4-2.73c-.45-.38-.53-1.28-.63-2 0-.26.36-.59.56-.88a5.74 5.74 0 01.69.79c.36.59.54 1.41 1.05 1.79a5.12 5.12 0 002.67 1.22c1.76 0 .52-1.46.79-2.22.75-2.06 1.31-4.19 2-6.29a3.73 3.73 0 01.61-1.34 1.61 1.61 0 011.08-.3 1.26 1.26 0 01.22.82c-.13.47-.48.88-.61 1.35-.67 2.42-1.39 4.82-1.92 7.27-.3 1.41 0 1.47 1.44 1a4 4 0 012.31-.35c1.74.31 3.15-.83 4-2.64 1.35-2.83 1.89-2.79 4.19-.42 1.58 1.62 1.84 3.65 1.93 5.74 0 1 0 .9 1.1.89 2.6 0 3.57-1.33 3.77-3.8.16-2 2.19-4 3.64-4.15 3.41-.4 5.38.41 6.31 2.57s0 4-1.76 5.67m-19.55-.48c1.31.21 2.61.47 3.92.61.29 0 .9-.36.88-.51a21.17 21.17 0 00-.67-4.86c-.46-1.38-1.32-1.4-2.33-.24s-1.64 2.52-3.46 2.46a1.71 1.71 0 00-.41 1c.5.52 1.13.84 2.05 1.55zM284.26 336c-2.62-.43-4.9-1-7.21-1.26-2.59-.34-5.2-.46-7.8-.69-.17 0-.33-.21-.49-.32.17-.1.34-.3.52-.3 3.22 0 6.49-.35 9.66.08a57.91 57.91 0 0110.22 2.56 12.78 12.78 0 014.63 2.76c4.23 4 3.28 9.85-2 12.65a13.06 13.06 0 01-9.28 1.52c-2.58-.55-4.8-.94-6.59-3a2.62 2.62 0 00-2-.41 3 3 0 01-1.76 0c-1.13-.39-2 .21-2.09 1.62a6 6 0 01-.5 1.72 9.91 9.91 0 01-.74 1.67c-1.38-.44-.79-1.69-.48-2.28 1.07-2 .45-3.36-1.08-4.68s-1.89-3.3-2.3-5.16a3.43 3.43 0 01.4-2.06c.15-.3.84-.34 1.28-.49 0 .36.12.82-.05 1.08-1.1 1.69.05 2.92.83 4.19a14 14 0 001.47 1.73c.18-.64.41-1.26.54-1.9.45-2.19.81-4.39 1.34-6.55.12-.49.81-.84 1.23-1.25a9.6 9.6 0 01.66 1.47c.63 2.31-.88 4.13-1.47 6.16a20.6 20.6 0 00-.45 2.07c-.16.89.06 1.44 1.15 1.3a9.58 9.58 0 011.93 0c1.48.1 2.17-.54 2.09-2.05-.1-2 1-3.47 2.14-4.9.31-.39 1.17-.78 1.49-.61a2.11 2.11 0 01.85 1.51c.16 1.88.06 3.69-1.38 5.23-1.71 1.84-1.31 3.67 1.07 3.93 3.58.38 7.34 1 10.77-.59a7.31 7.31 0 004.24-6.39 6.78 6.78 0 00-3.76-5.89 30.1 30.1 0 00-7-2.53m-7.11 10l.46.83c.28-.31.69-.58.81-1 .26-.84.38-1.72.56-2.58l-1.6 1.82c-.15.21-.23.29-.31.99zM487.79 306.28a2.61 2.61 0 01-1.14 2.76 5 5 0 00-1.43 4.57 2.35 2.35 0 002.45 2.33c1.64-.06 3.26-.41 4.9-.6a3.22 3.22 0 01.9.16 2.86 2.86 0 01-.41.68c-1.56 1.45-3.53 1.25-5.35 1s-3.67-.88-3.83-3.3c0-.19-.85-.54-.89-.49-.88 1.1-2.51 1.63-2.34 3.55.33 3.56.53 7.14.65 10.71 0 1-.55 2-.59 3-.13 3.31-2.6 4.09-5.1 4.67-3.12.73-5.34-1.09-6.9-3.39a5 5 0 01-.18-4 16.13 16.13 0 013.16-5.12c2.23-2.39 4.79-4.47 7.22-6.68.23-.21.55-.41.66-.69a6.4 6.4 0 00.23-1.32 3.44 3.44 0 00-1.09.3 37.09 37.09 0 01-3 2.24 2.15 2.15 0 01-3.45-1.79c-.18-2.09-.09-4.14 1.27-5.93a30.28 30.28 0 012.51-3.46 3.45 3.45 0 013.36-1.1 2.84 2.84 0 011.84 2.91c0 1.74-.41 3.48-.57 5.22A5.21 5.21 0 00481 314a9.06 9.06 0 01.92-.84 6.78 6.78 0 002.63-4.41 4.35 4.35 0 012.76-3.1c.1 0 .33.2.5.63m-7.75 21c-.21-2.91-.42-5.83-.65-8.74a10 10 0 00-.23-1.19c-.44.17-1 .22-1.31.53-2.23 2.37-4.46 4.77-6.58 7.24a9.1 9.1 0 00-1.38 2.64c-.76 2 0 4.81 1.65 5.13a23 23 0 006 0c.47 0 1.07-.74 1.29-1.28a22.39 22.39 0 001.17-4.34m0-20c-1.18-2-1.19-2-2.47-.76a18.12 18.12 0 00-2 2.07 8.8 8.8 0 00-1.92 5.95c.07 1 .44 1.79 1.74.84 2.12-1.56 4.51-2.84 4.08-6.11-.07-.44.38-.92.55-2.01zM199.13 353.93a2.83 2.83 0 01-2.16-2.85c-.22-4.33 1.58-7.92 3.82-11.35 1.12-1.7 2.24-1.57 3.54 0 .51.63-.17 4-.93 4.39a.65.65 0 01-.53-.22 8.76 8.76 0 01.09-1.25c0-.5.08-1 .13-1.5-.58.17-1.44.16-1.68.54-1.84 3-3.26 6.09-3 9.69 0 .27.63.69 1 .73a5.07 5.07 0 005.41-4.33c.24-1.74.41-3.49.68-5.22 0-.28.45-.51.69-.76.19.3.54.6.55.91 0 2.15.1 4.3 0 6.45a3.39 3.39 0 002.23 3.52c1.51.64 2.65-.25 3.52-1.43a14.58 14.58 0 002.71-8.25c0-1-.72-2.65.59-3 1.69-.51 2 1.51 2.52 2.47 1.43 2.53 3 5.11 2.7 8.25a1 1 0 00.63.78c.68.07 3.19-2.51 3.21-3.23 0-1.4-.07-2.8 0-4.19a7.52 7.52 0 01.65-2.31c.11-.27.59-.38.89-.57.13.26.38.54.35.79-.14 1.54-.31 3.08-.54 4.61a6 6 0 001.25 5.19c1.27 1.35 3.18 1.29 5 .88.48-.11.93-.38 1.41-.45a.8.8 0 01.66.43c.05.25-.14.77-.29.79-1.63.27-3.33.84-4.88.57-1.28-.22-3.06-.39-3.51-2.38-.14-.61-1-1.63-1.67 0-.16.44-.86.76-1.38 1-1.93.77-3.09.06-3.07-2 0-2.89-1.63-5.14-2.62-7.64a1.58 1.58 0 00-.35-.43 8.45 8.45 0 00-.28.85 36.72 36.72 0 00-1.24 5.28c-.18 1.84-1.3 2.93-2.32 4.24a3.63 3.63 0 01-4 1.15c-1.28-.27-2.93-.58-2.81-2.65 0-.35-.63-.74-1-1.12-.3.31-.8.57-.88.92-.39 1.8-1.85 1.95-3.23 2.29a9.56 9.56 0 01-1.86.41zM504 308.22c1.16-1.27 1.86-2.65 2.86-3.77s2.16-1 2.93.73a14.08 14.08 0 01.67 2.63 17 17 0 01.61 2.95c.08 1.71.85 2.33 2.43 1.83 2.12-.68 3.13-2.26 2.37-3.78-1-1.93-1.39-3.8-.26-5.83.45-.81.93-1.41 1.93-1.21a1.55 1.55 0 011.33 1.81 8.66 8.66 0 000 1.61c.07.57.24 1.13.36 1.69.46-.46 1.14-.84 1.33-1.39.42-1.23.54-2.56.91-3.82.14-.45.63-.8 1-1.2.11.39.24.77.31 1.16.23 1.31.48 2.61.63 3.93a3.43 3.43 0 01-.18 1.84c-.81 1.61-.82 3 .68 4.2 1 .75 3.78.76 5-.17a10.85 10.85 0 004.09-10.16 7.22 7.22 0 00-5.45-6.64c-.67-.2-1.33-.41-2-.63-.46-.15-.9-.34-1.35-.51a5.09 5.09 0 011.61-.75c2.65-.16 6.65 2.59 7.72 5.31a12.71 12.71 0 01-3.14 13.84c-2.13 2-4.53 1.73-7 1.18a2.34 2.34 0 01-2-3 6.2 6.2 0 000-1.61 15.17 15.17 0 00-.26-1.5c-.38.34-.73.72-1.14 1-1.19.89-2.62 1.48-2.77 3.34-.05.57-1 1.1-1.53 1.6a4 4 0 01-4.31.93 4 4 0 01-2.26-3.83 27.86 27.86 0 000-3.54c0-.45-.46-.87-.72-1.31-.38.24-.92.38-1.11.73-1.15 2.09-2.19 4.25-3.31 6.36-.53 1-1.15 1.95-1.73 2.92a17.54 17.54 0 01-.16-3.14 4.8 4.8 0 011.9-3.85m12.27-2.91c.46.69-.92 2.05.79 2.16a10.23 10.23 0 00.5-2.11 1.49 1.49 0 000-.63c-.1-.33-.26-.64-.39-1a3.17 3.17 0 00-.94 1.63zM82.66 381.23a16.81 16.81 0 011.6-2.56c.89-1.2 2.21-.73 3.25-.54.43.08.69 1.34.94 2.09.09.25-.1.59-.17.88-.23-.14-.46-.28-.68-.43-1.87-1.18-1.72-1-3.06.69s-.75 3.77-1.83 5.41c-.13.21.33 1.14.67 1.24.74.22 1.83.45 2.33.08a6.81 6.81 0 002.81-4 26.69 26.69 0 011.59-4.09c.11-.26.44-.41.67-.62.09.29.31.6.26.85a24.43 24.43 0 01-.86 3.52c-.5 1.33-.78 2.45.26 3.77a2.63 2.63 0 003.65.87c2.08-1 4.33-1.74 4.11-4.73a2.09 2.09 0 01.59-1.35c1.08-1.17 2.24-2.27 3.37-3.4 2-2 3.9-2.14 6-.25a10.68 10.68 0 013.5 9.46 4 4 0 01-2.59 2.74c-3.69.68-7.22-.18-9.41-3.45-.71-1.06-.75-.78-1.24-.19a9.47 9.47 0 01-4.71 2.78c-1.78.58-3 .41-4-1.3-.68-1.18-1.47-1.17-2.49-.11a7.87 7.87 0 01-2.86 1.6c-1 .36-2.93-1.62-3-3a11.67 11.67 0 011.28-5.93m24.56-1.61c-1-.31-2-1.61-3-.75s-1.8 2.28-2.8 3.32-.59 1.95.31 2.93c1.48 1.6 3.46 2 5.4 2.59.3.1.52.46.77.7-.38.13-.8.44-1.14.37a9.45 9.45 0 01-6-3.38c-.15-.2-.56-.2-.84-.29a2.63 2.63 0 00.17.86 7.3 7.3 0 007.14 3.68c2.61-.12 4-1.7 3.23-4.11a34.62 34.62 0 00-3.22-5.95zM228.69 375.42V379c0 3 0 3 3.19 4.21a2.59 2.59 0 01.58.42c-.18.07-.38.22-.55.21a22.05 22.05 0 00-8.27.55c-2 .57-4.46-1.64-5.28-4a15.34 15.34 0 00-.69-2.3 12.86 12.86 0 00-1.54-1.94c-.55.61-1.33 1.13-1.61 1.84-.58 1.48-.87 3.08-1.35 4.61a6.49 6.49 0 01-.93 1.86c-.88 1.16-1 .51-1-.46s-.47-.81-1.23-.55c-2.08.72-4.06 1.77-6.39 1.74-4.53-.08-7.55-3.41-6.51-7.78a15.9 15.9 0 012.89-6.53c1.39-1.68 2.84-1.67 4.13.19a17.79 17.79 0 011.66 3.18 3.22 3.22 0 01.05 1.72c0 .12-1 .28-1.14.11-.41-.53-1.06-1.54-.86-1.79 1-1.32-.78-1.75-.69-2.7-.72.08-1.77-.1-2.09.3a17.55 17.55 0 00-2.06 3.64 10.48 10.48 0 00-.66 2.3c-.83 3.63 2.76 7 6.62 6 1.72-.43 3.3-1.4 5-1.86 1.93-.53 2.3-2.09 2.52-3.58.39-2.68.46-5.41.71-8.11a4.9 4.9 0 01.51-1.27 6.08 6.08 0 01.74 1.37c.12.5 0 1.07 0 1.6a7.16 7.16 0 00.55 2.34c.16.3 1 .25 1.54.34 1.76.31 2 1.82 2.41 3.14.65 1.94 1.18 3.84 3.37 4.81 2.45 1.1 4.25.16 4.41-2.46a44.86 44.86 0 01.66-4.89c.06-.36.53-.64.81-.95a4.2 4.2 0 01.5 1.11zM103.34 345.69c2.12 2.6 1.61 5.56-.89 7-1.31.77-1.42 1.55-.32 2.42 1.33 1.07 2.92.85 4.47.92a27.29 27.29 0 013.2.51c-.64 1.54-2 .56-3 .76-3.09.63-4.74-.19-6.89-3a4.69 4.69 0 00-1.24-.85 4.67 4.67 0 00-.52 1.26c-.3 3.07-1.83 4.52-4.85 4.55h-1c-1.63.21-3-.92-4.33-1.09-1.13-.15-2.39 1.75-3.77 2.3a3.59 3.59 0 01-4.83-3.41q-.09-3.39 0-6.77a4 4 0 01.62-1.66.91.91 0 01.8-.32c.19 0 .45.4.47.63.05.74.3 1.69 0 2.21-1.27 1.92-.42 3.95-.52 5.9-.08 1.5 1.27 1.75 2.93 1.65s2.25-1.12 3-2 .21-2-.14-3.12a11.38 11.38 0 010-4.16c0-.39.62-.74 1-1.11.31.41.85.8.89 1.24.11 1.38 0 2.79 0 4.18 0 3 2.21 4.86 5.14 4.18 1.23-.29 3-.52 3.17-2.18.17-1.49.72-3.35-1-4.33s-1.12-3-2.06-4.35c-.11-.15.42-1 .81-1.17a1.32 1.32 0 011.25.37c.52 1.29 2 2.07 1.84 3.79 0 .43.83 1 1.28 1.46a6.24 6.24 0 001-1.38c.64-1.8.83-3.87 3.5-4.44m-.32 4.53v-3.22c-.54.93-1.1 1.85-1.62 2.79-.09.16.08.51 0 .61-.68.65-.52 1.25.22 1.54.17.06.71-.91 1.41-1.72m-7.11-1.94c-.09.34-.18.68-.25 1l.4.11a1.57 1.57 0 00-.17-1.1zM129.83 451.66c1.2-3.4 2.39-6.49 4.52-9.09a18.88 18.88 0 015.76-5.16c2.22-1.17 4.68-.37 5.45 1.86.16.47.47.88.67 1.34a2.48 2.48 0 01.11.68 8.36 8.36 0 01-.87-.17c-.06 0-.08-.18-.13-.26-2-2.7-4-3.23-6.3-1.25a25.28 25.28 0 00-7.8 11.89c-.42 1.35.25 3.28 1 4.67s2.34 1.68 3.94 2a17 17 0 008.2 0c1.1-.28 1.6-.7 1.67-1.86.14-2.46-.9-3.75-3.41-4.69a11.54 11.54 0 01-3.79-2.41c-.5-.48-.3-1.68-.41-2.56a6.45 6.45 0 012 .42 14.79 14.79 0 012.7 2c2 1.83 3.58 1.76 4.84-.42.59-1 .65-2.83 2-2.67.88.1 1.65 1.62 2.36 2.58 1.1 1.48 2 3 .89 4.95-.5.89.16 1.41 1.43 1.52a1.21 1.21 0 01.87.64 1 1 0 01-.49.86 11.32 11.32 0 01-3 0c-.49-.09-.32-.73-.31-1.32 0-2.19 1.06-4.57-1-6.63-.57-.58-.51-.88-1-.21s-.71 1.24-1.16 1.77c-1.61 1.83-1.62 1.81-1.14 4.21.7 3.51-.54 5.14-4.69 5.64a21.13 21.13 0 01-8.69-.79c-2.51-.75-4.05-3.7-4.07-7.58m10.66-2.58l1.51.43a3.45 3.45 0 00-.68-.86c-.72-.34-.76-.29-.98.47zM224 224.87c-.52 1.86-2.41 1.88-3.69 1.81a5.34 5.34 0 01-4.49-2.87c-.34-.68 0-2.07-1.24-1.45s-3.4 0-3.29 2.08c.18 3.47-.2 6.91.34 10.44.41 2.66 1.66 5.59.28 8.47a2.81 2.81 0 01-3.42 1.73c-5.33-1-8.52-4.52-10.5-9.27-1.09-2.63-.11-5.07 1.46-7.19a14.85 14.85 0 017.58-5c2.84-.94 2.9-1 2.91-3.85v-3.23c0-.24.5-.45.76-.68.17.22.47.44.47.67 0 1.61.05 3.22 0 4.84 0 1.09.17.69 1 .43a10.52 10.52 0 005.12-3.27 3.08 3.08 0 01.9-.54 2.86 2.86 0 01.12.9 12.84 12.84 0 01-.65 2.32c-.87 2.05-.54 3 1.53 3.67 1.18.39 2.42 1.32 3.68 0 .16-.16.62 0 1.11 0m-13.38 16.46c-.22-4.19-.41-8.39-.66-12.58-.09-1.52-.3-3-.45-4.54-1.59.56-3.19 1.09-4.76 1.69a5.15 5.15 0 00-1.55.91c-2.34 2-4.46 4.22-4.17 7.55.38 4.32 6.07 9.15 10.44 9.27 1.55.04 1.1-.88 1.15-2.3zM473.58 354.74a34.21 34.21 0 01-.65-5.68 3.12 3.12 0 00-.13-.59c-.23.1-.52.14-.67.31-.7.82-1.79 1.21-1.25 2.9s-1.66 2.76-2.69 2.81c-3.79.18-7.74 1.23-11.36-1-1.79-1.12-3-2.83-2.43-3.77.87-1.48 2.09-1.66 4.42-1s4.73 1.07 7.11 1.51c.35.06.79-.37 1.19-.58a3.85 3.85 0 00-.81-.66c-2.45-1.1-4.91-2.17-7.37-3.24a.86.86 0 00-.32 0 2.92 2.92 0 01-2.86-2.38c-.13-.8 1.2-2.14 2.19-2.72 2-1.16 3.68-2.94 6.32-2.68 2.12.22 3.34 1.86 2.59 3.83a11.82 11.82 0 01-.67 1.33c-.12-.46-.27-.92-.36-1.39-.44-2.18-1.65-2.8-3.71-1.79a35.91 35.91 0 00-3.94 2.18c-1.16.76-1 1.81.38 2.32 2.43.91 4.88 1.73 7.32 2.6a5.84 5.84 0 011.62.74c.74.57 1.34 1.73 2.39 1.15a7.54 7.54 0 003-2.51 39.77 39.77 0 002-5.28 13.93 13.93 0 011.19-2.08 1.85 1.85 0 01.45-.38c.09.28.31.59.26.85-.39 1.87-.43 4-1.36 5.55-1.64 2.79-1 5.68-1.22 8.55a1.66 1.66 0 01-.63 1.16m-10.66-1.29a21.62 21.62 0 003.22 0 9.56 9.56 0 002.83-.91c.36-.18.49-.83.73-1.27a3.38 3.38 0 00-1.11-.34 16.9 16.9 0 00-2.12.3 6.14 6.14 0 01-2.12.28c-2.44-.55-4.83-1.29-7.27-1.85-.37-.09-.91.37-1.29.68-.07.06.15.62.34.87 1.59 1.87 3.78 2.26 6.79 2.18zM204 457c-2-2.22-1.76-4.6-1.11-7a41.7 41.7 0 011.85-5 4.6 4.6 0 011.38-2c.45-.31 1.69-.29 1.86 0a8.8 8.8 0 01.64 2.58c-.2-.18-.37-.46-.59-.52a6 6 0 00-1.77-.25c-1.08 3.21-2.86 6.29-2.11 9.9a1.71 1.71 0 002 1.48c3.72-.13 5.88-2.26 6.44-6a4.64 4.64 0 00-.9-3.66c-1.24-1.87-2-4.1-1.07-6.41.42-1 .84-1 1.24 0 .75 1.84 1.32 3.76 2 5.64a7.75 7.75 0 00.35.78c.23-.23.55-.42.66-.7a11.82 11.82 0 01.51-1.72 3.64 3.64 0 011.38-1.32c.15-.08.7.67 1.11 1 .65.49 1.56.78 1.95 1.42.56.89 1.32 2.29 1 3-.83 1.69-.37 3.34-.41 5 0 .59.83 1.72 1.27 1.71 2.18 0 4.5.07 6.48-.66 2.28-.85 3.09-3.14 3.18-5.57a6.91 6.91 0 01.35-1.39 8.76 8.76 0 01.27 1.5c0 2.2.54 4.59-2 5.95a8.38 8.38 0 01-2.67 1.31c-2.24.24-4.59.92-6.74-.42-.56-.34-1.42-.85-1.44-1.31-.09-1.9-.32-3.95.29-5.67.71-2-1.29-1.9-1.61-3l-1.59.86c-1.84 1-2 3-2.2 4.54a6.6 6.6 0 01-2.63 4.73 8.77 8.77 0 01-5.71 1.77A5.44 5.44 0 01204 457m7.91-12.76l.39.26c-.04-.2-.06-.4-.41-.27z"/><path d="M257.12 346.34a6.77 6.77 0 000 1c.19 1.1-.65 2.59.7 3.22 1.53.71 3.18 1.45 5 .78a31.61 31.61 0 013.43-1.06c.34-.09.77.16 1.16.26-.2.22-.36.57-.62.66a34 34 0 01-5.15 1.58c-1.74.3-3.61.24-4.9-1.32-.71-.87-.95-.11-1.39.22-2.93 2.23-6.07 3.19-9.71 1.82-2.45-.93-3.19-1.74-3.4-4.08-.15-1.64-.37-3.28-.67-4.9-.08-.45-.54-.84-.82-1.26-.36.41-.93.78-1 1.26-.32 1.39-.48 2.83-.68 4.25a11.2 11.2 0 01-.38 2.75c-.32.75-1.43 1.95-1.61 1.85-1.18-.61-.22-1.36 0-2.2a60.4 60.4 0 00.74-6.17c.09-.7.38-1.36.49-2.05.24-1.45 1.2-2.17 2.43-1.67a4.15 4.15 0 012.16 2.24 15.44 15.44 0 01.68 4.88c0 3.67 2.92 4.53 6 4.4a1.72 1.72 0 00.07-.74c-.83-3.35.53-6.22 2.16-8.95.92-1.55 3.12-2.41 3.92-1.7a8.32 8.32 0 012 2.69c.21.47-.34 1.29-.54 2.27m-1.94 2.26v-4.48a2.83 2.83 0 01.4-.92 3.32 3.32 0 00-1.24-.07c-1.75.68-4.17 5.55-3.7 7.33s1.24 2.11 2.6.68c.57-.69 1.02-1.5 1.87-2.57zM246.14 216.47a5 5 0 00-1.92 4.17c-.11 2.15 1 3.29 3.15 3.59 1.1.15 2.18.52 3.28.62 3.76.32 3.74.29 3.9-3.38a5.87 5.87 0 011.71-4.44 6.15 6.15 0 011.68-1.14c.69.7 1.68 1.59 1.67 2.41 0 2-.14 4.13-1.88 5.63-.68.59-.65.59.3 1 3.85 1.68 9.27.62 11.63-2.65a7.51 7.51 0 001-2.79 11.25 11.25 0 000-2.25c0-4.33-2-7.05-6.24-8.55-.35-.13-.58-.61-.87-.92.38-.12.78-.38 1.13-.33 3.23.5 6.61 4.51 7.36 7.84.47 2.09-.06 4-.19 5.93-.16 2.29-4.63 5.64-7.15 5.54-2.86-.11-5.92 1-8.55-1.16a1.39 1.39 0 00-1.23-.05c-3.43 1.67-6.6-.12-9.86-.67h-.32c-1.62-.7-2.41-3.84-1.61-6.39.9-2.84 1.86-3.62 4-3.3a1.64 1.64 0 011.56 1.92c0 1.06.14 2.2-1.2 2.58a1.59 1.59 0 01-1.19-.17c-.14-.09.06-.69.08-1.06a4 4 0 00-.28-2m11.63 4.2a9.68 9.68 0 00.61-1.68 3.25 3.25 0 00-.23-1.18c-.45.2-1 .27-1.31.6-1.09 1.27-1.11 2.84-1 4.41 0 .26.26.5.39.75.3-.19.7-.33.87-.6a6.86 6.86 0 00.71-2.28zM79 637.27c-1.24 3.37-2.32 6.58-3.39 9.79a20.76 20.76 0 01-.68 2 .88.88 0 01-.79.31.84.84 0 01-.45-.65 4.59 4.59 0 010-2.22c1.6-3.13 1.37-6.56 1.86-9.88.24-1.64.55-3.25 2-4.33.26-.19.72-.12 1.09-.18 0 .37.07.89-.13 1.08a5.17 5.17 0 00-1.62 4.5c0 .23.25.45.38.67.08-.18.16-.37.25-.54.43-.79.86-1.58 1.3-2.37 1.32-2.4 3-2.67 4.95-.8a4.6 4.6 0 011.54 3.57c0 .28.39.57.59.85.23-.38.66-.77.63-1.13-.17-2.13 1-3.56 2.44-4.81 2.2-1.87 5.68-1.05 7.33 1.39 1.54 2.29 1.4 4.78 1.2 7.23a55.81 55.81 0 01-1.26 6.88c-.06.3-.45.52-.69.78-.19-.3-.59-.63-.55-.89.3-1.9.76-3.78 1-5.68.35-2.36.62-4.7-.66-7a3.88 3.88 0 00-3.67-2 2.91 2.91 0 00-3.17 2c-1 2.44-2 4.82-2 7.58a50.71 50.71 0 01-.63 6.82c0 .35-.52.64-.8.95-.23-.35-.43-.71-.68-1-1.28-1.7.27-3.13.61-4.57.86-3.6-.66-6.6-2-9.6-.72-1.73-2.69-1.09-4 1.25zM146 424.52c-.64-.27-1.75-.8-1.84-1.47a13.41 13.41 0 01.28-4.36 6.06 6.06 0 00-7.17-6.38c-.4.12-.76.73-.93 1.2a16.62 16.62 0 00-.67 2.63c-.78 4.21-.75 4.27-4.25 5.78-1.92.82-4.05 1.21-5.88 2.17-1.24.66-2 .52-2.67-.45-.87-1.32-1.8-.94-2.87-.42-.63.29-1.52.25-2 .69-1.61 1.64-1.94-.31-2.22-.94a3.52 3.52 0 010-2.74 40.24 40.24 0 013.62-5.6c.94-1.22 3.16-1.63 3.87-.74s2.14 2.11.87 3.75c-.27.35-.19 1-.25 1.49-.14 1.09-.28 2.18-.41 3.27a17.18 17.18 0 003.67-.14 9.61 9.61 0 003.49-1.66c1.09-.86 2.48-1.57 2.47-3.44 0-.9 1-1.77 1.15-2.7.18-1.43.58-3.08 1.73-3.37 1.52-.39 3.29.13 4.94.35a5.15 5.15 0 013.95 3.41c.69 1.53 1.64 3.11.57 5.17a4.17 4.17 0 00.5 4.5M122.08 419c.14-.79.33-1.58.42-2.37a14.27 14.27 0 000-1.73c-.57.08-1.3 0-1.7.28-2.1 1.6-2.91 4-3.86 6.36-.1.23 0 .81.17.83a1.46 1.46 0 001.06-.14c1.22-.9 2.39-1.9 3.91-3.23zM164.08 80.78c.11-2.55 1.37-4.32 2.55-6s3-1.55 3.91.58a16.6 16.6 0 011.26 4c.54 3.35 2.51 4.42 5.84 3.12 1.46-.57 2.21-1.39 2-3a4.33 4.33 0 01.08-2.21c.28-.62 1-1 1.54-1.55a7.19 7.19 0 01.26 1.81 23.28 23.28 0 01-.59 3 2.8 2.8 0 002.78 3.47h1.62c2.58 0 2.6-.18 2.14-2.84a5.21 5.21 0 01.57-2.89 7.91 7.91 0 011.73-1.85 20.82 20.82 0 01.78 2.26 3.92 3.92 0 010 1.6c-.69 3.42-.45 3.84 2.78 4.36.63.1 1.29 0 1.93 0 .16 0 .3.22.45.33l-.52.3a4.61 4.61 0 01-3.85.45 20.6 20.6 0 00-4.75-.44 5.76 5.76 0 01-6.29-1.49 1.89 1.89 0 00-1.7-.38 8.88 8.88 0 01-6.34.12c-.68-.19-1.59.56-2.41.8-1.46.44-2.88 1.38-4.42.06a3.63 3.63 0 01-1.35-3.64m1.29 1c.2 2.15 1.86 1.64 3.11 1.58 1.44-.06 1.54-1.22 1.4-2.32s-.4-2.18-.64-3.26c-.17-.72-.41-1.42-.61-2.13-.64.52-1.52.92-1.87 1.59a19.2 19.2 0 00-1.39 4.53zM82.66 601.57v4.84a1.63 1.63 0 00.51.94c.06.07.69-.18.73-.35.53-2.47 2.62-1.74 3.84-1.41 1 .28 2 1.67 2.6 2.79 1.33 2.55.5 5.39.67 8.11 0 .18-.34.53-.55.55s-.66-.23-.69-.4c-.14-.94-1.19-1.63-.38-2.85 1.17-1.76 0-3.64-.4-5.36-.2-.73-1.5-1.37-2.42-1.64-1.4-.41-2.19.78-2.6 1.81-1 2.49-1.79 5.07-2.62 7.63a11.13 11.13 0 00-.62 2.64c-.08 1.1-.85.87-1.35.73a1.28 1.28 0 01-.58-1.13 29.39 29.39 0 011.25-3.35c1.92-4.53 1.16-9.31 1.28-14 0-.92-.38-1-1.19-.64-3.3 1.63-6.66 3.16-10 4.82a12.46 12.46 0 01-15.38-2.85 6.17 6.17 0 01-.85-2.23c0-.1.55-.53.63-.48.76.49 1.74.9 2.15 1.62a8.76 8.76 0 009.78 3.76c4.08-1.14 7.65-3.37 11.47-5.06a19.82 19.82 0 011.82-1c1.7-.57 2.49.11 2.9 2.51zM406.54 311.61a32.34 32.34 0 001.72-4.35c.2-.72.45-1.73-1.06-1.65-2.15.1-4.3.05-6.45 0-.28 0-.56-.4-.83-.62.28-.21.55-.6.84-.61 2-.05 4.08-.05 6.12 0 1.31 0 2.55.12 2.86-1.68.07-.38 1-.61 1.5-.9.1.49.47 1.17.27 1.45-1.76 2.49.49 1.58 1.45 1.77.39.08.77.2 1.16.31-.39.32-.78.66-1.18 1a.49.49 0 01-.32 0c-2.71-.64-3.44 1.06-4 3.22a19.35 19.35 0 00-1 5.09 3.39 3.39 0 002.42 3.51c1.61.69 2.71-.14 3.76-.89 2.43-1.74 2.67-4.66 3.56-7.22a30.29 30.29 0 011.31-3.64c.86-1.73 2.52-2 3.66-.52a14.72 14.72 0 013.4 8.24c.18 4.75-1.5 6.41-6.22 6.43a8.25 8.25 0 01-4.78-.94 2.5 2.5 0 00-1.93.05 4.43 4.43 0 01-4.36-.66c-1.42-1-2.47-2.28-2.1-4.28.17-.94 0-1.93.19-3.06m15.67 6.95c1.72-.38 2.28-1.47 2.3-3.2 0-2.89-1.25-5.26-2.64-7.61a8.89 8.89 0 00-1.35-1.47 7.93 7.93 0 00-1.19 1.62c-.72 1.74-1.28 3.55-2 5.3-.58 1.47-1.36 2.88-1.86 4.38-.23.7-.46 1.78 1.06 1.64a49.12 49.12 0 005.69-.71zM491.83 371.06c1-.22 2.2-.62 2.51-.25a6.7 6.7 0 011.17 3 5.52 5.52 0 01-.05 3.18 1.85 1.85 0 00.88 2.66c4.4 1.94 9 1.25 9.56-4.06a11.89 11.89 0 01.67-3.26c.7-1.67.14-2.15-1.48-2.1s-3.22 0-4.83 0c-.29 0-.56-.4-.84-.62.28-.21.55-.61.84-.62 1.71-.05 3.44-.08 5.15 0 1.48.06 2.29-.27 2.49-2a19.13 19.13 0 011.59-4.47c.09-.24.44-.37.67-.55.08.29.29.6.23.86-.33 1.46-.69 2.92-1.09 4.37-.55 2-.29 2.38 1.67 2.45a5 5 0 011.28 0c.29.1.5.47.74.72-.2.18-.44.55-.6.52-3.56-.68-5.13.73-4.72 4.36 0 .22-.46.49-.47.75-.08 1.61.47 3.71-1.18 4.52-2.57 1.26-5.49 2.09-8.35 1.14-1.74-.57-3.29-1.34-5.1-.43-.25.13-.63 0-.95 0-1.62 0-3.13.1-4.08-1.79s0-3.42.83-4.8 2.18-2.3 3.46-3.58m-3.07 7.59a5.14 5.14 0 00.92.89c2.32 1.28 3.86.41 3.94-2.17 0-1.25.11-2.51.19-3.76a11.9 11.9 0 01.22-1.33c-.58.09-1.36 0-1.71.29-1.71 1.62-3.68 3.1-3.56 6.08zM188.79 338.43c3 .94 3.67 3.58 4.25 5.81.68 2.59.55 5.39.76 8.1a2.05 2.05 0 010 1c-.41.72-.91 1.39-1.38 2.09-.11-.83-.27-1.64-.32-2.47s0-1.9-.05-2.85a23.52 23.52 0 00-.2-3.47 25 25 0 00-1.31-4.94 2.85 2.85 0 00-3.34-1.79 3.57 3.57 0 00-3 2.79c-.62 2.68-.89 5.44-1.36 8.16-.12.68-.45 1.32-.62 2-.22.85-.36 1.71-.54 2.57-1.54-.66-.69-2-.71-3-.06-2.49 0-4.93-1.31-7.23-.66-1.16-1.26-2.17-2.76-2.06s-2.07 1-2.48 2.36c-.83 2.77-2.56 5.26-2.58 8.3 0 .34-.36.72-.63 1a5 5 0 01-.88.6c-.13-.26-.36-.5-.38-.77v-2.25c-.19-2.5-.47-5-.6-7.49a5 5 0 01.64-1.77c.41.53 1.07 1 1.17 1.59a27.37 27.37 0 01.11 3.52c0 .21.26.41.4.61.15-.15.38-.28.44-.46.38-1.13.7-2.29 1.09-3.42.84-2.44 2.28-3.5 4.64-3.1a3.47 3.47 0 013.15 3.35c0 .39.64.73 1 1.08.09-.39.2-.78.27-1.18.51-2.92 1.47-5.56 4.5-6.77a4.12 4.12 0 012.03.09zM454.36 302.56a7.62 7.62 0 011.07-.54c0 2.36.61 4.84-1.45 6.77-.25.24-.27.72-.39 1.08a8.2 8.2 0 001.32-.12 7 7 0 004.77-3.31c1.51-2.5 5.79-1.74 7.5.68 1.49 2.12 1.27 4.34 1.16 6.59 0 .69-.75 1.43-1.31 2-1.43 1.43-5.64 2.23-6.95 1.26-2-1.47-2.26-3.62-1.95-5.89.13-1 .19-.89-.6-.72-3.39.75-5.55 2.31-5.38 6.3.08 1.69-.92 3.44-1.56 5.11-.12.32-.83.42-1.28.63.12-.41.26-.81.36-1.23.65-2.73 1.31-5.47 1.91-8.22.05-.23-.32-.7-.6-.83-1.08-.49-2.24-.82-3.3-1.35a3 3 0 01-1.2-1.26c-.15-.29.1-.78.18-1.18a3.71 3.71 0 011.08.25 9.72 9.72 0 01.93.89c1.58 1.3 3 .9 3.7-1.06s1.22-3.79 2-5.85M466.79 314a7.34 7.34 0 00-.82-6.13 2.62 2.62 0 00-2.85-1.56c-1.1.15-1.28 1.19-1.18 2.23s-.27 1-.94.37c-.12-.13-.64 0-.83.12-.85.71-1 3.49-.51 5 .57 1.66 1.61 2.16 3.32 2a6 6 0 003.81-2.03zM164.56 260.24c-2 2.78-4.65 3-7.48 2.75a2.69 2.69 0 01-2.69-2.77c0-.54.2-1.23 0-1.59a16.91 16.91 0 00-2.05-2.1 16.48 16.48 0 00-.48 2c-.41 3.5-4.6 6.29-7.9 5.09-.67-.24-1.12-1.11-1.66-1.7-.62.59-1.14 1.41-1.88 1.71-2.55 1.06-4.43-.5-4.79-3.25-.46-3.58 1.92-5.37 4-7.38a1.59 1.59 0 011.46.36c.63 1.38 1.06 1.42 1.71 0 .13-.3.68-.4 1-.59a10 10 0 010 1.1c-.33 2.12-1.09 4.22-.4 6.4s1.68 2.67 3.85 1.79a4.88 4.88 0 003.24-4.09c.28-2 .46-4.12.66-6.18a6.76 6.76 0 010-1.28 4.29 4.29 0 01.71-1.08c.18.31.49.6.53.92.09.64 0 1.29 0 1.94.07 1.59.4 2.89 2.15 3.67 1.1.49 2.17 1.32 1.18 3.17-.69 1.27.71 2.46 2.35 2.59 2.41.2 4.38-.36 5.68-2.6.19-.33.85-.4 1.29-.59a9.43 9.43 0 01-.54 1.72m-23.74-.16v-5.18c-.36-.06-.82-.29-1.07-.14-1.58.9-3.12 4.41-2.78 6.15a1.58 1.58 0 002.51 1.15 3.91 3.91 0 001.4-1.99zM549 599.47a3.86 3.86 0 01-3.87 2.74h-3.22c-.53 0-1.31-.15-1.53.12-2.65 3.34-5.94 1.52-9 1.13-1.78-.23-3.51-.85-5.27-1.25a1.77 1.77 0 01-1.55-2 11 11 0 011.16-4.69 90.79 90.79 0 015.34-10.67 12.89 12.89 0 011-1.49 2.74 2.74 0 01.68-.47c.06.3.28.65.18.87-.56 1.27-1.21 2.51-1.81 3.76-1.75 3.68-3.53 7.34-5.2 11.06a1.55 1.55 0 001.08 2.25c3.17.61 6.17 2.09 9.49 2a3.7 3.7 0 003.56-3.56c0-2.06-.23-4.15 1.28-5.92.49-.59.54-1.91 1-2a8.62 8.62 0 013.51-.07 4 4 0 013.23 3.86 29.52 29.52 0 01-.15 4.35m-6.3-5.33a9.9 9.9 0 00-1.12 1.79c-1 2.78.82 5.39 3.42 5a4.07 4.07 0 002.83-3.29c0-.84-.06-2.1-.58-2.44-1.22-.81-2.57-1.72-4.55-1.05m3.87-.65a11.28 11.28 0 00-.72-1s-.32.14-.48.22a1.57 1.57 0 001.31.75zM123.53 254.75c1.2-1 2.23-1.9 3.29-2.74a3.07 3.07 0 013.74-.22 3.64 3.64 0 011.21 4.11c-.22.77-.48 1.53-.7 2.3s-.73 1.64-.54 2.31c1.19 4.19.4 8.44.57 12.66.16 3.92-3.15 6.44-7.09 5.29a18.15 18.15 0 01-4.31-2.06c-2.26-1.4-3.62-5.44-2.78-7.85a.83.83 0 01.4-.46c.43-.19.88-.31 1.33-.46a2.76 2.76 0 01-.08 1.09c-.66 1.24-1.09 2.63-.31 3.8a10.74 10.74 0 003 2.86 11.32 11.32 0 004.09 1.76c2.6.4 4.36-1.22 4.43-3.9.09-3.54 0-7.09 0-10.64a3.14 3.14 0 00-.26-.86 4.94 4.94 0 00-.68.6 5.76 5.76 0 01-5.33 2 2.76 2.76 0 01-2.77-2.71 8.22 8.22 0 012.75-6.83m5.33 4.36c.37-1.45.46-3.07 1.2-4.3s-.43-1.19-.73-1.59a1.62 1.62 0 00-1.48-.16c-2.89 1.28-4.53 3.78-5.7 6.54a3.23 3.23 0 00.56 2.86c.45.46 1.79.07 2.74.07 2.11-.05 2.77-1.44 3.45-3.47zM119.33 386.56c2.64 1 4.52.41 5.69-2.1a33.72 33.72 0 012.24-3.91 17.75 17.75 0 012.32-3.21 3.8 3.8 0 015.44-.21c1.82 1.67 3.77 3.24 4.65 5.79s.71 3.53-1.59 4.78c-2.89 1.57-6 1.28-9.14 1.25-.31 0-.62-.53-.93-.82a3 3 0 01.88-.42c2.48-.24 5-.42 7.46-.67 2.15-.22 2.64-1.53 1.93-3.65s-2.3-3.44-3.78-4.87c-1-1-3.43-.66-4.57.35-1.91 1.68-2.52 4.11-3.6 6.25a5.29 5.29 0 01-5.41 3.24c-2.59-.11-4-1.46-4-4.11a18.14 18.14 0 01.21-4.11c.13-.59.52-.91-.34-.82-1.1.12-2.19.4-3.28.62l-1.13.24c.1-.5 0-1.22.33-1.45a3.23 3.23 0 011.93-.69c2 .09 2.86-1 3.32-2.69a4.82 4.82 0 01.67-1.12 8.72 8.72 0 01.84 1.27 2.31 2.31 0 010 .95c0 1.32.4.45 1 .33 1.82-.35 3.78.39 5.53-.7a.57.57 0 01.51.24c0 .27.06.78-.07.83a11 11 0 01-2.55.82c-.95.14-2-.15-2.88.08-1.08.27-2.42.45-2.21 2.26.1.84-.51 1.74-.56 2.63-.07 1.21-.45 2.6 1.09 3.62zM178.29 222.28c.08-1.65-.23-2.7-1.86-2.57-1.16.1-1.48 1-1 2.59 1 3.52-.82 6.37-4.53 7.09a25.7 25.7 0 01-3 .62 2.3 2.3 0 01-2.51-2.26 8.49 8.49 0 012.49-7.67c.54-.52 1-1.09 1.6-1.59 1.41-1.27 2.27-1.37 3.78-.21.72.55 1.12 1.14 2.09.26.42-.38 1.47-.26 2.17-.11 1.43.31 2.88 1 3.52-1.12 0-.13.63-.24.81-.12a.87.87 0 01.28.81c-.3.84-.77 1.62-1 2.47-.64 1.95.08 3.35 2 4.41 2.48 1.34 5.21 1.58 7.93 1.91.84.11 1.7 0 2.52.18.31.06.53.57.79.87a4.53 4.53 0 01-.87.25c-3.68.33-7.18-.86-10.76-1.33a2.44 2.44 0 01-1.42-1.17c-.7-1.13-1.22-2.39-2.06-.11-.1.27-.59.66-.65.62-.35-.23-.91-.59-.89-.87.07-.88.36-1.75.56-2.95m-4.84 3.88c.1-.17.21-.34.32-.51a4 4 0 000-4.27c-.8-1.64-1.8-.64-2.8-.43-.19.05-.46-.49-.71-.51a1.35 1.35 0 00-1.07.31c-1.41 1.86-2.7 3.8-2.52 6.29 0 .37.47 1 .7 1 2.06-.04 4.35.75 6.09-1.88zM116.75 646.64a2.81 2.81 0 01.61-.36c0 .3.25.72.13.86-.77.84-3 1.31-3.68.73-1.19-1-.93-2-.23-3.32s1.46-2.84.28-4.32a6.81 6.81 0 00-1.35-1c-.26.43-.7.85-.74 1.3-.23 2.53-1.64 4.34-3.35 6.05a2.28 2.28 0 01-3.31.35c-.56-.4-1.17-1.32-1.54-1.22-.63.17-1 1.07-1.64 1.47a8.43 8.43 0 01-2.88 1.39c-.65.11-1.85-2.84-1.5-3.79 1.24-3.36 1.76-7 3.82-10 1.16-1.72.83-1.57 2.37-.27 2.24 1.91 1.55 4.14 1.3 6.4a11.44 11.44 0 00-.36 2.4c.09.76.41 1.89.94 2.1a2.27 2.27 0 002.83-.76 14.38 14.38 0 002.59-6.34 19.81 19.81 0 00-.22-3.74 3.49 3.49 0 01.41-1.14c.31.18.88.38.88.55-.11 2.83 1.93 4.45 3.53 6.29 1 1.21-.06 2.24-.06 3.35a2.86 2.86 0 01-.69 1.63c-1.6 1.87 0 1.54 1 1.57a1.8 1.8 0 00.81-.16m-13.41-5.33v-4.51a3.91 3.91 0 00-.2-.87c-.3.22-.76.39-.89.69-1.17 2.73-2.31 5.47-3.4 8.23a1.91 1.91 0 000 1.27 6.39 6.39 0 00.87 1.25c.3-.26.7-.45.89-.77a35.71 35.71 0 002.78-5.31zM200.42 75.44a2.78 2.78 0 00-3.2 1.74 9.64 9.64 0 00.05 4.68c.14.63 1.37 1.21 2.2 1.44a12.61 12.61 0 002.89.07c1.18 0 1.72-.54 1.78-1.7a11.53 11.53 0 014.17-7.92 2.38 2.38 0 011.9-.64 2.3 2.3 0 011 1.74c.2 3.05-.4 5.82-3.24 7.61-.22.14-.33.44-.5.67.29.08.59.14.88.23 2.86.9 5.82.63 8.75.64h7.41a3.47 3.47 0 01.87.22c-.24.3-.43.78-.74.87a6.43 6.43 0 01-1.86.18c-4 0-8 .2-12 0a8.79 8.79 0 01-2.11-.36c-3.43-1.1-3.49-1.29-7 0-2.24.84-3.59-.16-4.85-1.53s-2-2.64-1.44-4.62a9.28 9.28 0 012.28-4.26 3.89 3.89 0 014.14-.75c1.3.38 2.06 1.93 2.32 3.42 0 .27-.11.82-.2.83a1.56 1.56 0 01-1.08-.22c-.8-.69-1.51-1.47-2.42-2.38m9.53-.8c-2.58.94-3.3 3.44-4.49 5.52a1.79 1.79 0 000 1.55c.27.42.65 1.49 1.56.4 1.68-1.96 3.04-4.07 2.98-7.43zM158.26 210c-4.86 0-8.13-2.63-9-7a5.66 5.66 0 01.35-2c.3.52.64 1 .9 1.56a16.78 16.78 0 01.65 1.66c1.15 3.11 3.88 3.86 6.7 4.28a1.5 1.5 0 001.74-1.5c.06-3.57.38-7.13.6-10.7.07-1 .19-2.07.29-3.11a18.31 18.31 0 01-2.7 1.26c-.89.27-1.72 1.4-2.81.33-.57-.57-.8-2.5-.71-3.77a12.37 12.37 0 012-6.58 15.71 15.71 0 011.41-2c1.08-1.07 2.32-.84 3.51-.15a7.79 7.79 0 012 1.38 3 3 0 01.8 1.89 5.45 5.45 0 01-.76 2.87c-2 2.86-1.68 6.08-1.79 9.28s-.28 6.28-.69 9.39c-.16 1.15-.43 2.72-2.52 2.88m.65-17.76a4.33 4.33 0 002-4.34c-.07-.51.53-1.09.57-1.65 0-.94.24-1.78-1.12-2.43a1.87 1.87 0 00-2.64 1 10.4 10.4 0 00-2 5.88c0 1 .17 2.07.26 3.1a28.3 28.3 0 002.96-1.53zM402.5 372.83c-1.61 4-.18 6.46 3.62 6.45 1.58 0 3.49.34 4.61-.42.82-.54.55-2.65.83-4.05a13.47 13.47 0 012.71-6.28c1.28-1.5 1.77-1.32 2.45.69 1.3 3.82.44 8.29-2.37 10-1.61 1-.63 1.65 0 1.83a35.29 35.29 0 005.14.83c1.43.18 3-.39 4.25.65a5.4 5.4 0 00.65.4c-.18.09-.37.25-.55.24-4.18-.22-8.62 1-12.31-2.2a3.18 3.18 0 00-1.76-.36 16.59 16.59 0 00-3.86 0c-2.19.45-3.52-.74-4.55-2.22a6 6 0 01-.59-5.37 14.18 14.18 0 012.46-3.81c.74-1 1.7-1.76 3.08-1.29a5.15 5.15 0 013.18 3.38 2 2 0 010 1.13c-.2.75-.51 1.47-.77 2.2-.36-.63-1-1.23-1-1.89-.13-1.22-.05-2.7-1.34-3.09-1.62-.48-2.78.45-3.25 2.13-.08.28-.41.48-.63 1m12.6 3.23c1.32-1.74.95-3.77.95-5.72 0-.25-.26-.49-.4-.74-.29.2-.71.34-.85.62a15.51 15.51 0 00-2 5.95c0 .81-1.27 1.7-.17 2.37.31.18 1.44-1 2.16-1.53.08-.03-.01-.36.31-.9z"/><path d="M135.65 190c-.65 2.21-1.24 4.12-2 6-.2.49-.84.84-1.34 1.14-1.27.76-2.39.41-2.45-1-.15-4-.07-8 0-11.94 0-.21.76-.58 1.14-.55s.73.73.65 1c-1.29 3.43-.18 7-.52 10.42 0 .26.4.56.62.84.21-.17.54-.3.63-.52.68-1.76 1.42-3.51 1.92-5.32.57-2 .85-4.17 1.36-6.23a5.13 5.13 0 011-1.47l.93 1.22c1.06 1.4 2 2.86 3.21 4.14a2.76 2.76 0 002.09 1c.5-.11 1-1.2 1.12-1.9.21-1.84 1.4-3 2.61-4.09.94-.87 1.77-.39 2.42.44a4.62 4.62 0 01-1.9 6.95c-1.39.59-1.64 1.58-.42 2.26a12 12 0 003.46 1 15.45 15.45 0 001.93 0c.13 0 .34.32.32.46s-.15.71-.34.78c-2.12.79-6-.62-7.4-2.6-.34-.48-.78-1.1-1.26-1.21-2.91-.62-4.58-2.6-6-5a4.1 4.1 0 00-.89-.81c-.09.4-.19.79-.27 1.19-.22 1.2-.43 2.4-.64 3.92m9.69-2.26c.14 1.42.21 1.51.88 1a6 6 0 002-2c.32-.71.26-2.34 0-2.44a1.56 1.56 0 00-2.2 1.45c-.11.32-.45.75-.66 1.84zM42.6 419.35a6.84 6.84 0 01-.26 2.47c-1.14 2-.06 3.85.4 5.67.32 1.27 2.14 1.87 3.47 1.5.57-.16 1.12-.39 1.69-.59 2.37-.84 2.46-1.39 2-4.09-.59-3.24-.4-6.45 2.23-8.94.5-.48 1.5-1.25 1.7-1.1a3.88 3.88 0 011.65 2.12 15.4 15.4 0 01-1.25 8.48c-.41.88-.78 1.77-1.17 2.66 1.06.29 2.12.6 3.19.86.31.07.65 0 1 0a5.2 5.2 0 01.85.26c-.26.3-.54.88-.8.87-1.31-.06-2.83.1-3.86-.51-1.3-.78-2.17-.88-3.39 0-.61.43-1.56.36-2.27.7-4.21 2-6.69-.29-7-5a47.08 47.08 0 01.61-8.44c.3-2.52.78-5 1.3-7.53.11-.53.73-1 1.11-1.44.44.53 1 .79.52 1.83a13.29 13.29 0 00-1 4.1c-.3 1.94-.47 3.9-.7 6.17m8.4 3.56l1.11 2.77c.49-1 1.06-1.91 1.46-2.91a41 41 0 001.29-3.93 2.79 2.79 0 000-1.57 1.81 1.81 0 00-1-1.08 1.49 1.49 0 00-1.25.67 11 11 0 00-1.63 6zM329.49 609.32c.07.43-.16 1.22-.44 1.24-2 .1-4.09.11-6.13 0a2.19 2.19 0 01-1.58-.75c-1.17-1.91-2.72-1.46-4.52-1.25-1.36.16-2.29.4-2.82 1.69-.13.3-.3.58-.46.88-.28-.42-.89-1.12-.8-1.22 1.65-2-.27-2.51-1.28-3.47-1.52-1.45-3.11-3-2.54-5.33.15-.63-1.78-1.1-.05-1.49 1-.21 1.36.21 1.24 1.21-.26 2.13 1.05 3.5 2.46 4.77a3.82 3.82 0 001.09.47 3.57 3.57 0 00.31-.84c.24-2.28.36-4.57.69-6.83a27.72 27.72 0 011.07-4.07 4.13 4.13 0 01.67-1 5.06 5.06 0 01.77 1.29 2 2 0 01-.29 1.14c-1.44 3.34-1.31 7-2 10.46 0 .15.18.37.32.52.78.86 1.58 0 2.37 0 1.13.09 1.52-.14 1.71-1.48a31.24 31.24 0 011.84-5.67 1.69 1.69 0 011.89-1.29c.8.05 1.41 0 1.37 1.13-.08 2.61.31 5.27-2.15 7.22-.9.72.29 2.54 1.8 2.64 1.72.1 3.44 0 5.49 0m-8.4-4.2c1.28-.81 2.69-3.83 2.23-4.86-.08-.18-.28-.42-.44-.42a.69.69 0 00-.49.37c-.6 1.41-1.67 2.64-1.33 4.94zM323.84 325.83c-2.09.35-3.52-.44-4-2.33a31.32 31.32 0 01-.67-5.22c-.13-1.75-.56-3.13-2.44-3.81-1.61-.57-2.48-.4-3.4 1.07-1.69 2.75-2 5.89-2.58 8.94-.08.4-.2.78-.31 1.17-.3-.3-.87-.59-.87-.88 0-2.13-.62-1.59-1.66-.51a7.59 7.59 0 01-2.71 2c-2.85 1-5.25-1.39-4.73-4.8a37.33 37.33 0 011.89-6c.13-.37.29-.88.59-1a7.49 7.49 0 011.73-.36 7.91 7.91 0 00-.62 1.14 63.14 63.14 0 00-2.25 7.12c-.16.73.77 1.9 1.5 2.49.32.26 1.45-.32 2.12-.69s1.45-1.16 2.27-1.54a2.87 2.87 0 001.74-3.11c-.27-3.27 1.3-5 4.26-6.27 3.68-1.54 5.9.46 6.71 3.95a15.55 15.55 0 010 2.9c.11 3.34.8 4.15 4.14 4.93a5.17 5.17 0 01-.28.64 1.61 1.61 0 00-.43.17zM225 259.27c1.24-2.73 2.2-5.32 1.79-8.2a1.49 1.49 0 01.2-.87 4 4 0 01.67-.7 3.1 3.1 0 01.4.64 32 32 0 003 6.52c.19.34-.41 1-.34 1.54a5.06 5.06 0 00.75 2.56c.6.73 1.42.23 2.19-.31a5.53 5.53 0 012.15-.4c.11 1.25-.85 1.41-1.71 1.8-2.88 1.3-4.67.2-4.71-3a6.16 6.16 0 000-1.29c-.23-1-.54-1.92-.81-2.88l-1.11 2.49c-1.31 2.94-2.75 5.64-6.36 6.46-2.92.66-4.88.06-5.66-2.77a12 12 0 011.64-9.75c.59-.95 1.45-2.29 3-1.61 1.13.47 2.38 3 2.14 4.25a5.27 5.27 0 01-.63 1.34c-.12.23-.26.45-.39.67-.23-.23-.61-.43-.66-.69a17.93 17.93 0 00-.29-2.47c-.16-.51-.77-.87-1.18-1.29a9.09 9.09 0 01-.8 1c-2.15 2.05-2 4.73-1.8 7.3.19 2.3 1.93 3.07 4.33 2.49 1.74-.31 2.84-1.49 4.19-2.83zM87.83 253.3c1.77-1 1.82.15 2 1.39.18 1.63-.65 3.39.62 4.89a3.13 3.13 0 01.33.82 3.5 3.5 0 00.31-.83c.24-2.17.43-4.34.67-6.5a5.52 5.52 0 01.41-1.76c.12-.26.63-1.14.88.05a6.19 6.19 0 00.68 2.28 10.38 10.38 0 002.67 2.81c.51.33 1.44.38 2-1.09.71-2 1.09-4.52 3.61-5.57.88-.38 1-.59 1.47.48 1.65 3.56.7 6.41-3 7.49-1.06.32-1 .38-.7 1.38.86 2.59 3.32 2.3 5.12 3.18.35.17.88-.07 1.27.05a4.58 4.58 0 011.09.7c-.31.19-.63.56-.91.54-3.26-.34-6.49-.91-8.09-4.26-.47-1-.85-1.59-2-1.53-.32 0-.74.13-1 0-.73-.56-1.39-1.22-2.07-1.83a21.57 21.57 0 00-.83 3.82 3.34 3.34 0 01-1.2 2.76c-.76.62-1.2.89-1.46-.39-.36-1.87-.85-3.72-1.27-5.59-.23-1-.43-2-.65-3.27m14.86-1.62c-2.15.49-2.29 2.33-2.71 4a2.88 2.88 0 01-.37.69 2.43 2.43 0 00.87.1c2.18-.65 2.57-2.24 2.26-4.81zM78 46.05c-.83.05-1.49.45-2.16.45-6.56 0-13.13.24-19.68-.08-2.33-.12-4.6.14-6.89.12-2.48 0-5-.11-7.42 0a17.91 17.91 0 00-5.45.85c-1 .38-1-.23-1.41-.44.3-.36.56-1 .93-1a24.46 24.46 0 014.24-.67c5.51-.27 11-.57 16.52-.62 3.24 0 6.49.46 9.74.57 1.53 0 3.16.46 4.58-.6a.77.77 0 01.63 0c2.3.92 4.6-.07 6.89 0s4.74 0 7.1 0a1.55 1.55 0 01.91.54c.06.06-.23.68-.38.69-2.68.14-5.35.24-8.15.19zM469.54 367.18c0 1.51.86 2.43 1.51 3.48.82 1.34 1.62 2.46.76 4.45-1.28 2.95 0 5.19 2.71 6.75a7.78 7.78 0 011 .82c-.55.16-1.16.57-1.62.43a5.1 5.1 0 01-3.53-5.21 29.88 29.88 0 01.51-4 1.74 1.74 0 00-2.42-2.1 10 10 0 01-1.14.36c-.92.13-2.28-.11-2.67.4s-.17 1.86-.11 2.82a9.36 9.36 0 01-1.28 5.93 2.32 2.32 0 01-2 1.23c-4.89.5-5.21-2.24-4-6.6.39-1.41 1.58-2.61 1.95-4 .49-1.91 2.3-1.77 3.42-2.66a.72.72 0 01.66.07 6.51 6.51 0 01.92.9c1.06 1.14 2.38.84 3.47.32s.76-1.76.53-2.79 0-1.16 1.33-.6m-6.3 11.14v-5.45c0-.45-.31-1.27-.44-1.26a2.58 2.58 0 00-1.67.52 8 8 0 00-1.71 2.48c-.56 1.37-1.85 2.63-1.28 4.25a4.58 4.58 0 001.81 2.27c.38.23 1.45-.49 2.06-1a13.82 13.82 0 001.23-1.81zM200.42 186.26a13.37 13.37 0 00-.77 3.12 6.66 6.66 0 00.46 2.05 9.92 9.92 0 00.46 1.13c-.51-.08-1.16 0-1.48-.28a2.77 2.77 0 01-.74-1.59 12.14 12.14 0 01.81-5.77c.6-1.61.19-2.59-1.42-2.64a31.33 31.33 0 00-5.52.63c-.13 0-.34.75-.22 1 1.14 2.56.08 5-1.35 6.71s-4.12 2.16-6.54 1.88c-1.87-.22-2.77-2.05-2.16-4 .83-2.63 1.64-5.18 4.48-6.51.82-.38 1.3-.68 1.8.11a20.36 20.36 0 011.05 2.15c-.27 0-.6.11-.79 0-1.82-1.08-2.53-1-3.55.67a18.32 18.32 0 00-1.46 3.57c-.46 1.38.37 3 1.47 2.63 1.68-.51 3.88-.14 4.89-2.13.74-1.45 1.95-2.71.83-4.7-.49-.88-.1-2.27-1.27-3-.13-.08-.06-.57 0-.84a.62.62 0 01.52-.19c2.05 1.95 4.43.49 6.62.58 4.35.21 4.78.65 3.88 5.42zM278.28 253.78a1.49 1.49 0 00.17-.48 3.46 3.46 0 013.15-2.3c.79 0 1.71 2.92 1.34 4.18a9.79 9.79 0 01-1.63 3.81c-1.64 1.77-.24 1.35.77 1.37a3.4 3.4 0 011 0 .89.89 0 01.54.57.84.84 0 01-.43.67c-1.84.39-3.63-1.44-4.88-1.06-1.79.55-3.68.38-4.56-.37a5.45 5.45 0 01-1.75-5 3.73 3.73 0 00-.2-1.2c-.3.24-.72.41-.89.72-.75 1.3-1.41 2.65-2.13 4a9.19 9.19 0 01-.76 1 5.13 5.13 0 01-.5-1.29c-.36-3.88 1-7.47 1.94-11.13.05-.21.41-.34.63-.51.22.29.65.62.6.84-.35 1.56-.86 3.09-1.21 4.65a4.42 4.42 0 00.17 1.51 5.69 5.69 0 00.9-.7c1-1.13 1.73-1.41 2.13.41.17.79.4 1.56.64 2.32a13.53 13.53 0 00.92 2.52c.66 1.2 1.91.73 2.89.65.29 0 .58-1.07.68-1.68.19-1.12.24-2.27.51-3.57m1.13.81a21.91 21.91 0 00-.3 2.42 14 14 0 00.3 2.1c.54-.63 1.32-1.17 1.56-1.89a14 14 0 00.67-3.86c0-1-.67-.93-1.21-.39-.38.4-.47.93-1.06 1.69zM496.84 312.09a6.68 6.68 0 01-.49 2.05c-.15.29-.68.37-1 .54a4.78 4.78 0 01-.37-1.39c0-.35.47-.65.6-1 .91-2.75.73-2.58-1.67-4.86a11.3 11.3 0 01-3.46-6.9 26.51 26.51 0 010-4.18c0-.35.2-.87.46-1a1.48 1.48 0 011.2.09c.16.1.14.73 0 1.05-1.4 3.76.27 6.8 2.38 9.62 1.15 1.53 1.76 1.29 2.37-.81.53-1.83.89-3.71 1.29-5.58.11-.51-.09-1.13.13-1.56s.78-.62 1.2-.92c.2.4.61.8.58 1.18a16.38 16.38 0 01-.55 2.33c-.46 2-.94 3.92-1.33 5.89-.17.86.24 1 1.1.82a6.85 6.85 0 005.38-5.37 29.65 29.65 0 011.57-4.17c.11-.27.44-.44.67-.66.1.28.34.58.29.83a43.18 43.18 0 01-1.06 4.39c-.3.94-1.09 1.74-1.3 2.68-.61 2.86-3 3.38-5.16 3.6-1.77.19-2.47.54-2.19 2.33 0 .18-.42.45-.64 1zM125.31 231.33h-1c-5.14 0-6.65-2.24-5.1-7.22 1.23-3.94 2.76-7.82 2.85-12 0-.25.23-.49.35-.73.23.23.64.44.66.69a12.14 12.14 0 010 3.66c-.84 3.18-2.17 6.24-2.84 9.44-.79 3.83.39 5.37 4.57 4.88a7 7 0 002.86-.85c.53-.33 2-.15 1.09-2-.78-1.57.5-3.66 1.73-5.18.49-.6 1.77-.09 1.86.79a7.78 7.78 0 01-.71 4.53c-1 1.95-.88 2.08 1.16 2.11h5.48a6.18 6.18 0 011.17.27c-.41.23-.82.63-1.25.66-2.42.16-5 .82-7.22.16-1.57-.47-2.45.11-3.63.39-.59.13-1.17.3-2.07.45m5.17-6.79a4.12 4.12 0 010 .61c-.05.34-.13.67-.2 1 .28-.19.79-.35.81-.56a1 1 0 00-.57-1.1zM164.08 227.45a20.6 20.6 0 00.65 2.63c.19.59.9 1.27-.14 1.6-.21.07-1-.77-1.07-1.28-.54-2.38-.84-4.8-1.41-7.16A4.65 4.65 0 00157 220c-2.37.38-3.17 1.51-3.32 4.31a54.56 54.56 0 01-.68 5.85c-.06.38-.86 1-1.12.92-.56-.19-.36-.66-.26-1.32a10 10 0 00-1.9-7.81c-1-1.37-1.66-1.25-2.46.34a12.23 12.23 0 00-.67 2.3 16.13 16.13 0 01-.68 2.61c-.32.74 1 2.17-.83 2.12a6 6 0 01-.39-2.54 24.71 24.71 0 01.73-4.85c.68-2.48 3.16-3 5-1.21.46.44 1.1.86 1.26 1.4.54 1.94.84-.17 1.25 0 0-2.36 1.72-3.28 3.55-3.57 2.29-.35 4.7.06 6.1 2.17a13.73 13.73 0 011.39 4.24 12.54 12.54 0 01.11 2.49zM123.21 644.05c.46-2 .76-3.78 1.06-5.59 0-.22.17-.59.08-.66-.72-.54-3.39.56-3.56 1.44v.32c-.12.69-.25 1.38-.37 2.07-.44-.24-1.21-.43-1.25-.73a3.9 3.9 0 01.19-2.56c.69-.94 1.4-2 3-2 1.35.07 2.37-.61 2.33-2.41a24.81 24.81 0 01.63-5.2c.09-.47.69-.83 1.05-1.24a4.77 4.77 0 01.51 1.78c-.22 1.7-.64 3.38-1 5.07-.2 1.05.12 1.43 1.33 1.47 4.65.16 5.83 2.06 4.7 6.6-.35 1.42-1.21 3-.26 4.57.13.2-.22.7-.35 1.06-.3-.19-.72-.32-.88-.59a3.32 3.32 0 01-.48-3.19 21.93 21.93 0 001.08-3.74c.21-1-1.36-2.81-2.73-3.31-1.92-.69-2.92 0-3.07 2.11-.17 2.44-.43 4.88-1.84 7a6.74 6.74 0 01-2 2c-.49.3-1.29.09-2 .11.44-.44.8-1.14 1.32-1.28 1.7-.43 2.03-1.64 2.51-3.1zM146.15 82.55a3.42 3.42 0 01-.6-1.26 12.79 12.79 0 010-1.75 4 4 0 011.5.15c.42.23 1.19.65.3 1.38-.12.09.18 1.05.5 1.24 3 1.8 6.09 3.66 9.84 2.5 1-.32 1.89 1.12 3-.08.47-.51 1-.63.46-1.29a12.44 12.44 0 00-2.15-2.22c-1.32-.88-2.79-1.55-4.2-2.31-3-1.59-3.15-2.31-.81-4.45a16.6 16.6 0 013.79-2.5 2.69 2.69 0 013.7 1.41 15 15 0 01.64 3.28c0 .27-.35.59-.54.89a5.08 5.08 0 01-.7-.77c-.09-.15 0-.44 0-.63-1.21-3.66-2-3.89-5.2-1.46-.34.26-.59.64-.92.9-1.23 1-1 1.41.42 2a44.46 44.46 0 015.77 3.19c2.25 1.41 2.54 4 .7 5.35a1.69 1.69 0 01-.78.43c-5.26.18-10.44.15-14.72-4zM71.68 182.87c-.22 1.95-.46 3.58-.64 5.22s.29 2.7 2.23 2.57c.31 0 .66.5 1 .77-.45.32-.33 1.43-1.53.67s-1.8 0-1.72 1.44c.1 1.61 0 3.23 0 4.84a.82.82 0 01-.51.6.87.87 0 01-.74-.36 5.39 5.39 0 01-.4-4.13c1-2.8.72-3.36-2.19-4.11-1.74-.46-3.57-1.84-5.43-.39a1.34 1.34 0 01-2.24-.62c-.18-.45.69-1.91 1-1.89 2.85.18 2.61-2.22 3.41-3.78.48-.93 1.12-1.79 1.68-2.69a19.48 19.48 0 01-.24 3.26 29.39 29.39 0 01-1.36 3.55c1.16.3 2.51.33 3.46 1 1.7 1.15 2.05.14 2.22-1.13.31-2.27.38-4.57.72-6.83a6.24 6.24 0 011.18-2.08 1.46 1.46 0 01.45-.35c.09.28.29.59.24.85-.13 1.08-.38 2.17-.59 3.59zM102.05 85.94a18.89 18.89 0 003.6.58 2.88 2.88 0 002.11-1.24 2.67 2.67 0 00-.61-2.22 18.83 18.83 0 00-2.57-2.29c-.71-.61-1.66-1.11-2.06-1.89a2.93 2.93 0 01-.12-2.54c1.69-2.27 3.86-3.9 7-3.29a3.17 3.17 0 011.57.84 4.92 4.92 0 01.68 1.52 7.56 7.56 0 01-1.26-.46c-2.51-1.41-4.53-.57-6.68 2-.21.25 0 1.19.32 1.49a30.13 30.13 0 003.6 3A3.7 3.7 0 01109 86.2c-.62 1.17-2.59 1.85-4.09 2.27-2.5.7-4.6-.93-6.48-2.13s-3.57-3.34-5.28-5.12a1.47 1.47 0 01-.23-.86 10.84 10.84 0 010-1.14c.38.12 1 .13 1.11.39a13.19 13.19 0 008.02 6.33zM66.51 234.56c-3.66.92-7 2-10.5 1.9a3 3 0 01-2.17-.81c-.55-.86-.14-1.8.39-2.85 1-2 3.06-2.63 4.46-4.06a51.78 51.78 0 004.4-4.75c.75-1 .16-1.87-1.1-1.66-2.12.34-4.71 0-5.79 2.58-.47 1.14-.79.19-.94 0a2.17 2.17 0 011.35-3.2 34.68 34.68 0 016.51-.62c.65 0 1.44.81 1.9 1.45.2.26-.3 1-.45 1.57-.75 2.86-2.94 4.4-5.2 6a36.67 36.67 0 00-4.2 3.89c-.19.18-.34.75-.27.8a1.69 1.69 0 001.06.41c2-.28 4-.64 6-1s4-.67 6.07-.9c.3 0 .67.48 1 .74a4 4 0 01-1 .49 10 10 0 01-1.52.02zM344.19 590.74a46.36 46.36 0 01-1.3 9.23 14 14 0 00-.4 4.94 2.87 2.87 0 01-1.55 2.89c-3.06 1.5-6.24 2.35-9.45.24-1.44-.95-1.91-4-.79-5.43a5.66 5.66 0 019.07-.13c.27.33.53.68.8 1a6.93 6.93 0 00.54-1.26c.69-3.58 1.32-7.17 2-10.75.07-.35.57-.61 1-.76m-7.92 16.64c1.3-.25 3.22.8 3.78-.71s-1.25-2.48-2.23-3.55a5.46 5.46 0 00-.68-.68c-1.67-1.22-4.64-.65-5.46 1.23a3.49 3.49 0 00.28 2.57c.83 1.6 2.41 1.14 4.39 1.17zM109.15 606.09c2.91 1.8 2.87 4.52 2.53 7.13-.41 3.13-5.31 5.11-8.31 3.54-.27-.14-.44-.44-.66-.67a6.47 6.47 0 01.84-.3c1.31-.26 2.63-.12 4-.43a3.36 3.36 0 002.77-2.45 5.33 5.33 0 00-.73-4.75c-1.15-1.57-2.9-1.34-3.65.43-.66 1.56-1.26 3.14-2 4.68-1.24 2.74-6.85 4-8.58.56-.73-1.47-.44-3.51-.41-5.28 0-.62.59-1.25 1-1.84s.74-.79 1.11-.08a.93.93 0 010 .88c-1.62 1.53-.76 3.48-.7 5.17s2.06 2.21 3.76 1.51c2.6-1.08 3.82-3.32 4.5-5.82a3.42 3.42 0 012.9-2.88c.38-.07.86.38 1.63.6zM178.94 425.17c-1.47-1-1.71-2.45-1.92-3.84a52.17 52.17 0 00-.74-5.51 6.46 6.46 0 00-2-2.65c-.17-.15-1.28.49-1.74 1-1.38 1.47-1.47 3.46-2 5.29a37 37 0 01-1.45 4.23 1.36 1.36 0 01-1.06.51 2 2 0 01-.64-1.29 4.3 4.3 0 01.59-1.67c1.44-2.78 1.4-5.88 2-8.86.45-2.35.68-4.8 1.92-6.92a9 9 0 011.55-1.59c.09.78.55 1.95.21 2.29-1.38 1.33-1.45 3.09-2 4.7a9.83 9.83 0 00-.23 2 17 17 0 001.55-.75c1.54-.92 3-.47 4 1.44a11.74 11.74 0 01.88 3.17 66.77 66.77 0 011.08 8.45zM262.45 255.72c2.06 2.9 1.56 4.87-1.48 5.62-2.62.66-5.37 1-7.81-.73a6.22 6.22 0 01-2-2c-.37-.73-.53-2.37-.27-2.49 1.19-.53 1.22.77 1.8 1.4 2.39 2.62 4.48 3.8 7.89 2.36 2.06-.87 2.41-1.92.68-3.31-1.49-1.2-3.18-2.17-4.77-3.26-.59-.41-1.38-.78-1.64-1.36a3.34 3.34 0 01-.11-2.35c.43-1.11 3.7-1.91 5.48-1.44 1.59.42 2 1.9 2.66 3.17.06.13-.27.46-.42.69-.28-.21-.68-.36-.83-.64-.68-1.32-1.59-2.27-3.21-1.92a7.86 7.86 0 00-1.89.87c-1.08.61-.46 1.17.15 1.58 1.87 1.23 3.75 2.43 5.77 3.81zM313.82 372.67c3.79-1.84 5-1.44 6.62 2a14.34 14.34 0 011.26 7.52c-.05.54-.58 1-.89 1.55a11.05 11.05 0 01-.36-1.37c-.24-1.84-.39-3.7-.68-5.53a3.7 3.7 0 00-.8-1.9c-.78-.81-1.77-2-2.64-2s-1.58 1.24-1.81 2.61c-.29 1.7-1.34 3.28-2.09 4.9s-2.38 1.91-3.94 2c-2.22.12-4-.59-4.89-2.88-.85-2.09-.82-2.88.82-4a2.58 2.58 0 01.86-.19c.05.37.28.92.12 1.07-1.16 1.09-1.71 2.05-.22 3.4s2.53 1.71 4.43.87a1.85 1.85 0 001.22-1.39 54.19 54.19 0 012.99-6.66zM568.56 595.75a21.81 21.81 0 013.24 2.25c1.05.89.92 1.83-.1 2.63-.71.57-1.49 1.45-2.26 1.47-3.81.12-7.75.65-11-2-.29-.23-.58-.84-.46-1.1.4-.93.83-.39 1.33 0 2.8 2.47 6.24 1.9 9.53 1.8a2.27 2.27 0 001.6-1.41 2.08 2.08 0 00-1-1.7c-2.29-1.19-4.68-2.18-7-3.29a5 5 0 01-1.74-1.17 1.55 1.55 0 010-1.49 6.57 6.57 0 015.05-2.54 2.7 2.7 0 012.6 1.47c.28.38.27 1.47 0 1.65-.76.49-.78-.27-1.12-.82-.79-1.29-4.35-.81-5 .62-.08.2.37.84.69 1 1.38.55 2.83.94 4.21 1.5.42.21.73.75 1.43 1.13zM142.75 635.17c4.46-.52 5.84.12 7.41 4.51a28.37 28.37 0 011.53 4.82 7.15 7.15 0 01-.6 3.23c-.08.25-1 .46-1.38.32-1.12-.42.13-.66.17-1a16.2 16.2 0 00-1.5-8.41c-1.06-2.52-4.69-3-7-1.12a12.15 12.15 0 00-3.82 5.5c-.39 1.06-.86 2.09-1.29 3.14-1.32-.93-.6-2.29-.58-3.41 0-1.84-.63-3.8.58-5.53a9.11 9.11 0 01.86-1.24.85.85 0 01.83 0 1 1 0 01.23.83c-.38 1.13-.87 2.22-1.25 3.35-.07.22.17.55.27.83.12-.25.24-.51.35-.76a10.53 10.53 0 015.19-5.06zM47.93 121.64c2.34-1.91 4.53-3.64 6.69-5.41a2.9 2.9 0 00.87-1.24 1.72 1.72 0 00-.25-1.16c-.05-.1-.59-.06-.82.06-1.42.73-2.81 1.53-4.24 2.24-.28.13-.72-.07-1.09-.11.06-.29 0-.67.19-.86a7.92 7.92 0 016-2.68c1.43-.06 2.21 1.51 1.33 3a24.94 24.94 0 01-3.41 4c-.32.35-.92.43-1.27.77-1.4 1.33-2.75 2.72-4.12 4.09 1.89.11 3.78.27 5.67.31h7.09c.28 0 .54.42.81.65-.29.2-.57.58-.86.59h-7.74c-.73 0-1.65-.18-2.17.18-1.68 1.18-2.77-.07-3.75-.9-1.19-1 .34-2 .51-3-.01-.08.25-.17.56-.53zM68.45 263c-3.66.92-7 2-10.48 1.93-3.68-.08-5.35-2.76-4.44-6.41a18.62 18.62 0 013.21-6.73c.93-1.24 2.21-2.43 3.75-1.62a5.1 5.1 0 012 3c.21.75.92 2.38-.56 2.64-1 .2-1.31-1-1.31-2.07 0-.24-.6-.56-.55-.7.22-.56 1.47-1.15 0-1.58a2.34 2.34 0 00-1.87.78 17.18 17.18 0 00-4 8c-.42 1.91 3.14 3.93 5.53 3.36 2.74-.67 5.49-1.3 8.26-1.84 1.17-.25 1.49.29.46 1.24zM60.69 160.25a23.14 23.14 0 01-3.28.61c-1.8 0-2.27-.92-1.44-2.65a6.71 6.71 0 011.14-1.77c1.86-1.94 3.77-3.82 5.69-5.71a8 8 0 01.93-.69 4.51 4.51 0 00-1.29-.75 8.64 8.64 0 00-6.62 1.9 4.15 4.15 0 01-1.54.38c.12-.58 0-1.5.39-1.68A18.43 18.43 0 0159 148a10 10 0 013.85 0 3 3 0 012 1.32c.21.42-.27 1.44-.73 1.94-1.75 1.89-3.62 3.67-5.44 5.49-.38.38-.91.7-1.1 1.16a3.84 3.84 0 000 1.5l1.1-.13c2.87-.33 5.74-.68 8.62-1a3.14 3.14 0 011.08.34c-.31.3-.58.82-.92.87-2.11.35-4.28.51-6.77.76zM171.35 260.56c-3.57.71-5-.19-5.28-3.59-.28-3.83-.26-7.7 1.26-11.37.12-.29.49-.47.75-.7.18.32.52.65.49.95-.16 1.53-.09 3.2-.71 4.53-1 2.19-.45 4.38-.46 6.54a3.41 3.41 0 001.61 2.69 3.6 3.6 0 002.94-1.07 9.82 9.82 0 001.78-3.41c.24-.67-.06-1.52.15-2.2.12-.39.77-.62 1.18-.93.22.39.64.79.61 1.16-.13 1.52-.52 3-.58 4.56-.09 2.25 1.18 3.6 3.44 4a4.52 4.52 0 011 .38c-.3.3-.63.87-.91.85a6.56 6.56 0 01-2.3-.63 4.48 4.48 0 01-1.65-1.4c-.94-1.37-1.99-1.16-3.32-.36zM89.77 194.5c-1.59-4.81 2-10.56 6.76-11 1.61-.14 4.41 1.75 4.87 3.29a6.27 6.27 0 01.57 2.31c-.06.54-.81 1-1.25 1.51-.2-.4-.42-.79-.61-1.19a.86.86 0 010-.32c0-1.63-.3-3.2-2.14-3.63a5.29 5.29 0 00-5.66 2.05c-1.62 2.16-1.38 4.57-1.18 6.91.14 1.54 1.79 1.88 3.09 2 2.25.14 4.52 0 6.78.07.35 0 .7.47 1 .72-.32.18-.63.51-1 .51-2.47.05-5 .16-7.42 0a3.81 3.81 0 01-3.81-3.23zM83.31 226.16a22.5 22.5 0 00-.62 2.31c-.18 2.33.91 3.42 3.23 3.52 1.75.07 3.59-.44 5.22.63a5.36 5.36 0 00.53.28c-.14.12-.26.3-.42.36a11.36 11.36 0 01-8.14-.09 4 4 0 01-1.68-2.71c-.88-4.75 2.6-10 7.27-11.33 1.62-.47 2.66.29 3.53 1.43s1.08 3.45.37 4.35a3.25 3.25 0 01-1 .6 5.52 5.52 0 01-.49-1 5.21 5.21 0 010-1 10.31 10.31 0 00-.24-2.37 12.48 12.48 0 00-3.66.17c-2.43.55-2.69 2.97-3.9 4.85zM290.88 258.3c2.42.16 4.68.16 6.94.17a1.71 1.71 0 01.55.22 2 2 0 01-.27.42c-1.16 1-7.26.83-8.47-.09-2-1.49-2.32-3.51-.21-5.93a6.61 6.61 0 017-2.2c1.53.41 1.93.13 2.09-1.38.2-1.85.39-3.7.67-5.53.06-.37.5-.68.76-1 .17.32.51.67.48 1-.26 2.46-.58 4.92-.89 7.37a27.72 27.72 0 01-.49 3c-.09.35-.55.64-.9.85-.07 0-.58-.39-.64-.66-.63-2.58-2.7-2-4.35-1.81a3.94 3.94 0 00-3.26 2.25c-1 1.69-.01 2.27.99 3.32zM85.73 262.18A9.11 9.11 0 0179.9 265a2.05 2.05 0 01-2.34-1.76 16.75 16.75 0 013-11.91 1.66 1.66 0 011.5-.22 8.67 8.67 0 012 1.32c2.74 2.12 3.25 5 1.7 9.77m-6.62-4.36a25.5 25.5 0 00-.24 4.35 2.2 2.2 0 001.59 1.4c2.21.11 4.65-2.32 4.78-4.55 0-.74-.07-1.5 0-2.24.23-1.87-1.34-2.53-2.41-3.41a2.16 2.16 0 00-2 .54c-.73 1.07-1 2.35-1.75 3.89zM224.33 224.87a50.35 50.35 0 01-.13-6.14 5.22 5.22 0 01.68-2 .89.89 0 01.8-.27c.2.06.4.46.41.71 0 1.18.34 2.54-.14 3.48-.75 1.49-.64 2.5.52 3.59a3.32 3.32 0 003.85.38c1.44-.8 3.26-1.81 2.91-4.14a4.18 4.18 0 011.47-3.89c.17-.15.57-.06.86-.08-.07.23-.15.45-.2.68-.29 1.28-.61 2.56-.84 3.85a2.66 2.66 0 002.31 3.13 10.56 10.56 0 011.6 0 12.09 12.09 0 011.88.92 8.58 8.58 0 01-2.41.78 4.71 4.71 0 01-2.59-.67c-1.46-1-2.45-.55-3.87.27-2.3 1.39-4.77 1.07-7.11-.6zM183 255.4a6.78 6.78 0 00-.79 2.15c-.17 2.33.92 3.46 3.24 3.5h1.94c2.24.13 4.06-.51 5.16-2.64.14-.28.57-.41.87-.6.11.35.41.88.29 1a21.1 21.1 0 01-3.4 3.35 7.56 7.56 0 01-3.21.78c-2.09.27-4.05-.2-5.27-2a5.39 5.39 0 01-.32-5.81c1-2 2.21-3.68 4.71-3.79 1.83-.08 3.88 3.3 3 4.91a1.1 1.1 0 01-1 0 5.8 5.8 0 01-.78-1.6c-.87-2.38-1.41-2.57-3.27-1a9.14 9.14 0 00-1.17 1.75zM511.7 595.11c-2.1-.51-3.14.15-3.22 2-.09 2.08.3 4.2-.66 6.18a5.88 5.88 0 01-.75 1.29.92.92 0 01-.83.22c-.2-.09-.42-.65-.33-.76 2.07-2.55.47-5.9 1.87-8.6.07-.14-.46-.79-.81-.9s-1.08 0-1.59-.07c-.3-.07-.53-.44-.79-.67.3-.2.62-.59.89-.56 2.12.25 3.08-.43 3.07-2.77a13 13 0 011.24-4.3 3 3 0 011.15-1.32c.27-.18.8 0 1.21.08-.15.32-.32.62-.44 1-.64 1.67-1.33 3.32-1.88 5-.5 1.51 0 2.22 1.66 2.28 1 0 2 .71 3 .06.2-.12.69.24 1.05.38-.31.29-.56.72-.93.85a19.42 19.42 0 01-2.91.61zM245 258.3a5.5 5.5 0 004.84 2.14c.25 0 .54.41.81.63-.28.21-.55.57-.85.6-1.94.19-3.87 0-5-1.74-.77-1.14-1.37-.4-2-.15s-1.35.9-2.09 1.19c-1.26.49-3.54-.52-3.53-1.75 0-2.16-.68-4.45.59-6.5a9 9 0 011.08-1.24 7.77 7.77 0 01.72 2.2c0 .51-.6 1-.84 1.56-.69 1.65-.42 3.87.49 4.36.72.4 3-.88 3.67-2.25a14 14 0 00.68-2.94 8.44 8.44 0 01.39-1.77 1.39 1.39 0 011-.58c.15 0 .55.58.52.87-.17 1.74-.42 3.47-.48 5.37zM184.11 115c-3.52.59-3.58.82-3.93 3.52a57.25 57.25 0 01-1.55 6.78c-.07.26-.43.46-.66.68-.11-.27-.35-.57-.3-.83.31-1.9.66-3.8 1-5.7.21-1.09.48-2.18.65-3.28 0-.14-.43-.52-.61-.49-.89.15-1.76.43-2.65.6a2.48 2.48 0 01-.89-.18 2.85 2.85 0 01.43-.67c.47-.39 1-1.08 1.48-1 2.09.28 2.44-1.06 2.74-2.57a6.49 6.49 0 01.4-1.45c.39-.85.85-1.67 1.28-2.51 1.59.84-.16 1.87.1 2.47.57 1.33-1.65 2.45-.25 3.38.7.46 2 0 3 0h3.55c.25 0 .47.49.7.75-.22.17-.43.48-.65.49-1.15.06-2.34.01-3.84.01zM49.06 224.22c.86-3 1.84-5.59 2.55-8.28.6-2.24.82-4.59 1.38-6.84a3.28 3.28 0 011.46-1.63c.35-.22 1 0 1.53.08-.25.38-.42.89-.77 1.11-1.58 1-1.2 2.86-1.5 4.2q-1.68 7.33-4 14.46a45.36 45.36 0 01-1.91 4.36 9.12 9.12 0 01-.47.79c-.17-.38-.56-.83-.47-1.13.66-2.28 1.45-4.53 2.2-7.12zM174.25 458a10.24 10.24 0 01-3.37.13c-3.06-.65-4.28-2.51-3.53-5.76.71-3.05 2.21-5.91 1.94-9.18 0-.36.61-.77.94-1.16a3.53 3.53 0 00.47 1.08c1.44 1.54-.31 2.89-.3 4.37 0 1.68-1.13 3.35-1.64 5.05-.82 2.74-.08 3.8 2.76 3.65 1.95-.11 4 .77 5.87-.58.14-.1.55.15.84.24-.12.34-.16.92-.37 1-1.12.36-2.29.64-3.61 1.16zM126.6 356.68c1.31-.18 1.44.48 1.25 1.13a1.28 1.28 0 01-1 .77c-4.2-.43-7.94-2.25-8.08-7.55a17.15 17.15 0 011.94-8.2 6.08 6.08 0 01.93-1.53c.23-.26 1-.47 1.06-.35.29.33.62 1.14.49 1.24-1 .9.17 2.92-1.91 3.48-.64.18-.85 2.1-1.16 3.25a6.56 6.56 0 000 1.6c.02 4.34 1.81 6.13 6.48 6.16zM61.5 174c-.18 3.88-2 7.15-2.94 10.62a48 48 0 01-2.91 6.83c-.21.45-.71.76-1.07 1.13-.08-.58-.37-1.23-.19-1.71.48-1.3 1.32-2.47 1.74-3.78q2.37-7.24 4.53-14.55c.23-.79-.15-1.77.1-2.55.17-.54 1-.89 1.46-1.32a5.11 5.11 0 01.31 1.67A21.46 21.46 0 0161.5 174zM62 72.38c-2.17.21-4 .47-5.86.61-.4 0-.83-.33-1.25-.52.35-.25.67-.63 1.06-.72 2.18-.48 4.35-1 6.55-1.29 5-.71 10-1.3 15-2 .36 0 .66-.49 1-.6s.57.14.85.23c-.11.34-.16 1-.35 1-2.06.5-4.14 1-6.23 1.33-3.49.58-7.06.81-10.77 1.96zM55.52 139.57c-.86 3.08-1.73 5.83-2.58 8.59-.66 2.19-1.28 4.4-1.95 6.59a3.14 3.14 0 01-.69 1.3c-.21.21-.71.12-1.07.16a2.18 2.18 0 01-.09-.86c1.68-5.52 3.39-11 5.09-16.55.12-.38.1-1 .34-1.12.59-.33 1.56-.83 1.9-.59 1 .7-.09 1.18-.49 1.7a2.08 2.08 0 00-.46.78zM210 177.7c.22-2.17.36-4 .7-5.85.09-.48.72-.94 1.22-1.22.28-.16.78.09 1.18.15a5 5 0 01-.2 1.1 18.84 18.84 0 00-1.53 3.54c-.41 2.24-.49 4.53-.72 6.8-.27 2.63-.42 5.28-1.6 7.72-.13.27-.44.45-.67.67-.1-.27-.33-.57-.3-.83q.71-5.66 1.48-11.3c-.02-.17.24-.31.44-.78zM112.55 357.16a8.89 8.89 0 01-1-7.81c.43-1.24.13-2.73.2-4.11a3.06 3.06 0 01.31-.84c.37.15.9.2 1.07.48a2.71 2.71 0 01.5 1.69c-.29 1.35-1.11 2.64-1.17 4a12.6 12.6 0 00.69 5.16c.71 1.75 2.68 1 4 .85.71-.08 1.37-.8 2.23-.29a11.29 11.29 0 01-2.37 1.66c-1.45.55-3.01.91-4.46-.79zM45.83 112.44c.86-2.75 1.74-5.18 2.57-7.61.13-.38 0-.94.17-1.21a11.14 11.14 0 011.55-1.43 9.64 9.64 0 01-.23 2q-2.64 8.07-5.37 16.09a4.82 4.82 0 01-.93 1.22 10.07 10.07 0 01-.33-1.42 3.49 3.49 0 01.11-1.55c.77-1.97 1.63-3.87 2.46-6.09zM180.88 454.25a14.51 14.51 0 00.64 2 3.36 3.36 0 01-.69.19c-.44-.88-1.19-1.8-1.18-2.7a37.7 37.7 0 01.73-8.71c.34-1.36.24-2.66.53-3.95a1.45 1.45 0 01.85-.88c.22-.06.78.37.87.67a15.77 15.77 0 01.78 3.85c0 2.16-.41 1.17-.73 0-.39.36-1.07.69-1.11 1.08-.31 2.72-.48 5.42-.69 8.45zM75.39 263.15c0 .48-.21 1.1-.34 1.09a3.6 3.6 0 01-3.32-3.39c0-3.88.36-7.76.62-11.63a2.93 2.93 0 01.64-1.33.93.93 0 01.74-.37.79.79 0 01.51.58c0 1.05.2 2.25-.24 3.11-1.41 2.78-1 5.7-1 8.59 0 1.39.42 2.87 2.39 3.35zM40.66 85.94a14.35 14.35 0 01-.5 1.94c-.48-.67-1.4-1.38-1.35-2 .15-1.78.92-3.52 1-5.3a64.81 64.81 0 00-.22-7c0-.5-.24-1-.22-1.5a3.29 3.29 0 01.42-1c.28.21.68.36.82.64a4.38 4.38 0 01.63 2c-.25 3 .7 6.08-.55 9.06-.32.79-.03 1.88-.03 3.16zM551.92 593.33c.91-.69 1.64-1.26 2.42-1.74a3.7 3.7 0 011.09-.25c.07.4.3.86.18 1.19a26 26 0 00-1.3 3 17.82 17.82 0 00-.52 4.59c0 .5 1 1.16 1.62 1.4a7.55 7.55 0 002.24.07c.18 0 .35.17.53.26-.14.13-.25.32-.4.36-1.22.34-2.21 1.14-3.75.2-1.2-.72-1.71-1.28-1.63-2.58.06-1.07-.25-2.23.07-3.2.51-1.56.31-2.26-1.44-2.18a4.13 4.13 0 01-1.17-.27c.46-.12.93-.22 1.39-.36a2.44 2.44 0 00.67-.49zM545.79 317.1c.77-.63 1.37-1.1 2-1.57.49 1.11-.52 1.64-.85 2.46-1.89 4.62-5.84 6.54-10.13 8.08a3.07 3.07 0 01-1.09 0c.17-.22.29-.53.51-.67a24.14 24.14 0 012.86-1.66 13 13 0 006.7-6.64zM66.51 78.84c-.22 2.8-.42 5.27-.67 7.75 0 .23-.31.43-.48.65-.26-.23-.74-.45-.76-.69A31.38 31.38 0 0166.14 75c.09-.28.18-.7.38-.77a20.45 20.45 0 012.21-.57c-.22.44-.44.88-.64 1.33-.53 1.18-1.09 2.35-1.58 3.85zM158.42 455.38c.61.59 1 1.35 1.51 1.39 1.7.15 3.42.05 5.14.07a3.92 3.92 0 01.86.23 10 10 0 00-.93.46c-2 1.23-4.13.31-6.19.57-.22 0-.52-.3-.74-.5-1.16-1.1-1.61-6.11-.6-7.37.32-.41 1.07-1 1.31-.86.61.31 1.21.84.4 1.74-1.04 1.15-.99 2.65-.76 4.27zM73 608a34.64 34.64 0 01-1.35 10.1c-.17.61-1 1.07-1.6 1.5-.15.11-.56-.13-.85-.22a2.77 2.77 0 01.31-.45c1.5-1.55 1.49-3.51 1.58-5.49s.38-4.13.64-6.19c0-.36.57-.68.59-1 .08-1.37 1.08-.62 1.67-.79a9.92 9.92 0 01-.33 1.55c-.13.28-.46.47-.66.99zM47.93 144.91c-.16 1-.12 1.86-.18 2.71a2.75 2.75 0 01-.41.89c-.22-.22-.57-.41-.65-.68a6.4 6.4 0 01-.21-1.52 47.83 47.83 0 011.28-8.42 6.36 6.36 0 00.28-.84c.3.26.71.47.87.8a2.1 2.1 0 01.14 1.22c-.29 1.93-.63 3.78-1.12 5.84zM41.15 255.07a12 12 0 01.69-1.1c.07-.07.69.17.73.34a5 5 0 010 1.59c-.41 2.82-.85 5.63-1.29 8.44a2 2 0 01-.26.53c-.22-.19-.59-.34-.65-.57a5.66 5.66 0 01-.34-2.09c.26-2.34.63-4.65 1.12-7.14zM43.25 217.76v-6.38c0-.43.52-.83.8-1.25a4.49 4.49 0 01.43 1.15c.2 2.47-.44 5 .64 7.4a1 1 0 01-.16.83 1.32 1.32 0 01-1-.14 3.62 3.62 0 01-.71-1.61zM440 360.56a8.65 8.65 0 01-.63 1c-.22.57.47 1.75-.87 1.47-.27-.06-.54-1.32-.39-1.92.53-2.11 1.23-4.19 1.91-6.27.1-.3.45-.51.69-.77.19.3.6.64.55.89-.39 1.78-.85 3.52-1.26 5.6zM40 107.91a5.16 5.16 0 01.25-1.82 8.85 8.85 0 011.27-1.41c0 .64.11 1.27.12 1.91 0 1.52.05 3-.06 4.55a7.53 7.53 0 01-.68 1.87 4.93 4.93 0 01-.86-1.56 28.89 28.89 0 01-.04-3.54zM202.84 268.8v1.62a3.25 3.25 0 01-1.23 2.89c-.09.07-.54-.12-.54-.15.1-.88.27-1.75.35-2.63s0-1.92.15-2.85a6.07 6.07 0 01.8-1.92.87.87 0 01.82-.1 1 1 0 01.27.82c-.14.68-.4 1.34-.62 2.32zM50.36 180.93v-5.78c0-.24.49-.46.76-.68.16.21.47.43.48.65v6.41c0 .24-.49.46-.75.69a5 5 0 01-.49-1.29zM129.83 322.43a4.56 4.56 0 01-.83 1.3c-.15-.24-.48-.51-.43-.69.6-2.21 1.26-4.41 1.92-6.6 0-.17.22-.29.34-.43.1.17.28.34.28.52.06 1.97.08 3.94-1.28 5.9zM376.5 299.66a3.44 3.44 0 011.88-.32 6.23 6.23 0 011.51 1.2 13.79 13.79 0 01-1.87.55 8.71 8.71 0 01-1.91 0c-.24 0-.46-.24-.68-.37zM281.51 593a6.7 6.7 0 01-2.36.13c-.68-.13-1.82.71-1.9-.7a3.54 3.54 0 012-.51c.85.14 2.26-.92 2.26 1.08zM182.81 595.11c.31.43.45 1 .24 1.26a8.71 8.71 0 01-1.53 1.29l-.81.68c-.16-.44-.58-1.12-.43-1.28a10 10 0 012.53-1.95zM310.59 303.86c0 1.94-1.91.79-2.54 1.77-.18-.3-.54-.64-.49-.9s.39-.93.69-1a5.94 5.94 0 012.34.13zM197 173.82a18 18 0 01-.45 1.94c-.41-.46-1-.85-1.18-1.38s.19-1 .31-1.5a3.38 3.38 0 011.32.94zM133.55 632.74a2.7 2.7 0 01-.67 1.13c-.37-.35-1-.7-1-1.06a8.22 8.22 0 01.54-2.17c.26.57.52 1.15.79 1.71a2.59 2.59 0 00.34.39zM542.72 306.28c-.63-.3-1.12-.57-1.18-.92s.54-1 .6-1a11.72 11.72 0 012.07 1.17c.13.1.08.63-.05.87-.45.83-.78.2-1.44-.12zM248.56 41.52a14.3 14.3 0 01-1.05-1.07.65.65 0 01-.06-.57c.09-.13.47-.24.55-.17.7.62 1.35 1.29 2 1.95a4.59 4.59 0 01-1.44-.14zM111.09 197.08c1.25 1 .11 1.4-.39 1.91-.07.06-.83-.29-.85-.49-.07-.65-.37-1.6 1.24-1.42zM140 359.1a4.52 4.52 0 01-1.13-1.36c.35-.14.73-.44 1.05-.39 1.73.25.88.95.08 1.75zM172 192.07c1.62-.24 1.16.83 1 1.49 0 .17-1 .12-1.6.17a10.74 10.74 0 01.6-1.66zM494.74 334.55c-.53 0-1 0-1.23-.32s-.47-1.17-.35-1.25c.74-.49 1.1-.18 1.13.71.01.24.4.46.45.86zM156.32 442c.27-.43.58-.68.81-.62a5 5 0 011.13.62 5 5 0 01-1.13.62c-.23.03-.54-.22-.81-.62zM333.53 452.79c-.35-1.4.56-1.17 1.21-1.09.22 0 .38.54.56.83a5.84 5.84 0 01-1.77.26zM238.54 417.25a3.15 3.15 0 011.19-.75l.51 1.32a10.91 10.91 0 01-1.7-.57zM99.46 232.62c.43.27.68.58.62.81a5.24 5.24 0 01-.62 1.13 5.19 5.19 0 01-.61-1.13c-.06-.23.15-.54.61-.81zM180.23 244.9c1.15-.1 1.51.26 1.16 1-.06.15-.79.2-1 0a.92.92 0 01-.16-1zM204.14 207.42a2 2 0 011.29-.32l-1.09 1.49a8.1 8.1 0 01-.2-1.17zM554.35 583.48a2 2 0 01-1.3.32l.19-1.48a3.76 3.76 0 011.11 1.16zM95.42 599.79c.17.36.25.64.15.76a13.2 13.2 0 01-1 .94 1.47 1.47 0 01-.24-.51c-.04-.67-.27-1.53 1.09-1.19zM257.28 592.36c-.48-.5-1.09-.8-.32-1.3a3.9 3.9 0 00.46-.45 4.92 4.92 0 01.32 1.08.73.73 0 01-.46.67zM231.44 206.61a2.63 2.63 0 011-1c0 .58-.09 1.16-.13 1.74zM305.1 367.82a2.07 2.07 0 011.11.57s-.14.32-.22.48a2.77 2.77 0 01-.89-1.05zM223.52 337.94c.22.22.11.43 0 .65-.11-.22-.21-.43 0-.65zM138.88 324.37a1.07 1.07 0 01.22-.55c.46-.89.92-1.77 1.37-2.66.12.16.29.3.33.47.25 1-.86 3.53-1.7 3.94a8 8 0 01-.22-1.2z"/></svg>