<svg xmlns="http://www.w3.org/2000/svg" viewBox="0 0 595.28 497.99"><path d="M177.3 399.79c0 .63-.28 1.36.89 1.43 1.65.09 3.3.69 4.92.6 2.51-.16 5-.73 7.5-1.09a6.78 6.78 0 011.19 0c-.23.38-.38.95-.71 1.1a17.79 17.79 0 01-11.72 1c-1.2-.29-2.76.23-3.67-1.35-.21-.36-1.93-.4-2.43 0-3.43 2.94-7.05 2.08-10.6.6-1.78-.74-2.82-.93-4.65.44-3.34 2.48-7.59 2.13-11 .33a7.63 7.63 0 00-5.47-.86c-2.73.73-5.39.35-8.07.58-1.2.1-2.39.36-3.58.56a3.08 3.08 0 01-3.23-2.12c-.28-2.1-.46-4.2-.72-6.3a5.35 5.35 0 00-.4-1.79c-.85 0-2.09 0-2.48.5a22.92 22.92 0 00-2.62 4.79c-.45 1.08-.38 2.38-.79 3.49-.22.61-1 1-1.46 1.55a4.87 4.87 0 00-.6-1.35c-.26-.3-.84-.67-1.12-.57a12.41 12.41 0 00-2.86 1.45c-2.72 2-6.06.51-9 1.69-.93.38-3-1.91-3-3.11 0-2-.32-4 .64-6 1-2.1 1.74-4.4 2.95-6.39.53-.85 2.18-1.77 3-1.53a2.64 2.64 0 011.79 3.36 4.47 4.47 0 01-.27.59 3.36 3.36 0 00-.43-.71c-1.4-1.36-2.07-1.45-2.93-.05a19.14 19.14 0 00-3.33 9.72c0 1.61.62 2.21 2.23 2.25a23.1 23.1 0 0011.1-2.53c.88-.44 1.36-.72 1.32-1.88-.13-3.23.06-6.47-.09-9.7-.09-1.8.85-3.12 1.39-4.65a1.09 1.09 0 011.85-.53 9.71 9.71 0 011.56 2.35c-.31.08-.8.34-.91.22-1.81-1.8-1.3-.16-1.88.92-.91 1.71-.41 3.34-.55 5a27.35 27.35 0 00.19 3.72c.74-.88 1.44-1.79 2.22-2.64 1.07-1.16 2.26-2.28 4-2.06 1.16.16 2.55 2.86 2.6 4.69v2.42c0 3.17 1.2 4.09 4.26 3.24a1.18 1.18 0 00.56-1 7.2 7.2 0 00-.72-2.81c-1.62-2.59.49-4.26 1.42-6.18.75-1.54 2.46-1.41 3.63-1 .66.25 1.18 1.78 1.2 2.74 0 2.41.67 5-1.2 7.11-.15.18 0 .61 0 .92a2.56 2.56 0 01.74-.3 33.42 33.42 0 013.74-.16c1.79.06 2.4-.76 2.35-2.47-.07-2.11-.4-4.28 1.2-6.09.65-.74 1.08-1.67 1.76-2.37.4-.41 1.25-.87 1.6-.69a2.55 2.55 0 01.95 1.62c.88 3.67.59 7.09-2.31 9.91a.84.84 0 00.2.74 11 11 0 009.72.34c1.66-.75 1.6-2.75 2.13-4.28a39.1 39.1 0 011.35-4c1.67-3.55 5.17-4.27 8.07-1.78a13.14 13.14 0 013.77 5.73c.25.71.42 1.45.72 2.13a.93.93 0 00.78.4.84.84 0 00.56-.62 20.11 20.11 0 000-3.47c-.34-2.41 1.53-3.8 2.53-5.54.62-1.08 2.79-.78 3 .29a32.39 32.39 0 01.66 7.32c-.07 1.26-1.33 2.35-3.19 1.89a5.48 5.48 0 001.91-5.45c-.15-.91-.38-1.81-.57-2.71-.61.68-1.25 1.34-1.81 2.06a6.39 6.39 0 00-.72 1.4 3.93 3.93 0 001 4.87m-8-5.55a15.65 15.65 0 00-2.42-1.68c-1.45-.66-3.32-1.1-4.33.25s-1.33 3.33-1.9 5.05c0 .1.4.43.66.53a20.27 20.27 0 009.08 1.35c.24 0 .69-.88.6-1.23a22.61 22.61 0 00-1.69-4.27m-35.76.35a31.93 31.93 0 000 3.79c.16 1.35 1.35 1.68 2.36.76 1.63-1.49 1.45-3.6 1.68-5.49.07-.62-1-1.38-1.53-2.08a11.71 11.71 0 00-1.44 1.26c-.34.4-.51.94-1.1 1.76m13.54-3.13c-1 2.05-2 4.11-1.72 6.47a5.74 5.74 0 00.39 1.17c.39-.17.94-.24 1.13-.54a12.86 12.86 0 001.88-7.41 4.08 4.08 0 00-1.68.31m21.52 10.42h.34a6.47 6.47 0 00.57-.47c-1.22-.07-2.45-.15-3.67-.2-.07 0-.16.3-.24.46a2.39 2.39 0 00.6.21c.56.09 1.13.07 2.39.07zM378.13 239.59c.29-1.17.32-2.18.55-3.15a4.44 4.44 0 01.89-1.69c.08-.09.76.29 1.15.48v.34c.23 5.68.56 11.37.66 17.06.07 4.09-3.78 9-7.6 10.41a22.42 22.42 0 01-10.88 1.28c-2.29-.32-4.83-.54-6.57-2.48-.3-.33-.31-.93-.45-1.41l1 .51a19.17 19.17 0 009.9 2.09 19.52 19.52 0 009.33-3.43c2.95-1.88 3.23-5.18 3.79-8.12.37-1.9-.28-4-.4-6 0-.46.32-.94.36-1.43a4.5 4.5 0 00-.23-1.16 3.47 3.47 0 00-.93.28c-3 2-6.36 1.6-9.25.27a6.24 6.24 0 00-5.35-.3c-2.17.83-3.19.52-4.2-1.38-.85-1.59-1.4-3.35-2.13-5-.14-.32-.51-.54-.78-.8a3.17 3.17 0 00-.57 1c-.9 5.62-4.86 7.81-9.91 7.31a2.34 2.34 0 01-1.45-.61c-.93-1.06-2-.7-3.1-.6a46.37 46.37 0 01-5.14 0c-1.24 0-2.87-.63-3.65-.06-2.38 1.77-5 1.12-7.49 1.23-2 .09-3.94 0-5.9 0-.68 0-1.52-.17-2 .15-3.69 2.44-7.78.77-11.65 1.19-1.14.12-3.11-1.9-3.16-3.06-.16-3.68-.28-7.38 2.07-10.58.58-.79 1.08-1.81 1.88-2.23 1.55-.8 2.83.28 3.73 2a8.29 8.29 0 01.56 4.6c0 .49-.93.94-1.43 1.4a5 5 0 01-.56-1.36c-.08-1 0-2.08 0-3.12a7.85 7.85 0 00-.4-1.53 5.11 5.11 0 00-1.83.57c-1.78 1.51-2.22 3.69-2.59 5.85a15.06 15.06 0 000 2.77c.05 1.88.8 3.15 2.56 3.25 3.15.16 6.37.46 9.41-.68.88-.33 1.45-.83.77-2.31-1-2.23-1.73-4.79-.26-7.3 1.08-1.85 1.74-2.06 2.81-.29.76 1.27 2 2.6 1 4.48a4.74 4.74 0 00-.27 3c.15.68 1 1.75 1.51 1.73 3.49-.14 7 .71 10.5-.55 1-.35 1.25-.26.85-1.45-.81-2.34-1.82-4.85-1.69-7.23.2-3.54 1.28-7 2.08-10.55.07-.3.77-.47 1.18-.7.22.71 1.82.69 1 2-2.85 4.29-2.93 8.93-1.57 13.68.79 2.75 1.86 3.5 4.48 3.52h1.39c1-.06 2-.15 3-.23a9.12 9.12 0 01-.55-2.44 24.54 24.54 0 01.71-4.91 2.67 2.67 0 012.66-2.16c1.64 0 1.76.94 2.25 2.26a7 7 0 01-1.55 7.89 7.67 7.67 0 00-.53.74 4.45 4.45 0 00.94.23 7.63 7.63 0 008-6.79c0-.34-.13-.78 0-1 .43-.67.88-1.59 1.51-1.78s1.46.46 1.92 1a8.5 8.5 0 011.38 2.53c.34.9.38 1.92.74 2.82a3.37 3.37 0 002.55 2.37c1.15.13 2.87-1.88 3-3.15.06-.69-.19-1.48.06-2.06a10.92 10.92 0 011.58-2.12 10.35 10.35 0 01.43 2c.1 5.17 1.14 6.2 6.36 6.19 2.8 0 2.8 0 3.56-3.29m-31.07-3a1.61 1.61 0 00-.78-2.68c-1.07-.3-1.67.72-1.68 1.91 0 .51-.42 1-.35 1.53.19 1.35.53 2.68.81 4 .55-1.13 1.13-2.26 1.63-3.41a5.89 5.89 0 01.37-1.37m-29.51.35c.23.82.43 1.65.72 2.45.05.15.63.27.64.25.64-1.41 1.16-2.85.41-4.37a3.3 3.3 0 00-.71-.74c-.12.39-.24.79-.37 1.18a4.24 4.24 0 01-.73 1.32zM375 31.64a5.79 5.79 0 011.36-.65c.62-.17.63-1.73 1.71-.78.78.68 1.87 1.51 1.22 2.56-1.19 1.9.61 3.52.15 5.38-.25 1 1.43 1.81 2.52 1a34.45 34.45 0 005-4.44c1.26-1.36 2.12-3.1 3.38-4.47 2-2.2 4.16-1.77 5.69.87a12.72 12.72 0 011.28 8.1 3.74 3.74 0 01-2.12 2.25 12.75 12.75 0 01-9.45 0c-.34-.12-.53-.69-.78-1.06.39 0 .84-.2 1.17-.07a11.22 11.22 0 007.87-.23c1.29-.45 2.41-1.42 2-3.09a31.36 31.36 0 00-1.43-5.3c-.69-1.67-1.85-1.83-3.12-.49s-2.54 3.09-3.76 4.67c-1.7 2.22-3.32 4.42-6.22 5.34-1.52.48-2.18.24-2.85-1.15a12.26 12.26 0 01-1.37-6.39 3.53 3.53 0 00-.37-1.14c-.33.33-.78.6-.95 1a2.82 2.82 0 000 1.36c.36 2.79-1.59 4.92-2.15 7.46-.11.49-.91.84-1.39 1.25a15.53 15.53 0 00-.65-1.64c-.21-.41-.51-1.08-.8-1.09-2-.08-3.93-.17-5.74 1.22-2.26 1.74-4.6 3-7.86 1.66-1.63-.65-4.11-.12-5.84.67a3.83 3.83 0 01-4.09-.67 3.88 3.88 0 00-4.33-.35 58.26 58.26 0 01-6.34 2.27c-3.62 1.13-7.19 1.66-10.35-1.24a6.91 6.91 0 00-1.39-.83 2.25 2.25 0 01-1-3.2c1.73-3.27 1.79-6.79 1.91-10.31.06-2 .09-3.94 0-5.9-.06-1.07-.53-2.11-.62-3.19a4.77 4.77 0 01.53-1.7c.51.39 1.23.69 1.45 1.21a5.63 5.63 0 01.06 2.06v10.4a8.92 8.92 0 00.33 1.6c.33-.32.64-.66 1-1 3.28-2.9 8.7-2.56 11.34.82 1.72 2.21 1.63 4.72.73 7.26a4.1 4.1 0 00-.14.94c.33-.14.65-.28 1-.4h.34c3.45-1.51 3.48-1.51 3.47-5.17 0-1.82.78-3.35 1.31-5 .69-2.18 2.23-1.69 3.55-1.56s1.45 1.45 1.41 2.63a21.71 21.71 0 000 2.42 5.46 5.46 0 01-2.7 5.34c-.41.26-.53 1-.78 1.49a4.79 4.79 0 001.38.53 26.79 26.79 0 003.47 0c3.09-.18 3.73-1.07 4.23-4.11a11.73 11.73 0 014.11-7.28c1.54-1.26 4.4-.13 4.83 1.84a35.16 35.16 0 01.69 4.91c.07.82.16 1.36 1.13 1.18 1.29-.22 2.6-.41 3.87-.73.26-.07.43-.62.58-1 .83-2 1.63-4 2.61-6.11M336 33.21a4.5 4.5 0 01-1 0 5.69 5.69 0 00-5.44 1.8 16.87 16.87 0 00-2.83 5.36c-.32.79-.48 1.91 1.34 2 2 .07 4 .85 6 1.3a4.94 4.94 0 005.7-4.67c.09-2.63-1.06-4.42-3.82-5.77m27.77-.7c-3.21.68-3.61 3.37-4.65 5.87-.77 1.83-.64 2.87.7 4.08s2.06-.52 3.09-.74c1.35-.28 1.48-1 1-2.12-1-2.28-.59-4.52-.14-7.09m-15.28 0c-1.08 2.14-2 4.32-1.72 6.79 0 .29.18.72.39.81a1.12 1.12 0 00.89-.23c1.73-1.39 2.81-5.25 2-7.19-.13-.29-.77-.36-1.52-.18m16.32 5.21a1.29 1.29 0 00.2.26h.23a3.33 3.33 0 00.44-1.15 9.06 9.06 0 00-.26-1.86c0-.09-.3-.12-.46-.17-.06.53-.13 1.07-.19 1.6v1.37m-33.67 6.59a13.94 13.94 0 00-1.71 0 1 1 0 00-.58.42c.25.5 2.2.2 2.29-.49zM146.06 344.25v-1.39c.22-1.51-.06-2.51-1.94-2.1a4 4 0 01-1.38 0 3.09 3.09 0 01-.81-.37 3.36 3.36 0 00.56-.31c1.07-.88 3.15-.21 3.51-2a35.41 35.41 0 00.08-4.5c.16-2.45.43-4.9.69-7.34a1.41 1.41 0 01.44-.85 6.12 6.12 0 011.13-.61c.16.36.51.75.47 1.09-.29 2.41-.64 4.81-1 7.21-.08.54-.32 1.05-.35 1.59-.28 4.07 0 4.28 3.86 3.26 2-.52 4-1 6-1.31.79-.12 1.09-.22 1.31-1.09.17-.67 1.05-1.18 1.64-1.74 1.4-1.32 2.89-1.93 4.7-.69.81.56 2.39.95 2.44 1.52.13 1.47.59 3.05-.62 4.55-1.4 1.73.11 4.75 2.4 5a17 17 0 004.5 0 9.81 9.81 0 002.89-1.34c1.66-.89 0-1.8 0-2.7-.06-4.14-.44-8.33 1.36-12.25a4.2 4.2 0 01.93-1c.15.38.46.79.42 1.15a24.67 24.67 0 01-.7 4.21 13 13 0 00.58 10 3 3 0 001.57 1.69c1.8.83 3.35-.37 4.91-.88 1.39-.45 1.27-1.92 1.35-3.22s-.75-3 .64-4.22c.38-.33.81-.59 1.22-.88.29.57.86 1.17.81 1.71a28.27 28.27 0 01-.8 4.16c-.54 2.27.32 3.57 2.5 3.67.69 0 1.39-.05 2.08 0 .91.09 1.3-.26 1.13-1.15-.49-2.73.86-4.91 2.09-7.12 1.33-2.37 3-2.83 5.17-1.46a5.09 5.09 0 012.23 6.14c-.65 2.27-.3 2.8 1.94 2.88a13 13 0 002.42 0c3-.47 3.44-1 3.52-4.08.06-2.45 2.21-5.73 4.61-6.2a4.11 4.11 0 013.41 1.47c1.64 2.52 3 5.25 3.1 8.42 0 1.33.32 2.65.4 4 0 .31-.29.65-.45 1-.22-.17-.58-.3-.64-.51a13.61 13.61 0 01-.68-3.17 17.71 17.71 0 00-2.19-7.43c-.42-.86-1.23-2.07-2.67-1.77-1.27.26-1.16 1.31-1.49 2.28a17.57 17.57 0 00-1.32 6.05c0 1 .1 1.95-1.46 1.05a4.77 4.77 0 00-2.54-.15c-.86.06-1.72.48-2.57.45-2.26-.08-4.42 0-6.35 1.47a4.82 4.82 0 01-5.1.23 9.6 9.6 0 00-4.8-1c-.46 0-1.14.21-1.36 0-2-2.15-3.77-.65-5.86-.12-1.63.42-3.85 1-5.47-.88-.28-.33-1.43-.16-2.05.1a12.67 12.67 0 01-10.32 0 2.48 2.48 0 00-1.65.18 12.82 12.82 0 01-2.63 1.15 8.65 8.65 0 01-4.16-.24c-1.27-.55-1.67-3.31-1.1-4.84.19-.5.52-.94.72-1.44.31-.76-.1-1.41-.8-1.25-2.76.59-5.51 1.19-8.25 1.86-1.15.29-1.77.57-1.22 2.3s1.21 4.25-.75 6c-.23.22-.49.41-.73.62a3.69 3.69 0 01-.26-1.27c.16-1.07.44-2.12.67-3.53m50.33-3.47a17.89 17.89 0 00-.32 2.61c0 1.91.5 2.34 2.47 2.22a11.77 11.77 0 002.47-.67c1.33-.39 1-1.08.66-2.16-.5-1.67-1.55-3.4-.13-5.3.64-.85-.38-1.3-1.15-1.85-1-.72-1.57-.37-1.92.35-.69 1.43-1.17 3-2.08 4.8m-35.75-3.13c-.48.48-1.17.87-1.38 1.44a22.6 22.6 0 00-.77 3.49 1.93 1.93 0 001.56 2.36 4.21 4.21 0 004.08-4.28 26.2 26.2 0 01.56-3.12 16.55 16.55 0 00-4.05.11m2.43-1.73c.58-.17 1.58-.23 1.66-.53.29-1.11-.68-.83-1.3-.85a4.1 4.1 0 00-1.68 0c-.41.16-.66.73-1 1.12.62.05 1.16.12 2.39.2zM146.58 270.48c3.51-2.66 4.17-2.34 6.72.65 1.41 1.66 1.5 3.59 2.3 5.33.43.93.35 1.28 1.31.41a12.29 12.29 0 018.63-3.45c1.41 0 2.09.62 2.05 2.05a6.6 6.6 0 00.06 2.74c.51 1.18.55 2.93 2.63 2.89 1.72 0 1.7 0 1.51-2a16.47 16.47 0 01.07-5.52c.28-1.13 1.56-2.11 2.61-2.87.17-.13 1.74 1 2.07 1.84a18.31 18.31 0 011.33 5.32c.07.91-.86 1.89-1.31 2.85-.21.47-.37 1-.56 1.43a5.78 5.78 0 001.63.23 29.87 29.87 0 003.87-.69c1-.24 1.34-.94 1.39-2a46.2 46.2 0 01.69-5.61 5 5 0 011-2 2.15 2.15 0 013.85.29 7.57 7.57 0 01-1.31 8.26 8.31 8.31 0 00-.77 1.41c.55-.07 1.1-.12 1.64-.22 1.4-.25 2.8-.5 4.19-.79a2.85 2.85 0 002.53-3 27.45 27.45 0 01.7-4.57 3.06 3.06 0 01.92-1.34 6.39 6.39 0 016.81-1 10.82 10.82 0 016.12 9.54 3.89 3.89 0 010 1.37 10.62 10.62 0 01-1.17 1.63 7.86 7.86 0 01-.85-1.72 5.59 5.59 0 010-2.08c.6-3.44-2.54-6.7-6.61-7.82-1.4-.38-3.65 1.51-3.81 3.07-.26 2.56-.52 5.12-.68 7.69-.07 1.18-.42 1.19-1 .36a2.27 2.27 0 00-2.81-.67c-2.8 1-5.49 2.33-8.3.06-.19-.15-.77.16-1.16.28-3.08 1-6.14 1.92-9.18-.19-.26-.18-.92.23-1.4.35-3.44.85-5.91-1-6-4.58a8.67 8.67 0 00-.07-2.4c-.17-.51-1.11-1.26-1.41-1.15-2.29.88-4.94 1-6.75 2.95-1.15 1.23-2.34 2-1.66 4.4.9 3.19.76 6.7.81 10.08a35.5 35.5 0 01-.68 6.3 4.34 4.34 0 01-3.32 3.28c-2 .2-2.82-.9-3.82-2.52-1.81-2.93-1.06-5.68-.18-8.5a42.32 42.32 0 012.22-5.66c.58-1.21.17-1.31-.88-1.4-1.45-.13-2.89-.57-4.34-.64-2.31-.1-2.58-1.81-2.81-3.42-.49-3.51.78-6.5 3.27-9.28m9.2 20c-.23-2.44-.44-4.88-.72-7.31a5.42 5.42 0 00-.54-1.37 5.47 5.47 0 00-.86 1.1c-1.43 3.46-3 6.82-3.62 10.64a7.13 7.13 0 00.78 5.07 2.55 2.55 0 002.09 1.12 3.27 3.27 0 002-2 56.19 56.19 0 00.78-7.3m-10.42-14.58l-.48 1.18a3.39 3.39 0 001.1 4.11 4.51 4.51 0 003.63.09 6.13 6.13 0 002.69-8.86c-1.51-2.35-3.22-2.3-5 .15a14.46 14.46 0 00-1.95 3.33m28.82-3.12a5.73 5.73 0 00-.38 6.23c.27.5-.26 1.62.88 1.34a2 2 0 001.18-1.41c.09-2.1.43-4.29-1.68-6.16m11.11 2.08c-.35 1.56-.79 3.11-1 4.69-.14.95.47 1.16 1.24.62 1.55-1.07 2.64-4.15 2-5.82a8.38 8.38 0 00-.93-1.49 19.67 19.67 0 01-1.3 2.04zM448.6 463.67c.33.51.35 1.16.69 1.51 1.76 1.87 7 1.67 8.84.49a3.06 3.06 0 001-2.29c-.07-2.5.89-4.73 1.45-7.07a2 2 0 01.3-.9c.77-.82 1.57-2 2.78-1.32.39.23.34 2-.09 2.67-2.88 4.62 1.28 8.57 6.2 8.95 2.88.22 5.78 0 8.67.06a2.49 2.49 0 01.86.34 6.33 6.33 0 00-.89.35c-.29.17-.53.61-.78.61-4-.08-8.14.67-12.09-.85-2.16-.84-3.06-2.66-3.9-4.59-.13-.29-.48-.49-.72-.74-.12.3-.24.6-.34.9v.35c-.24 1.39.55 2.91-.85 4.18a6.78 6.78 0 01-5.29 1.52c-2-.09-4 .34-5.81-1.1-.25-.21-1.25.11-1.6.48a9.54 9.54 0 01-6.2 2.66 3.91 3.91 0 01-4.5-3.78 17.22 17.22 0 01.45-4 4.85 4.85 0 00-.45-3.83c-1.26-2-2.09-2.3-2.94-.31-1.59 3.76-3.93 7.57-2.22 11.9.45 1.16-.23 1.38-.65 1.95-.39-.55-1.08-1.08-1.13-1.67-.33-3.71-.55-7.43-.73-11.16-.1-2 0-1.88-2.28-1.13a19.38 19.38 0 01-4.84.87c-2.61.16-2.66.06-2.59 2.83 0 1 .38 1.94.46 2.92a42.23 42.23 0 01.15 4.77c0 .22-.81.55-1.26.58-.23 0-.77-.69-.73-.75 1.27-1.69.55-3.32 0-5a8.07 8.07 0 010-2.41c0-2.73 0-2.82-2.6-3.55-2.11-.58-4.21-1-5.92-2.55-.51-.47-1.43-.82-2 .65-.43 1.08-1.89 1.79-3 2.56a5.22 5.22 0 00-1.79 7 3.49 3.49 0 003.49 2.1 16.19 16.19 0 006.2-1c.29-.12.8.25 1.21.39-.25.19-.49.37-.73.57-2.77 2.32-6.06 1.27-9.14 1.29-1.5 0-3-2.89-3.1-5.16-.05-1.28.21-2.9-1.75-1.05-.33.31-1.06.2-1.61.28l-1.43.21a13.15 13.15 0 011.12-1.12 5.78 5.78 0 01.88-.36 10.93 10.93 0 005.35-6 14.87 14.87 0 011.68-2.43c.47-.72.87-1.49 1.3-2.24.16-.26.3-.53.45-.79.32.22.77.36.92.66 1.81 3.46 4.88 5 8.53 5.58 1.33.22 1.95-.13 2-1.75a85.46 85.46 0 01.67-8.74 6.94 6.94 0 011-2c.35.78 1.19 1.77 1 2.31-1.12 2.63-.64 5.46-1.2 8.16-.49 2.34.53 3 3 2.7a27.43 27.43 0 003.78-.93 4 4 0 002.84-3.26c.38-2 .5-4 .73-5.95a1.34 1.34 0 010-.35c.34-.9.68-1.79 1.07-2.67 0-.08.43 0 .66 0 0 .94 0 1.88-.07 2.82 0 .31-.25.6-.27.92q-.37 5.24-.7 10.47a11.51 11.51 0 000 2.42c.12.74-1.95 1.36-.09 2a9.18 9.18 0 001.07-2c.62-1.37 1.1-2.79 1.79-4.12 1-1.85 2.53-2 4-.59 2.31 2.33 2 5.35 1.23 7.92a3.68 3.68 0 00.88 3.8c.85 1 2.12.87 3.27 0 .56-.44 1.44-.43 2.1-.76 2.41-1.18 2.44-1.23 1.16-3.65s-1.07-5.3-.62-7.91c.41-2.38 3.11-3.91 5.61-3.67.4 0 .75.52 1.12.8-.35.18-.7.54-1 .53a4.41 4.41 0 00-4.47 3.19 6.81 6.81 0 002 7.24c.07.06.23 0 .52 0M404 456v1.39a4.78 4.78 0 001-.89c.47-.76.84-1.59 1.24-2.4-.62.55-1.24 1.07-2.24 1.9zM56.49 393.55c2.36 1.49 4.57 0 6.75-.33 1.81-.31 3.84-.27 5.59-1.62.75-.57 2.69.35 4.06.71.19 0 .25.8.25 1.23a49.91 49.91 0 010 5.19 2.65 2.65 0 001.26 2.61 14 14 0 0010 2.59c1.91-.27 3.77-.93 5.67-1.33.34-.07.76.26 1.15.41-.22.32-.38.86-.65.92-4.41.93-8.86 2.62-13.33.68-3.11-1.35-5.9-2.29-9.39-.78-2.24 1-3.66-.69-3.71-3.36a14 14 0 01.07-3.11 8.11 8.11 0 011.22-2.17 29.16 29.16 0 00-3.36-.22c-.6 0-1.18.52-1.8.64-4.53.91-5.59 2.49-4.15 6.85a4.23 4.23 0 01-.21 3.4c-.39 1-.86 1-1.46.85-1.61-.33.07-.8 0-1.26a32.27 32.27 0 01-.05-3.81c0-1.59-.66-1.4-1.6-.6a14.23 14.23 0 01-8.9 3.62c-2.4.09-4.38-.53-5.47-2.9-.56-1.2-1.36-1.48-2.71-1-2.79.91-5.63 1.78-8.66 1.16-.91-.18-1.27.27-1.12 1.15.17 1.08.39 2.15.56 3.24a3.94 3.94 0 01.09 1.66 7 7 0 01-1.08 1.58c-.39-.41-1-.76-1.13-1.25a18.82 18.82 0 01-1.17-4.7c-.16-4 .18-8.11-.12-12.13-.27-3.42 1.8-5.35 4.06-6.83 3.62-2.35 7.89-3.39 12.11-4.13a3.91 3.91 0 013.18 1.79c.37.66-.68 2.12-1.17 3.18a1.09 1.09 0 01-.91-.1 1 1 0 010-.93c1.1-1.94 1.12-1.93-1.13-2A20.12 20.12 0 0027.87 386c-1.32.85-2.27 3-2.51 4.67-.4 2.83-.08 5.76-.13 8.65 0 .91.29 1.1 1.16 1.17a23.58 23.58 0 009.82-1.49 3.51 3.51 0 001.51-1.82c1-2.15 1.66-4.52 4.24-5.47 1.64-.61 2.63-.1 2.71 1.63a4.93 4.93 0 01-3.23 5.24c-.66.29-2.33.47-1.58 2 .48.95.77 1.94 2.43 2.07 4.6.36 8.36-1.43 12-3.83.28-.18.29-.79.42-1.19a3.09 3.09 0 00-1.21 0c-1 .42-1.92 1-2.87 1.44-.32.16-.66.3-1 .44 0-.45-.26-1.11 0-1.32.94-.91 1.92-2.23 3-2.4 2.32-.35 2.47-1.73 2.47-3.48a23 23 0 010-3.11 3.75 3.75 0 01.87-1.69c.09-.11 1.14.31 1.12.41-.21 1.75.75 3.67-.64 5.62m12.15.69a7.27 7.27 0 00-3 6.6c.06.62 1 1.65 1.56 1.65 2.64 0 4.69-2.54 3.81-4.93A2.62 2.62 0 0171 395c.25-.5-.07-1.3-.13-2a15.23 15.23 0 00-2.25 1.22m-27.42 3.12c.73-1 1.47-1.92 2.19-2.89a7.74 7.74 0 00.43-.73c-.32-.07-.78-.3-.94-.17a24.33 24.33 0 00-3 2.87c-1.39 1.67.19 1.23 1.34.94zM303 333.14c5 1.62 6.85 5.58 8.29 9.77.5 1.47-1.65 5.26-3.22 5.42-2.55.28-5.15 1.89-7.75.09-.46-.31-1.24-.41-1.43-.82a11.05 11.05 0 01-.72-2.81c0-.14.44-.5.67-.5a.91.91 0 01.67.52c1.11 3.7 2 2.88 4.71 2.87a9.59 9.59 0 003.18-.68c1.89-.68 2.83-4.05 1.58-6.09a39.51 39.51 0 00-3.67-5.06c-1.43-1.7-2.9-1.51-5-.46-3.11 1.55-4 4.89-6.3 7.08-1 .95-1.93 1.94-2.91 2.9-.15.14-.43.14-.57.28-3.57 3.39-7.62 2.1-11.64 1.25-1.18-.25-2.66-.91-3.53-.47-2.81 1.42-5-.37-7.49-.86-.72-.14-1.48-.62-2.12-.48-3.25.7-4.8 0-5.76-3.17a29.38 29.38 0 01-.73-5.25c-.08-.68.07-1.4-.05-2.07-.05-.29-.52-.51-.8-.76-.18.23-.52.45-.53.69v5.55c-.05 3.59-2.4 6.63-5.34 6.95-3.72.4-7.82-2.45-8.55-5.9a18.32 18.32 0 00-.68-2.14c-.91-2.71-1.88-3-4.09-1.42-1.85 1.37-3 5.14-2.34 6.93.34.93.68 1.27 1.6 1.14 1.43-.19 2.86-.38 4.3-.48.31 0 .67.36 1 .6a.47.47 0 010 .46c-1.24 1.29-4.54 1.51-6.4.86a3.34 3.34 0 01-2.32-3.53c0-3.15 1.66-7.37 5.73-8.27 2-.44 2.56-1.29 2.64-3.3a32.27 32.27 0 011.32-6.36c.08-.31.5-.54.77-.81.2.33.6.68.56 1a12.8 12.8 0 01-.72 4.19c-1.84 3.82-.1 7.54.28 11.2.33 3.13 5.74 5.31 8.41 3.71 1.95-1.18 2.49-3.33 2.46-5.52s0-4.44 1.25-6.42c.26-.42.55-.81.83-1.21.45.32 1.06.55 1.3 1a7.66 7.66 0 01.78 2.44c.3 2 .45 4 .73 5.95s2.91 3.31 4.45 2.38a1.59 1.59 0 00.36-1.5c-1.29-2.36-.43-4.29.62-6.5a3.25 3.25 0 012.78-2.06c1.16-.12 2.65 2.09 2.11 3.43-.84 2.11-.05 4.74-2.09 6.42-1.22 1 .22 1.56.54 1.58a31.34 31.34 0 006.57-.05c.77-.12 1.53-1.46 2-2.4.81-1.74 1.23-3.67 2.08-5.38 1.67-3.35 4.44-3.68 6.86-.89 1.59 1.84 2.16 4.18 2.91 6.42a5.32 5.32 0 00.61 1c.26-.28.52-.55.77-.83 2.57-2.87 5.19-5.69 7.67-8.63.91-1.09 2-.93 3.44-1m-19.09 12.5c1.28-.23 2.57-.41 3.84-.71 1-.24 1.7-1 1.32-2a35.47 35.47 0 00-2.61-5.79c-1.15-2-3.57-1.87-4.63.25a45.77 45.77 0 00-2.41 7.26.91.91 0 00.51.75c1.08.14 2.18.16 4 .22m-13.54-10.07c-.53-.11-1.22-.5-1.56-.3-1.92 1.1-2.57 5.84-1 7.35.14.14 1.1-.14 1.16-.37a68 68 0 001.27-6.66zM439.22 84.41c-.46-3.64 1-6.52 2.73-9.39 2.2-3.56 4.11-7.31 6.12-11 .78-1.41 1.48-2.86 2.28-4.26.19-.33.71-.79.94-.72a1.44 1.44 0 01.91.94c.31 2.68.64 5.35.71 8 .11 4.43.51 4.77 5 3.34a22.46 22.46 0 003.54-1.32c.87-.45 1.34-.88.8-2.34s.28-3.37.61-5.07c.06-.31.69-.79.92-.73.38.11.93.62.91.94a21.78 21.78 0 01-.5 3.94c-.48 2 .17 4.92 1.93 5.58a10.55 10.55 0 005.3.31c2.3-.42 4.32-3.56 4.44-6 .05-1-.06-2.28.5-2.87a17.76 17.76 0 014.47-3.37c1.28-.68 1.93 0 2 1.61 0 .69.3 1.66-.05 2-1.88 2 .44 3.79.18 5.71-.12.87 2.61 1.61 3.86.71a23.94 23.94 0 004.38-4.33c1.09-1.33 1.7-3 2.79-4.36a4.24 4.24 0 012.65-1.32c.43 0 1.16 1.08 1.43 1.8a18 18 0 011.46 7.39c0 .61-.62 2 .78 1.71.68-.13 2.06-.23 2-1.7a28.49 28.49 0 010-3.81c.17-2.69 2.24-4.59 4.56-4.05a2.52 2.52 0 011.59 1.67 11.46 11.46 0 010 4.81c-.31 1.06-1.67 1.8-2.53 2.7a8.41 8.41 0 00-.68 1c.32.07.64.15 1 .19 1.86.24 3.74.46 5.6.71a4 4 0 01.91.33 3.39 3.39 0 00-.87.36c-2.13 1.75-4.77.84-6.25-.18-2.26-1.56-4.35-.83-6.16-.38a15.93 15.93 0 01-9.71-.5 11.22 11.22 0 00-3.77-.36c-3.69 0-5.08-1.2-5.21-4.85-.05-1.27-.64-2.73.6-3.92.22-.21-.13-1-.22-1.58a11.29 11.29 0 00-1 .83c-1.87 2-2.37 4.62-2.84 7.12-.35 1.85-1 2.8-2.85 3.13a27.37 27.37 0 00-3.91 1.42c-3.19 1.08-4.62.63-6.63-1.91a1.82 1.82 0 00-2.87-.45c-2.18 1.49-4.69 1.72-7.31 1.66-1.26 0-1.52-.59-1.81-1.42-.82-2.38-1.86-4.67-.54-7.31.4-.8 0-2.91-.35-3-1.77-.46-.79 1.39-1.26 2.13-2.58 4.09-4.84 8.38-7.21 12.6a19.25 19.25 0 00-2.17 6 3.7 3.7 0 01-1.19 1.83m58.15-18.92a6.1 6.1 0 00-.26-1.62c-.94-2-1.5-2.08-2.83-.13a17.25 17.25 0 00-2.38 4.29c-.31 1-2.52 1.37-1.09 2.66.7.63 2.05.69 3.11.74a9.71 9.71 0 002.9-.5c.45-.12 1.2-.56 1.17-.78-.15-1.3.71-2.79-.63-4.58m9.37-2.43c-3 1.75-3.91 4-2.4 6.3a1.32 1.32 0 001.19.41c1.82-1.11 2.54-4.19 1.21-6.76zM280.58 387.47c-2.86 0-3.16.21-4 2.57-.65 1.81-1.51 3.56-2 5.4-.38 1.31-1.12 1.2-1.35.31-.37-1.38-1.28-.81-1.88-.77a9.35 9.35 0 00-3.84.71c-2.59 1.41-5 .45-7.35-.29-.82-.26-.85-.59-1.68.29-3 3.15-11.52 3.26-13.29-1.93-.72-2.1-.73-5.87.42-7 .27-.27.74-.69.95-.6a1.54 1.54 0 01.85 1 2.82 2.82 0 01-.32 1.58c-2 3.66.1 7.48 4.19 7.64a21.33 21.33 0 002.77 0 4.09 4.09 0 003.82-4.19c0-1.5 0-3 .07-4.5a1.35 1.35 0 01.94-.91c.28 0 .89.51.93.84a9.79 9.79 0 010 3c-.47 2.3.33 3.71 2.5 3.64 3-.1 6.18.73 9.06-.7a7.75 7.75 0 002.48-2.33c.84-1.11 1.29-2.54 2.21-3.57 3.25-3.66 4.49-2.35 7.19.41a6.28 6.28 0 01.75 1.32 12.37 12.37 0 01.31-1.61 6.61 6.61 0 01.68-1.45 9.7 9.7 0 01.88-1.06 3.71 3.71 0 01.48 1.09 5.15 5.15 0 010 2.41c-1.1 2.53.61 3.87 2.15 5.14 2.39 2 8.72 1.83 10.77-.46a11.89 11.89 0 002.34-4.89c.7-2.75 1-5.61 1.45-8.43a2.87 2.87 0 01.21-.94 3.93 3.93 0 01.72-.75c.15.33.47.68.43 1-.38 2.95-.82 5.9-1.23 8.85a6.28 6.28 0 00-.1 1.67c.05.33.44.6.68.89.23-.19.54-.34.66-.58.34-.66.57-1.38.92-2a4.14 4.14 0 015.17-2.06 13 13 0 016.93 6.39c.66 1.27.24 3.16.13 4.76 0 .41-.66 1-1.13 1.13-3.69 1.15-7.42 2-11.27.74a5 5 0 01-2.81-3.83 20.38 20.38 0 000-2.07c-.08-.6-.25-1.61-.54-1.67-1.14-.24-.61.83-.85 1.35-1.52 3.34-7.72 5.09-10.42 3.72-1.59-.81-3.62-1.15-4.17-3.35 0-.19-.54-.41-.8-.37a.91.91 0 00-.53.66c-.06.92 0 1.85 0 2.77 0 .63.27 1.61-.88 1.35-.68-.16-1.64-.61-1.81-1.14a4.41 4.41 0 010-3.06c1.41-2.53.21-4.19-1.63-6m24.47 3.65c-1.26 2.88-1.17 3 1.64 3.82 2.07.58 4.14 1.17 6.15 1.92a2.8 2.8 0 003.19-1c.46-.63.15-2.34-.43-3.11a26.92 26.92 0 00-4.36-4.44c-2-1.69-3.33-1.37-5 .86a5.87 5.87 0 00-1.22 1.93m-.69 5.55c0 .23-.05.65 0 .66 1.69.38 3.38.76 5.08 1.05.34.06.74-.24 1.12-.37-.33-.33-.61-.86-1-.94a20 20 0 00-5.33-.5zM324.32 469.74c-1.49 3-1.3 3.86.41 5.69 1 1.06 2.1.62 3.18.72.69.07 1.4 0 2.08 0 .27 0 .5.31.75.48-.23.29-.41.74-.71.86-3.35 1.32-5.31.81-7.52-2.64-.67-1.05-1.22-.74-1.85-.74-.33 0-.66.6-1 .93l1.13.39.9.35a3.3 3.3 0 01-.74.71 4.35 4.35 0 01-1.25.33c-1.52.24-3.09.81-4.56.61-2.23-.3-4.63-.29-6.58-1.64a3.86 3.86 0 00-4.09-.23c-3.88 1.52-7.86 2.08-11.93.31a6.93 6.93 0 00-3.48 0 11.94 11.94 0 00-3 1 18.46 18.46 0 00-2.2 1.34c-.57-.93-1.15-1.84-1.7-2.77-2.16-3.64-.65-7 1-10.23a10.15 10.15 0 013.6-3.62 3.26 3.26 0 015.06 2.58c0 2 .59 4-.49 6-.65 1.2 1.14 4.12 2.54 4.56a7.74 7.74 0 002.83.65 36.81 36.81 0 007.12-1.22c2.29-.71 2.17-1.2 1.74-3.49a34.18 34.18 0 01.21-14.1 1.69 1.69 0 01.33-.56l1.09-1.41c.36.49.72 1 1.07 1.46.54.75.12.87-.48 1.41a4.82 4.82 0 00-1.26 3.11c-.17 2.77-.08 5.55 0 8.33 0 .32.38.64.59 1 .26-.39.69-.76.74-1.18.29-2.32.48-4.66.74-7a3.17 3.17 0 01.36-.83 2.76 2.76 0 01.3.92c-.1 3.22.56 6.54-1.14 9.58-1 1.77.53 2.69 1.54 3.29 3.08 1.83 8.54.48 10.8-2.49.2-.25 0-.8 0-1.2a71.7 71.7 0 01-1.35-8.78 21 21 0 011.23-6.4c.22-.76 1.3-1.24 1.83-2 .72-.95 1.19-.3 1.47.22a18.39 18.39 0 012.32 7.37 15.29 15.29 0 01-1.56 8.27m-35.24-.17c.23-1.4.53-2.79.67-4.2a12.22 12.22 0 00-.23-2.31c-.86.1-1.72.17-2.56.32-.41.07-1 .2-1.15.49-1.73 2.79-3.67 5.52-3 9.12.27 1.43 2 3 3 2.44a8.45 8.45 0 003.08-2.39c.4-.57 1.88-1.78.17-3.47m31.87-7.58c0 1.5-.08 3 0 4.49a11.13 11.13 0 00.7 2.81c.1.29.57.46.87.69a5.1 5.1 0 00.48-.76 16.65 16.65 0 00.1-12.69c-.5-1.24-.43-1.07-1.24-.37-1.68 1.49-.56 3.43-.91 5.83zM242.74 236.81c4-1.6 5.69-1 8.17 2.75a9.29 9.29 0 001.08 1.19c.33-.44 1-.92.93-1.31-.16-1.33.77-2 1.55-2.48a4.5 4.5 0 013-.9c1.29.32 1.08 1.79 1.06 2.94a12.22 12.22 0 000 2.42 4.33 4.33 0 01-1.94 4.41c-.46.36-1 .66-1.44 1 .55.08 1.3 0 1.6.28 1.08 1.14 2.38.56 3.57.61 2 .09 1.92 0 1.67-2.05a8 8 0 013.46-7.89c.72-.51 1.93-.38 2.92-.43 2-.09 2.25-.38 1.94-2.1a14.77 14.77 0 011.4-8.91 3.93 3.93 0 01.78-.8c.19.44.62.93.56 1.33-.39 2.37-1 4.7-1.3 7.07a5.5 5.5 0 00.65 2.48c1.13 2.87 2.24 5.68 4.9 7.67a8.45 8.45 0 005.27 1.64 6.77 6.77 0 012.3 1c-.79.34-1.59 1-2.35 1a10.86 10.86 0 01-7.35-3.1c-.32-.32-.62-.67-.93-1a3.78 3.78 0 00-.44 1.13c-.07 1.5 0 2.78-1.71 3.83-2.2 1.35-4.37 1.81-6.6.89-1.91-.79-3.5-1.29-5.6-.41-1.17.49-2.85-.12-4.27-.37s-2.76-.55-4 .74c-2.08 2.09-4.78 2.05-7.48 1.64-.87-.13-1.71-.37-2.57-.5s-1.25.2-1 1.15a13 13 0 01.56 2.88 9 9 0 01-.37 2.15c-.56-.69-1.56-1.36-1.6-2.08a60.91 60.91 0 010-8.65 20.25 20.25 0 011.34-5.33 21.69 21.69 0 012.21-3.84m.52 1.56c-1.67 1.53-1.39 3.79-2 5.7-.39 1.17.29 1.93 1.67 2.34a9.3 9.3 0 006.69 0c2.17-.92 2.56-1.45 1.55-3.6-1.43-3-3.06-5.8-7.19-4.77a1.3 1.3 0 00-.69.35m20.48 4.51c-1.24 2.22.43 3.4 1.78 4.5 1.59 1.3 5.65.51 6.63-1.1 1.12-1.85.12-5.81-1.74-6.87-2.77-1.59-4.76-.61-6.67 3.47m-9.74 2.71c1-.93 2.53-1.69 3-2.85s.14-2.95.08-4.45a1.08 1.08 0 00-.86-.31c-2.21.72-3.64 4.82-2.22 7.61m-11.11 3.47c1.63 1.28 3.51 1 5.09.28.67-.28 2.43.6 2.2-1.29-.77.11-1.54.23-2.31.31a6.46 6.46 0 01-1.39 0c-1.41-.21-2.81-.52-4.23-.64-.34 0-.73.51-1.09.79a4.63 4.63 0 001.75.55zM329.53 194.8a3.3 3.3 0 01-.92-4.19 31.88 31.88 0 001.15-4.72 2.28 2.28 0 00-1.65-2.72c-1.78-.39-3.44-.94-5.37-.09-1.26.56-1.26.8-1.15 2.13a34.56 34.56 0 01-.59 7c0 .25-.35.46-.53.69-.28-.25-.78-.49-.8-.75-.08-1.39 0-2.78 0-4.16a26.76 26.76 0 010-3.47c.22-1.67-.28-2.18-2-2.1a5.19 5.19 0 01-4.17-1.58 4.4 4.4 0 014.29.1c1.54 1 1.94-.51 2.31-1.39a8.07 8.07 0 00.25-2.67 15.21 15.21 0 01.07-3.45 11.29 11.29 0 011.69-2.73c.11 1 .64 2.22.25 2.95-1.14 2.1-.33 4.25-.62 6.35-.14 1 .34 1.16 1.19 1.11s1.85.05 2.77 0c3-.24 5.57.08 7.6 2.74.66.87 2.3 1 3.52 1.41.53.16 1.17-.07 1.72 0 3.48.69 5.67-.71 6.82-4 .69-2 2.29-2.84 4.19-3.36a2.83 2.83 0 013.44 1.68 5.15 5.15 0 01-3.74 6.35c-.54.12-1.51 0-1.59.22-.4 1.2-2.53-.43-2.26 1.35a3.14 3.14 0 002.25 2.42c5 1.35 8.67.72 11.6-4 1.25-2 2.37-4.12 5-4.87 2.06-.57 5.68 0 6.69 1.79a10.3 10.3 0 01.63 8.43c-.12.38-.59.7-1 .95-2 1.31-8.05.79-9.8-.86a.9.9 0 01-.12-.89 1 1 0 01.87-.3 32.12 32.12 0 004.3 1.3c1.26.18 2.71.47 3.76-.93 1.24-1.68.93-3.51.38-5.14-1.19-3.55-5.26-4.24-7.76-1.37-1.67 1.92-3 4.1-4.71 6-2 2.25-4.74 2.15-7.41 2.19-2.92 0-5.15-1.12-6.16-4a2 2 0 00-2.17-1.59c-2 .06-3.93 0-5.9 0-1 0-1.13.32-.83 1.24a12.35 12.35 0 01.52 2.9 3.35 3.35 0 01-2.39 3.42 10.8 10.8 0 01-3.66.6m19.61-10.24c.71-.48 1.67-.81 2.07-1.48a8.76 8.76 0 00.61-2.78 7.31 7.31 0 00-2.77-.42 4.13 4.13 0 00-3.05 3.4 14.06 14.06 0 01-.58 1.73c.7-.07 1.4-.13 2.1-.22a14 14 0 011.62-.23m-18.4 3.82a6.32 6.32 0 00-.66 1.78 13.71 13.71 0 00.27 3.32c.07.3 3.68-2.16 3.7-2.91s-.47-1.6-.5-2.41c0-1.14-.25-2.17-1.53-2.12-.4.03-.81 1.08-1.24 2.35zM236.49 124.33c2.53 1.44 2.55 4.16 3.27 6.53a41.57 41.57 0 01.73 4.21c.42 2.23.7 2.44 2.83 2.28 3.12-.23 4.89-2.57 3.72-5.49-.87-2.16 1-3.16 1.34-4.75 0-.14 1-.06 1.56-.08a6.65 6.65 0 010 1.18 31.46 31.46 0 00-.77 4.94 3.41 3.41 0 002.89 3.44c1.85.3 4 .43 5.26-1.31.62-.88.52-2.38.46-3.59a7.39 7.39 0 012-5.8c1.6-1.72 3.44-.73 5.16-1 .13 0 .44.44.48.71.26 1.75.52 3.5.68 5.27a2 2 0 01-.55 1.13c-.19.23-.66.53-.81.45a1.55 1.55 0 01-.67-.89 19.18 19.18 0 01-.69-3.18c-.08-.84.05-1.46-1.21-1.51s-1.42.47-1.87 1.33c-1.72 3.29-1.67 5.75.46 7.55a4 4 0 002.05.87c1.49.13 3 0 4.51 0 1.14 0 2.47.27 3.35-.23.49-.28 0-2 .37-2.87.79-2.07 1.25-4.39 3.82-5.33 2-.73 2.83-.52 3 1.56.27 2.73-.36 5.21-2.83 6.89-.29.2-.41.65-.61 1 .28.13.57.39.85.38q5.92-.32 11.86-.71c.27 0 .49-.45.78-.6 2.47-1.22 2.61-1.57 1.58-4.09-.3-.73-.59-1.45-.89-2.17.73.45 1.68.75 2.13 1.39 2.36 3.43.74 5.42-3.2 6.81-4.12 1.46-8.56.71-12.87.73-.69 0-1.38-.56-2.09-.75a6.46 6.46 0 00-2.87-.54c-3.78 1-7.41 1.41-10.75-1.25a1.28 1.28 0 00-1.15.15c-1.89 1.42-4.06 1-6.17 1a2.21 2.21 0 01-1.53-.41c-1.4-1.66-2.44-1-3.65.25-1.07 1.07-5.85 1.63-6.52.62a12.91 12.91 0 01-1.57-4.53c-.4-1.95-.45-4-.77-5.94a5.89 5.89 0 00-.93-1.69 6.83 6.83 0 00-1.08 1.82c-.55 2.33-.89 4.71-1.45 7a12.62 12.62 0 01-4.58 7.12c-.23.18-.49.31-.74.47-.07-.43-.32-1-.17-1.28a5.62 5.62 0 011.23-1.57c2.21-2.17 2.93-5 3.63-7.88.63-2.59.52-5.5 2.91-7.71M272.77 136c.34 0 .8.15 1 0a8.72 8.72 0 002.79-5.42.89.89 0 00-.4-.77 1.16 1.16 0 00-.88.25c-1.9 1.32-2.07 3.6-2.51 5.94zM318.24 271.35a28.8 28.8 0 014.45 4.15c1.95 2.4 2.08 5.33 1.78 8.25-.19 1.79-3 4.08-5.17 4.24-6.4.48-12.55-.9-18.6-2.78-.22-.07-.34-.47-.51-.72.43-.21.93-.69 1.28-.6 2.19.54 4.31 1.53 6.52 1.78 4 .45 8.05 1.76 12.17.29 2.43-.86 3.7-4.12 2.58-7a11.74 11.74 0 00-3.45-4.81c-2.77-2.32-7.68-2.22-10 1.21a14.46 14.46 0 01-5.66 4.95 10.15 10.15 0 01-9.05 0c-1.59-.76-2-.26-2.53.93a5.55 5.55 0 01-.76 1.4 1 1 0 01-.93.05c-1.44-1-1.7-3-.86-5.17.33-.83.91-2.2.59-2.51a8.54 8.54 0 00-3.13-1.52 5.47 5.47 0 00-1.72 0c-3.07 0-3.07 0-2 2.87 1 2.61.17 4.29-2.36 5.71s-5 1.21-7.5 1.07a3.09 3.09 0 01-2.1-1.46c-1.84-3.31.62-9.22 3.2-9.94 1.3-.36 2.51-.7 3.79.27a3.18 3.18 0 002.41.72 14.5 14.5 0 019.16.05c1.58.5 2.71-.2 3.39-1.71a2.1 2.1 0 01.9-1c.21-.09 1.75-.58.68.85a10.77 10.77 0 00-.78 2.09c-1.48 3.36.59 6.4 4.35 6.77 4.54.45 7.43-2.13 10-5.18 2.28-2.74 5.48-4.1 8.81-3.2a5.31 5.31 0 001 0m-38.18 9.37c1.63-.45 2.43-1.47 2.07-3.19-.39-1.93-1.36-2.68-3.45-2.71a22.43 22.43 0 01-3.76 0c-1.71-.31-2 1.06-2.44 2a5.65 5.65 0 00-.06 2.37c0 1.71 1.78 3.36 3.05 2.55 1.58-1.07 2.9-.46 4.64-1.07zM513.17 40.32c-1.17-3.57.28-6.19 2.59-8.45 1-.94 2.18-1.63 3.61-.74.32.2.61.45.91.67-.29.24-.55.62-.88.69-4.08.89-4.67 1.6-4.67 5.8v2.43c.06 1.06.65 1.07 1.33.51a11.9 11.9 0 003.54-5.47 5.32 5.32 0 01.76-1.17c.2.56.71 1.25.55 1.66a28.76 28.76 0 01-1.87 3.39l-1.37 2.42a15.92 15.92 0 012.69.21c.48.12.87.66 1.29 1a3.1 3.1 0 01-1.24.31c-1.53-.25-3.11.56-4.66-.52-.54-.37-2 .06-2.72.6-2.23 1.73-4.41.4-6.32-.27a3.67 3.67 0 01-2.45-4.09 17 17 0 000-4.16 5.91 5.91 0 00-.8-1.74 6.71 6.71 0 00-1.91 1.18 12.91 12.91 0 00-2.84 6.46c-.05.42-.48.79-.73 1.18-.52-.38-1.59-.41-.9-1.55.06-.1-.77-1-1-1-3.17 1.14-6.22.72-9.4-.16-1.35-.38-3.07.18-4.53.63-2.74.85-5.4 1.18-8.13 0a1.69 1.69 0 00-1.57.26c-1.55 2-3.68 1.12-5.47 1-3.06-.21-4.68-4.23-3.31-7.59 1.82-4.43 3.69-4.91 8.14-3.06 2.34 1 2.78 2.27 2.64 4.44-.07 1.16-.1 2.93.56 3.38a7.53 7.53 0 004.14.77 14.51 14.51 0 004.13-.87c1.4-.49 2.59-1.21 2.3-3.16a5.93 5.93 0 01.68-2.81 1 1 0 012 .33c.1 1.15.5 2.75-.07 3.38-1.94 2.14.92 2.34 1.17 2.37a15.46 15.46 0 005.51 0c1.13-.29 2.91-.9 2.49-3a3.24 3.24 0 01.47-1.87 6.34 6.34 0 011.17-1.2 14.13 14.13 0 01.36 1.81 3 3 0 01-.24 1 3.81 3.81 0 001-.58 13.91 13.91 0 011.93-2.28 3.08 3.08 0 012.46-.51c.59.25 1 1.37 1.13 2.16.18 1.36 0 2.77.06 4.15.11 2.94 1.22 3.85 4 4 .92.05 1.85 0 2.77 0 1.51 0 .69-1.11.73-1.91m-40.79-6.77c-.08-2.31-2.35-1.53-3.5-2.32-.35-.24-1.73.71-2.42 1.35-1.4 1.29-1.79 5.72-.74 6.81s3.5 1 5.28.09 1.59-2.07 1-3.58c-.19-.47.21-1.13.35-2.38zM71.77 38.07v.34c0 7.9 3.73 7.26 9.11 5.88a1.6 1.6 0 001.28-2.06c-1-3.57 2-4.79 4-6.15s4.55-1 7-.16c3.61 1.29 4.43 4.17 5 7.38.24 1.41-.6 3 .65 4.27.1.11-.49.89-.75 1.36-.25-.31-.62-.59-.71-1a15.06 15.06 0 01-.56-2.89 9.63 9.63 0 00-3.15-7A5.25 5.25 0 0085 40.38a21.67 21.67 0 00-.72 4.62c-.19 1.85-.29 1.88-2.19 1a3.26 3.26 0 00-1.86 0 17.16 17.16 0 01-9.17-.4c-1.84-.6-4.26 0-6.26.61a43.13 43.13 0 01-11.87 2.31c-6.65.08-9.52-5.35-7.84-11.23 1.33-4.64 7.1-7.74 12.42-3.3a3.4 3.4 0 011 2.31 7 7 0 01-.85 2.39 17.76 17.76 0 01-1.15-1.72c-.78-1.52-1.59-3-3.61-3-2.2 0-4.09-.09-5.63 2.42-1.91 3.1-1.12 5.64.25 8.31.85 1.66 5.72 3.08 8 2.4a23.81 23.81 0 017.42-1.33c1.41 0 1.57-.3.8-1.58a4.25 4.25 0 01-.36-4.57A10.07 10.07 0 0168 34.65c1.49-.71 5 .68 5.61 2.17a6.8 6.8 0 010 2.55l-1.65-1.48c-.25-.48-.27-1-.43-1.07a5.43 5.43 0 00-6.69 4.3c-.28 2 .41 2.92 2.27 3.19a2.85 2.85 0 003.27-2.58c.09-1-.07-2.09.08-3.11.02-.24.84-.37 1.31-.55zM244.65 274.13a26.7 26.7 0 00-1.36 7.41c-.11 1.12.14 2.85-1.09 2.82s-1.1-1.76-1-2.89a12.67 12.67 0 01.46-2.59 5.52 5.52 0 00-.44-4.15c-.62-1.34-1.65-1.42-2.79-1.27a23 23 0 00-3.17.7c-2.49.68-2.53.79-1.45 3.35s.56 4.48-2.07 5.6a24.21 24.21 0 01-5 1.4 3.56 3.56 0 01-3.88-1.36c-.71-1.27-1.37-3-1-4.34.86-3.36 2.58-6.35 6.34-7.25.7-.17 2.13.22 2.26.65.63 2.07 2.23 1.24 3.33 1.14s2.38-1.13 3.6-1.24c1.61-.13 3.49-.68 4.7 1.17.79 1.2 1.36.47 1.87-.31 2.09-3.14 3.73-3.11 6.09-.11a7.25 7.25 0 011.61 4.22c.09 1.35.3 3.17 1.18 3.87 1.3 1 2.6-.69 3.81-1.31 2.27-1.16 1.46-3.57 1.9-5.48a13.18 13.18 0 01.75-2.46c.09-.19.74-.13 1.14-.19a2.78 2.78 0 01.11.93 12.09 12.09 0 00-.6 1.48c-.66 6.35.58 7.7 7.1 7.84.23 0 .5-.07.69 0a13.77 13.77 0 011.22.71c-.43.22-.84.61-1.28.63a25.12 25.12 0 01-4.16 0 6.29 6.29 0 01-2.73-.89c-2.45-1.62-2.42-1.68-4.63-.45a17.65 17.65 0 01-1.95 1.17 2.31 2.31 0 01-3.31-1.86c-.43-2-.88-4-1.39-6s-2.88-3.52-4.85-.93m-20.83 5.2c0 .47-.19 1.08 0 1.36.71.89 1.55 2.31 2.36 2.32a11.79 11.79 0 004.6-1.29c1.11-.47 2.26-1.21 2-2.76a5 5 0 00-4.9-4.14c-3.08-.06-3.41.26-4.07 4.5zM169 137.35c-.16-1-.13-1.79-.53-2.19-1.09-1.11-1-1.86-.12-3.19 1.29-2 .63-4.26.31-6.49a23.73 23.73 0 01.14-5.58c0-.46.71-.87 1.09-1.3a5.14 5.14 0 01.48 1.45v8c0 .33.38.66.58 1 .26-.27.54-.52.78-.81 1.43-1.72 2.78-3.5 4.28-5.14a4.38 4.38 0 012-1c.37-.11.84.14 1.27.23-.27.33-.53.66-.82 1-2.12 2.36-4.26 4.7-6.35 7.09-.23.26-.18.77-.26 1.17a4.68 4.68 0 011-.47c2.77-.47 3.81-.06 4.63 2a3.37 3.37 0 01.14 2.1 4.76 4.76 0 00.15 3.8c.77 1.6 1.39 2.47 3.2 1.31.5-.32 1.39 0 2-.22.75-.31 1.46-.59.54-1.84-1.78-2.42-.44-7.31 2.15-8.93 1.6-1 3.37-.24 3.39 1.62 0 2.33.63 4.82-.87 6.9-.87 1.22.55 1.46.66 1.38 1.56-1.17 2.84.73 4.42.29a16.73 16.73 0 014.48-.07 5.43 5.43 0 011 .22c-.25.33-.44.85-.76 1a5.39 5.39 0 01-2 .19c-3-.27-6.1.62-9.11-.58-.65-.26-1.73.69-2.65 1a16.23 16.23 0 01-3.74 1c-2.7.15-4.37-1.46-4.52-4.13a24.07 24.07 0 010-4.16c.17-1.46-.64-1.63-1.62-1.36a26.93 26.93 0 00-3.25 1.36c-1.53.67-.47 2-.7 3-.32 1.38-.46 2.81-.75 4.21 0 .2-.5.45-.74.43s-.61-.42-.58-.6c.16-1.07.43-2.12.66-3.53m18.05-6.6c-2.35 1.54-3.27 4-2.2 6.1a2.38 2.38 0 001.17.99c1 .32.85-.49 1.1-1.14a7.16 7.16 0 00-.1-6.11zM501 230.56a14.56 14.56 0 001.82-1.17c.94-.92 1.63-.2 1.9.44.88 2.15 1.45 4.4.67 6.75a4.29 4.29 0 01-3.26 2.85 7.8 7.8 0 00-1.31.62c.32.45.53 1.12 1 1.3a11.3 11.3 0 003.12.81c1.49.13 3 0 4.5.05a3.61 3.61 0 011.08.39c-.25.25-.48.69-.74.71-3 .26-6 .88-9-.43-.29-.13-.7-.28-.8-.53-1-2.46-3.49-2-4.79-1.4-2.37 1.11-4.36.26-6.4-.24-.94-.23-1.21-.71-1.18.6.06 2.42.05 4.85 0 7.27 0 .42-.43.83-.66 1.25-.36-.25-1-.45-1-.74-.24-1.64-1.63-3-.69-5 .8-1.72.76-3.84 1-5.8s.39-4.21.73-6.29c.43-2.67 4.07-4.46 6.46-3.05a16.61 16.61 0 013.89 3.51 3 3 0 01.51 3.39 8.73 8.73 0 00-.45 2.58 2.51 2.51 0 00.28.91c.33-.29.81-.53.94-.89a5.13 5.13 0 00.15-1.67 10.51 10.51 0 012.26-6.24m-8.16-.17c-.48-.22-1-.68-1.43-.62-1.67.24-3.94 5.81-3 7.27.06.1.15.22.24.24a47.1 47.1 0 005.67 1.34c.47.07 1.5-1 1.59-1.62.4-2.56.15-5-3.05-6.61m9.72 1.38a11.27 11.27 0 00-1.65 3.11c-.18 1-2 2.33-.18 3 1.43.57 2.44-.79 2.85-2.17a16.29 16.29 0 00.65-3.52c-.02-.17-.89-.47-1.7-.4zM207 185.08c1.6-.66 3-1 4.18.35s2.61 2.14 2.32 4.29c-.19 1.41-.41 2.38-1.95 2.63a9.4 9.4 0 00-2.19.57 6.64 6.64 0 00-1.37 1.14c.45.3.89.85 1.36.87 1.73.11 3.46 0 5.2.08.32 0 .64.39 1 .6-.28.25-.55.71-.84.72-1.84.07-3.7 0-5.55 0-.33 0-.81.07-1-.11-2.6-2.84-5.38-2.83-8.33-.58-2.55-.35-5.23.74-7.7-.68-.55-.32-1.21-.43-1.78-.72s-1.39-1.21-1.2.46a49.28 49.28 0 01.62 5.26c0 .83.9 2.3-.64 2.54-.93.15-1.37-.85-1.41-1.92s-.74-1.94-.6-2.82c.4-2.61-.25-5.17-.08-7.76.14-2.11-.4-4.51 2.69-5 .28-.05.51-.45.74-.72 1.78-2.1 2.89-2.45 4.7-.9 2.45 2.11 4.81 4.42 5.72 7.66.32 1.13.71 2.25 1.82 1.68.87-.45 3 .07 2.45-2.29a5.3 5.3 0 011.86-5.34m-14.75 7.81c1.14 0 2.3.07 3.44 0 1.29-.09 2.57-.31 3.85-.47-.6-1.24-1.14-2.52-1.81-3.72a23 23 0 00-1.68-2.4c-1.7-2.35-4.7-3.18-6.19 1.3-1.13 3.41-1.78 3.81 2.39 5.3m18.4-1.73a1.58 1.58 0 001.3-2.44 12.15 12.15 0 00-2.79-2.75c0-.05-.39.14-.54.29-.59.55-1.46 1-1.65 1.72-.36 1.25-.76 2.82-.3 3.88s1.7-.08 2.6-.34a4.22 4.22 0 001.34-.38zM105.61 237.5c2.48 4 2.11 5.36-2 7.44-1.52.76-3.2 1.18-4.77 1.85a6.23 6.23 0 00-1.33 1.1c.48.41.94 1.14 1.45 1.18a37.17 37.17 0 005.17 0c.73 0 1.43-.52 2.16-.61 2.09-.28 1.76-.24 1.74-2.52a11.49 11.49 0 011.49-5.56c1.11-1.95 3.22-2.64 5.53-2.36a2.72 2.72 0 012.56 2.25 37.19 37.19 0 01.7 5.25c.14 2.55 1 3.47 3.66 3.6 1.38.07 2.77 0 4.16 0 .19 0 .5.44.5.67s-.35.67-.52.66c-2.77-.2-5.63.65-8.32-.81-.73-.39-2-.82-2.47-.47-1.39 1.14-3 .77-4.26.53-3.09-.56-5.85.62-8.69 1.2s-4.59.06-6.29-2.65c-.35-.57-1.18-.84-1.78-1.24l-1-.63c.28-.26.55-.72.83-.72 1.49 0 1.65-.91 2-2.14a11 11 0 013.87-5.62c1.68-1.24 3.44-2 5.59-.4m5.39 3.3c-1.37 1.75-1 3.8-1 5.79 0 1.53.88 1.92 2.22 1.85 1.95-.1 3.34-.92 3.31-2.12 0-1.37-.53-2.77-.31-4.08.44-2.66.58-2.63-1.91-2.14a8.74 8.74 0 00-2.27.7m-5.91-1c-.41-1.23-1-1.58-2.42-1.13-2.69.83-3.62 3.16-5 5.13-.55.78-.15 1.38.77 1.18a28.49 28.49 0 004.61-1.4c1.24-.58 2.32-1.45 2.02-3.82zM220.17 472.87a3.22 3.22 0 003.62 2.63c2.84 0 5.59.19 7.74-2.41a5 5 0 001.33-3.65 23.63 23.63 0 01.14-4.12c.05-.37.83-.64 1.28-1 .21.43.62.87.61 1.29a12.19 12.19 0 01-.4 3c-.9 3.26.55 4.8 3.9 4.1s4.77-2.42 4.88-5.65a14.78 14.78 0 01.33-2.64c.06-.28.46-.49.7-.74a4.48 4.48 0 01.34.9c.51 3 .39 6.15 2.11 8.85a9.4 9.4 0 001.32 1.36c.25-.52.5-1 .74-1.55 1.76-3.69 2.59-7.85 5.73-10.83.78-.74 1.21-.74 1.74.07.28.43 1.75.79-.17 1.33-1.23.36-2.41 1.84-3.06 3.1a45.36 45.36 0 00-2.81 7.15c-.55 1.74 0 2.51 1.84 2 1.95-.52 4.28.08 5.89-1.72.17-.2.76 0 1.15 0a3.59 3.59 0 01-.29 1.18c-1.05 1.5-2.79 1.61-4.35 2a6.34 6.34 0 01-1.38 0c-3.26 0-3.26 0-4.29 3.26-.1.31-.23.6-.35.9-.24-.25-.57-.45-.71-.75s-.44-.93-.29-1.23c1.09-2.29-.27-3.55-1.72-5-.83-.83-1.07-2.25-1.57-3.4-1 .85-1.95 2.09-3.14 2.46-2.19.69-4.53 2.29-6.84 0a1.67 1.67 0 00-1.58.27c-1.74 2.66-4.7 3-7.29 3.37a6 6 0 01-6.26-3 10.18 10.18 0 01-1.58-5.28c.08-2.2.5-4.43-.46-6.72-.4-.95.77-2.57 1.27-3.86a.69.69 0 01.62-.11c.3.31.8.85.7 1.05-1.42 3-.3 6.08-.65 9.1a5.85 5.85 0 001.21 4.29zM390.45 476.86c-1-3.32-.63-6.39-.72-9.43 0-.33-.38-.66-.58-1-.26.27-.7.5-.76.81-.62 3.17-2.63 4.87-5.61 5.87-2.49.84-6.34-.72-7.3-2.66a6.88 6.88 0 01-.28-3.34 10.72 10.72 0 016.07-9.23c1.22-.67 2.26-.82 3.33.25a5 5 0 011.64 4.5c0 .13-.37.33-.53.3s-.68-.21-.78-.43 0-.68 0-1c-.24-2.84-1.62-3.61-3.83-1.92a10.35 10.35 0 00-4.49 8.88 2.87 2.87 0 002.68 2.85c4.57.44 6.21-.57 8.45-4.9a26.44 26.44 0 012.47-3.37c1.62 1.06 1 2.71.94 4.11-.07 4.92.94 9.65 2 14.43a22.82 22.82 0 010 8.28c-.17 1.11-1.72 2.22-2.88 2.92-2.49 1.51-5.19.58-7.72 0a16.25 16.25 0 01-5-2.18c-4.93-3.18-5.05-11.81-.3-15.39.17-.13.48-.07.73-.09a3.1 3.1 0 01-.23.93 27.39 27.39 0 00-2.7 6.19c-.71 2.24.35 3.6 1.21 4.93 2.2 3.39 10.51 6.27 14.6 2.89.35-.29 1-.6 1-.92a34.08 34.08 0 00-1.41-12.28zM351.4 342.69c-.75.74-1.28 1.37-1.91 1.87-.29.22-.78.18-1.17.26a8.44 8.44 0 01.54-1c.72-1 1.48-1.93 2.2-2.91.34-.47 1-1.33.88-1.41a4.87 4.87 0 00-2.13-1.46c-2.3-.4-6.84 3-7.26 5.37-.27 1.54.86 2.41 1.95 2.85 2.35 1 5.37-.3 7.22-2.47a10.45 10.45 0 012.85-2.31c2.64-1.49 4.77-.57 5.31 2.29a37.54 37.54 0 01.14 14.37c-.49 2.57-.47 5.2-1.46 7.75a10 10 0 01-9.46 6.84c-8.4.37-15-3.46-21.06-8.66a3.44 3.44 0 01-.55-1 2.87 2.87 0 011.17.25 41.22 41.22 0 0012.18 6.68c4.19 1.33 8.17 2.25 12.48.06a7.73 7.73 0 003.67-4.39 20.12 20.12 0 001.58-7.71c0-2.79.54-5.59.59-8.38a22.92 22.92 0 00-.68-5.26c-.44-2-2.34-2.56-4-1.24-1.16.93-2.11 2.14-3.22 3.15-1.86 1.71-6.85 2.1-8.44.73a4.63 4.63 0 01-.09-7.25c1.85-1.45 3.88-3.2 6.65-3.14 3.22.06 4.22 1.51 2.9 4.49a11.66 11.66 0 01-.88 1.63zM472.2 229.52a6.82 6.82 0 018 2.09c2.74 3.23 1.57 9.42-2.19 10.77-1.74.62-3.79.37-5.7.48-.12 0-.41-.43-.36-.52a4.5 4.5 0 011.05-1.5 1.39 1.39 0 011.27.13c1.77 1.39 3.47.4 4.42-.73a5.34 5.34 0 001.1-5.54c-.64-1.49-1.3-3-3.18-3.68-3.1-1.19-4.1-.38-5 2.83-1.6 5.8-1.23 11.64-1.32 17.49 0 .43-.43.84-.65 1.26a4.87 4.87 0 01-.83-1.18 17.89 17.89 0 01-.17-9.3 7.84 7.84 0 00.07-1.19 3.12 3.12 0 00-.72.48c-2.61 3.22-6.25 1.94-9.53 2.12a1.85 1.85 0 01-1.28-1c-.91-2 .25-7.32 1.88-8.89 3.43-3.29 6.42-2.24 7.89 1.33.51 1.24 1.14 2.43 1.71 3.65.32-1.26.61-2.52 1-3.77.43-1.55.88-3.1 1.41-4.62.1-.27.66-.38 1.18-.73m-12.67 12.67c1.74-.23 3.49-.38 5.21-.72 1.27-.26 2.5-2 2-3-.67-1.46-1-3.21-2.58-4.07a2.83 2.83 0 00-1.83-.49c-3.38 1.11-4.69 4.57-2.85 8.3zM443.39 224.31a5.47 5.47 0 011.56-.17 3.52 3.52 0 00-.27 1c.11 2.23-1.75 4.36-.16 6.74.36.54-.43 1.82-.58 2.77a3.89 3.89 0 00.26 1.26c.33-.29.79-.51 1-.87 1-2.29 2.67-3.77 5.26-3.92s4.57 1.44 4.54 4.09a57.89 57.89 0 01-.86 6.89 2.49 2.49 0 00.06 1 10.77 10.77 0 00.5 1.22c-.54-.08-1.37 0-1.57-.28a4.06 4.06 0 01-.78-2.4 21.58 21.58 0 011.09-3.69c.61-2.07-.3-4.64-2-5.14-.78-.23-2-.41-2.5 0-2.17 1.77-4 3.87-4.35 6.83-.12.84-.47 1.65-.67 2.48-.32 1.35-1 1.06-1.36.16-.58-1.32-1.47-.9-2.09-.37-2.7 2.31-5.94 1.84-9 1.64-2.81-.17-5-3.81-4.17-6.87a15.34 15.34 0 014.63-7.77 4.47 4.47 0 014-1.23c.74.16 2.53 3.24 2.42 4.15a1.66 1.66 0 01-.73 1c-.17.11-.76-.12-.93-.35-.43-.61-1.07-1.33-1-2 .19-2.68-1.62-.81-1.85-.64-2.43 1.71-3.72 4.32-4.92 6.92-.63 1.39 1.44 5.16 3 5.38a13.22 13.22 0 008.35-1.53 3 3 0 001.71-3.1 31.18 31.18 0 01.26-5.09c.11-1.59.19-3.19.39-4.78a17.16 17.16 0 01.76-3.33zM152.83 188.9c-1.05-.87-1.82-1.85-2.81-2.19-1.43-.49-2.9-1.64-4.57.09-1.89 2-2.65 4-1.94 6.67.14.52.56 1.12.4 1.52a2.37 2.37 0 01-1.3 1.3c-.31.1-1-.47-1.28-.9s-.13-.87-.13-1.32c0-1.56-.53-1.28-1.6-.67a18.33 18.33 0 01-10.5 2.28c-2.15-.15-4.49-2.54-3.81-4.48 1.69-4.81 4.32-9 9.17-11.32a1.62 1.62 0 012.53 1.27c.08.44.77 1.88-1 .75-2.13-1.32-3.52 1.21-4.82 2.21-1.6 1.24-2.58 3.45-3.5 5.39-1.24 2.63.2 4.72 3 4.78s5.52-1 8.18-2.05a3.27 3.27 0 002.35-3.56c-.08-3.93 0-7.86 0-11.8 0-.65-.05-1.52.32-1.91a5.59 5.59 0 012.06-.81c-.1.54-.21 1.07-.31 1.61a32.42 32.42 0 00-.66 3.88 61.86 61.86 0 000 6.24c0 .24.87.74 1.06.63 4.26-2.51 5.12-2.57 8.63-.56a10.31 10.31 0 014.1 5.05c.49 1.09 1 2.31.07 3.59a23.75 23.75 0 00-1.7 3.1 4.07 4.07 0 01.09-3.66c.82-2.03-.44-3.6-2.03-5.13zM349.49 472.7c.21-3.38-.57-6.48.67-9.45a.72.72 0 00-1.19-.77c-.91.85-2 1.62-1.61 3.17.05.2-.48.53-.74.8-.2-.22-.49-.4-.59-.65-.86-2.1-.65-3.78 1.55-4.58 3.42-1.23 3.82-3.79 3.95-6.65.05-1.05.32-1.55 1.35-1.3 1.41.34.6.9.24 1.64a13.35 13.35 0 00-.85 3.11c-.27 1.23.32 1.84 1.48 1.46a12.16 12.16 0 018.12 0 2.51 2.51 0 001.31-.14c2.88-.78 5.94.46 6.88 3.08 1.13 3.16 1.95 6.47-.48 9.41a23.33 23.33 0 01-4.11 3.61c-.5.38-1.73.66-1.93.41-.89-1.06-2.07-2.32-2.13-3.55a23.07 23.07 0 01.93-6.51c.82-3.31-.24-4.87-3.62-4.9h-2.78c-4.26 0-4.21 0-4.39 4.22-.13 3-.38 6.06-.71 9.08a11.49 11.49 0 01-1 2.65 3.76 3.76 0 00-.5-.48c-1.3-.87.13-1.52.16-2.28v-1.38m14.58-6.6c-1.1 2.24-.55 4.64-.71 7-.1 1.47 1.06 1.18 1.61 1 3.4-1.3 5.9-6.92 4.34-10.22a8.74 8.74 0 00-3.34-3.35c-1.58-.94-2.11-.29-1.92 1.82.09.97.01 2.02.01 3.75zM145.36 137.35c-1.79 4-5.11 5.66-8.67 6.89-2.33.8-3.55 0-4.49-2.67-.43-1.23-.91-1.14-2-.81a53.86 53.86 0 01-7 1.43c-2.33.35-5.15-1.85-5.52-4.25-.69-4.48 1.23-8.19 3.79-11.58.58-.77 2.35-1.66 2.71-1.38 1.06.83 2.82 1.56 2.47 3.37-.24 1.22 1.12 2.92-1.13 3.69-.75.25-.89.45-.9-.39a19.69 19.69 0 010-2.77c.21-1.61-1-1.49-1.73-1.2-2.29.94-4.25 7.51-3.3 9.93a3.55 3.55 0 003.79 2.56 15.74 15.74 0 007.37-1.48 2.84 2.84 0 001.42-1.88 12.31 12.31 0 011.3-4 2.62 2.62 0 012.12-1.63 10 10 0 017.89 1.76c1.38 1 1.3 2.71 2 4.4m-2.77-3.12c-.78-.35-1.53-.76-2.32-1a5.08 5.08 0 00-6 1.65c-.68.78-1.18 5.61-.56 6.47a2.07 2.07 0 001.33.85 9.86 9.86 0 006.87-2.44c1.76-1.51 1.49-3.29.56-5.52zM196.74 235.94a20.55 20.55 0 011.25-7.8c.16-.48.74-.82 1.13-1.23.13.52.5 1.11.36 1.53-1.23 3.67-.43 7.44-.64 11.16a3.58 3.58 0 00.36 1.17c.24-.24.47-.5.73-.73 2.54-2.24 4.83-1.62 5.82 1.63.69 2.26 1.27 4.56 1.8 6.87.08.33-.35.92-.7 1.17a1.13 1.13 0 01-1-.35 7.48 7.48 0 01-.72-2.12c-.29-1.51-.36-3.07-.76-4.54a3.05 3.05 0 00-1.47-1.83 2 2 0 00-2.63 1 6.82 6.82 0 00-.69 2.13 6.69 6.69 0 01-6.12 5.83 24.77 24.77 0 01-8.46.17 6 6 0 01-4.59-3.79c-.93-1.88-.21-3.74 1.22-5.14a63.64 63.64 0 015.36-4.62 2.66 2.66 0 012.07-.17c.36.1.53.87.79 1.35a6.84 6.84 0 01-1.19.38c-2.65.3-6.74 4.1-7.14 6.66-.17 1 1.45 3.39 2.93 3.51 4 .3 8.07 1.14 11.8-1.15.51-.32 1.27-1.11 1.17-1.42-1.14-3.07.83-6.32-.68-9.67zM528.44 241.67a16.26 16.26 0 01-6.56-3.13c-1-.72-1.3-.83-1.67.64-.54 2.13-3.23 3.7-5.28 3.55-2.72-.19-3.27-1.1-4.66-3.76-.72-1.36.24-1.85.38-2.66.36-2.15 1.52-4.24 3.57-4.94 2.44-.83 2.75-2.28 2.62-4.43a13 13 0 012.19-7.39c.28-.47 1.08-.63 1.63-.93a8.05 8.05 0 01.3 1.6c0 3.93.25 7.87-.06 11.77-.23 3 1.29 4.73 3.52 6a25.77 25.77 0 0011 3.53 7 7 0 012.13.69c.2.09.3.44.44.66-.33.15-.68.45-1 .41-2.81-.45-5.6-.95-8.58-1.61m-14.75-.87h2.42c.81 0 3.66-2.8 3.44-3.46a17.42 17.42 0 00-2-4.33 2.71 2.71 0 00-2.47-.45c-2.65 1-3.79 5.79-1.39 8.25m5.2-9.37a1.34 1.34 0 00.25.23.32.32 0 00.23 0c.31-3 .62-5.91.89-8.87 0-.22-.32-.48-.49-.72-.29.24-.75.41-.85.71a12.55 12.55 0 000 8.64zM444.61 40.84c3.06-.73 4.69-2.33 4.9-5.29a12.52 12.52 0 011-3 20.1 20.1 0 01.32 3c-.14 5.61-6.15 9.06-10.7 5.86-1.71-1.19-2.17-.59-3 .4-2.12 2.45-5.86 2.32-8 1.15-2.44-1.36-3.54-5.79-2.34-8.91s3.24-4.83 6.51-4.92c1.83 0 2.47-.86 2.26-2.54-.25-2.16 1-3.74 2.06-5.39.16-.26.75-.25 1.15-.37 0 .4.2.9 0 1.17-3 4.54-2 9.48-1 14.2.52 2.57 2.84 4.79 6.82 4.69m-14.93 0a8.35 8.35 0 005.92-3.19 2.66 2.66 0 00.63-1.78 22.15 22.15 0 00-.65-3.18 2.44 2.44 0 00-3.7-1.69c-4.17 2-5.07 5.33-2.2 9.84m6.59-1.73c-.94.71-1.89 1.41-2.82 2.14a4 4 0 00-.58.7 2.42 2.42 0 00.89.26 2.86 2.86 0 002.53-3.15zM231.46 392.16a26.18 26.18 0 00.5 2.91c.18.76.39 1.43 1.49 1.27 3.17-.45 6.61 1 9.51-1.38.14-.12.6.15.91.24-.19.24-.36.5-.57.73-1.77 2-4.27 2.14-6.61 2.41a14.12 14.12 0 01-4.21-.64 2.71 2.71 0 01-2.42-3.11 8.65 8.65 0 00-1.37-5 4.61 4.61 0 01-.33-.9c-.33.31-.77.57-1 1a4.1 4.1 0 00-.12 1.33c-.44 4.16-2.74 6.21-6.64 7.52-3.53 1.19-5.72-.11-7.85-2.45a8.21 8.21 0 01-1-4.74c.53-2.09 1.07-4.18 1.59-6.28.08-.32 0-.81.15-1 1-.83 2.58-2.44 3.09-2.17a12 12 0 013.64 3.64c.39.53.18 1.6 0 2.37a1.35 1.35 0 01-1.12.7c-.33 0-.61-.63-.91-1 1.2-.82.09-1.22-.33-1.7s-.76-.56-1-.92 1.53-.94-.11-1.18c-.67-.1-.93.17-1.39.91a15.35 15.35 0 00-2 8.91 3.79 3.79 0 002.63 3.27c3.82 1.59 7.7-.67 9.43-4.55 1.12-2.5 1.1-5 1.17-7.51a1.72 1.72 0 01.56-1c.06-.07.77.23.77.37.08 3.07 2.93 4.79 3.54 7.95zM254.54 193.76c.29-2.32.42-4.47.52-6.62 0-.69-.06-1.39 0-2.07s.33-1.62.5-2.42c-1.24 0-2.58-.38-3.68 0-.88.3-1.55.91-2.37.14a1.12 1.12 0 010-1 15.75 15.75 0 012.27-.71 11.89 11.89 0 011.92-.39c1.55-.16 2.15-.79 2.11-2.52a48.72 48.72 0 01.65-7c0-.2.46-.49.69-.48s.65.35.64.53a42.61 42.61 0 01-.43 6.41c-.5 2.56-.55 2.84 2 2.7a22.86 22.86 0 018.79 1.42c3.39 1.16 5.61 5.5 4.22 8.63a5.16 5.16 0 01-2 1.76 4.21 4.21 0 01-1.53.47c-1.48.32-3.36 1.56-4.36.09-.9-1.32-.78-3.34-1-5.07 0-.21.55-.47.62-.76.94-4 0-5.13-4.14-5.12a10.59 10.59 0 01-1.38 0c-.95-.1-1.4.07-1.44 1.23-.14 4-.42 7.9-.67 11.85a8.52 8.52 0 01-.42 1.51 6.87 6.87 0 01-1.61-1.08c-.23-.27 0-.89.13-1.53m15.1-9.54a3.14 3.14 0 00-.74-.72c-.77-.38-1.71-1.08-2.32-.87s-.91 1.4-1 2.2a47.56 47.56 0 00-.08 5.85c0 .29.71.81 1.05.79 3.85-.3 5.28-2.76 3.75-6.36a3.77 3.77 0 00-.69-.86zM132.87 337.31c.1-2.69-.41-5.09.68-7.33.09-.19-.07-.57 0-.66 1-.82 2.14-2.31 3.11-2.23a3.39 3.39 0 013 3.34c-.3 4.22 1.37 8.63-1.13 12.66-.16.25.11.77.18 1.16.31-.08.63-.15.93-.25.1 0 .15-.2.25-.23.79-.29 1.58-.56 2.37-.82.05 0 .16.15.24.23a8.44 8.44 0 01-2 1.72c-2 .83-4.06 1.35-6 2.17a3.7 3.7 0 00-1.64 1.7c-1 2-1.81 4.1-2.73 6.14a2.25 2.25 0 01-.69.82c-.69-.41-.56-.71-.17-1.48.77-1.5.78-3.42 1.64-4.84s.59-1.53-.89-1.74a25.52 25.52 0 01-5.25-1.49c-.45-.17-.63-1.06-.94-1.61a4.62 4.62 0 011.59-.29c1.59.3 3.15 1 4.73 1 1.14 0 1.94-1 2-2.39.1-1.76.43-3.51.67-5.6m5.55-6.6c-.93-.27-.32-2.2-2-1.76-1.26.33-1.31 1.16-1.54 2.24a54.33 54.33 0 00-1.32 12.19 7.27 7.27 0 00.34 1.56c.71-.24 1.63-.28 2.07-.77a8 8 0 002.44-5.52c.03-2.4.06-4.81.06-7.92zM223.82 184.56c.19-3.14-.54-6 .69-8.71a4.2 4.2 0 01.54-1.15 3.84 3.84 0 011.13-.55c.14.39.51.89.38 1.16-1.25 2.6-.54 5.35-.61 8a6.08 6.08 0 001.77 4.78c.25.24.65.45.71.74 1 4.46 4.69 4.22 8 4.72h1a6.51 6.51 0 01.92.29c-.3.33-.59.93-.9.94-2 0-4 .72-5.9-.54a14.55 14.55 0 00-1.43-.7l-2.53-1.36a16.89 16.89 0 01-1 2.34c-1.24 2.07-6.19 3.41-8.18 2.27-2.37-1.34-2.72-6.09-.8-8.53 1.62-2.08 3.92-2.69 6.22-3.75m1.39 9.38c1.12-1.65.88-3.2.08-5a2.29 2.29 0 00-2.49-1.62 4.15 4.15 0 00-4.27 2.87 4.78 4.78 0 00.67 4.69c1.63 1.72 3.28.53 4.91.07.28-.03.49-.39 1.09-.96zM229.55 46.92a6.33 6.33 0 01-2.29-5.2 80.68 80.68 0 011.19-14.88c-1.11-2.13.8-4.12.3-6.27-.12-.53.64-1.28 1-1.92.34.78 1.09 1.64.95 2.33a64 64 0 00-1.32 12.94c0 1.08-.12 1.64 1.48 1 3.4-1.26 9.48 2.29 10.33 5.7.42 1.69-.9 5-2.65 5.67-2.81 1.1-5.73 2.29-9 .58m-.18-9.2c-1.84 2.66-.29 5.09.84 7.32.33.66 2.35.49 3.6.65.56.07 1.14 0 1.72 0a3 3 0 003.18-2.09c.54-1.58.9-3.15-.43-4.67-2.52-2.83-5.66-2.49-8.9-1.16zM537.64 27c-1.75 4.4-.43 8.14 1.62 11.54 1.07 1.77 3.51 1.92 5.53 2.37a4 4 0 011.18.73c-.43.21-.89.65-1.29.59-1.39-.2-3-.18-4.06-.95-1.74-1.31-2.54-.56-3.72.64-2.28 2.3-5.28 2.67-8.31 2.4a4.22 4.22 0 01-3.45-3.83c-.38-3 .75-5.64 2.14-8.1 1.2-2.13 4.24-2.52 7.08-1.21.7.33 1.33 1.12 1.2-.47-.21-2.84 1.14-5.26 2.09-7.79a2.78 2.78 0 012.64-2.16 1.25 1.25 0 01.62.16.59.59 0 01-.1.46c-1.86 1.28-2.13 3.51-3.17 5.62m-9.72 8c-.46 1.54-1 3.06-1.33 4.62a2.57 2.57 0 00.76 1.72c1.46 1.7 3.1 1.58 5.28 1.13a8.58 8.58 0 004-2.22c1.89-1.52.43-2.6-.3-3.86-.37-.63-.41-1.45-.75-2.11-.85-1.65-3.33-3-4.79-2.34a7.27 7.27 0 00-2.87 3zM337 388a9.32 9.32 0 01-1.57 5.91c-.86 1.42-.24 2 .63 2.37a8.63 8.63 0 003.15.72c1.84.11 3.69 0 5.54.06.2 0 .53.4.54.63s-.33.71-.47.69c-3.4-.4-7 1-10.25-1.22-1.06-.73-2.74-.6-4.14-.82-1.63-.26-3.88.09-4.75-.85a8.52 8.52 0 01-1.77-5.39c0-3.24-.79-6.55.53-9.78.4-1 0-2.3.11-3.43 0-.48.61-.89.94-1.33.36.5 1.09 1.05 1 1.51-.21 1.83-.66 3.63-1 5.44-.75 3.59-.25 7.15.46 10.67.27 1.34 4.44 2.5 5.77 1.73.27-.16.4-.75.41-1.15a40.59 40.59 0 01.09-5.18 7.1 7.1 0 011.55-3.13 1.89 1.89 0 011.88-.16A6.92 6.92 0 01337 388m-1.74 2.78a21 21 0 00.31-2.62c0-.28-.44-.57-.69-.85-.22.19-.6.35-.63.58-.28 1.73-.49 3.48-.72 5.22.3 0 .81 0 .87-.13a19.31 19.31 0 01.85-2.21zM275.72 40.32c.42.42.63.83.91.89a20.65 20.65 0 0010-.44c.5-.15 1-1.22 1-1.89.14-2-.12-4 .11-5.89a18 18 0 011.37-4.27c.07-.2.75-.22 1.14-.2a1.52 1.52 0 01.16.9c-.17.95-.52 1.89-.62 2.85-.2 2 .1 4-.6 6-.41 1.19.39 2.77.55 4.19 0 .37-.25.78-.39 1.17-.32-.21-.87-.36-.93-.62-.38-1.65-1.4-1.19-2.36-.76a13 13 0 01-10.19.55c-1.24-.48-2.06-2.37-2.8-3.77a6.85 6.85 0 01.66-7.5 4.14 4.14 0 014.79-1.72 3.86 3.86 0 012.94 3.32c0 .39.63.76.6 1.1a1.94 1.94 0 01-.81 1.05c-.45.32-1 1.07-1.51.06-.36-.67-1-1.31-1-2 0-1.13-.19-1.68-1.51-1.56-1.16.1-2.23 0-2.73 1.39-.92 2.54-1.05 4.92 1.22 7.15zM152.83 30.25a7 7 0 016.24.38c.33.17.51.63.76 1a5.43 5.43 0 01-1 .22h-8A6.54 6.54 0 00145.6 34c-.28.35-.68 1.06-.57 1.18a2.18 2.18 0 001.38.74 22.38 22.38 0 019.46 1.46 7 7 0 012.9 2.06 2.87 2.87 0 01.07 2.7 11.87 11.87 0 01-7.27 4.91c-1.81.35-5-1.78-5.5-3.59a3.15 3.15 0 01.08-1 3.73 3.73 0 011 .47c1.16 1.07 2 2.37 4 2.11a9.6 9.6 0 005.24-2.44c1.4-1.24 1.07-2.57-.58-3.54a8.28 8.28 0 00-4.1-1.06 58 58 0 01-7.68-.73c-.57-.09-1.32-1.19-1.37-1.87-.1-1.44 2.24-4.05 3.7-4.27 2.08-.31 4.19-.47 6.47-.88zM301.41 30.25c-1.72 1.72-3.28 3.23-4.77 4.82-.31.32-.32.93-.47 1.4a4.6 4.6 0 001.18-.09c4.59-1.52 7.78.61 9.65 4.84s1.83 8.73 1.47 13.23a6.53 6.53 0 01-2.4 3.72c-.05-.62-.35-1.36-.12-1.86 2.74-5.92.84-11.37-1.8-16.64-1.07-2.14-4.48-2.87-6.81-1.87-1.28.55-2.53 1.15-3.8 1.7a7.68 7.68 0 01-1.82.62 3.65 3.65 0 01-1.24-.31 3.65 3.65 0 01.49-1.17c2.34-2.4 4.72-4.76 7.09-7.13 1.56-1.55 3.05-3.17 4.71-4.6.35-.3-.42-1.83.92-.94.82.54 1 1.18.11 1.92s-1.48 1.46-2.39 2.36zM174.52 201.23v3.81c0 .36-.34.7-.52 1.05-.38-.22-.94-.34-1.09-.66a4.36 4.36 0 01-.43-1.89v-12.49c0-3.76 2.44-6.22 5-8.27 2.4-1.9 6 .13 6.84 3.14a6.45 6.45 0 01-.67 5.79c-1.48 2.14-3.9 2.72-6.26 3.25-.65.15-1.54-.1-2 .26s-2.7.32-1.05 2.16c.77.85-.67 2.33.14 3.85m3.82-8.34c4.19-.77 5.66-2.95 4.45-6.95a3.16 3.16 0 00-2-2c-1.24-.13-3-.89-3.81.65-1.14 2.05-2.41 4.11-2.44 6.62-.02 2.79.21 2.97 3.84 1.68zM209.24 459.5a13.35 13.35 0 00-3 1.24c-2.11 1.36-2.32 3.69-2.56 5.84-.4 3.46-.53 7-.72 10.44 0 .77 0 1.27-1.07 1.27s-1.17-.58-1-1.29c1-4.86.38-9.95 2.06-14.73a6.29 6.29 0 018.81-3.44 3.6 3.6 0 011.58 1.42c1.64 3.85 3.2 7.73 1.53 12-.27.7.11 1.66-.16 2.36s-1.08 1.5-1.46 1.41c-.73-.16-1.6-.59-1-1.94a16.29 16.29 0 001.19-8.64c-.34-2.65-1.06-4.92-4.2-5.94zM212.71 124.16c.44 4.92-1 9.56.5 14.12.07.22-.81 1.09-1.27 1.1-3.23.1-6.47.17-9.7 0-1.65-.09-4-2.62-4.11-3.92-.14-2.16 1.05-3.24 3.62-4.43 3-1.38 5.69-1.88 8.39.56.69.62 1.2.14 1.19-.81v-9a7.66 7.66 0 010-1.73c.07-.3.52-.5.81-.75.18.23.51.46.52.7.05 1.27 0 2.54 0 4.16m-11.46 13.19c.58 0 1.29-.22 1.7 0 1.79 1.11 3.73.58 5.6.6a2.66 2.66 0 001.95-1c.73-1.07-1.18-5.1-2.54-5.19-2.52-.15-5.15-.52-7.18 1.76-1.37 1.7-1.47 1.61.52 3.83zM276.76 191c-1.5-.66-1.61-.66-1.54-1.67.17-2.57.39-5.14.72-7.69.05-.43.69-.78 1.05-1.16.11.51 1.53.58.49 1.47.25.18.6.58.74.51.69-.31 1.32-1.06 2-1.06 1.12 0 2.49 1 3.29.62 1.08-.52 1.56-2.14 2.57-2.94s2.42-.84 3.93-.13c2.45 1.16 4.72 3.66 4.62 6.29-.06 1.75.72 3.65-.63 5.27a2.6 2.6 0 00-.28.93c-.16-.34-.24-.77-.5-1-.75-.67-.43-1.11-.13-2 .92-2.68-.19-6.12-2.16-7.25a4.73 4.73 0 00-4.43-.59c-.92.42-1.92 3.51-1.79 4.76a43.26 43.26 0 01.22 4.41c0 .34-.36.68-.55 1-.37-.22-.88-.35-1.08-.67a3.41 3.41 0 01-.41-1.55 12.72 12.72 0 00-.09-3.1 3.84 3.84 0 00-1.82-2.21 2.61 2.61 0 00-2.22 1 12 12 0 00-1.41 3.56c-.3.99-.3 2.02-.59 3.2zM151.09 132c1.79-1 3.61-1.11 5.27-2.13 2.09-1.28 6.06 1.06 7.74 4 .37.65.6 1.37.94 2a3.3 3.3 0 01-.78 4.5c-3.64 3.08-7.93 3.7-12.42 3.07-1.91-.27-2.77-1.94-3-3.83a9.62 9.62 0 012.26-7.61m5 10.24a8.3 8.3 0 011.45-.68c1.16-.28 2.36-.39 3.5-.73 1.55-.46 3.27-2.31 2.93-3.17-.82-2.14-1.53-4.46-3.66-5.7a4.28 4.28 0 00-3-.55c-1.65.45.3 1.57-.16 2.4a6.58 6.58 0 00-.42 1.43 5.53 5.53 0 00-.31-1.26c-.16-.31-.53-.51-.81-.77a9.35 9.35 0 00-.54 1 1.13 1.13 0 000 .68 8.5 8.5 0 00.42 1c-.4-.11-.93-.1-1.15-.36a2.74 2.74 0 01-.64-1.44c-.12-1-.47-1.13-1.31-.67-1.42.78-2.68 4.66-2.14 6a4.52 4.52 0 004.12 2.8c.36.01.7-.01 1.74-.01zM527.4 67.05c-2.32-1-4.47-1.85-6.73-.52a7.29 7.29 0 00-1.42.73 9.09 9.09 0 00-1 1.63c.64.37 1.29 1.08 1.92 1.06 4.3-.13 8.6-.29 12.87-.73 1-.11 2-1.34 3-2a4.13 4.13 0 011-.35c0 .34.16.78 0 1-.49.74-1 1.78-1.68 2a37.69 37.69 0 01-6.32 1.48 50.69 50.69 0 01-7.67.66c-1.57 0-3.35-.2-4.43-1.72-.94-1.33-.47-3.81 1.13-4.39 2.36-.87 4.74-2.52 7.48-.88.43.26 1.12 0 1.68.12 1.18.18 1.58-.2 1.54-1.48-.1-3.34 0-6.69 0-10a3.45 3.45 0 01.27-.92c.33.28.81.51.94.87a4.85 4.85 0 01.16 1.67v9.7c-.14 2.14-.14 2.14-2.74 2.07zM262.18 42.4a16.44 16.44 0 01-3.49.51c-2.45 0-3.28-.85-3.65-3.24-.49-3.16.79-5.86 2.35-8.35a4.36 4.36 0 015.13-1.47 4.72 4.72 0 012.73 2.95c.34 1.62-.2 3.45-.49 5.17a3 3 0 001.43 3.2 6.74 6.74 0 002.33 1c.88.18 1.84 0 2.75.07.64.09 1.79-.67 1.77.75 0 .21-1 .59-1.59.58-2.41-.05-4.94.59-7.07-1.31-.38-.34-1.34-.05-2.2.12m-4.34-7.46a12.68 12.68 0 00-1.21 1.93 3.6 3.6 0 001.19 4.15c.56.49 1.86.36 2.75.16a2.65 2.65 0 002.19-3.16 13.55 13.55 0 01.51-4.27c.3-1.27-.41-1.66-1.3-1.89-1.77-.47-2.69.16-4.13 3.1zM406.59 237.85c-1.32-3.29-1.34-3.32 1.35-5.14a13 13 0 013.15-1.59 1.92 1.92 0 001.59-2.18 22.94 22.94 0 010-3.8c.07-.59.63-1.12 1-1.67.31.62.88 1.25.87 1.86-.08 2.82-.31 5.64-.49 8.45-.08 1.12-.23 2.27 1.37 2.52.26 0 .45.46.68.71a2.86 2.86 0 01-.91.3c-1.07 0-1.36.17-.89 1.39.79 2 .25 2.75-2 3.53-3.28 1.12-4.52.88-5.38-1.37-.33-.83-.11-1.88-.31-3m2.26.87c-.93 1.27-.26 2.48.81 2.65s2.2-.66 3.22-1.21c.25-.13.36-1 .16-1.35-.74-1.19-1.91-.91-3-.57a3.27 3.27 0 01-1.19.48m-.35-4.52c-.64.67-1.6 1.35.21 1.75s2.54-1.12 3.55-2.08c.25-.23.22-.75.32-1.14a3.2 3.2 0 00-1.15 0 16 16 0 00-2.96 1.46zM191.88 43.62a6.29 6.29 0 006 0c.38-.19 1.05.17 1.58.28-.38.39-.68 1-1.14 1.15a11.89 11.89 0 01-8.47-.07c-1.45-.56-1.8-1.34-1.14-2.82.58-1.32.27-1.66-.94-1s-1.4 0-2-.51c.5-.42 1.08-1.27 1.48-1.19 3.36.7 3.76-3 6-3.93-.31-.33-.67-1-.93-.94-1.82.28-3.62.7-5.42 1.09-.63.14-1.43.14-1.84.53-.8.74-.87-.2-1.26-.37a5.76 5.76 0 01.6-.61c2-1.45 4.36-1.81 6.75-2.1a23.29 23.29 0 012.49-.63 3.69 3.69 0 012.06.78c.18.14-.12 1.11-.39 1.59-.49.86-1.22 1.57-1.66 2.44a5.89 5.89 0 00-.28 1.86 5.17 5.17 0 011.36-.45c1.73-.05 3.46 0 5.19 0a3.63 3.63 0 01.92.29 6.31 6.31 0 01-.78.39 18.37 18.37 0 01-2.49.68c-1.86.29-3.75.38-5.59.77a2.72 2.72 0 00-1.46 1.5c-.26.7-.06 1.46 1.36 1.27zM159.77 250a6.35 6.35 0 01-.37 1.91 5.74 5.74 0 01-.86-1.08c-.73-1.66-1.34-3.37-2.09-5a11.31 11.31 0 00-1.62-2.78c-1.91-2.22-3.18-2.09-4.58.46-.82 1.49-1.37 3.13-2.13 4.65a10.69 10.69 0 01-1.34 1.69c-.47-.66-1.23-1.26-1.36-2a34.13 34.13 0 01-.71-6.28c0-3.25-.57-6.58.67-9.74a8.61 8.61 0 011.47-2.48c.19-.21 1.19 0 1.59.36.6.48.75 1.06-.32 1.39-1.87.57-1.8 2.52-2 3.8a61.15 61.15 0 00-.07 9c0 .57.59 1.13.91 1.69a11 11 0 01.74-1.24 25.77 25.77 0 012.46-3.12c2.15-2.14 4.81-2 6.16.61s2.22 5.31 3.45 8.16zM227.46 248.61c1.06-.36 2-.41 2.82-.78a6 6 0 002.38-1.71c2.29-3.29 2.36-6.44-2-8.53a2.81 2.81 0 00-4 1.8 28.3 28.3 0 00-.7 5.26c-.1 3.35 0 6.7 0 10 0 .64.26 1.35-.91 1.41s-1.18-.67-1.18-1.5a96 96 0 01.1-10 24.12 24.12 0 012.21-7c1.22-2.71 6.54-1.84 8 0a7.78 7.78 0 01-.61 9.95c-1.59 1.79-3.28 2.79-5.65 2.28-.32-.06-.45-.66-.46-1.18zM349.49 392.16c2.38-2.08 4.72-1.39 7.06-.24a8.42 8.42 0 002.05.9c.81.15 1.51.19 1.17-1.23a17.69 17.69 0 01-.07-4.43c0-1.47.11-2.94.21-4.42a14.76 14.76 0 01.29-2.3 1.12 1.12 0 01.72-.7c.2 0 .62.36.7.63a5.36 5.36 0 01.33 2.27c-.92 4-1.46 8 0 12 .16.44-.17 1.06-.27 1.6a9.68 9.68 0 01-1.18-.41 16.54 16.54 0 01-3.08-1.74 6.54 6.54 0 00-5-1.26 7.49 7.49 0 00-1.51.4c.18.62.16 1.47.57 1.82a15.08 15.08 0 003.77 2.57c2.17.9 4.49 1.43 6.74 2.15.22.07.39.3.59.46a2.32 2.32 0 01-.61.21 17.25 17.25 0 01-11.82-4c-1.01-.74-2.38-2.32-.66-4.28zM92.08 197.23c-2.65 1.13-5 .45-7.17-.66a5.12 5.12 0 01-2.61-2.66 9.73 9.73 0 010-5.48c1.9-5 6.85-8.54 11.73-8 1.92.2 4.11 2.36 4.13 4.22 0 .42-.08 1.15-.29 1.21a2.55 2.55 0 01-1.59-.08 2 2 0 01-.87-1c-1.79-3.65-2-3.69-5.61-1.9a11.86 11.86 0 00-5.27 4.65 5.76 5.76 0 00-.31 5.94c1.09 2.15 2.79 2.33 4.7 2.22 2.92-.16 5.82-.46 8.74-.65a3.38 3.38 0 011.18.35 3.87 3.87 0 00-1.17.5c-1.59 1.46-3.54 1.11-5.59 1.34zM568.88 34.59a31.53 31.53 0 00-3.81 0c-2.05.27-2.67-1.51-3.78-2.53a1.63 1.63 0 01.25-1.53c1.43-1 1.58-2.63 2.45-3.87a5.41 5.41 0 012.16-2.12c2.49-.8 2.2-3 2.72-4.77.3-1 .43-2.13.74-3.16.09-.32.51-.53.78-.79.19.45.6.94.54 1.35q-.58 4.07-1.37 8.1a2.33 2.33 0 001.77 3c1.68.4 1.28 1.29.37 1.66-2.39 1-2.25 2.34-1.51 4.41.47 1.32-.46.73-1.31.23m-2.43-1.38c2.43-.47 2.63-.7 1.74-2.06-.73-1.11-4-1-4.65.15-.15.29-.08 1 .12 1.13a8.77 8.77 0 002.79.78m-1-5.21c1.26 1.1 1.77-.82 2.78-.7-.07-.53-.14-1.06-.2-1.59-.39.06-.86 0-1.14.2a4.34 4.34 0 00-1.48 2.11zM80.79 135.27c0 4.17.84 4.71 4.51 5.65 3 .78 5.89-.79 8.81-.1.42.1.84.22 1.25.34-.38.16-.78.31-1.16.49-3.49 1.68-7.27 1.55-10.9 1.15-3.17-.35-4.92-4.63-3.91-8 .86-2.91 2.07-5.41 5-6.94 2.11-1.13 3.72-1.41 4.92.41 1 1.55 1.36 3.58 1.89 5.42.06.19-.62.83-1 .84a1.48 1.48 0 01-1-.83 25.13 25.13 0 01-.73-2.47c-.83-2.53-1.52-2.84-3.67-1.48a9.73 9.73 0 00-4.01 5.52zM54.41 142.21h10c.36 0 .71.54 1.07.83-.36.17-.7.48-1.07.5-4.52.26-9 .48-13.56.71a16.64 16.64 0 01-1.73 0c-1.58-.08-1.65-.82-1-2.09 1.5-3 4-5.19 6.16-7.63a8.17 8.17 0 00.73-1.11c-.55-.32-1.18-1-1.66-.9-1.45.28-2.84.92-4.29 1.28a4.21 4.21 0 01-1.59-.28c.23-.48.33-1.2.71-1.39a11.6 11.6 0 017.16-1c1.57.24 2.07 2.54.91 3.94-1.71 2.09-3.58 4.06-5.34 6.11a5.36 5.36 0 00-.62 1.42c.48-.06.95-.13 1.43-.18.79-.05 1.57-.13 2.69-.21zM50.77 341.3c-1.08 1.3-2 2.39-2.85 3.58a9.83 9.83 0 00-.8 2.15c.83.23 1.91.91 2.44.61 2-1.11 4-.42 6-.58a3.38 3.38 0 011.82.56c.3.18.35.75.51 1.15a3.28 3.28 0 01-.9.33h-9.7c-1.49 0-2.46-1.14-1.76-3.19a12.85 12.85 0 012.41-3.84c1.71-2.1 3.58-4.06 5.34-6.12a2.09 2.09 0 00.34-1.17 1.37 1.37 0 00-.88-.26c-1.89.42-3.78.89-5.66 1.38-.62.16-1.18.54-1.8.65a3.28 3.28 0 01-1.25-.29c.15-.39.18-1 .46-1.15a14.56 14.56 0 014-1.91 17 17 0 015.18 0c1.67.19 2.23 1.88 1.15 3.31-1.2 1.59-2.57 3.08-4.05 4.79z"/><path d="M326.05 345.81c.52-2.45.75-4.76 1.26-7a16 16 0 011.64-4.16c1.19-2.16 3.39-1.59 5.24-1.44 2 .15 4.75 3.22 4.85 5.27a10.27 10.27 0 01-.75 5.58c-1.1 2.08-.73 2.58 1.62 3 .42.08.83.23 1.24.34a9.35 9.35 0 00-1.17.5c-1.62 1-2.49-.24-3.63-1.07-1.3-.95-.51-1.68-.06-2.55 1.12-2.15 2.28-4.24.73-6.78-1.35-2.2-2.77-3.14-5.08-3-2.1.17-2.65 1.94-3.2 3.38a23.46 23.46 0 00-.78 4.88 32.22 32.22 0 00-.65 3.87c0 1-.46 1.14-1.25 1.07s-1.26.16-1.68-1a11.54 11.54 0 01.81-9.58 4.1 4.1 0 01.37-.48c.11.19.31.38.3.56 0 .67-.11 1.34-.15 2-.11 2.33-.21 4.65-.31 7a.38.38 0 00.23 0c.1-.03.17-.13.42-.39zM125.23 49.87c.07 2.33-2.07 1.44-3.32 2a7 7 0 01-2.74.06c-2.51 0-4.3-1.49-4.3-4a33.55 33.55 0 01.83-6.93c1-4.44 3.19-8.4 5.41-12.3a23.94 23.94 0 013.65-4.36c.27-.29 1-.09 1.59-.12 0 .86.41 2 0 2.52-6.5 7.49-6.54 7.47-8.9 14.58a19.05 19.05 0 00-1.16 4.69 7.05 7.05 0 001 3.7 2.48 2.48 0 002.32.73c1.72-.89 3.51-.44 5.62-.57zM205.94 49.35c3.91-2.44 6.79-5.38 7.44-9.91.22-1.58 1.22-3 .49-4.81a11.46 11.46 0 00-7.77-7c-2.46-.78-5-1.39-7.44-2.12a.9.9 0 01-.49-.7.93.93 0 01.54-.64 1.55 1.55 0 011 0c3.79 1.45 7.85 1.95 11.44 4.2 4.1 2.58 4.86 6.24 4.24 10.33a18.52 18.52 0 01-7 11.57c-.8.66-2.39 1.73-2.45-.92zM304.88 180.57c1.56 1.77.76 3.68.83 5.43.14 3.65 2.11 5.17 5.79 4.28a5.92 5.92 0 012-.13 4 4 0 011.26.65c-.41.23-.81.48-1.23.7a6.65 6.65 0 01-6 0c-1.67-.7-3.19-1.43-5.17-.15a3.49 3.49 0 01-4.1-.69 3.86 3.86 0 01-.62-4.43 18.42 18.42 0 013.89-5.29c.62-.62 2.1-.4 3.36-.39m-2.95 1.91a17.41 17.41 0 00-2.14 2.91 5.74 5.74 0 00-.6 3.25c.11.59 1.59 1.55 2 1.36a5.17 5.17 0 002.4-2.31c.58-1.25-.61-2.94.75-4.17.35-.32 1-.54.22-1.25s-1.37-.47-2.64.23zM165.5 184.56a20.51 20.51 0 012.88 1.39 6.3 6.3 0 012.67 6.73c-.27 1.48-2.21 2.69-4.66 3-1.07.13-2.11.56-3.18.65a4 4 0 01-4.63-3.67 6.11 6.11 0 011.37-4.95c1.4-1.53 2.44-3.82 5.55-3.16m3.82 8.33a13.1 13.1 0 00.31-2.62c-.11-1.21-2.3-3-3.24-2.79a11.43 11.43 0 01-3.23.5c-1.89-.22-2.13 1.17-2.47 2.31a15.65 15.65 0 00-.07 2.75c-.15 1.67 1.61 1.89 2.13 1.82a29.94 29.94 0 006.57-1.96zM63.44 195h4.15c.24 0 .47.33.71.51-.25.28-.47.8-.74.82-3.82.28-7.64.56-11.46.68a5.64 5.64 0 01-2.35-1c-.88-.45-.57-.87 0-1.47 2.41-2.56 4.76-5.17 7.1-7.78a3.93 3.93 0 00.51-1.16 6 6 0 00-1.21-.36 5 5 0 00-4.21 1.55 1 1 0 01-.93 0c-.29-.27-.67-.92-.55-1.09 1.28-1.9 3.51-1.93 5.42-2.55 1.58-.5 2.65.5 3.41 1.66a2 2 0 01-.27 1.81 39 39 0 01-3.15 3.88c-1.24 1.36-2.61 2.61-3.88 4a.91.91 0 00-.06.89c.15.2.71.38.87.26 1.97-1.46 4.2-.29 6.64-.65zM208.54 245c.46-2.32 1.21-4.12 2.92-5.36.37-.27.63-.72 1-.87 2.82-1.07 9.36 2.81 9.88 5.82.24 1.38-1.45 3.57-3.51 4.28a13.26 13.26 0 01-4.08.92c-1.51 0-3.3 0-4.45-.79-1-.65-1.22-2.4-1.79-4m10.77 2.08c1.41-2 1.4-2.59.13-4a5.13 5.13 0 00-6.45-1.58c-1.78.72-2.54 1.54-2.36 4.16.08 1.3 1.46 3 2.66 2.79 1.83-.32 3.58-.94 6.05-1.4zM87.56 343.73c2.69.52 5.21.84 7.72 1.24.3 0 .53.51.79.78-.22.2-.44.55-.67.56a53.4 53.4 0 01-6.93 0c-2.78-.31-4.3-3.48-3.73-6.39a22.72 22.72 0 012.63-6.23 6 6 0 014-3c2.24-.69 3.53 1.48 4.7 2.95.63.79.4 2.27.49 3.45a2.4 2.4 0 01-1.23.16 1.16 1.16 0 01-.63-.9c0-1.63-.42-3-2.13-3.56a2.84 2.84 0 00-1.86-.15c-2.82 1.4-5.13 6.82-4.28 9.92.11.44.63.67 1.13 1.17zM127.83 239.24a11.29 11.29 0 012.94-1.86c2.45-.67 5.65 1.38 6.24 3.84a2.22 2.22 0 01-.06 1.35 2.46 2.46 0 01-1 1c-.07 0-.54-.39-.7-.67-.52-.94-1-1.92-1.49-2.85-.86-1.51-2.08-1.36-3.34-.58a5.77 5.77 0 00-2.4 6.25 2.7 2.7 0 002.73 2.09c3.68-.07 7.39.24 10.89-1.37.4-.18 1.05.18 1.59.29-.38.39-.7 1-1.15 1.14a48.7 48.7 0 01-6.06 1.27c-1.6.2-3.28-.19-4.85.1a3.74 3.74 0 01-4.19-2.28c-.58-1.23-2-2.75-.44-4.51.68-.78.77-2.03 1.29-3.21zM64.3 236.46a27.62 27.62 0 011.19 3.54.87.87 0 01-.45.73 1.06 1.06 0 01-.87-.3 19.38 19.38 0 01-2-2.66c-1-1.73-2.42-1.11-3.33-.33-2 1.74-4.16 3.48-3.82 6.73.26 2.41 1.63 4.09 4.17 4.22 2.08.1 4.17 0 6.25 0 .21 0 .41.28.62.44-.16.16-.3.4-.5.47a5.07 5.07 0 01-1.55.44c-2 .05-3.93.07-5.89 0-2.75-.09-5.79-3.74-5.07-6.38a16.77 16.77 0 012.56-5.5c1.8-2.3 4.02-3.86 8.69-1.4zM171.75 43.62c-1.11-3.35.82-8.13 3.6-9.76 1.21-.71 2.13-.84 3.25 0 2.37 1.85 4.88 3.49 5 7a3.6 3.6 0 01-1.83 3.37C179.1 46 176 45.84 173 45.63c-.47 0-.86-1.08-1.29-2m1.39-3.12c0 4.24.19 4.36 4.45 3.18.21-.06.45 0 .67-.06 4.51-.92 5-2.16 2.51-5.85-.13-.18-.3-.33-.45-.5-2.14-2.58-3.95-2.63-5.95-.05a9 9 0 00-1.19 3.27zM249.51 25.57c-.23 1.63-.57 2.92-.68 4.22-.29 3.36-.57 6.73-.68 10.1-.1 2.91 0 2.92 3.08 3a12.66 12.66 0 011.38 0 .59.59 0 01.34.5c0 .3-.16.76-.37.84a4.64 4.64 0 01-6.48-4.54 73.22 73.22 0 011.18-8.14c.1-.67.07-1.35.15-2 .17-1.53-.4-3.1.61-4.62.32-.48-.43-1.61-.51-2.46a6.49 6.49 0 01.34-1.8c.55.46 1.41.84 1.57 1.41a14.72 14.72 0 01.07 3.49zM41.91 333.14c-1 3.86-2.48 7.24-2.77 10.94v.34c-.35.62-.72 1.24-1.09 1.86-.33-.78-1.09-1.68-.92-2.33 1.32-5 2.79-9.88 4.28-14.79.8-2.65 1.72-5.27 2.61-7.89.09-.25.4-.42.61-.63.25.28.67.52.73.83a3.41 3.41 0 01-.07 1.68c-1.1 3.22-2.29 6.43-3.38 9.99zM44.86 127.8c.74-1.89 1.26-3.64 1.9-5.33a8.05 8.05 0 011.24-1.64 6.14 6.14 0 01.18 2c-.61 2.38-1.35 4.73-2.05 7.09-.92 3.07-1.84 6.15-2.79 9.21a4.33 4.33 0 01-.76 1.4c-.16.21-.58.22-.88.32-.12-.37-.41-.8-.32-1.11 1.04-3.95 2.18-7.86 3.48-11.94zM46.25 192.72c1.4-5.32 3.63-10.27 4.06-15.75.1-1.19 1.06-2.31 1.62-3.47.13 1.18.62 2.46.34 3.53-1.25 4.77-2.67 9.5-4.16 14.2-.21.67-1.11 1.12-1.86 1.49zM28 140.82v-13.78c0-.5.49-1 .75-1.49a4.79 4.79 0 01.58 1.32c.35 3-.68 6.1.72 9-1.65 2.34.84 4.67 0 7-.2.56.28 1.36-.89 1.42s-1.31-.5-1.22-1.43c.13-.54.06-1.12.06-2.04zM30.8 184.56c.24 4 .49 7.56.67 11.17 0 .43-.38.89-.58 1.33a8.57 8.57 0 01-1.33-.94c-.18-.2-.14-.64-.14-1 0-4.08.26-8.18-.68-12.21a2.69 2.69 0 010-1.38 4.88 4.88 0 01.75-1.16 4.33 4.33 0 01.59 1 28.16 28.16 0 01.72 3.19zM23.34 32c1.18.47 1.19 1.45 1.24 2.51.16 3.37.41 6.74.69 10.1a3.63 3.63 0 00.73 2.08c.73.71.55 1.21-.14 1.46-.45.16-1.1-.2-1.64-.39a.77.77 0 01-.34-.54c-.25-1.63-.55-3.26-.69-4.9-.2-2.45.31-4.92-.63-7.36-.29-.74.38-1.85.78-2.96zM455.71 36.68c-1.13-2.41-2.26-4.48-3.41-6.53-.37-.66-.87-1.25-1.17-1.93-.09-.22.25-.68.49-.94.09-.1.59 0 .69.12 2.33 3.39 5.48 6.4 4.85 11.14-.15 1.12.44 2.33.61 3.5a1 1 0 01-.35.84.9.9 0 01-.88-.22c-.81-1.3-2.52-2.44-.86-4.28.23-.26.03-.9.03-1.7zM30.11 245.66v-8.33a4.32 4.32 0 01.53-1.39c.51.39 1.43.75 1.46 1.16a33.8 33.8 0 01-.25 4.37 25.78 25.78 0 00-.22 3.27c.1 1.89.38 3.77.5 5.67 0 .25-.48.53-.74.8-.2-.21-.54-.39-.58-.64-.26-1.51-.47-3.04-.7-4.91zM406.94 50.39c-1.92-.34-1.51-1.17-.59-2.21a24.28 24.28 0 002.68-3.4c1-1.71.44-3.07-1.46-3.81-.5-.19-1.13-.08-1.62-.29s-.57-.62-.85-1a5.44 5.44 0 01.93-.27c1.92-.14 4.94 1.12 5.19 2.43a5.52 5.52 0 01-1.63 5.2 41.81 41.81 0 00-2.65 3.35zM34.28 323.42c.17-.92.25-1.94.54-2 1.14-.27.86.73.83 1.33q-.32 6.21-.7 12.43c0 .22-.28.42-.43.63-.16-.16-.38-.29-.48-.49a3 3 0 01-.44-1.18v-9.63c.01-.25.4-.51.68-1.09zM315.47 344.25c.1 2.14 1.37 2.1 2.67 2.12.27 0 .53.49.8.75-.33.2-.65.55-1 .58-2 .15-3.83-1.13-3.82-3 0-2.79.4-5.57.67-8.35 0-.17.53-.42.78-.39a.84.84 0 01.55.63c.06 1 .44 2.38-.05 3-1.07 1.47-.34 2.92-.6 4.66zM200.21 399.79a22.94 22.94 0 01.7 4.67 15.62 15.62 0 00.35 2.26c.12.51.72 1.25.58 1.41a4.23 4.23 0 01-1.87 1.19c-.27.08-.89-.52-1.11-.94a2.77 2.77 0 010-1.35 18.7 18.7 0 011.35-7.24zM41.22 126.94v2.4c0 .68-.13 1.08-.2 1.63-.49-.4-1.28-.72-1.4-1.2a14.46 14.46 0 01-.44-3.93 38.23 38.23 0 01.68-4.85 3.57 3.57 0 01.56-1c.27.37.75.73.77 1.11.07 1.83.03 3.66.03 5.84zM137.55 44.83c-1.58 1.29-1.83.05-1.87-.82-.11-2.3-.08-4.6 0-6.9a30.28 30.28 0 01.4-3.14c1.37.83.87 2.19 1 3.39.17 2.43.41 4.87.47 7.47zM45.21 178.14c-.33 1.49-.43 2.81-.68 4.1-.07.34-.61.59-.93.88a2.65 2.65 0 01-.28-.91c.13-2.32-.49-4.72.67-7 .17-.33.29-.68.44-1 .32.33.86.62.91 1a9.81 9.81 0 01-.13 2.93zM448.94 463.67c-.62-2.91 2-5 1.94-7.8 0-.09.45-.32.56-.25.29.17.76.59.71.69-1.15 2.38-.84 5.4-3.21 7.36zM571.66 41.54c-.17.92-.24 1.93-.54 2-1.12.28-.82-.7-.84-1.31a19.06 19.06 0 010-2.39 10.11 10.11 0 01.43-1.68 10.44 10.44 0 01.91 1.67 6.05 6.05 0 01.04 1.71zM236.32 458.81a1.87 1.87 0 01-.84-.49l-1.72-1.47c.47-.27 1.28-.85 1.35-.77.62.73 2.49.44 1.89 2.18-.06.2-.22.37-.68.55zM73.16 249.83a4.51 4.51 0 01-2.09.34 4.13 4.13 0 01.27-1.58c.25-.4.86-.57 1.31-.85a18.35 18.35 0 01.51 2.09zM276.06 18.1a13.17 13.17 0 012.77 1.75c.18.15.23.47.34.71-.32.05-.79.26-.94.12a11.79 11.79 0 01-2.17-2.58zM104.57 195.15c1.31-.36 2.2 0 2.58 1.13a.94.94 0 01-.42.75c-1.27.15-2.23-.22-2.16-1.88zM472.38 60.28a9.94 9.94 0 011.15-2c.31.42 1 1 .86 1.25-.32.84-.67 2.06-2.01.75zM258.71 266c.43.36 1.88.73.53 1.47-.54.31-1.37.09-2.08.11zM100.41 141c1-1.35 1.4-.29 1.84.18a1.89 1.89 0 01-.8 1c-.7.19-1.45.05-1.04-1.18zM318.24 325.5a2.18 2.18 0 01.8 1.15c.1.31.16.63.23.94-.3-.08-.69-.06-.89-.25-.52-.48-1.38-.95-.14-1.84zM102.14 346.16a2.73 2.73 0 011.07-.5 4.15 4.15 0 011 .11c-.19.33-.31.87-.57.94a7.61 7.61 0 01-1.86.1.38.38 0 010-.23 3.34 3.34 0 01.36-.42zM413.36 249.83c.62-.83 1.25-1.06 1.35 0 .05.44-.31.92-.49 1.37a4.93 4.93 0 01-.86-1.37zM413.88 243.06a9.4 9.4 0 01.16 2.53 7.13 7.13 0 01-.39 1.4 7.73 7.73 0 01-.27-1.56 7 7 0 01.5-2.37zM258.36 119.47c-.11.29-.41.54-.66.49a6 6 0 01-1.25-.56l.39-.8c.45.24.9.47 1.52.87zM377.26 400.49a10.39 10.39 0 01-.22 1.26 4.43 4.43 0 01-1.12-1c-.11-.17.24-.71.51-.95.1-.06.57.2.83.69zM492 465.93a5.61 5.61 0 011.74 0c-.37.4-.74.81-1.12 1.21a2.73 2.73 0 01-.62-1.21zM136.16 136.48l-.85.86-.31-1.08a2.23 2.23 0 011.16.22z"/></svg>